<?xml version="1.0" standalone="no"?>
<!DOCTYPE svg PUBLIC "-//W3C//DTD SVG 20010904//EN"
 "http://www.w3.org/TR/2001/REC-SVG-20010904/DTD/svg10.dtd">
<svg version="1.0" xmlns="http://www.w3.org/2000/svg"
 width="1152.000000pt" height="648.000000pt" viewBox="0 0 1152.000000 648.000000"
 preserveAspectRatio="xMidYMid meet">
<metadata>
Created by potrace 1.16, written by Peter Selinger 2001-2019
</metadata>
<g transform="translate(0.000000,648.000000) scale(0.100000,-0.100000)"
fill="#000000" stroke="none">
<path d="M845 5916 c-40 -17 -84 -63 -101 -103 -11 -25 -14 -105 -14 -355 0
-303 1 -324 20 -364 12 -24 39 -54 62 -70 l41 -29 366 0 366 0 36 24 c20 14
47 41 60 60 24 34 24 36 27 355 2 177 0 336 -3 354 -8 42 -59 100 -110 123
-36 17 -72 19 -380 18 -260 0 -347 -3 -370 -13z m735 -54 c19 -9 45 -33 58
-52 l23 -34 -3 -327 -3 -327 -25 -27 c-51 -55 -53 -55 -410 -55 -357 0 -359 0
-410 55 l-25 27 -3 326 c-2 313 -1 328 18 360 11 18 34 41 52 52 31 19 51 20
363 20 294 0 334 -2 365 -18z"/>
<path d="M1149 5773 c-34 -21 -85 -105 -100 -166 -27 -112 12 -261 87 -326 72
-63 154 -29 211 87 25 50 28 68 28 152 0 84 -3 102 -28 152 -52 105 -128 145
-198 101z m89 -16 c41 -44 56 -103 56 -232 1 -134 -16 -205 -59 -245 l-25 -23
-25 23 c-43 40 -60 111 -59 245 0 88 5 132 18 165 16 42 51 90 66 90 4 0 16
-10 28 -23z"/>
<path d="M3235 5886 c-40 -17 -84 -63 -101 -103 -11 -25 -14 -106 -14 -360 0
-308 1 -329 20 -369 12 -24 39 -54 62 -70 l41 -29 2001 0 2001 0 36 24 c20 14
47 41 60 60 24 34 24 36 27 360 2 179 0 341 -3 359 -8 42 -59 100 -110 123
-38 18 -126 19 -2015 18 -1615 0 -1980 -2 -2005 -13z m4005 -54 c19 -9 45 -33
58 -52 l23 -34 -3 -332 -3 -332 -25 -27 c-55 -59 92 -55 -2045 -55 -2137 0
-1990 -4 -2045 55 l-25 27 -3 331 c-2 318 -1 333 18 365 11 18 34 41 52 52 33
20 55 20 1998 20 1851 0 1967 -1 2000 -18z"/>
<path d="M3510 5470 l0 -320 68 1 c61 1 64 2 35 11 l-33 11 0 298 0 298 33 10
c28 8 24 9 -35 10 l-68 1 0 -320z"/>
<path d="M4108 5779 l32 -10 0 -298 0 -298 -32 -11 c-30 -9 -27 -10 35 -11
l67 -1 0 320 0 320 -67 -1 c-60 -1 -64 -2 -35 -10z"/>
<path d="M4800 5470 l0 -320 68 1 c61 1 64 2 35 11 l-33 11 0 298 0 298 33 10
c28 8 24 9 -35 10 l-68 1 0 -320z"/>
<path d="M5398 5779 l32 -10 0 -298 0 -298 -32 -11 c-30 -9 -27 -10 35 -11
l67 -1 0 320 0 320 -67 -1 c-60 -1 -64 -2 -35 -10z"/>
<path d="M6090 5470 l0 -320 68 1 c61 1 64 2 35 11 l-33 11 0 298 0 298 33 10
c28 8 24 9 -35 10 l-68 1 0 -320z"/>
<path d="M6688 5779 l32 -10 0 -298 0 -298 -32 -11 c-30 -9 -27 -10 35 -11
l67 -1 0 320 0 320 -67 -1 c-60 -1 -64 -2 -35 -10z"/>
<path d="M5089 5763 c-34 -21 -85 -105 -100 -166 -27 -112 12 -261 87 -326 72
-63 154 -29 211 87 25 50 28 68 28 152 0 84 -3 102 -28 152 -52 105 -128 145
-198 101z m89 -16 c41 -44 56 -103 56 -232 1 -134 -16 -205 -59 -245 l-25 -23
-25 23 c-43 40 -60 111 -59 245 0 88 5 132 18 165 16 42 51 90 66 90 4 0 16
-10 28 -23z"/>
<path d="M6379 5763 c-34 -21 -85 -105 -100 -166 -27 -112 12 -261 87 -326 72
-63 154 -29 211 87 25 50 28 68 28 152 0 84 -3 102 -28 152 -52 105 -128 145
-198 101z m89 -16 c41 -44 56 -103 56 -232 1 -134 -16 -205 -59 -245 l-25 -23
-25 23 c-43 40 -60 111 -59 245 0 88 5 132 18 165 16 42 51 90 66 90 4 0 16
-10 28 -23z"/>
<path d="M3825 5749 c-22 -10 -50 -19 -63 -19 -13 0 -20 -4 -17 -10 3 -5 22
-10 41 -10 l34 0 0 -201 c0 -124 -4 -208 -11 -220 -6 -12 -25 -27 -42 -34 -29
-13 -22 -14 93 -14 116 1 123 2 93 15 -18 7 -37 22 -43 33 -6 12 -10 109 -10
250 0 260 4 248 -75 210z"/>
<path d="M4361 5316 c-22 -26 -9 -60 26 -71 30 -10 31 -11 18 -41 -7 -17 -25
-41 -40 -52 -32 -26 -29 -36 9 -26 36 9 82 64 90 108 10 55 -10 90 -55 94 -23
2 -40 -2 -48 -12z"/>
<path d="M5651 5316 c-22 -26 -9 -60 26 -71 30 -10 31 -11 18 -41 -7 -17 -25
-41 -40 -52 -32 -26 -29 -36 9 -26 36 9 82 64 90 108 10 55 -10 90 -55 94 -23
2 -40 -2 -48 -12z"/>
<path d="M3255 4506 c-40 -17 -84 -63 -101 -103 -11 -25 -14 -109 -14 -380 0
-328 1 -349 20 -389 12 -24 39 -54 62 -70 l41 -29 2006 0 2006 0 36 24 c20 14
47 41 60 60 24 34 24 35 27 380 2 190 0 361 -3 379 -8 42 -59 100 -110 123
-38 18 -126 19 -2020 18 -1620 0 -1985 -2 -2010 -13z m4015 -54 c19 -9 45 -33
58 -52 l23 -34 -3 -352 -3 -352 -25 -27 c-55 -59 92 -55 -2050 -55 -2142 0
-1995 -4 -2050 55 l-25 27 -3 351 c-2 337 -2 353 18 385 11 18 34 41 52 52 33
20 55 20 2003 20 1856 0 1972 -1 2005 -18z"/>
<path d="M3530 4090 l0 -320 68 1 c61 1 64 2 35 11 l-33 11 0 298 0 298 33 10
c28 8 24 9 -35 10 l-68 1 0 -320z"/>
<path d="M4128 4399 l32 -10 0 -298 0 -298 -32 -11 c-30 -9 -27 -10 35 -11
l67 -1 0 320 0 320 -67 -1 c-60 -1 -64 -2 -35 -10z"/>
<path d="M4820 4090 l0 -320 68 1 c61 1 64 2 35 11 l-33 11 0 298 0 298 33 10
c28 8 24 9 -35 10 l-68 1 0 -320z"/>
<path d="M5418 4399 l32 -10 0 -298 0 -298 -32 -11 c-30 -9 -27 -10 35 -11
l67 -1 0 320 0 320 -67 -1 c-60 -1 -64 -2 -35 -10z"/>
<path d="M6110 4090 l0 -320 68 1 c61 1 64 2 35 11 l-33 11 0 298 0 298 33 10
c28 8 24 9 -35 10 l-68 1 0 -320z"/>
<path d="M6708 4399 l32 -10 0 -298 0 -298 -32 -11 c-30 -9 -27 -10 35 -11
l67 -1 0 320 0 320 -67 -1 c-60 -1 -64 -2 -35 -10z"/>
<path d="M3819 4383 c-34 -21 -85 -105 -100 -166 -17 -71 -7 -171 25 -239 75
-158 196 -158 273 0 25 50 28 68 28 152 0 84 -3 102 -28 152 -52 105 -128 145
-198 101z m89 -16 c41 -44 56 -103 56 -232 1 -134 -16 -205 -59 -245 l-25 -23
-25 23 c-43 40 -60 111 -59 245 0 88 5 132 18 165 16 42 51 90 66 90 4 0 16
-10 28 -23z"/>
<path d="M6399 4383 c-34 -21 -85 -105 -100 -166 -17 -71 -7 -171 25 -239 75
-158 196 -158 273 0 25 50 28 68 28 152 0 84 -3 102 -28 152 -52 105 -128 145
-198 101z m89 -16 c41 -44 56 -103 56 -232 1 -134 -16 -205 -59 -245 l-25 -23
-25 23 c-43 40 -60 111 -59 245 0 88 5 132 18 165 16 42 51 90 66 90 4 0 16
-10 28 -23z"/>
<path d="M5135 4369 c-22 -10 -50 -19 -63 -19 -13 0 -20 -4 -17 -10 3 -5 22
-10 41 -10 l34 0 0 -201 c0 -124 -4 -208 -11 -220 -6 -12 -25 -27 -42 -34 -29
-13 -22 -14 93 -14 116 1 123 2 93 15 -18 7 -37 22 -43 33 -6 12 -10 109 -10
250 0 260 4 248 -75 210z"/>
<path d="M4381 3936 c-22 -26 -9 -60 26 -71 30 -10 31 -11 18 -41 -7 -17 -25
-41 -40 -52 -32 -26 -29 -36 9 -26 36 9 82 64 90 108 10 55 -10 90 -55 94 -23
2 -40 -2 -48 -12z"/>
<path d="M5671 3936 c-22 -26 -9 -60 26 -71 30 -10 31 -11 18 -41 -7 -17 -25
-41 -40 -52 -32 -26 -29 -36 9 -26 36 9 82 64 90 108 10 55 -10 90 -55 94 -23
2 -40 -2 -48 -12z"/>
<path d="M855 4496 c-40 -17 -84 -63 -101 -103 -11 -25 -14 -108 -14 -375 0
-323 1 -344 20 -384 12 -24 39 -54 62 -70 l41 -29 361 0 361 0 36 24 c20 14
47 41 60 60 24 34 24 35 27 375 2 188 0 356 -3 374 -8 42 -59 100 -110 123
-36 17 -72 19 -375 18 -256 0 -342 -3 -365 -13z m725 -54 c19 -9 45 -33 58
-52 l23 -34 -3 -347 -3 -347 -25 -27 c-51 -55 -53 -55 -405 -55 -352 0 -354 0
-405 55 l-25 27 -3 346 c-2 332 -2 348 18 380 11 18 34 41 52 52 31 19 51 20
358 20 290 0 329 -2 360 -18z"/>
<path d="M1165 4329 c-22 -10 -50 -19 -63 -19 -13 0 -20 -4 -17 -10 3 -5 22
-10 41 -10 l34 0 0 -201 c0 -124 -4 -208 -11 -220 -6 -12 -25 -27 -42 -34 -29
-13 -22 -14 93 -14 116 1 123 2 93 15 -18 7 -37 22 -43 33 -6 12 -10 109 -10
250 0 260 4 248 -75 210z"/>
<path d="M895 3006 c-40 -17 -84 -63 -101 -103 -11 -25 -14 -112 -14 -395 0
-343 1 -364 20 -404 12 -24 39 -54 62 -70 l41 -29 356 0 356 0 36 24 c20 14
47 41 60 60 l24 35 3 360 c2 199 0 376 -3 394 -8 42 -59 100 -110 123 -36 17
-72 19 -370 18 -252 0 -337 -3 -360 -13z m715 -54 c19 -9 45 -33 58 -51 l23
-35 -3 -367 -3 -367 -25 -27 c-51 -55 -54 -55 -400 -55 -346 0 -349 0 -400 55
l-25 27 -3 366 c-2 352 -2 368 18 400 11 18 34 41 52 52 31 19 51 20 353 20
285 0 324 -2 355 -18z"/>
<path d="M1158 2838 c-38 -22 -68 -69 -68 -106 0 -68 46 -112 117 -112 l38 1
-30 16 c-44 23 -65 53 -65 96 0 51 22 91 59 106 38 16 64 8 96 -30 68 -82 5
-233 -173 -418 -34 -35 -62 -65 -62 -67 0 -2 71 -4 158 -4 l158 0 16 65 c8 36
11 65 6 65 -5 0 -24 -16 -42 -35 -33 -35 -34 -35 -117 -35 l-84 0 55 47 c151
128 208 216 196 300 -7 56 -39 101 -82 119 -51 21 -132 17 -176 -8z"/>
<path d="M3195 3006 c-40 -17 -84 -63 -101 -103 -11 -25 -14 -110 -14 -385 0
-333 1 -354 20 -394 12 -24 39 -54 62 -70 l41 -29 2061 0 2061 0 36 24 c20 14
47 41 60 60 l24 34 3 351 c2 193 0 366 -3 384 -8 42 -59 100 -110 123 -38 18
-128 19 -2075 18 -1665 0 -2040 -2 -2065 -13z m4125 -54 c19 -9 45 -33 58 -52
l23 -34 -3 -357 -3 -357 -25 -27 c-55 -59 97 -55 -2105 -55 -2202 0 -2050 -4
-2105 55 l-25 27 -3 356 c-2 342 -2 358 18 390 11 18 34 41 52 52 33 20 55 20
2058 20 1908 0 2027 -1 2060 -18z"/>
<path d="M3540 2530 l0 -320 68 1 c61 1 64 2 35 11 l-33 11 0 298 0 298 33 10
c28 8 24 9 -35 10 l-68 1 0 -320z"/>
<path d="M4138 2839 l32 -10 0 -298 0 -298 -32 -11 c-30 -9 -27 -10 35 -11
l67 -1 0 320 0 320 -67 -1 c-60 -1 -64 -2 -35 -10z"/>
<path d="M4830 2530 l0 -320 68 1 c61 1 64 2 35 11 l-33 11 0 298 0 298 33 10
c28 8 24 9 -35 10 l-68 1 0 -320z"/>
<path d="M5428 2839 l32 -10 0 -298 0 -298 -32 -11 c-30 -9 -27 -10 35 -11
l67 -1 0 320 0 320 -67 -1 c-60 -1 -64 -2 -35 -10z"/>
<path d="M6120 2530 l0 -320 68 1 c61 1 64 2 35 11 l-33 11 0 298 0 298 33 10
c28 8 24 9 -35 10 l-68 1 0 -320z"/>
<path d="M6718 2839 l32 -10 0 -298 0 -298 -32 -11 c-30 -9 -27 -10 35 -11
l67 -1 0 320 0 320 -67 -1 c-60 -1 -64 -2 -35 -10z"/>
<path d="M3829 2823 c-34 -21 -85 -105 -100 -166 -17 -71 -7 -171 25 -239 75
-158 196 -158 273 0 25 50 28 68 28 152 0 84 -3 102 -28 152 -52 105 -128 145
-198 101z m89 -16 c41 -44 56 -103 56 -232 1 -134 -16 -205 -59 -245 l-25 -23
-25 23 c-43 40 -60 111 -59 245 0 88 5 132 18 165 16 42 51 90 66 90 4 0 16
-10 28 -23z"/>
<path d="M5119 2823 c-34 -21 -85 -105 -100 -166 -17 -71 -7 -171 25 -239 75
-158 196 -158 273 0 25 50 28 68 28 152 0 84 -3 102 -28 152 -52 105 -128 145
-198 101z m89 -16 c41 -44 56 -103 56 -232 1 -134 -16 -205 -59 -245 l-25 -23
-25 23 c-43 40 -60 111 -59 245 0 88 5 132 18 165 16 42 51 90 66 90 4 0 16
-10 28 -23z"/>
<path d="M6435 2809 c-22 -10 -50 -19 -63 -19 -13 0 -20 -4 -17 -10 3 -5 22
-10 41 -10 l34 0 0 -201 c0 -124 -4 -208 -11 -220 -6 -12 -25 -27 -42 -34 -29
-13 -22 -14 93 -14 116 1 123 2 93 15 -18 7 -37 22 -43 33 -6 12 -10 109 -10
250 0 260 4 248 -75 210z"/>
<path d="M4391 2376 c-22 -26 -9 -60 26 -71 30 -10 31 -11 18 -41 -7 -17 -25
-41 -40 -52 -32 -26 -29 -36 9 -26 36 9 82 64 90 108 10 55 -10 90 -55 94 -23
2 -40 -2 -48 -12z"/>
<path d="M5681 2376 c-22 -26 -9 -60 26 -71 30 -10 31 -11 18 -41 -7 -17 -25
-41 -40 -52 -32 -26 -29 -36 9 -26 36 9 82 64 90 108 10 55 -10 90 -55 94 -23
2 -40 -2 -48 -12z"/>
</g>
</svg>
