<?xml version="1.0" standalone="no"?>
<!DOCTYPE svg PUBLIC "-//W3C//DTD SVG 20010904//EN"
 "http://www.w3.org/TR/2001/REC-SVG-20010904/DTD/svg10.dtd">
<svg version="1.0" xmlns="http://www.w3.org/2000/svg"
 width="216.000000pt" height="215.000000pt" viewBox="0 0 216.000000 215.000000"
 preserveAspectRatio="xMidYMid meet">
<metadata>
Created by potrace 1.16, written by Peter Selinger 2001-2019
</metadata>
<g transform="translate(0.000000,215.000000) scale(0.100000,-0.100000)"
fill="#000000" stroke="none">
<path d="M1427 1874 c-1 -1 -2 -44 -1 -96 l1 -93 97 -3 97 -3 -3 98 -3 98 -93
1 c-51 0 -93 -1 -95 -2z m173 -94 l0 -80 -79 0 -79 0 -1 71 c0 39 2 75 5 80 3
5 39 9 80 9 l74 0 0 -80z"/>
<path d="M552 1613 l3 -98 95 0 95 0 3 98 3 97 -101 0 -101 0 3 -97z m178 -3
l0 -80 -80 0 -80 0 0 80 0 80 80 0 80 0 0 -80z"/>
<path d="M990 1545 l0 -96 98 3 97 3 2 93 2 92 -99 0 -100 0 0 -95z m183 8
c-1 -38 -2 -71 -2 -75 -1 -5 -37 -8 -81 -8 l-80 0 0 75 0 75 83 0 82 0 -2 -67z"/>
<path d="M508 1353 l-68 -4 0 -64 0 -64 257 -213 c141 -117 260 -215 264 -218
5 -3 9 -75 9 -160 l1 -155 102 -102 c56 -57 107 -103 114 -103 10 0 13 56 13
258 l0 257 260 218 260 218 0 70 0 69 -572 -2 c-315 -1 -603 -3 -640 -5z
m1194 -67 c2 -42 0 -62 -7 -56 -15 13 -735 13 -735 0 0 -7 106 -10 323 -11
376 -1 377 -1 378 -12 0 -8 -39 -42 -196 -172 -27 -22 -70 -58 -95 -81 -109
-95 -189 -154 -209 -154 -11 0 -21 -5 -21 -11 0 -6 9 -9 20 -6 19 5 19 -2 22
-212 2 -120 1 -230 -2 -245 l-5 -27 -44 45 c-24 25 -48 43 -52 41 -3 -3 -12 2
-19 10 -7 8 -9 15 -4 15 4 0 -8 17 -28 38 l-37 37 -3 148 -3 147 48 0 c26 0
47 5 47 10 0 6 -24 10 -53 10 -46 0 -57 4 -82 30 -16 17 -35 28 -43 25 -7 -2
-10 -1 -7 5 6 10 -122 116 -136 113 -5 -2 -8 1 -6 6 3 11 -222 197 -235 193
-5 -1 -7 2 -3 8 3 5 2 10 -4 10 -6 0 -15 8 -20 17 -8 17 0 18 120 15 86 -2
129 0 129 7 0 7 -48 11 -140 11 l-140 0 0 50 0 50 613 3 c336 1 615 3 619 5 3
1 8 -27 10 -62z"/>
</g>
</svg>
