<svg id="Outline-Expanded" enable-background="new 0 0 64 64" height="512" viewBox="0 0 64 64" width="512" xmlns="http://www.w3.org/2000/svg"><path d="m9 10.586-1.293-1.293-1.414 1.414 2 2c.195.195.451.293.707.293s.512-.098.707-.293l5-5-1.414-1.414z"/><path d="m29 10.586-1.293-1.293-1.414 1.414 2 2c.195.195.451.293.707.293s.512-.098.707-.293l5-5-1.414-1.414z"/><path d="m49 10.586-1.293-1.293-1.414 1.414 2 2c.195.195.451.293.707.293s.512-.098.707-.293l5-5-1.414-1.414z"/><path d="m13 57c.256 0 .512-.098.707-.293l5-5-1.414-1.414-4.293 4.293-1.293-1.293-1.414 1.414 2 2c.195.195.451.293.707.293z"/><path d="m33 57c.256 0 .512-.098.707-.293l5-5-1.414-1.414-4.293 4.293-1.293-1.293-1.414 1.414 2 2c.195.195.451.293.707.293z"/><path d="m53 57c.256 0 .512-.098.707-.293l5-5-1.414-1.414-4.293 4.293-1.293-1.293-1.414 1.414 2 2c.195.195.451.293.707.293z"/><path d="m62 28v-14c0-2.433-1.749-4.461-4.055-4.904-.451-3.987-3.84-7.096-7.945-7.096-4.072 0-7.436 3.06-7.931 7h-4.139c-.494-3.94-3.858-7-7.93-7s-7.436 3.06-7.931 7h-4.139c-.494-3.94-3.858-7-7.93-7-4.411 0-8 3.589-8 8s3.589 8 8 8c4.072 0 7.436-3.06 7.931-7h4.139c.495 3.94 3.859 7 7.931 7s7.436-3.06 7.931-7h4.139c.495 3.94 3.859 7 7.931 7 4.018 0 7.344-2.981 7.907-6.845 1.207.387 2.091 1.509 2.091 2.845v14c0 1.654-1.346 3-3 3h-16.586l2.293-2.293-1.414-1.414-3.707 3.707h-5.172l2.293-2.293-1.414-1.414-3.707 3.707h-5.172l2.293-2.293-1.414-1.414-3.707 3.707h-14.586c-2.757 0-5 2.243-5 5v14c0 2.433 1.749 4.461 4.055 4.904.451 3.987 3.84 7.096 7.945 7.096 4.072 0 7.436-3.06 7.931-7h4.139c.495 3.94 3.859 7 7.931 7s7.436-3.06 7.931-7h4.139c.495 3.94 3.859 7 7.931 7 4.411 0 8-3.589 8-8s-3.589-8-8-8c-4.072 0-7.436 3.06-7.931 7h-4.139c-.495-3.94-3.859-7-7.931-7s-7.436 3.06-7.931 7h-4.139c-.495-3.94-3.859-7-7.931-7-4.018 0-7.344 2.981-7.907 6.845-1.209-.387-2.093-1.509-2.093-2.845v-14c0-1.654 1.346-3 3-3h14.586l3.707 3.707 1.414-1.414-2.293-2.293h5.172l3.707 3.707 1.414-1.414-2.293-2.293h5.172l3.707 3.707 1.414-1.414-2.293-2.293h16.586c2.757 0 5-2.243 5-5zm-52-12c-3.309 0-6-2.691-6-6s2.691-6 6-6 6 2.691 6 6-2.691 6-6 6zm20 0c-3.309 0-6-2.691-6-6s2.691-6 6-6 6 2.691 6 6-2.691 6-6 6zm20 0c-3.309 0-6-2.691-6-6s2.691-6 6-6 6 2.691 6 6-2.691 6-6 6zm4 32c3.309 0 6 2.691 6 6s-2.691 6-6 6-6-2.691-6-6 2.691-6 6-6zm-20 0c3.309 0 6 2.691 6 6s-2.691 6-6 6-6-2.691-6-6 2.691-6 6-6zm-20 0c3.309 0 6 2.691 6 6s-2.691 6-6 6-6-2.691-6-6 2.691-6 6-6z"/></svg>