<?xml version="1.0" standalone="no"?>
<!DOCTYPE svg PUBLIC "-//W3C//DTD SVG 20010904//EN"
 "http://www.w3.org/TR/2001/REC-SVG-20010904/DTD/svg10.dtd">
<svg version="1.0" xmlns="http://www.w3.org/2000/svg"
 width="144.000000pt" height="124.000000pt" viewBox="0 0 144.000000 124.000000"
 preserveAspectRatio="xMidYMid meet">

<g transform="translate(0.000000,124.000000) scale(0.100000,-0.100000)"
fill="#000000" stroke="none">
<path d="M35 1215 c-32 -31 -32 -69 0 -101 23 -23 25 -32 25 -124 0 -92 -2
-101 -25 -124 -33 -33 -33 -79 0 -112 23 -23 25 -32 25 -124 0 -92 -2 -101
-25 -124 -14 -14 -25 -37 -25 -51 0 -14 11 -37 25 -51 23 -23 25 -32 25 -124
0 -92 -2 -101 -25 -124 -14 -14 -25 -37 -25 -51 0 -36 42 -75 80 -75 38 0 80
39 80 75 0 14 -11 37 -25 51 -23 23 -25 32 -25 124 0 92 2 101 25 124 14 14
25 37 25 51 0 14 -11 37 -25 51 -23 23 -25 32 -25 124 0 92 2 101 25 124 16
16 25 36 25 56 0 20 -9 40 -25 56 -23 23 -25 32 -25 124 0 92 2 101 25 124 14
14 25 37 25 51 0 36 -42 75 -80 75 -19 0 -40 -9 -55 -25z"/>
<path d="M450 1186 c0 -45 0 -46 33 -46 54 0 135 -29 170 -60 l32 -28 -24 -26
c-30 -32 -113 -66 -119 -48 -2 7 -9 12 -16 12 -14 0 -76 -62 -76 -75 0 -6 19
-25 41 -44 39 -32 41 -32 46 -12 3 12 13 21 22 21 34 0 123 53 142 84 26 42
26 130 0 172 -26 42 -109 82 -188 90 l-63 7 0 -47z"/>
<path d="M1215 834 c-55 -63 -112 -129 -126 -146 l-26 -30 -52 46 c-29 26 -56
46 -60 44 -3 -2 -28 -27 -55 -56 -42 -45 -47 -55 -35 -65 28 -26 184 -161 200
-174 14 -12 37 10 193 186 97 110 176 203 176 208 0 7 -105 103 -112 103 -2 0
-48 -52 -103 -116z"/>
<path d="M450 776 c0 -45 0 -46 33 -46 54 0 135 -29 170 -60 l32 -28 -24 -26
c-30 -32 -113 -66 -119 -48 -2 7 -9 12 -16 12 -14 0 -76 -62 -76 -75 0 -6 19
-25 41 -44 39 -32 41 -32 46 -12 3 12 13 21 22 21 34 0 123 53 142 84 26 42
26 130 0 172 -26 42 -109 82 -188 90 l-63 7 0 -47z"/>
<path d="M450 366 c0 -45 1 -46 32 -46 48 0 141 -29 172 -53 37 -30 26 -53
-38 -83 -55 -26 -76 -30 -76 -14 0 20 -27 9 -58 -23 -18 -18 -32 -37 -32 -42
0 -6 19 -25 41 -44 39 -32 41 -32 46 -12 3 12 13 21 22 21 36 0 121 50 141 82
27 44 27 122 0 166 -26 42 -106 80 -188 88 l-62 7 0 -47z"/>
</g>
</svg>
