<?xml version="1.0" standalone="no"?>
<!DOCTYPE svg PUBLIC "-//W3C//DTD SVG 20010904//EN"
 "http://www.w3.org/TR/2001/REC-SVG-20010904/DTD/svg10.dtd">
<svg version="1.0" xmlns="http://www.w3.org/2000/svg"
 width="98.000000pt" height="62.000000pt" viewBox="0 0 98.000000 62.000000"
 preserveAspectRatio="xMidYMid meet">

<g transform="translate(0.000000,62.000000) scale(0.100000,-0.100000)"
fill="#000000" stroke="none">
<path d="M14 606 c-3 -7 -4 -33 -2 -57 l3 -44 300 0 300 0 0 55 0 55 -298 3
c-248 2 -298 0 -303 -12z"/>
<path d="M685 420 l-39 -40 39 -40 39 -40 -39 -40 -39 -40 42 -42 42 -42 40
39 40 39 40 -39 40 -39 42 42 42 42 -39 40 -39 40 39 40 39 40 -42 42 -42 42
-40 -39 -40 -39 -38 37 c-21 20 -40 37 -43 37 -3 0 -23 -18 -44 -40z"/>
<path d="M14 346 c-3 -8 -4 -31 -2 -52 l3 -39 300 0 300 0 0 50 0 50 -298 3
c-248 2 -298 0 -303 -12z"/>
<path d="M14 96 c-3 -8 -4 -31 -2 -52 l3 -39 300 0 300 0 0 50 0 50 -298 3
c-248 2 -298 0 -303 -12z"/>
</g>
</svg>
