<?xml version="1.0" standalone="no"?>
<!DOCTYPE svg PUBLIC "-//W3C//DTD SVG 20010904//EN"
 "http://www.w3.org/TR/2001/REC-SVG-20010904/DTD/svg10.dtd">
<svg version="1.0" xmlns="http://www.w3.org/2000/svg"
 width="910.000000pt" height="593.000000pt" viewBox="0 0 910.000000 593.000000"
 preserveAspectRatio="xMidYMid meet">
<metadata>
Created by potrace 1.16, written by Peter Selinger 2001-2019
</metadata>
<g transform="translate(0.000000,593.000000) scale(0.100000,-0.100000)"
fill="#000000" stroke="none">
<path d="M4305 5560 c-454 -50 -842 -190 -1210 -435 -156 -104 -262 -191 -400
-330 -412 -411 -661 -909 -752 -1502 -21 -139 -24 -555 -5 -693 85 -603 338
-1116 757 -1535 723 -723 1776 -962 2750 -625 255 88 581 270 791 440 116 95
265 241 360 355 116 138 233 312 240 356 8 50 -18 103 -61 123 -75 36 -121 10
-205 -113 -241 -359 -551 -629 -945 -822 -244 -119 -486 -192 -765 -230 -140
-19 -478 -17 -625 4 -623 91 -1167 400 -1552 883 -823 1036 -652 2547 383
3371 814 647 1961 696 2824 120 247 -165 490 -405 655 -649 24 -34 42 -64 40
-66 -1 -2 -129 33 -283 78 -155 44 -293 80 -308 80 -65 0 -120 -65 -111 -133
11 -80 15 -82 506 -222 328 -94 452 -125 476 -121 68 13 74 27 209 501 69 242
126 450 126 463 0 87 -107 141 -186 93 -39 -24 -38 -22 -130 -346 -42 -148
-77 -271 -79 -273 -1 -2 -26 32 -55 75 -91 134 -199 264 -329 393 -406 406
-914 659 -1493 746 -122 18 -507 27 -623 14z"/>
<path d="M4494 4711 c-17 -10 -36 -32 -42 -47 -9 -22 -12 -247 -10 -906 l3
-876 25 -27 c15 -17 272 -151 645 -337 568 -284 623 -310 659 -305 84 12 132
108 88 179 -18 29 -97 71 -601 323 l-581 290 0 818 c0 898 3 860 -60 892 -39
20 -89 19 -126 -4z"/>
</g>
</svg>
