<svg id="svg" version="1.1" xmlns="http://www.w3.org/2000/svg" xmlns:xlink="http://www.w3.org/1999/xlink" width="400" height="400" viewBox="0, 0, 400,400"><g id="svgg"><path id="path0" d="M175.200 48.200 L 175.200 49.200 170.200 49.200 L 165.200 49.200 165.200 50.200 L 165.200 51.200 161.200 51.200 L 157.200 51.200 157.200 52.200 C 157.200 53.173,157.123 53.200,154.358 53.200 C 151.802 53.200,151.436 53.301,150.729 54.200 C 150.048 55.066,149.624 55.200,147.571 55.200 C 145.309 55.200,145.200 55.246,145.200 56.200 C 145.200 57.178,145.133 57.200,142.200 57.200 C 139.267 57.200,139.200 57.222,139.200 58.200 C 139.200 59.133,139.067 59.200,137.200 59.200 C 135.333 59.200,135.200 59.267,135.200 60.200 C 135.200 61.133,135.067 61.200,133.200 61.200 C 131.333 61.200,131.200 61.267,131.200 62.200 C 131.200 63.133,131.067 63.200,129.200 63.200 C 127.333 63.200,127.200 63.267,127.200 64.200 C 127.200 65.133,127.067 65.200,125.200 65.200 C 123.346 65.200,123.200 65.271,123.200 66.177 C 123.200 67.040,123.002 67.168,121.500 67.277 C 120.187 67.372,119.710 67.605,119.405 68.300 C 119.163 68.852,118.660 69.200,118.105 69.200 C 117.406 69.200,117.200 69.428,117.200 70.200 C 117.200 71.133,117.067 71.200,115.200 71.200 C 113.333 71.200,113.200 71.267,113.200 72.200 C 113.200 73.000,113.000 73.200,112.200 73.200 C 111.400 73.200,111.200 73.400,111.200 74.200 C 111.200 75.072,111.025 75.200,109.829 75.200 C 108.527 75.200,107.200 76.022,107.200 76.829 C 107.200 77.033,106.750 77.200,106.200 77.200 C 105.400 77.200,105.200 77.400,105.200 78.200 C 105.200 79.000,105.000 79.200,104.200 79.200 C 103.400 79.200,103.200 79.400,103.200 80.200 C 103.200 81.000,103.000 81.200,102.200 81.200 C 101.400 81.200,101.200 81.400,101.200 82.200 C 101.200 83.005,101.001 83.200,100.182 83.200 C 99.622 83.200,98.727 83.637,98.193 84.171 C 97.659 84.705,96.812 85.200,96.311 85.271 C 95.722 85.354,95.355 85.718,95.272 86.300 C 95.180 86.951,94.876 87.200,94.172 87.200 C 93.402 87.200,93.200 87.408,93.200 88.200 C 93.200 89.000,93.000 89.200,92.200 89.200 C 91.400 89.200,91.200 89.400,91.200 90.200 C 91.200 91.000,91.000 91.200,90.200 91.200 C 89.400 91.200,89.200 91.400,89.200 92.200 C 89.200 93.000,89.000 93.200,88.200 93.200 C 87.408 93.200,87.200 93.402,87.200 94.172 C 87.200 94.876,86.951 95.180,86.300 95.272 C 85.722 95.354,85.354 95.722,85.272 96.300 C 85.202 96.795,84.990 97.200,84.801 97.200 C 84.020 97.200,83.200 98.546,83.200 99.829 C 83.200 101.025,83.072 101.200,82.200 101.200 C 81.400 101.200,81.200 101.400,81.200 102.200 C 81.200 103.000,81.000 103.200,80.200 103.200 C 79.400 103.200,79.200 103.400,79.200 104.200 C 79.200 105.000,79.000 105.200,78.200 105.200 C 77.428 105.200,77.200 105.406,77.200 106.105 C 77.200 106.660,76.852 107.163,76.300 107.405 C 75.605 107.710,75.372 108.187,75.277 109.500 C 75.168 111.002,75.040 111.200,74.177 111.200 C 73.402 111.200,73.200 111.406,73.200 112.200 C 73.200 113.000,73.000 113.200,72.200 113.200 C 71.267 113.200,71.200 113.333,71.200 115.200 C 71.200 117.067,71.133 117.200,70.200 117.200 C 69.428 117.200,69.200 117.406,69.200 118.105 C 69.200 118.660,68.852 119.163,68.300 119.405 C 67.605 119.710,67.372 120.187,67.277 121.500 C 67.168 123.002,67.040 123.200,66.177 123.200 C 65.271 123.200,65.200 123.346,65.200 125.200 C 65.200 127.067,65.133 127.200,64.200 127.200 C 63.267 127.200,63.200 127.333,63.200 129.200 C 63.200 131.067,63.133 131.200,62.200 131.200 C 61.267 131.200,61.200 131.333,61.200 133.200 C 61.200 135.067,61.133 135.200,60.200 135.200 C 59.267 135.200,59.200 135.333,59.200 137.200 C 59.200 139.067,59.133 139.200,58.200 139.200 C 57.222 139.200,57.200 139.267,57.200 142.200 C 57.200 145.133,57.178 145.200,56.200 145.200 C 55.267 145.200,55.200 145.333,55.200 147.200 C 55.200 148.300,55.033 149.200,54.829 149.200 C 53.670 149.200,53.200 150.537,53.200 153.829 C 53.200 157.158,53.188 157.200,52.200 157.200 C 51.223 157.200,51.200 157.268,51.200 160.182 C 51.200 162.829,51.088 163.276,50.200 164.164 C 49.267 165.097,49.200 165.430,49.200 169.164 C 49.200 172.897,49.133 173.230,48.200 174.164 L 47.200 175.164 47.200 198.000 L 47.200 220.836 48.182 221.818 C 49.116 222.752,49.400 222.800,53.982 222.800 L 58.800 222.800 58.800 221.800 C 58.800 221.000,59.000 220.800,59.800 220.800 C 60.600 220.800,60.800 220.600,60.800 219.800 C 60.800 219.000,61.000 218.800,61.800 218.800 C 62.600 218.800,62.800 218.600,62.800 217.800 C 62.800 217.000,63.000 216.800,63.800 216.800 C 64.600 216.800,64.800 216.600,64.800 215.800 C 64.800 215.000,65.000 214.800,65.800 214.800 C 66.600 214.800,66.800 214.600,66.800 213.800 C 66.800 213.000,67.000 212.800,67.800 212.800 C 68.600 212.800,68.800 212.600,68.800 211.800 C 68.800 211.000,69.000 210.800,69.800 210.800 C 70.600 210.800,70.800 210.600,70.800 209.800 C 70.800 209.000,71.000 208.800,71.800 208.800 L 72.800 208.800 72.800 203.895 C 72.800 199.192,72.837 198.973,73.700 198.595 C 74.593 198.203,74.601 198.127,74.707 188.527 C 74.814 178.860,74.815 178.854,75.707 178.727 C 76.568 178.605,76.604 178.426,76.712 173.700 L 76.825 168.800 77.812 168.800 C 78.774 168.800,78.800 168.722,78.800 165.828 C 78.800 163.050,78.859 162.847,79.700 162.728 C 80.526 162.611,80.610 162.361,80.718 159.700 C 80.830 156.919,80.875 156.800,81.818 156.800 C 82.750 156.800,82.800 156.680,82.800 154.429 C 82.800 152.376,82.934 151.952,83.800 151.271 C 84.608 150.636,84.800 150.131,84.800 148.642 C 84.800 146.944,84.878 146.800,85.800 146.800 C 86.733 146.800,86.800 146.667,86.800 144.800 C 86.800 142.933,86.867 142.800,87.800 142.800 C 88.733 142.800,88.800 142.667,88.800 140.800 C 88.800 138.933,88.867 138.800,89.800 138.800 C 90.572 138.800,90.800 138.594,90.800 137.895 C 90.800 137.340,91.148 136.837,91.700 136.595 C 92.395 136.290,92.628 135.813,92.723 134.500 C 92.832 132.998,92.960 132.800,93.823 132.800 C 94.594 132.800,94.800 132.593,94.800 131.818 C 94.800 131.278,95.250 130.386,95.800 129.836 C 96.350 129.286,96.800 128.378,96.800 127.818 C 96.800 126.999,96.995 126.800,97.800 126.800 C 98.600 126.800,98.800 126.600,98.800 125.800 C 98.800 125.000,99.000 124.800,99.800 124.800 C 100.733 124.800,100.800 124.667,100.800 122.800 C 100.800 120.933,100.867 120.800,101.800 120.800 C 102.600 120.800,102.800 120.600,102.800 119.800 C 102.800 119.000,103.000 118.800,103.800 118.800 C 104.600 118.800,104.800 118.600,104.800 117.800 C 104.800 117.000,105.000 116.800,105.800 116.800 C 106.600 116.800,106.800 116.600,106.800 115.800 C 106.800 115.000,107.000 114.800,107.800 114.800 C 108.600 114.800,108.800 114.600,108.800 113.800 C 108.800 113.000,109.000 112.800,109.800 112.800 C 110.600 112.800,110.800 112.600,110.800 111.800 C 110.800 111.000,111.000 110.800,111.800 110.800 C 112.600 110.800,112.800 110.600,112.800 109.800 C 112.800 109.000,113.000 108.800,113.800 108.800 C 114.600 108.800,114.800 108.600,114.800 107.800 C 114.800 107.000,115.000 106.800,115.800 106.800 C 116.600 106.800,116.800 106.600,116.800 105.800 C 116.800 105.000,117.000 104.800,117.800 104.800 C 118.600 104.800,118.800 104.600,118.800 103.800 C 118.800 103.050,119.011 102.800,119.642 102.800 C 120.106 102.800,120.839 102.350,121.271 101.800 C 121.837 101.081,122.443 100.800,123.429 100.800 C 124.625 100.800,124.800 100.672,124.800 99.800 C 124.800 99.000,125.000 98.800,125.800 98.800 C 126.600 98.800,126.800 98.600,126.800 97.800 C 126.800 96.995,126.999 96.800,127.818 96.800 C 128.378 96.800,129.286 96.350,129.836 95.800 C 130.386 95.250,131.278 94.800,131.818 94.800 C 132.593 94.800,132.800 94.594,132.800 93.822 C 132.800 92.939,132.985 92.832,134.700 92.722 C 136.321 92.618,136.619 92.468,136.728 91.700 C 136.820 91.049,137.124 90.800,137.828 90.800 C 138.598 90.800,138.800 90.592,138.800 89.800 C 138.800 88.867,138.933 88.800,140.800 88.800 C 142.667 88.800,142.800 88.733,142.800 87.800 C 142.800 86.867,142.933 86.800,144.800 86.800 C 146.667 86.800,146.800 86.733,146.800 85.800 C 146.800 84.854,146.919 84.800,149.019 84.800 C 150.872 84.800,151.391 84.635,152.165 83.800 C 152.897 83.010,153.482 82.800,154.946 82.800 C 156.657 82.800,156.800 82.723,156.800 81.800 C 156.800 80.822,156.867 80.800,159.800 80.800 C 162.733 80.800,162.800 80.778,162.800 79.800 C 162.800 78.827,162.877 78.800,165.642 78.800 C 168.198 78.800,168.564 78.699,169.271 77.800 C 170.025 76.842,170.243 76.800,174.429 76.800 L 178.800 76.800 178.800 75.800 L 178.800 74.800 200.000 74.800 L 221.200 74.800 221.200 75.800 L 221.200 76.800 225.571 76.800 C 229.757 76.800,229.975 76.842,230.729 77.800 C 231.436 78.699,231.802 78.800,234.358 78.800 C 237.123 78.800,237.200 78.827,237.200 79.800 C 237.200 80.778,237.267 80.800,240.200 80.800 C 243.133 80.800,243.200 80.822,243.200 81.800 C 243.200 82.731,243.335 82.800,245.172 82.800 C 246.913 82.800,247.159 82.906,247.272 83.700 C 247.389 84.526,247.639 84.610,250.300 84.718 C 253.081 84.830,253.200 84.875,253.200 85.818 C 253.200 86.670,253.382 86.800,254.571 86.800 C 255.557 86.800,256.163 87.081,256.729 87.800 C 257.161 88.350,257.886 88.800,258.339 88.800 C 258.793 88.800,259.614 89.250,260.164 89.800 C 260.714 90.350,261.622 90.800,262.182 90.800 C 263.001 90.800,263.200 90.995,263.200 91.800 C 263.200 92.733,263.333 92.800,265.200 92.800 C 267.067 92.800,267.200 92.867,267.200 93.800 C 267.200 94.592,267.402 94.800,268.172 94.800 C 268.876 94.800,269.180 95.049,269.272 95.700 C 269.381 96.468,269.679 96.618,271.300 96.722 C 273.015 96.832,273.200 96.939,273.200 97.822 C 273.200 98.599,273.406 98.800,274.200 98.800 C 275.000 98.800,275.200 99.000,275.200 99.800 C 275.200 100.592,275.402 100.800,276.172 100.800 C 276.876 100.800,277.180 101.049,277.272 101.700 C 277.381 102.468,277.679 102.618,279.300 102.722 C 281.015 102.832,281.200 102.939,281.200 103.822 C 281.200 104.599,281.406 104.800,282.200 104.800 C 283.000 104.800,283.200 105.000,283.200 105.800 C 283.200 106.600,283.400 106.800,284.200 106.800 C 285.000 106.800,285.200 107.000,285.200 107.800 C 285.200 108.600,285.400 108.800,286.200 108.800 C 287.000 108.800,287.200 109.000,287.200 109.800 C 287.200 110.600,287.400 110.800,288.200 110.800 C 289.000 110.800,289.200 111.000,289.200 111.800 C 289.200 112.600,289.400 112.800,290.200 112.800 C 291.000 112.800,291.200 113.000,291.200 113.800 C 291.200 114.600,291.400 114.800,292.200 114.800 C 293.000 114.800,293.200 115.000,293.200 115.800 C 293.200 116.600,293.400 116.800,294.200 116.800 C 295.000 116.800,295.200 117.000,295.200 117.800 C 295.200 118.594,295.401 118.800,296.178 118.800 C 297.061 118.800,297.168 118.985,297.278 120.700 C 297.382 122.321,297.532 122.619,298.300 122.728 C 298.951 122.820,299.200 123.124,299.200 123.828 C 299.200 124.598,299.408 124.800,300.200 124.800 C 301.000 124.800,301.200 125.000,301.200 125.800 C 301.200 126.594,301.401 126.800,302.178 126.800 C 303.061 126.800,303.168 126.985,303.278 128.700 C 303.382 130.321,303.532 130.619,304.300 130.728 C 304.951 130.820,305.200 131.124,305.200 131.828 C 305.200 132.598,305.408 132.800,306.200 132.800 C 307.133 132.800,307.200 132.933,307.200 134.800 C 307.200 136.667,307.267 136.800,308.200 136.800 C 309.072 136.800,309.200 136.975,309.200 138.171 C 309.200 139.473,310.022 140.800,310.829 140.800 C 311.033 140.800,311.200 141.258,311.200 141.818 C 311.200 142.378,311.650 143.286,312.200 143.836 C 312.750 144.386,313.200 145.278,313.200 145.818 C 313.200 146.599,313.405 146.800,314.200 146.800 C 315.178 146.800,315.200 146.867,315.200 149.800 C 315.200 152.733,315.222 152.800,316.200 152.800 C 317.133 152.800,317.200 152.933,317.200 154.800 C 317.200 156.667,317.267 156.800,318.200 156.800 C 319.178 156.800,319.200 156.867,319.200 159.800 C 319.200 162.733,319.222 162.800,320.200 162.800 C 321.184 162.800,321.200 162.852,321.200 166.019 C 321.200 168.939,321.293 169.324,322.200 170.165 C 323.133 171.030,323.200 171.349,323.200 174.946 C 323.200 178.790,323.203 178.800,324.200 178.800 L 325.200 178.800 325.200 200.000 L 325.200 221.200 324.200 221.200 C 323.203 221.200,323.200 221.210,323.200 225.054 C 323.200 228.651,323.133 228.970,322.200 229.835 C 321.293 230.676,321.200 231.061,321.200 233.981 C 321.200 237.148,321.184 237.200,320.200 237.200 C 319.222 237.200,319.200 237.267,319.200 240.200 C 319.200 243.133,319.178 243.200,318.200 243.200 C 317.273 243.200,317.200 243.340,317.200 245.105 C 317.200 246.697,317.052 247.075,316.300 247.405 C 315.514 247.750,315.385 248.143,315.282 250.500 C 315.169 253.068,315.115 253.200,314.182 253.200 C 313.270 253.200,313.200 253.343,313.200 255.200 C 313.200 257.067,313.133 257.200,312.200 257.200 C 311.328 257.200,311.200 257.375,311.200 258.571 C 311.200 259.557,310.919 260.163,310.200 260.729 C 309.650 261.161,309.200 261.894,309.200 262.358 C 309.200 262.989,308.950 263.200,308.200 263.200 C 307.267 263.200,307.200 263.333,307.200 265.200 C 307.200 267.067,307.133 267.200,306.200 267.200 C 305.428 267.200,305.200 267.406,305.200 268.105 C 305.200 268.660,304.852 269.163,304.300 269.405 C 303.605 269.710,303.372 270.187,303.277 271.500 C 303.168 273.002,303.040 273.200,302.177 273.200 C 301.402 273.200,301.200 273.406,301.200 274.200 C 301.200 275.000,301.000 275.200,300.200 275.200 C 299.446 275.200,299.200 275.410,299.200 276.054 C 299.200 276.524,298.750 277.325,298.200 277.835 C 297.555 278.433,297.200 279.194,297.200 279.981 C 297.200 281.015,297.048 281.200,296.200 281.200 C 295.400 281.200,295.200 281.400,295.200 282.200 C 295.200 283.000,295.000 283.200,294.200 283.200 C 293.400 283.200,293.200 283.400,293.200 284.200 C 293.200 285.000,293.000 285.200,292.200 285.200 C 291.400 285.200,291.200 285.400,291.200 286.200 C 291.200 287.000,291.000 287.200,290.200 287.200 C 289.400 287.200,289.200 287.400,289.200 288.200 C 289.200 289.000,289.000 289.200,288.200 289.200 C 287.400 289.200,287.200 289.400,287.200 290.200 C 287.200 291.000,287.000 291.200,286.200 291.200 C 285.400 291.200,285.200 291.400,285.200 292.200 C 285.200 293.000,285.000 293.200,284.200 293.200 C 283.400 293.200,283.200 293.400,283.200 294.200 C 283.200 295.000,283.000 295.200,282.200 295.200 C 281.400 295.200,281.200 295.400,281.200 296.200 C 281.200 297.005,281.001 297.200,280.182 297.200 C 279.622 297.200,278.714 297.650,278.164 298.200 C 277.614 298.750,276.722 299.200,276.182 299.200 C 275.401 299.200,275.200 299.405,275.200 300.200 C 275.200 301.000,275.000 301.200,274.200 301.200 C 273.400 301.200,273.200 301.400,273.200 302.200 C 273.200 303.072,273.025 303.200,271.829 303.200 C 270.527 303.200,269.200 304.022,269.200 304.829 C 269.200 305.033,268.750 305.200,268.200 305.200 C 267.406 305.200,267.200 305.401,267.200 306.178 C 267.200 307.061,267.015 307.168,265.300 307.278 C 263.679 307.382,263.381 307.532,263.272 308.300 C 263.180 308.951,262.876 309.200,262.172 309.200 C 261.402 309.200,261.200 309.408,261.200 310.200 C 261.200 311.133,261.067 311.200,259.200 311.200 C 257.333 311.200,257.200 311.267,257.200 312.200 C 257.200 313.133,257.067 313.200,255.200 313.200 C 253.333 313.200,253.200 313.267,253.200 314.200 C 253.200 315.154,253.091 315.200,250.829 315.200 C 248.551 315.200,247.200 315.806,247.200 316.829 C 247.200 317.033,246.300 317.200,245.200 317.200 C 243.333 317.200,243.200 317.267,243.200 318.200 C 243.200 319.178,243.133 319.200,240.200 319.200 C 237.267 319.200,237.200 319.222,237.200 320.200 C 237.200 321.173,237.123 321.200,234.358 321.200 C 231.802 321.200,231.436 321.301,230.729 322.200 C 229.975 323.158,229.757 323.200,225.571 323.200 L 221.200 323.200 221.200 324.200 L 221.200 325.200 200.000 325.200 L 178.800 325.200 178.800 324.200 C 178.800 323.200,178.799 323.200,174.818 323.200 C 171.104 323.200,170.769 323.133,169.836 322.200 C 168.946 321.310,168.504 321.200,165.818 321.200 C 162.865 321.200,162.800 321.178,162.800 320.200 C 162.800 319.222,162.733 319.200,159.800 319.200 C 156.867 319.200,156.800 319.178,156.800 318.200 C 156.800 317.273,156.660 317.200,154.895 317.200 C 153.303 317.200,152.925 317.052,152.595 316.300 C 152.250 315.514,151.857 315.385,149.500 315.282 C 146.932 315.169,146.800 315.115,146.800 314.182 C 146.800 313.270,146.657 313.200,144.800 313.200 C 142.933 313.200,142.800 313.133,142.800 312.200 C 142.800 311.328,142.625 311.200,141.429 311.200 C 140.443 311.200,139.837 310.919,139.271 310.200 C 138.839 309.650,138.106 309.200,137.642 309.200 C 137.011 309.200,136.800 308.950,136.800 308.200 C 136.800 307.267,136.667 307.200,134.800 307.200 C 132.933 307.200,132.800 307.133,132.800 306.200 C 132.800 305.408,132.598 305.200,131.828 305.200 C 131.124 305.200,130.820 304.951,130.728 304.300 C 130.619 303.532,130.321 303.382,128.700 303.278 C 126.985 303.168,126.800 303.061,126.800 302.178 C 126.800 301.401,126.594 301.200,125.800 301.200 C 125.000 301.200,124.800 301.000,124.800 300.200 C 124.800 299.428,124.594 299.200,123.895 299.200 C 123.340 299.200,122.837 298.852,122.595 298.300 C 122.290 297.605,121.813 297.372,120.500 297.277 C 118.998 297.168,118.800 297.040,118.800 296.177 C 118.800 295.402,118.594 295.200,117.800 295.200 C 117.000 295.200,116.800 295.000,116.800 294.200 C 116.800 293.400,116.600 293.200,115.800 293.200 C 115.000 293.200,114.800 293.000,114.800 292.200 C 114.800 291.400,114.600 291.200,113.800 291.200 C 113.000 291.200,112.800 291.000,112.800 290.200 C 112.800 289.400,112.600 289.200,111.800 289.200 C 111.000 289.200,110.800 289.000,110.800 288.200 C 110.800 287.400,110.600 287.200,109.800 287.200 C 109.000 287.200,108.800 287.000,108.800 286.200 C 108.800 285.400,108.600 285.200,107.800 285.200 C 107.000 285.200,106.800 285.000,106.800 284.200 C 106.800 283.400,106.600 283.200,105.800 283.200 C 105.000 283.200,104.800 283.000,104.800 282.200 C 104.800 281.406,104.599 281.200,103.822 281.200 C 102.939 281.200,102.832 281.015,102.722 279.300 C 102.618 277.679,102.468 277.381,101.700 277.272 C 101.049 277.180,100.800 276.876,100.800 276.172 C 100.800 275.402,100.592 275.200,99.800 275.200 C 99.000 275.200,98.800 275.000,98.800 274.200 C 98.800 273.400,98.600 273.200,97.800 273.200 C 96.867 273.200,96.800 273.067,96.800 271.200 C 96.800 269.333,96.733 269.200,95.800 269.200 C 95.000 269.200,94.800 269.000,94.800 268.200 C 94.800 267.400,94.600 267.200,93.800 267.200 C 92.867 267.200,92.800 267.067,92.800 265.200 C 92.800 263.345,92.729 263.200,91.822 263.200 C 90.940 263.200,90.832 263.014,90.722 261.316 C 90.617 259.695,90.460 259.394,89.600 259.156 L 88.600 258.880 89.700 258.840 C 90.596 258.807,90.800 258.615,90.800 257.800 C 90.800 257.000,91.000 256.800,91.800 256.800 C 92.600 256.800,92.800 256.600,92.800 255.800 C 92.800 255.000,93.000 254.800,93.800 254.800 C 94.600 254.800,94.800 254.600,94.800 253.800 C 94.800 253.000,95.000 252.800,95.800 252.800 C 96.600 252.800,96.800 252.600,96.800 251.800 C 96.800 251.000,97.000 250.800,97.800 250.800 C 98.600 250.800,98.800 250.600,98.800 249.800 C 98.800 249.000,99.000 248.800,99.800 248.800 C 100.600 248.800,100.800 248.600,100.800 247.800 C 100.800 247.000,101.000 246.800,101.800 246.800 C 102.600 246.800,102.800 246.600,102.800 245.800 C 102.800 245.000,103.000 244.800,103.800 244.800 C 104.600 244.800,104.800 244.600,104.800 243.800 C 104.800 243.000,105.000 242.800,105.800 242.800 C 106.600 242.800,106.800 242.600,106.800 241.800 C 106.800 241.000,107.000 240.800,107.800 240.800 C 108.600 240.800,108.800 240.600,108.800 239.800 C 108.800 239.000,109.000 238.800,109.800 238.800 C 110.600 238.800,110.800 238.600,110.800 237.800 C 110.800 237.000,111.000 236.800,111.800 236.800 C 112.600 236.800,112.800 236.600,112.800 235.800 C 112.800 235.000,113.000 234.800,113.800 234.800 C 114.600 234.800,114.800 234.600,114.800 233.800 C 114.800 233.000,115.000 232.800,115.800 232.800 C 116.600 232.800,116.800 232.600,116.800 231.800 C 116.800 231.000,117.000 230.800,117.800 230.800 C 118.600 230.800,118.800 230.600,118.800 229.800 C 118.800 229.000,119.000 228.800,119.800 228.800 C 120.600 228.800,120.800 228.600,120.800 227.800 C 120.800 227.000,121.000 226.800,121.800 226.800 C 122.600 226.800,122.800 226.600,122.800 225.800 C 122.800 225.000,123.000 224.800,123.800 224.800 C 124.600 224.800,124.800 224.600,124.800 223.800 C 124.800 223.000,125.000 222.800,125.800 222.800 C 126.600 222.800,126.800 222.600,126.800 221.800 C 126.800 221.000,127.000 220.800,127.800 220.800 C 128.600 220.800,128.800 220.600,128.800 219.800 C 128.800 219.000,129.000 218.800,129.800 218.800 C 130.600 218.800,130.800 218.600,130.800 217.800 C 130.800 217.000,131.000 216.800,131.800 216.800 C 132.600 216.800,132.800 216.600,132.800 215.800 C 132.800 215.000,133.000 214.800,133.800 214.800 C 134.618 214.800,134.805 214.600,134.825 213.700 C 134.850 212.611,134.855 212.610,135.226 213.538 C 135.433 214.053,135.945 214.565,136.364 214.675 C 136.783 214.784,137.219 215.231,137.333 215.667 C 137.447 216.103,137.897 216.553,138.333 216.667 C 138.769 216.781,139.219 217.231,139.333 217.667 C 139.447 218.103,139.897 218.553,140.333 218.667 C 140.769 218.781,141.219 219.231,141.333 219.667 C 141.447 220.103,141.897 220.553,142.333 220.667 C 142.769 220.781,143.219 221.231,143.333 221.667 C 143.447 222.103,143.897 222.553,144.333 222.667 C 144.769 222.781,145.219 223.231,145.333 223.667 C 145.447 224.103,145.897 224.553,146.333 224.667 C 146.769 224.781,147.219 225.231,147.333 225.667 C 147.447 226.103,147.897 226.553,148.333 226.667 C 148.769 226.781,149.219 227.231,149.333 227.667 C 149.447 228.103,149.897 228.553,150.333 228.667 C 150.769 228.781,151.219 229.231,151.333 229.667 C 151.447 230.103,151.897 230.553,152.333 230.667 C 152.769 230.781,153.219 231.231,153.333 231.667 C 153.447 232.103,153.897 232.553,154.333 232.667 C 154.769 232.781,155.219 233.231,155.333 233.667 C 155.447 234.103,155.908 234.555,156.357 234.673 C 156.806 234.790,157.279 235.218,157.407 235.623 C 157.536 236.028,157.983 236.467,158.400 236.600 C 158.817 236.733,159.267 237.183,159.400 237.600 C 159.533 238.017,159.983 238.467,160.400 238.600 C 160.817 238.733,161.267 239.183,161.400 239.600 C 161.533 240.017,161.983 240.467,162.400 240.600 C 162.817 240.733,163.267 241.183,163.400 241.600 C 163.533 242.017,163.983 242.467,164.400 242.600 C 164.817 242.733,165.267 243.183,165.400 243.600 C 165.533 244.017,165.983 244.467,166.400 244.600 C 166.817 244.733,167.267 245.183,167.400 245.600 C 167.533 246.017,167.983 246.467,168.400 246.600 C 168.817 246.733,169.267 247.183,169.400 247.600 C 169.533 248.017,169.983 248.467,170.400 248.600 C 170.817 248.733,171.267 249.183,171.400 249.600 C 171.533 250.017,171.983 250.467,172.400 250.600 C 172.817 250.733,173.267 251.183,173.400 251.600 C 173.533 252.017,173.983 252.467,174.400 252.600 C 174.817 252.733,175.267 253.183,175.400 253.600 C 175.533 254.017,175.983 254.467,176.400 254.600 C 176.817 254.733,177.267 255.183,177.400 255.600 C 177.533 256.017,177.983 256.467,178.400 256.600 C 178.817 256.733,179.267 257.183,179.400 257.600 C 179.533 258.017,179.983 258.467,180.400 258.600 C 180.817 258.733,181.267 259.183,181.400 259.600 C 181.533 260.017,181.983 260.467,182.400 260.600 C 182.817 260.733,183.267 261.183,183.400 261.600 C 183.533 262.017,183.992 262.470,184.420 262.606 C 184.849 262.743,185.200 263.009,185.200 263.198 C 185.200 264.404,186.541 264.800,190.629 264.800 L 194.800 264.800 194.800 263.800 C 194.800 263.000,195.000 262.800,195.800 262.800 C 196.600 262.800,196.800 262.600,196.800 261.800 C 196.800 261.000,197.000 260.800,197.800 260.800 C 198.600 260.800,198.800 260.600,198.800 259.800 C 198.800 259.000,199.000 258.800,199.800 258.800 C 200.600 258.800,200.800 258.600,200.800 257.800 C 200.800 257.000,201.000 256.800,201.800 256.800 C 202.600 256.800,202.800 256.600,202.800 255.800 C 202.800 255.000,203.000 254.800,203.800 254.800 C 204.600 254.800,204.800 254.600,204.800 253.800 C 204.800 253.000,205.000 252.800,205.800 252.800 C 206.600 252.800,206.800 252.600,206.800 251.800 C 206.800 251.000,207.000 250.800,207.800 250.800 C 208.600 250.800,208.800 250.600,208.800 249.800 C 208.800 249.000,209.000 248.800,209.800 248.800 C 210.600 248.800,210.800 248.600,210.800 247.800 C 210.800 247.000,211.000 246.800,211.800 246.800 C 212.600 246.800,212.800 246.600,212.800 245.800 C 212.800 245.000,213.000 244.800,213.800 244.800 C 214.600 244.800,214.800 244.600,214.800 243.800 C 214.800 243.000,215.000 242.800,215.800 242.800 C 216.600 242.800,216.800 242.600,216.800 241.800 C 216.800 241.000,217.000 240.800,217.800 240.800 C 218.600 240.800,218.800 240.600,218.800 239.800 C 218.800 239.000,219.000 238.800,219.800 238.800 C 220.600 238.800,220.800 238.600,220.800 237.800 C 220.800 237.000,221.000 236.800,221.800 236.800 C 222.600 236.800,222.800 236.600,222.800 235.800 C 222.800 235.000,223.000 234.800,223.800 234.800 C 224.600 234.800,224.800 234.600,224.800 233.800 C 224.800 233.000,225.000 232.800,225.800 232.800 C 226.600 232.800,226.800 232.600,226.800 231.800 C 226.800 231.000,227.000 230.800,227.800 230.800 C 228.600 230.800,228.800 230.600,228.800 229.800 C 228.800 229.000,229.000 228.800,229.800 228.800 C 230.600 228.800,230.800 228.600,230.800 227.800 C 230.800 227.000,231.000 226.800,231.800 226.800 C 232.600 226.800,232.800 226.600,232.800 225.800 C 232.800 225.000,233.000 224.800,233.800 224.800 C 234.600 224.800,234.800 224.600,234.800 223.800 C 234.800 223.000,235.000 222.800,235.800 222.800 C 236.600 222.800,236.800 222.600,236.800 221.800 C 236.800 221.000,237.000 220.800,237.800 220.800 C 238.600 220.800,238.800 220.600,238.800 219.800 C 238.800 219.000,239.000 218.800,239.800 218.800 C 240.600 218.800,240.800 218.600,240.800 217.800 C 240.800 217.000,241.000 216.800,241.800 216.800 C 242.600 216.800,242.800 216.600,242.800 215.800 C 242.800 215.000,243.000 214.800,243.800 214.800 C 244.600 214.800,244.800 214.600,244.800 213.800 C 244.800 213.000,245.000 212.800,245.800 212.800 C 246.600 212.800,246.800 212.600,246.800 211.800 C 246.800 211.000,247.000 210.800,247.800 210.800 C 248.600 210.800,248.800 210.600,248.800 209.800 C 248.800 209.000,249.000 208.800,249.800 208.800 C 250.600 208.800,250.800 208.600,250.800 207.800 C 250.800 207.000,251.000 206.800,251.800 206.800 C 252.600 206.800,252.800 206.600,252.800 205.800 C 252.800 204.956,252.987 204.800,254.000 204.800 C 255.013 204.800,255.200 204.644,255.200 203.800 C 255.200 203.000,255.400 202.800,256.200 202.800 C 257.000 202.800,257.200 202.600,257.200 201.800 C 257.200 201.000,257.400 200.800,258.200 200.800 C 259.000 200.800,259.200 200.600,259.200 199.800 C 259.200 199.000,259.400 198.800,260.200 198.800 C 261.000 198.800,261.200 198.600,261.200 197.800 C 261.200 197.000,261.400 196.800,262.200 196.800 C 263.000 196.800,263.200 196.600,263.200 195.800 C 263.200 195.000,263.400 194.800,264.200 194.800 C 265.000 194.800,265.200 194.600,265.200 193.800 C 265.200 193.000,265.400 192.800,266.200 192.800 L 267.200 192.800 267.200 203.805 L 267.200 214.811 280.688 214.705 L 294.177 214.600 294.684 213.600 C 295.083 212.812,295.171 205.683,295.095 180.000 L 295.000 147.400 294.100 147.272 C 293.449 147.180,293.200 146.876,293.200 146.172 L 293.200 145.200 259.431 145.200 L 225.662 145.200 224.431 146.431 L 223.200 147.662 223.200 159.231 L 223.200 170.800 224.105 170.800 C 224.660 170.800,225.163 171.148,225.405 171.700 C 225.797 172.594,225.877 172.601,236.600 172.810 C 242.540 172.925,246.905 173.060,246.300 173.110 C 245.417 173.182,245.200 173.398,245.200 174.200 C 245.200 175.000,245.000 175.200,244.200 175.200 C 243.400 175.200,243.200 175.400,243.200 176.200 C 243.200 177.000,243.000 177.200,242.200 177.200 C 241.400 177.200,241.200 177.400,241.200 178.200 C 241.200 179.000,241.000 179.200,240.200 179.200 C 239.400 179.200,239.200 179.400,239.200 180.200 C 239.200 181.000,239.000 181.200,238.200 181.200 C 237.400 181.200,237.200 181.400,237.200 182.200 C 237.200 183.000,237.000 183.200,236.200 183.200 C 235.400 183.200,235.200 183.400,235.200 184.200 C 235.200 185.000,235.000 185.200,234.200 185.200 C 233.400 185.200,233.200 185.400,233.200 186.200 C 233.200 187.000,233.000 187.200,232.200 187.200 C 231.400 187.200,231.200 187.400,231.200 188.200 C 231.200 189.000,231.000 189.200,230.200 189.200 C 229.400 189.200,229.200 189.400,229.200 190.200 C 229.200 191.000,229.000 191.200,228.200 191.200 C 227.400 191.200,227.200 191.400,227.200 192.200 C 227.200 193.000,227.000 193.200,226.200 193.200 C 225.400 193.200,225.200 193.400,225.200 194.200 C 225.200 195.000,225.000 195.200,224.200 195.200 C 223.400 195.200,223.200 195.400,223.200 196.200 C 223.200 197.000,223.000 197.200,222.200 197.200 C 221.400 197.200,221.200 197.400,221.200 198.200 C 221.200 199.000,221.000 199.200,220.200 199.200 C 219.400 199.200,219.200 199.400,219.200 200.200 C 219.200 201.000,219.000 201.200,218.200 201.200 C 217.400 201.200,217.200 201.400,217.200 202.200 C 217.200 203.000,217.000 203.200,216.200 203.200 C 215.400 203.200,215.200 203.400,215.200 204.200 C 215.200 205.000,215.000 205.200,214.200 205.200 C 213.400 205.200,213.200 205.400,213.200 206.200 C 213.200 207.000,213.000 207.200,212.200 207.200 C 211.400 207.200,211.200 207.400,211.200 208.200 C 211.200 209.000,211.000 209.200,210.200 209.200 C 209.400 209.200,209.200 209.400,209.200 210.200 C 209.200 211.000,209.000 211.200,208.200 211.200 C 207.400 211.200,207.200 211.400,207.200 212.200 C 207.200 213.000,207.000 213.200,206.200 213.200 C 205.400 213.200,205.200 213.400,205.200 214.200 C 205.200 215.000,205.000 215.200,204.200 215.200 C 203.400 215.200,203.200 215.400,203.200 216.200 C 203.200 217.000,203.000 217.200,202.200 217.200 C 201.400 217.200,201.200 217.400,201.200 218.200 C 201.200 219.000,201.000 219.200,200.200 219.200 C 199.400 219.200,199.200 219.400,199.200 220.200 C 199.200 221.000,199.000 221.200,198.200 221.200 C 197.400 221.200,197.200 221.400,197.200 222.200 C 197.200 223.000,197.000 223.200,196.200 223.200 C 195.400 223.200,195.200 223.400,195.200 224.200 C 195.200 225.000,195.000 225.200,194.200 225.200 C 193.400 225.200,193.200 225.400,193.200 226.200 C 193.200 226.993,192.998 227.200,192.227 227.200 C 191.472 227.200,191.216 227.447,191.087 228.300 L 190.920 229.400 190.860 228.300 C 190.811 227.409,190.610 227.200,189.800 227.200 C 189.000 227.200,188.800 227.000,188.800 226.200 C 188.800 225.400,188.600 225.200,187.800 225.200 C 187.000 225.200,186.800 225.000,186.800 224.200 C 186.800 223.400,186.600 223.200,185.800 223.200 C 185.000 223.200,184.800 223.000,184.800 222.200 C 184.800 221.400,184.600 221.200,183.800 221.200 C 183.000 221.200,182.800 221.000,182.800 220.200 C 182.800 219.400,182.600 219.200,181.800 219.200 C 181.000 219.200,180.800 219.000,180.800 218.200 C 180.800 217.400,180.600 217.200,179.800 217.200 C 179.000 217.200,178.800 217.000,178.800 216.200 C 178.800 215.400,178.600 215.200,177.800 215.200 C 177.000 215.200,176.800 215.000,176.800 214.200 C 176.800 213.400,176.600 213.200,175.800 213.200 C 175.000 213.200,174.800 213.000,174.800 212.200 C 174.800 211.400,174.600 211.200,173.800 211.200 C 173.000 211.200,172.800 211.000,172.800 210.200 C 172.800 209.400,172.600 209.200,171.800 209.200 C 171.000 209.200,170.800 209.000,170.800 208.200 C 170.800 207.400,170.600 207.200,169.800 207.200 C 169.000 207.200,168.800 207.000,168.800 206.200 C 168.800 205.400,168.600 205.200,167.800 205.200 C 167.000 205.200,166.800 205.000,166.800 204.200 C 166.800 203.400,166.600 203.200,165.800 203.200 C 165.000 203.200,164.800 203.000,164.800 202.200 C 164.800 201.400,164.600 201.200,163.800 201.200 C 163.000 201.200,162.800 201.000,162.800 200.200 C 162.800 199.400,162.600 199.200,161.800 199.200 C 161.000 199.200,160.800 199.000,160.800 198.200 C 160.800 197.400,160.600 197.200,159.800 197.200 C 159.000 197.200,158.800 197.000,158.800 196.200 C 158.800 195.400,158.600 195.200,157.800 195.200 C 157.000 195.200,156.800 195.000,156.800 194.200 C 156.800 193.400,156.600 193.200,155.800 193.200 C 155.000 193.200,154.800 193.000,154.800 192.200 C 154.800 191.400,154.600 191.200,153.800 191.200 C 153.000 191.200,152.800 191.000,152.800 190.200 C 152.800 189.400,152.600 189.200,151.800 189.200 C 151.000 189.200,150.800 189.000,150.800 188.200 C 150.800 187.400,150.600 187.200,149.800 187.200 C 149.000 187.200,148.800 187.000,148.800 186.200 C 148.800 185.400,148.600 185.200,147.800 185.200 C 147.000 185.200,146.800 185.000,146.800 184.200 C 146.800 183.400,146.600 183.200,145.800 183.200 C 145.000 183.200,144.800 183.000,144.800 182.200 C 144.800 181.400,144.600 181.200,143.800 181.200 C 143.000 181.200,142.800 181.000,142.800 180.200 C 142.800 179.400,142.600 179.200,141.800 179.200 C 141.000 179.200,140.800 179.000,140.800 178.200 C 140.800 177.400,140.600 177.200,139.800 177.200 C 139.000 177.200,138.800 177.000,138.800 176.200 C 138.800 175.204,138.787 175.200,135.000 175.200 C 131.213 175.200,131.200 175.204,131.200 176.200 C 131.200 177.000,131.000 177.200,130.200 177.200 C 129.400 177.200,129.200 177.400,129.200 178.200 C 129.200 179.000,129.000 179.200,128.200 179.200 C 127.400 179.200,127.200 179.400,127.200 180.200 C 127.200 181.000,127.000 181.200,126.200 181.200 C 125.400 181.200,125.200 181.400,125.200 182.200 C 125.200 183.000,125.000 183.200,124.200 183.200 C 123.400 183.200,123.200 183.400,123.200 184.200 C 123.200 185.000,123.000 185.200,122.200 185.200 C 121.400 185.200,121.200 185.400,121.200 186.200 C 121.200 187.000,121.000 187.200,120.200 187.200 C 119.400 187.200,119.200 187.400,119.200 188.200 C 119.200 189.000,119.000 189.200,118.200 189.200 C 117.400 189.200,117.200 189.400,117.200 190.200 C 117.200 191.000,117.000 191.200,116.200 191.200 C 115.400 191.200,115.200 191.400,115.200 192.200 C 115.200 193.000,115.000 193.200,114.200 193.200 C 113.400 193.200,113.200 193.400,113.200 194.200 C 113.200 195.000,113.000 195.200,112.200 195.200 C 111.400 195.200,111.200 195.400,111.200 196.200 C 111.200 197.000,111.000 197.200,110.200 197.200 C 109.400 197.200,109.200 197.400,109.200 198.200 C 109.200 199.000,109.000 199.200,108.200 199.200 C 107.400 199.200,107.200 199.400,107.200 200.200 C 107.200 201.000,107.000 201.200,106.200 201.200 C 105.400 201.200,105.200 201.400,105.200 202.200 C 105.200 203.000,105.000 203.200,104.200 203.200 C 103.400 203.200,103.200 203.400,103.200 204.200 C 103.200 205.000,103.000 205.200,102.200 205.200 C 101.400 205.200,101.200 205.400,101.200 206.200 C 101.200 207.000,101.000 207.200,100.200 207.200 C 99.400 207.200,99.200 207.400,99.200 208.200 C 99.200 209.000,99.000 209.200,98.200 209.200 C 97.400 209.200,97.200 209.400,97.200 210.200 C 97.200 211.000,97.000 211.200,96.200 211.200 C 95.400 211.200,95.200 211.400,95.200 212.200 C 95.200 213.000,95.000 213.200,94.200 213.200 C 93.400 213.200,93.200 213.400,93.200 214.200 C 93.200 215.000,93.000 215.200,92.200 215.200 C 91.400 215.200,91.200 215.400,91.200 216.200 C 91.200 217.000,91.000 217.200,90.200 217.200 C 89.400 217.200,89.200 217.400,89.200 218.200 C 89.200 219.000,89.000 219.200,88.200 219.200 C 87.400 219.200,87.200 219.400,87.200 220.200 C 87.200 221.000,87.000 221.200,86.200 221.200 C 85.400 221.200,85.200 221.400,85.200 222.200 C 85.200 223.000,85.000 223.200,84.200 223.200 C 83.400 223.200,83.200 223.400,83.200 224.200 C 83.200 225.000,83.000 225.200,82.200 225.200 C 81.400 225.200,81.200 225.400,81.200 226.200 C 81.200 227.000,81.000 227.200,80.200 227.200 C 79.400 227.200,79.200 227.400,79.200 228.200 C 79.200 229.000,79.000 229.200,78.200 229.200 C 77.400 229.200,77.200 229.400,77.200 230.200 C 77.200 231.000,77.000 231.200,76.200 231.200 C 75.400 231.200,75.200 231.400,75.200 232.200 C 75.200 233.000,75.000 233.200,74.200 233.200 C 73.400 233.200,73.200 233.400,73.200 234.200 C 73.200 235.000,73.000 235.200,72.200 235.200 C 71.400 235.200,71.200 235.400,71.200 236.200 C 71.200 237.000,71.000 237.200,70.200 237.200 C 69.400 237.200,69.200 237.400,69.200 238.200 C 69.200 239.000,69.000 239.200,68.200 239.200 C 67.400 239.200,67.200 239.400,67.200 240.200 C 67.200 241.000,67.000 241.200,66.200 241.200 C 65.400 241.200,65.200 241.400,65.200 242.200 C 65.200 243.000,65.000 243.200,64.200 243.200 C 63.400 243.200,63.200 243.400,63.200 244.200 C 63.200 245.000,63.000 245.200,62.200 245.200 C 61.400 245.200,61.200 245.400,61.200 246.200 C 61.200 247.000,61.000 247.200,60.200 247.200 C 59.400 247.200,59.200 247.400,59.200 248.200 C 59.200 249.000,59.000 249.200,58.200 249.200 L 57.200 249.200 57.200 254.000 L 57.200 258.800 58.200 258.800 C 59.133 258.800,59.200 258.933,59.200 260.800 C 59.200 262.657,59.270 262.800,60.182 262.800 C 61.125 262.800,61.170 262.919,61.282 265.700 C 61.390 268.361,61.474 268.611,62.300 268.728 C 63.029 268.831,63.200 269.110,63.200 270.199 C 63.200 271.477,64.028 272.800,64.829 272.800 C 65.033 272.800,65.200 273.258,65.200 273.818 C 65.200 274.378,65.650 275.286,66.200 275.836 C 66.750 276.386,67.200 277.278,67.200 277.818 C 67.200 278.599,67.405 278.800,68.200 278.800 C 69.133 278.800,69.200 278.933,69.200 280.800 C 69.200 282.667,69.267 282.800,70.200 282.800 C 70.950 282.800,71.200 283.011,71.200 283.642 C 71.200 284.106,71.650 284.839,72.200 285.271 C 72.919 285.837,73.200 286.443,73.200 287.429 C 73.200 288.625,73.328 288.800,74.200 288.800 C 75.000 288.800,75.200 289.000,75.200 289.800 C 75.200 290.594,75.401 290.800,76.178 290.800 C 77.061 290.800,77.168 290.985,77.278 292.700 C 77.382 294.321,77.532 294.619,78.300 294.728 C 78.951 294.820,79.200 295.124,79.200 295.828 C 79.200 296.598,79.408 296.800,80.200 296.800 C 81.000 296.800,81.200 297.000,81.200 297.800 C 81.200 298.600,81.400 298.800,82.200 298.800 C 83.000 298.800,83.200 299.000,83.200 299.800 C 83.200 300.600,83.400 300.800,84.200 300.800 C 85.048 300.800,85.200 300.985,85.200 302.019 C 85.200 302.776,85.553 303.572,86.130 304.119 C 86.641 304.604,87.182 305.332,87.332 305.738 C 87.482 306.144,87.953 306.567,88.380 306.679 C 88.806 306.790,89.210 307.268,89.278 307.741 C 89.353 308.270,89.736 308.648,90.275 308.725 C 90.821 308.802,91.198 309.179,91.275 309.725 C 91.353 310.270,91.730 310.647,92.275 310.725 C 92.819 310.802,93.198 311.179,93.275 311.721 C 93.346 312.214,93.746 312.658,94.199 312.744 C 94.638 312.828,95.395 313.325,95.880 313.848 C 96.437 314.449,97.211 314.800,97.981 314.800 C 99.015 314.800,99.200 314.952,99.200 315.800 C 99.200 316.600,99.400 316.800,100.200 316.800 C 101.000 316.800,101.200 317.000,101.200 317.800 C 101.200 318.600,101.400 318.800,102.200 318.800 C 103.000 318.800,103.200 319.000,103.200 319.800 C 103.200 320.600,103.400 320.800,104.200 320.800 C 105.000 320.800,105.200 321.000,105.200 321.800 C 105.200 322.672,105.375 322.800,106.571 322.800 C 107.557 322.800,108.163 323.081,108.729 323.800 C 109.161 324.350,109.894 324.800,110.358 324.800 C 110.989 324.800,111.200 325.050,111.200 325.800 C 111.200 326.592,111.402 326.800,112.172 326.800 C 112.876 326.800,113.180 327.049,113.272 327.700 C 113.381 328.468,113.679 328.618,115.300 328.722 C 117.015 328.832,117.200 328.939,117.200 329.822 C 117.200 330.554,117.415 330.800,118.054 330.800 C 118.524 330.800,119.325 331.250,119.835 331.800 C 120.433 332.445,121.194 332.800,121.981 332.800 C 123.015 332.800,123.200 332.952,123.200 333.800 C 123.200 334.733,123.333 334.800,125.200 334.800 C 127.067 334.800,127.200 334.867,127.200 335.800 C 127.200 336.733,127.333 336.800,129.200 336.800 C 131.067 336.800,131.200 336.867,131.200 337.800 C 131.200 338.733,131.333 338.800,133.200 338.800 C 135.067 338.800,135.200 338.867,135.200 339.800 C 135.200 340.731,135.335 340.800,137.172 340.800 C 138.913 340.800,139.159 340.906,139.272 341.700 C 139.389 342.526,139.639 342.610,142.300 342.718 C 145.081 342.830,145.200 342.875,145.200 343.818 C 145.200 344.750,145.320 344.800,147.571 344.800 C 149.624 344.800,150.048 344.934,150.729 345.800 C 151.436 346.699,151.802 346.800,154.358 346.800 C 157.123 346.800,157.200 346.827,157.200 347.800 C 157.200 348.788,157.242 348.800,160.571 348.800 C 163.690 348.800,164.001 348.875,164.729 349.800 C 165.490 350.768,165.669 350.800,170.358 350.800 L 175.200 350.800 175.200 351.800 L 175.200 352.800 199.842 352.800 L 224.485 352.800 225.271 351.800 C 226.025 350.842,226.242 350.800,230.447 350.800 C 234.596 350.800,234.891 350.745,235.836 349.800 C 236.724 348.912,237.171 348.800,239.818 348.800 C 242.720 348.800,242.800 348.774,242.800 347.815 C 242.800 346.848,242.866 346.828,246.500 346.715 C 249.898 346.609,250.232 346.527,250.595 345.700 C 250.929 344.938,251.299 344.800,253.000 344.800 C 254.701 344.800,255.071 344.662,255.405 343.900 C 255.744 343.128,256.152 342.983,258.275 342.882 C 260.478 342.776,260.763 342.666,260.875 341.882 C 260.980 341.140,261.317 340.968,263.000 340.800 C 264.681 340.632,265.020 340.460,265.125 339.721 C 265.231 338.979,265.544 338.823,267.125 338.721 C 268.707 338.619,269.020 338.462,269.125 337.721 C 269.231 336.979,269.544 336.823,271.125 336.721 C 272.707 336.619,273.020 336.462,273.125 335.721 C 273.231 334.979,273.544 334.823,275.125 334.721 C 276.706 334.619,277.020 334.462,277.125 333.722 C 277.227 333.001,277.551 332.822,278.925 332.722 C 280.313 332.621,280.622 332.446,280.728 331.700 C 280.827 331.000,281.117 330.800,282.028 330.800 C 283.011 330.800,283.200 330.639,283.200 329.800 C 283.200 328.885,283.350 328.800,284.957 328.800 C 286.497 328.800,286.744 328.677,286.964 327.800 C 287.148 327.069,287.483 326.800,288.208 326.800 C 288.993 326.800,289.200 326.596,289.200 325.823 C 289.200 324.960,289.398 324.832,290.900 324.723 C 292.298 324.622,292.622 324.444,292.725 323.724 C 292.812 323.111,293.172 322.811,293.925 322.724 C 294.687 322.636,295.037 322.338,295.128 321.700 C 295.220 321.049,295.524 320.800,296.228 320.800 C 296.998 320.800,297.200 320.592,297.200 319.800 C 297.200 319.028,297.406 318.800,298.105 318.800 C 298.660 318.800,299.163 318.452,299.405 317.900 C 299.674 317.288,300.248 316.936,301.200 316.800 C 302.272 316.647,302.630 316.389,302.728 315.700 C 302.820 315.049,303.124 314.800,303.828 314.800 C 304.598 314.800,304.800 314.592,304.800 313.800 C 304.800 313.000,305.000 312.800,305.800 312.800 C 306.600 312.800,306.800 312.600,306.800 311.800 C 306.800 311.000,307.000 310.800,307.800 310.800 C 308.600 310.800,308.800 310.600,308.800 309.800 C 308.800 309.000,309.000 308.800,309.800 308.800 C 310.600 308.800,310.800 308.600,310.800 307.800 C 310.800 307.000,311.000 306.800,311.800 306.800 C 312.600 306.800,312.800 306.600,312.800 305.800 C 312.800 305.000,313.000 304.800,313.800 304.800 C 314.592 304.800,314.800 304.598,314.800 303.828 C 314.800 303.124,315.049 302.820,315.700 302.728 C 316.282 302.645,316.646 302.278,316.729 301.689 C 316.800 301.188,317.295 300.341,317.829 299.807 C 318.363 299.273,318.800 298.378,318.800 297.818 C 318.800 296.999,318.995 296.800,319.800 296.800 C 320.600 296.800,320.800 296.600,320.800 295.800 C 320.800 295.000,321.000 294.800,321.800 294.800 C 322.592 294.800,322.800 294.598,322.800 293.828 C 322.800 293.124,323.049 292.820,323.700 292.728 C 324.468 292.619,324.618 292.321,324.722 290.700 C 324.832 288.985,324.939 288.800,325.822 288.800 C 326.599 288.800,326.800 288.594,326.800 287.800 C 326.800 287.000,327.000 286.800,327.800 286.800 C 328.733 286.800,328.800 286.667,328.800 284.800 C 328.800 282.933,328.867 282.800,329.800 282.800 C 330.600 282.800,330.800 282.600,330.800 281.800 C 330.800 281.000,331.000 280.800,331.800 280.800 C 332.733 280.800,332.800 280.667,332.800 278.800 C 332.800 276.933,332.867 276.800,333.800 276.800 C 334.733 276.800,334.800 276.667,334.800 274.800 C 334.800 272.933,334.867 272.800,335.800 272.800 C 336.733 272.800,336.800 272.667,336.800 270.800 C 336.800 268.933,336.867 268.800,337.800 268.800 C 338.733 268.800,338.800 268.667,338.800 266.800 C 338.800 264.933,338.867 264.800,339.800 264.800 C 340.733 264.800,340.800 264.667,340.800 262.800 C 340.800 260.933,340.867 260.800,341.800 260.800 C 342.732 260.800,342.800 260.665,342.800 258.818 C 342.800 257.238,343.002 256.634,343.800 255.836 C 344.599 255.038,344.800 254.436,344.800 252.846 C 344.800 251.086,344.904 250.841,345.700 250.728 C 346.526 250.611,346.610 250.361,346.718 247.701 C 346.817 245.244,346.985 244.651,347.818 243.819 C 348.687 242.949,348.800 242.490,348.800 239.818 C 348.800 238.158,348.967 236.800,349.171 236.800 C 350.420 236.800,350.800 235.491,350.800 231.190 C 350.800 227.079,350.856 226.781,351.800 225.836 L 352.800 224.836 352.800 200.018 L 352.800 175.200 351.800 175.200 L 350.800 175.200 350.800 170.200 L 350.800 165.200 349.800 165.200 L 348.800 165.200 348.800 161.200 L 348.800 157.200 347.800 157.200 C 346.827 157.200,346.800 157.123,346.800 154.358 C 346.800 151.802,346.699 151.436,345.800 150.729 C 344.934 150.048,344.800 149.624,344.800 147.571 C 344.800 145.320,344.750 145.200,343.818 145.200 C 342.875 145.200,342.830 145.081,342.718 142.300 C 342.610 139.639,342.526 139.389,341.700 139.272 C 340.906 139.159,340.800 138.913,340.800 137.172 C 340.800 135.335,340.731 135.200,339.800 135.200 C 338.867 135.200,338.800 135.067,338.800 133.200 C 338.800 131.333,338.733 131.200,337.800 131.200 C 336.867 131.200,336.800 131.067,336.800 129.200 C 336.800 127.333,336.733 127.200,335.800 127.200 C 334.867 127.200,334.800 127.067,334.800 125.200 C 334.800 123.333,334.733 123.200,333.800 123.200 C 332.995 123.200,332.800 123.001,332.800 122.182 C 332.800 121.622,332.350 120.714,331.800 120.164 C 331.250 119.614,330.800 118.722,330.800 118.182 C 330.800 117.407,330.594 117.200,329.823 117.200 C 328.960 117.200,328.832 117.002,328.723 115.500 C 328.628 114.187,328.395 113.710,327.700 113.405 C 327.148 113.163,326.800 112.660,326.800 112.105 C 326.800 111.406,326.572 111.200,325.800 111.200 C 325.050 111.200,324.800 110.989,324.800 110.358 C 324.800 109.894,324.350 109.161,323.800 108.729 C 323.081 108.163,322.800 107.557,322.800 106.571 C 322.800 105.375,322.672 105.200,321.800 105.200 C 321.000 105.200,320.800 105.000,320.800 104.200 C 320.800 103.400,320.600 103.200,319.800 103.200 C 319.000 103.200,318.800 103.000,318.800 102.200 C 318.800 101.400,318.600 101.200,317.800 101.200 C 317.000 101.200,316.800 101.000,316.800 100.200 C 316.800 99.400,316.600 99.200,315.800 99.200 C 314.928 99.200,314.800 99.025,314.800 97.829 C 314.800 96.546,313.980 95.200,313.199 95.200 C 313.010 95.200,312.798 94.795,312.728 94.300 C 312.647 93.730,312.279 93.354,311.725 93.275 C 311.179 93.198,310.802 92.821,310.725 92.275 C 310.647 91.730,310.270 91.353,309.725 91.275 C 309.179 91.198,308.802 90.821,308.725 90.275 C 308.647 89.730,308.270 89.353,307.725 89.275 C 307.179 89.198,306.802 88.821,306.725 88.275 C 306.646 87.721,306.270 87.353,305.700 87.272 C 305.205 87.202,304.800 86.990,304.800 86.801 C 304.800 86.065,303.487 85.200,302.371 85.200 C 301.389 85.200,301.200 85.039,301.200 84.200 C 301.200 83.400,301.000 83.200,300.200 83.200 C 299.400 83.200,299.200 83.000,299.200 82.200 C 299.200 81.408,298.998 81.200,298.228 81.200 C 297.530 81.200,297.220 80.950,297.128 80.316 C 297.047 79.758,296.632 79.347,296.000 79.200 C 295.378 79.055,294.953 78.642,294.875 78.106 C 294.777 77.431,294.432 77.219,293.275 77.123 C 292.198 77.033,291.694 76.757,291.405 76.100 C 291.168 75.560,290.659 75.200,290.133 75.200 C 289.528 75.200,289.216 74.921,289.128 74.300 C 289.037 73.662,288.687 73.364,287.925 73.276 C 287.172 73.189,286.812 72.889,286.725 72.276 C 286.622 71.558,286.298 71.378,284.925 71.278 C 283.551 71.178,283.227 70.999,283.125 70.278 C 283.034 69.642,282.678 69.363,281.831 69.267 C 281.189 69.194,280.330 68.710,279.923 68.193 C 279.516 67.675,278.691 67.195,278.091 67.126 C 277.312 67.036,276.963 66.742,276.872 66.100 C 276.762 65.325,276.504 65.200,275.016 65.200 C 273.505 65.200,273.255 65.074,273.036 64.200 C 272.816 63.324,272.568 63.200,271.036 63.200 C 269.504 63.200,269.256 63.076,269.036 62.200 C 268.816 61.324,268.568 61.200,267.036 61.200 C 265.504 61.200,265.256 61.076,265.036 60.200 C 264.811 59.303,264.582 59.200,262.820 59.200 C 261.087 59.200,260.841 59.094,260.728 58.300 C 260.612 57.483,260.353 57.389,257.926 57.282 C 255.515 57.176,255.239 57.077,255.126 56.282 C 255.017 55.519,254.716 55.384,252.897 55.279 C 251.302 55.187,250.558 54.922,249.815 54.179 C 248.950 53.313,248.487 53.200,245.818 53.200 C 242.865 53.200,242.800 53.178,242.800 52.200 C 242.800 51.223,242.732 51.200,239.818 51.200 C 237.171 51.200,236.724 51.088,235.836 50.200 C 234.903 49.267,234.570 49.200,230.836 49.200 C 227.103 49.200,226.770 49.133,225.836 48.200 L 224.836 47.200 200.018 47.200 L 175.200 47.200 175.200 48.200 " stroke="none" fill="#040404" fill-rule="evenodd"></path><path id="path1" d="" stroke="none" fill="#080404" fill-rule="evenodd"></path><path id="path2" d="" stroke="none" fill="#080404" fill-rule="evenodd"></path><path id="path3" d="" stroke="none" fill="#080404" fill-rule="evenodd"></path><path id="path4" d="" stroke="none" fill="#080404" fill-rule="evenodd"></path></g></svg>