<svg id="svg" version="1.1" xmlns="http://www.w3.org/2000/svg" xmlns:xlink="http://www.w3.org/1999/xlink" width="400" height="225" viewBox="0, 0, 400,225"><g id="svgg"><path id="path0" d="M0.000 112.549 L 0.000 225.098 200.000 225.098 L 400.000 225.098 400.000 112.549 L 400.000 0.000 200.000 0.000 L 0.000 0.000 0.000 112.549 M157.006 59.201 C 157.098 59.350,170.852 59.426,197.537 59.426 L 237.929 59.426 237.944 60.158 C 237.987 62.336,238.213 64.742,238.391 64.924 C 238.512 65.049,238.488 65.260,238.332 65.448 C 238.175 65.637,238.155 65.824,238.281 65.915 C 238.523 66.089,238.524 66.095,238.699 69.426 C 239.031 75.758,239.112 76.886,239.247 77.096 C 239.326 77.220,239.399 77.625,239.408 77.997 C 239.476 80.699,239.806 84.786,239.971 84.958 C 240.086 85.080,240.060 85.298,239.908 85.482 C 239.708 85.722,239.712 85.837,239.924 85.968 C 240.462 86.301,239.655 86.601,238.231 86.599 L 236.845 86.596 236.733 85.673 C 236.671 85.165,236.606 84.296,236.588 83.742 C 236.569 83.189,236.453 82.673,236.329 82.596 C 236.206 82.520,236.130 82.365,236.162 82.253 C 236.272 81.859,235.880 79.247,235.694 79.132 C 235.590 79.068,235.433 78.533,235.345 77.943 C 235.257 77.354,234.984 76.415,234.737 75.858 C 233.816 73.778,233.383 72.932,233.237 72.932 C 233.154 72.932,232.949 72.620,232.780 72.239 C 231.757 69.927,226.919 66.995,224.086 66.969 C 223.962 66.968,223.806 66.895,223.740 66.807 C 223.539 66.540,219.187 66.322,214.181 66.329 C 211.000 66.333,209.400 66.254,209.289 66.088 C 209.169 65.909,209.122 65.910,209.120 66.089 C 209.115 66.426,203.890 66.424,203.661 66.086 C 203.546 65.916,203.495 65.914,203.492 66.082 C 203.490 66.250,199.923 66.318,191.671 66.307 C 185.172 66.299,179.854 66.360,179.854 66.443 C 179.854 66.526,180.107 66.896,180.416 67.263 C 180.726 67.631,180.979 68.024,180.979 68.135 C 180.979 68.247,181.279 68.587,181.645 68.891 C 182.011 69.194,182.315 69.552,182.320 69.685 C 182.325 69.818,182.583 70.165,182.893 70.456 C 183.202 70.747,183.455 71.079,183.455 71.194 C 183.455 71.310,183.708 71.603,184.018 71.847 C 184.328 72.090,184.581 72.392,184.581 72.518 C 184.581 72.644,185.037 73.281,185.594 73.933 C 186.151 74.585,186.607 75.187,186.607 75.271 C 186.607 75.355,186.911 75.720,187.282 76.083 C 187.653 76.446,187.957 76.805,187.957 76.880 C 187.957 76.955,188.489 77.665,189.139 78.457 C 190.868 80.566,192.234 82.342,192.234 82.484 C 192.234 82.552,192.538 82.898,192.909 83.253 C 193.281 83.608,193.585 83.972,193.585 84.063 C 193.585 84.153,194.041 84.761,194.598 85.413 C 195.155 86.065,195.611 86.678,195.611 86.775 C 195.611 86.872,195.914 87.242,196.286 87.597 C 196.657 87.952,196.961 88.327,196.961 88.431 C 196.961 88.534,197.164 88.802,197.411 89.026 C 197.659 89.251,197.862 89.519,197.862 89.622 C 197.862 89.726,198.165 90.101,198.537 90.456 C 198.908 90.811,199.212 91.175,199.212 91.266 C 199.212 91.357,199.668 91.964,200.225 92.616 C 200.782 93.269,201.238 93.881,201.238 93.979 C 201.238 94.076,201.542 94.445,201.913 94.800 C 202.285 95.155,202.589 95.508,202.589 95.585 C 202.589 95.662,202.918 96.101,203.320 96.561 C 204.399 97.794,204.840 98.357,204.840 98.504 C 204.840 98.575,205.295 99.167,205.853 99.820 C 206.410 100.472,206.866 101.085,206.866 101.182 C 206.866 101.279,207.169 101.649,207.541 102.003 C 207.912 102.358,208.216 102.712,208.216 102.788 C 208.216 102.865,208.545 103.304,208.948 103.764 C 210.018 104.988,210.467 105.560,210.467 105.702 C 210.467 105.771,210.872 106.309,211.367 106.896 C 212.399 108.119,212.472 108.571,211.761 109.310 C 211.483 109.600,211.103 110.021,210.917 110.246 C 209.996 111.362,207.182 114.472,207.034 114.538 C 206.941 114.579,206.866 114.738,206.866 114.891 C 206.866 115.044,206.612 115.389,206.303 115.659 C 205.993 115.928,205.740 116.250,205.740 116.374 C 205.740 116.499,205.588 116.601,205.402 116.601 C 205.217 116.601,205.065 116.735,205.065 116.899 C 205.065 117.064,204.811 117.436,204.502 117.727 C 204.192 118.017,203.939 118.389,203.939 118.554 C 203.939 118.718,203.787 118.852,203.602 118.852 C 203.416 118.852,203.264 118.962,203.264 119.096 C 203.264 119.231,202.909 119.654,202.476 120.038 C 202.043 120.422,201.686 120.844,201.683 120.976 C 201.680 121.108,200.924 122.026,200.002 123.016 C 199.081 124.007,198.324 124.904,198.320 125.011 C 198.315 125.117,197.856 125.654,197.299 126.203 C 196.742 126.752,196.286 127.278,196.286 127.371 C 196.286 127.463,195.881 127.935,195.385 128.419 C 194.890 128.902,194.485 129.378,194.485 129.475 C 194.485 129.573,194.181 129.943,193.810 130.298 C 193.438 130.653,193.134 131.051,193.134 131.182 C 193.134 131.313,193.059 131.454,192.966 131.495 C 192.681 131.621,189.083 135.680,189.083 135.874 C 189.083 135.974,188.883 136.262,188.639 136.514 C 187.546 137.644,185.800 139.638,185.608 139.977 C 185.491 140.181,185.061 140.646,184.651 141.009 C 184.241 141.373,183.905 141.761,183.905 141.873 C 183.905 141.985,183.197 142.853,182.331 143.802 C 181.464 144.750,180.755 145.653,180.755 145.808 C 180.754 145.962,180.602 146.089,180.416 146.089 C 180.231 146.089,180.079 146.218,180.079 146.377 C 180.079 146.535,179.902 146.828,179.685 147.027 C 179.468 147.227,178.886 147.878,178.391 148.473 C 177.895 149.069,177.313 149.738,177.096 149.961 C 176.880 150.184,176.702 150.420,176.702 150.485 C 176.702 150.551,176.348 150.916,175.914 151.296 C 175.481 151.677,175.127 152.058,175.127 152.143 C 175.127 152.646,223.516 152.189,224.129 151.681 C 224.347 151.499,224.424 151.516,224.427 151.745 C 224.429 151.957,224.482 151.975,224.595 151.800 C 224.686 151.660,225.318 151.472,225.999 151.381 C 226.680 151.290,227.338 151.137,227.462 151.041 C 227.586 150.945,228.270 150.737,228.981 150.580 C 229.693 150.423,230.276 150.225,230.276 150.141 C 230.276 150.057,230.681 149.854,231.176 149.690 C 231.671 149.527,232.077 149.319,232.077 149.229 C 232.077 149.138,232.351 148.995,232.685 148.911 C 233.020 148.827,233.431 148.563,233.599 148.324 C 233.766 148.085,234.032 147.890,234.191 147.890 C 234.506 147.890,236.128 146.178,236.128 145.845 C 236.128 145.732,236.280 145.639,236.466 145.639 C 236.652 145.639,236.804 145.487,236.804 145.301 C 236.804 145.115,237.006 144.761,237.254 144.513 C 237.501 144.266,237.704 143.911,237.704 143.725 C 237.704 143.540,237.793 143.388,237.902 143.388 C 238.160 143.388,239.868 140.021,240.064 139.125 C 240.148 138.746,240.293 138.436,240.387 138.436 C 240.482 138.436,240.687 137.853,240.845 137.141 C 241.002 136.429,241.207 135.746,241.301 135.622 C 241.395 135.498,241.540 135.020,241.623 134.560 C 241.775 133.714,242.704 133.523,243.433 134.188 C 243.550 134.296,243.874 134.384,244.151 134.384 C 244.827 134.384,245.417 135.414,244.921 135.729 C 244.819 135.794,244.675 136.505,244.600 137.310 C 244.526 138.115,244.399 139.365,244.320 140.087 C 244.240 140.810,244.163 141.570,244.147 141.776 C 244.132 141.981,244.055 142.200,243.976 142.262 C 243.897 142.324,243.765 143.134,243.683 144.063 C 243.600 144.992,243.478 146.207,243.412 146.764 C 243.346 147.321,243.269 147.984,243.242 148.237 C 243.214 148.490,243.130 148.795,243.056 148.915 C 242.981 149.035,242.851 149.892,242.766 150.819 C 242.681 151.746,242.495 152.579,242.353 152.670 C 242.171 152.786,242.185 152.836,242.402 152.838 C 242.622 152.841,242.645 152.924,242.482 153.123 C 242.260 153.396,242.146 154.237,241.845 157.794 C 241.766 158.723,241.624 159.584,241.528 159.707 C 241.433 159.831,241.287 160.793,241.203 161.846 C 241.120 162.898,240.945 163.797,240.816 163.843 C 240.673 163.893,240.701 164.005,240.886 164.124 C 241.119 164.274,241.128 164.364,240.924 164.497 C 240.776 164.593,240.632 165.124,240.604 165.678 C 240.576 166.232,240.509 166.812,240.455 166.967 C 240.377 167.191,231.768 167.248,198.424 167.248 C 165.077 167.248,156.473 167.191,156.400 166.967 C 156.212 166.395,156.399 164.224,156.642 164.143 C 156.780 164.097,156.899 163.941,156.905 163.797 C 156.911 163.652,157.315 163.129,157.803 162.634 C 158.292 162.138,158.692 161.607,158.693 161.452 C 158.694 161.297,158.846 161.171,159.032 161.171 C 159.218 161.171,159.370 161.069,159.370 160.944 C 159.370 160.819,159.623 160.497,159.932 160.228 C 160.242 159.959,160.495 159.605,160.495 159.442 C 160.495 159.278,160.647 159.145,160.833 159.145 C 161.019 159.145,161.171 159.027,161.171 158.884 C 161.171 158.741,161.880 157.838,162.746 156.878 C 163.613 155.919,164.322 155.059,164.322 154.968 C 164.322 154.876,164.670 154.437,165.096 153.991 C 166.656 152.356,167.698 151.097,167.698 150.847 C 167.698 150.706,167.850 150.591,168.036 150.591 C 168.222 150.591,168.374 150.436,168.374 150.246 C 168.374 150.057,168.521 149.845,168.701 149.776 C 168.881 149.707,169.232 149.305,169.481 148.883 C 169.730 148.460,170.090 148.115,170.279 148.115 C 170.469 148.115,170.625 147.975,170.625 147.803 C 170.625 147.632,171.179 146.897,171.856 146.171 C 172.533 145.445,173.090 144.724,173.094 144.569 C 173.098 144.415,173.253 144.288,173.438 144.288 C 173.624 144.288,173.776 144.192,173.776 144.075 C 173.776 143.957,174.029 143.588,174.339 143.254 C 174.648 142.920,174.902 142.560,174.902 142.454 C 174.902 142.349,175.053 142.262,175.239 142.262 C 175.425 142.262,175.577 142.154,175.577 142.021 C 175.577 141.735,177.230 139.696,178.109 138.897 C 178.450 138.588,178.728 138.242,178.728 138.127 C 178.728 138.013,179.077 137.554,179.502 137.108 C 181.063 135.473,182.105 134.215,182.105 133.965 C 182.105 133.824,182.257 133.708,182.442 133.708 C 182.628 133.708,182.780 133.593,182.780 133.451 C 182.780 133.309,182.984 132.980,183.232 132.719 C 183.481 132.459,184.215 131.632,184.864 130.881 C 185.513 130.131,186.373 129.146,186.775 128.693 C 187.178 128.239,187.507 127.811,187.507 127.741 C 187.507 127.671,187.912 127.204,188.407 126.704 C 188.903 126.204,189.308 125.701,189.308 125.587 C 189.308 125.473,189.460 125.380,189.645 125.380 C 189.831 125.380,189.983 125.244,189.983 125.077 C 189.983 124.911,190.186 124.591,190.433 124.367 C 190.681 124.143,190.884 123.823,190.884 123.657 C 190.884 123.490,191.035 123.354,191.221 123.354 C 191.407 123.354,191.559 123.261,191.559 123.148 C 191.559 123.035,191.901 122.590,192.320 122.158 C 192.739 121.727,193.119 121.276,193.164 121.156 C 193.210 121.036,193.956 120.153,194.823 119.194 C 195.689 118.235,196.471 117.259,196.560 117.026 C 196.649 116.792,196.877 116.601,197.066 116.601 C 197.256 116.601,197.411 116.454,197.411 116.275 C 197.411 116.095,197.588 115.849,197.804 115.728 C 198.168 115.525,198.160 115.470,197.691 114.971 C 197.414 114.675,197.186 114.322,197.186 114.187 C 197.186 114.051,196.882 113.684,196.511 113.372 C 196.140 113.059,195.836 112.711,195.836 112.599 C 195.836 112.486,195.633 112.211,195.385 111.986 C 195.138 111.762,194.935 111.467,194.935 111.330 C 194.935 111.193,194.631 110.830,194.260 110.523 C 193.889 110.217,193.585 109.879,193.585 109.774 C 193.585 109.668,193.129 109.049,192.572 108.397 C 192.015 107.744,191.559 107.131,191.559 107.034 C 191.559 106.937,191.255 106.568,190.884 106.213 C 190.512 105.858,190.208 105.507,190.208 105.433 C 190.208 105.276,189.320 104.144,188.518 103.278 C 188.209 102.946,187.957 102.607,187.957 102.526 C 187.957 102.445,187.501 101.846,186.944 101.193 C 186.387 100.541,185.931 99.939,185.931 99.856 C 185.931 99.772,185.627 99.406,185.256 99.043 C 184.885 98.680,184.581 98.296,184.581 98.190 C 184.581 98.083,184.328 97.758,184.018 97.468 C 183.708 97.177,183.455 96.850,183.455 96.742 C 183.455 96.634,183.202 96.311,182.893 96.024 C 182.583 95.737,182.330 95.428,182.330 95.336 C 182.330 95.199,180.676 93.138,179.297 91.559 C 179.108 91.342,178.953 91.107,178.953 91.036 C 178.953 90.850,177.090 88.608,176.759 88.396 C 176.604 88.297,176.477 88.106,176.477 87.971 C 176.477 87.737,174.529 85.267,173.563 84.276 C 173.309 84.015,173.101 83.702,173.101 83.579 C 173.101 83.456,172.898 83.173,172.651 82.949 C 172.403 82.725,172.200 82.449,172.200 82.337 C 172.200 82.224,171.896 81.876,171.525 81.564 C 171.154 81.251,170.850 80.900,170.850 80.784 C 170.850 80.577,168.834 78.016,167.928 77.073 C 167.678 76.812,167.473 76.525,167.473 76.436 C 167.473 76.346,166.967 75.691,166.348 74.979 C 165.729 74.267,165.222 73.606,165.222 73.509 C 165.222 73.412,165.025 73.116,164.785 72.851 C 164.544 72.586,163.935 71.863,163.431 71.244 C 162.927 70.625,162.365 69.958,162.180 69.762 C 161.996 69.566,161.846 69.328,161.846 69.233 C 161.846 69.139,161.289 68.427,160.608 67.652 C 159.927 66.876,159.370 66.177,159.370 66.098 C 159.370 66.019,159.215 65.777,159.025 65.560 C 158.836 65.343,158.277 64.660,157.782 64.041 C 157.288 63.421,156.784 62.793,156.663 62.643 C 156.381 62.295,156.374 58.976,156.655 58.976 C 156.772 58.976,156.930 59.077,157.006 59.201 " stroke="none" fill="#fcfcfc" fill-rule="evenodd"></path><path id="path1" d="M156.669 60.914 C 156.669 62.460,156.699 62.548,157.569 63.537 C 158.064 64.099,158.469 64.634,158.469 64.725 C 158.469 64.894,160.590 67.503,161.397 68.325 C 161.644 68.577,161.846 68.873,161.846 68.983 C 161.846 69.093,162.352 69.765,162.971 70.477 C 163.590 71.189,164.097 71.875,164.097 72.003 C 164.097 72.130,164.226 72.315,164.384 72.414 C 164.542 72.513,165.097 73.151,165.618 73.832 C 166.138 74.513,166.769 75.276,167.019 75.528 C 167.269 75.780,167.473 76.067,167.473 76.165 C 167.473 76.264,167.980 76.926,168.599 77.638 C 169.218 78.350,169.724 79.046,169.724 79.185 C 169.724 79.324,169.851 79.518,170.006 79.617 C 170.360 79.844,173.101 83.195,173.101 83.402 C 173.101 83.486,173.658 84.189,174.339 84.965 C 175.020 85.741,175.577 86.431,175.577 86.500 C 175.577 86.632,175.672 86.751,177.815 89.296 C 178.565 90.186,179.178 90.986,179.178 91.072 C 179.178 91.158,179.634 91.762,180.191 92.415 C 180.748 93.067,181.204 93.663,181.204 93.741 C 181.204 93.818,181.508 94.178,181.880 94.541 C 182.251 94.904,182.555 95.273,182.555 95.360 C 182.555 95.448,183.061 96.102,183.680 96.813 C 184.299 97.525,184.806 98.175,184.806 98.258 C 184.806 98.341,185.262 98.942,185.819 99.594 C 186.376 100.247,186.836 100.870,186.841 100.981 C 186.847 101.091,187.150 101.430,187.517 101.734 C 187.883 102.038,188.182 102.378,188.182 102.491 C 188.182 102.604,188.689 103.281,189.308 103.995 C 189.927 104.710,190.433 105.402,190.433 105.533 C 190.433 105.664,190.612 105.903,190.831 106.065 C 191.186 106.327,191.662 106.939,192.347 108.013 C 192.470 108.207,192.850 108.621,193.191 108.932 C 193.531 109.243,193.810 109.584,193.810 109.690 C 193.810 109.795,194.367 110.558,195.048 111.384 C 195.729 112.211,196.433 113.089,196.614 113.337 C 196.794 113.585,197.200 114.106,197.514 114.495 C 198.326 115.499,198.336 115.477,195.839 118.088 C 195.590 118.348,195.385 118.678,195.385 118.819 C 195.385 118.961,195.234 119.077,195.048 119.077 C 194.862 119.077,194.710 119.190,194.710 119.329 C 194.710 119.467,194.001 120.367,193.134 121.328 C 192.268 122.289,191.559 123.189,191.559 123.328 C 191.559 123.466,191.407 123.579,191.221 123.579 C 191.035 123.579,190.881 123.706,190.879 123.860 C 190.876 124.015,190.271 124.800,189.533 125.605 C 188.795 126.410,188.189 127.195,188.187 127.349 C 188.184 127.504,188.030 127.631,187.845 127.631 C 187.659 127.631,187.507 127.745,187.507 127.886 C 187.507 128.026,187.153 128.475,186.719 128.883 C 186.286 129.292,185.931 129.693,185.931 129.774 C 185.931 129.856,185.222 130.708,184.356 131.667 C 183.489 132.627,182.780 133.521,182.780 133.654 C 182.780 133.787,182.704 133.930,182.611 133.971 C 182.518 134.012,181.552 135.059,180.463 136.297 C 179.375 137.535,178.134 138.913,177.706 139.359 C 177.278 139.805,176.924 140.261,176.921 140.372 C 176.917 140.483,176.211 141.334,175.352 142.262 C 174.492 143.191,173.786 144.077,173.783 144.232 C 173.779 144.387,173.624 144.513,173.438 144.513 C 173.253 144.513,173.101 144.647,173.101 144.810 C 173.101 144.974,172.873 145.322,172.594 145.585 C 172.316 145.847,171.784 146.437,171.412 146.896 C 171.041 147.355,170.207 148.298,169.559 148.992 C 168.910 149.686,168.379 150.371,168.377 150.516 C 168.375 150.660,168.298 150.812,168.205 150.853 C 167.905 150.987,164.322 155.044,164.322 155.250 C 164.322 155.359,163.917 155.822,163.421 156.277 C 162.926 156.732,162.520 157.184,162.519 157.281 C 162.517 157.377,161.812 158.216,160.951 159.145 C 160.090 160.073,159.382 160.959,159.377 161.114 C 159.373 161.269,159.218 161.396,159.032 161.396 C 158.846 161.396,158.692 161.522,158.689 161.677 C 158.687 161.832,158.231 162.455,157.677 163.062 C 157.122 163.669,156.669 164.302,156.669 164.469 C 156.669 164.636,156.547 164.772,156.398 164.772 C 156.188 164.772,156.188 164.832,156.398 165.042 C 156.726 165.370,156.758 166.348,156.442 166.348 C 156.307 166.348,156.329 166.531,156.496 166.798 C 156.823 167.322,239.978 167.532,240.301 167.010 C 240.381 166.879,240.482 166.499,240.525 166.166 C 240.663 165.089,240.930 162.420,240.941 162.015 C 240.947 161.798,241.020 161.621,241.102 161.621 C 241.185 161.621,241.321 160.836,241.405 159.876 C 241.703 156.475,241.801 155.653,241.936 155.434 C 242.011 155.313,242.090 155.060,242.112 154.872 C 242.161 154.445,242.453 151.505,242.505 150.915 C 242.526 150.675,242.608 150.428,242.686 150.366 C 242.764 150.304,242.889 149.595,242.963 148.790 C 243.038 147.985,243.164 146.736,243.243 146.013 C 243.323 145.290,243.401 144.530,243.416 144.324 C 243.431 144.119,243.509 143.900,243.589 143.838 C 243.669 143.776,243.800 142.966,243.881 142.037 C 244.061 139.966,244.096 139.732,244.269 139.449 C 244.344 139.325,244.477 138.514,244.563 137.648 C 244.649 136.781,244.752 135.810,244.792 135.489 C 244.898 134.645,244.715 134.494,243.291 134.242 C 241.804 133.979,241.748 134.035,241.282 136.241 C 241.132 136.953,240.924 137.535,240.820 137.535 C 240.715 137.535,240.627 137.712,240.623 137.929 C 240.618 138.146,240.419 138.728,240.180 139.223 C 239.941 139.719,239.742 140.289,239.738 140.490 C 239.733 140.692,239.578 140.983,239.392 141.137 C 239.207 141.291,239.055 141.533,239.055 141.675 C 239.055 141.817,238.801 142.305,238.492 142.761 C 238.182 143.216,237.929 143.724,237.929 143.889 C 237.929 144.053,237.752 144.348,237.535 144.544 C 236.929 145.091,236.353 145.845,236.353 146.091 C 236.353 146.214,236.201 146.314,236.016 146.314 C 235.830 146.314,235.678 146.448,235.678 146.612 C 235.678 146.957,234.748 147.890,234.404 147.890 C 234.277 147.890,234.001 148.078,233.793 148.309 C 233.346 148.802,230.264 150.366,229.738 150.366 C 229.538 150.366,229.375 150.450,229.375 150.552 C 229.375 150.760,227.382 151.266,226.563 151.266 C 226.273 151.266,226.003 151.357,225.961 151.469 C 225.920 151.580,225.279 151.737,224.536 151.817 C 222.272 152.061,221.698 152.155,221.423 152.326 C 221.087 152.535,175.135 152.587,175.006 152.378 C 174.953 152.292,175.261 151.880,175.691 151.463 C 176.121 151.045,176.473 150.577,176.475 150.422 C 176.476 150.267,176.629 150.141,176.815 150.141 C 177.001 150.141,177.154 150.014,177.156 149.859 C 177.159 149.600,177.734 148.905,179.757 146.718 C 180.182 146.259,180.529 145.812,180.529 145.726 C 180.529 145.639,181.238 144.782,182.105 143.823 C 182.971 142.863,183.680 142.019,183.680 141.948 C 183.680 141.877,184.136 141.376,184.693 140.834 C 185.250 140.293,185.708 139.759,185.711 139.649 C 185.713 139.539,186.470 138.638,187.392 137.648 C 188.314 136.657,189.072 135.745,189.076 135.620 C 189.080 135.496,189.423 135.081,189.840 134.699 C 190.256 134.317,190.686 133.850,190.796 133.660 C 190.906 133.471,191.654 132.586,192.459 131.694 C 193.264 130.802,194.015 129.902,194.128 129.695 C 194.242 129.488,195.179 128.396,196.211 127.267 C 197.242 126.139,198.087 125.118,198.087 124.999 C 198.087 124.880,198.441 124.487,198.875 124.126 C 199.308 123.765,199.662 123.342,199.662 123.186 C 199.662 123.031,199.814 122.904,200.000 122.904 C 200.186 122.904,200.338 122.786,200.338 122.642 C 200.338 122.498,200.945 121.696,201.688 120.860 C 202.431 120.024,203.039 119.231,203.039 119.096 C 203.039 118.962,203.191 118.852,203.376 118.852 C 203.562 118.852,203.717 118.725,203.721 118.571 C 203.724 118.416,204.430 117.530,205.290 116.601 C 206.149 115.672,206.855 114.810,206.859 114.685 C 206.863 114.560,207.177 114.206,207.557 113.897 C 207.938 113.589,208.390 113.084,208.562 112.774 C 208.734 112.465,209.635 111.401,210.564 110.411 C 212.346 108.512,212.472 108.272,211.930 107.822 C 211.745 107.668,211.593 107.450,211.593 107.337 C 211.593 107.224,211.289 106.835,210.917 106.472 C 210.546 106.109,210.242 105.743,210.242 105.659 C 210.242 105.576,209.786 104.974,209.229 104.322 C 208.672 103.669,208.216 103.068,208.216 102.985 C 208.216 102.902,207.710 102.252,207.091 101.540 C 206.472 100.829,205.965 100.179,205.965 100.097 C 205.965 100.015,205.661 99.657,205.290 99.302 C 204.918 98.947,204.615 98.578,204.615 98.480 C 204.615 98.383,204.159 97.770,203.602 97.118 C 203.044 96.466,202.589 95.831,202.589 95.706 C 202.589 95.581,202.513 95.446,202.420 95.404 C 202.195 95.304,200.338 93.053,200.338 92.880 C 200.338 92.806,200.034 92.454,199.662 92.099 C 199.291 91.744,198.987 91.380,198.987 91.289 C 198.987 91.198,198.531 90.591,197.974 89.938 C 197.417 89.286,196.961 88.687,196.961 88.606 C 196.961 88.526,196.721 88.182,196.428 87.843 C 194.812 85.973,193.360 84.183,193.360 84.061 C 193.360 83.984,192.904 83.387,192.347 82.735 C 191.790 82.083,191.334 81.458,191.334 81.346 C 191.334 81.235,191.030 80.892,190.658 80.585 C 190.287 80.278,189.983 79.933,189.983 79.817 C 189.983 79.702,189.477 79.025,188.858 78.313 C 188.239 77.602,187.732 76.951,187.732 76.869 C 187.732 76.786,187.276 76.184,186.719 75.532 C 186.162 74.880,185.706 74.255,185.706 74.143 C 185.706 74.031,185.402 73.689,185.031 73.382 C 184.660 73.075,184.356 72.730,184.356 72.614 C 184.356 72.499,183.849 71.822,183.230 71.110 C 182.611 70.398,182.105 69.755,182.105 69.680 C 182.105 69.605,181.548 68.868,180.867 68.042 C 180.186 67.217,179.629 66.434,179.629 66.303 C 179.629 66.137,185.900 66.082,200.394 66.120 C 220.570 66.174,221.681 66.192,222.397 66.475 C 222.583 66.548,223.282 66.664,223.952 66.733 C 224.621 66.801,225.279 66.944,225.415 67.051 C 225.550 67.158,226.056 67.317,226.538 67.404 C 227.901 67.650,229.798 68.831,231.421 70.445 C 232.954 71.969,233.159 72.272,234.328 74.733 C 234.710 75.537,235.106 76.351,235.208 76.540 C 235.311 76.729,235.527 77.640,235.689 78.566 C 235.852 79.491,236.056 80.298,236.143 80.360 C 236.317 80.483,236.701 83.842,236.783 85.955 C 236.797 86.325,236.904 86.448,237.134 86.359 C 237.316 86.289,237.525 86.331,237.600 86.451 C 237.674 86.572,237.855 86.595,238.001 86.504 C 238.359 86.279,238.885 86.278,239.203 86.501 C 239.815 86.930,240.056 82.938,239.462 82.222 C 239.292 82.017,239.304 81.936,239.505 81.936 C 239.701 81.936,239.716 81.851,239.557 81.654 C 239.431 81.500,239.267 80.158,239.193 78.672 C 238.892 72.664,238.796 71.229,238.670 70.906 C 238.598 70.720,238.518 70.214,238.492 69.781 C 238.466 69.347,238.370 67.676,238.280 66.066 C 238.189 64.457,238.010 63.014,237.882 62.859 C 237.744 62.692,237.737 62.577,237.864 62.577 C 238.104 62.577,238.100 61.773,237.859 61.532 C 237.774 61.446,237.704 60.938,237.704 60.403 L 237.704 59.428 197.186 59.371 L 156.669 59.313 156.669 60.914 " stroke="none" fill="#040404" fill-rule="evenodd"></path><path id="path2" d="" stroke="none" fill="#bc10080" fill-rule="evenodd"></path><path id="path3" d="" stroke="none" fill="#bc10080" fill-rule="evenodd"></path><path id="path4" d="" stroke="none" fill="#bc10080" fill-rule="evenodd"></path></g></svg>