<?xml version="1.0" standalone="no"?>
<!DOCTYPE svg PUBLIC "-//W3C//DTD SVG 20010904//EN"
 "http://www.w3.org/TR/2001/REC-SVG-20010904/DTD/svg10.dtd">
<svg version="1.0" xmlns="http://www.w3.org/2000/svg"
 width="187.000000pt" height="188.000000pt" viewBox="0 0 187.000000 188.000000"
 preserveAspectRatio="xMidYMid meet">
<metadata>
Created by potrace 1.16, written by Peter Selinger 2001-2019
</metadata>
<g transform="translate(0.000000,188.000000) scale(0.100000,-0.100000)"
fill="#000000" stroke="none">
<path d="M205 1653 c-22 -58 -41 -110 -43 -115 -2 -4 13 -8 33 -8 l37 0 -7
-623 c-7 -590 -7 -623 10 -637 15 -13 110 -16 634 -20 l616 -5 3 -36 3 -36
115 41 c62 22 114 43 114 46 0 4 -46 24 -102 45 -57 21 -109 40 -115 42 -9 4
-13 -6 -13 -32 l0 -38 -617 8 c-340 4 -618 8 -619 9 0 0 2 278 5 616 l6 615
33 3 c17 2 32 6 32 10 0 14 -75 222 -80 222 -3 0 -24 -48 -45 -107z"/>
<path d="M1277 1105 c-82 -151 -152 -275 -155 -275 -4 0 -35 49 -69 109 -50
85 -67 107 -83 106 -12 -1 -64 -44 -116 -96 l-96 -94 -53 60 c-48 52 -55 57
-61 40 -4 -11 -43 -85 -86 -164 -43 -80 -75 -148 -70 -153 4 -4 43 58 87 140
43 81 79 148 80 150 1 1 25 -21 54 -50 l52 -52 104 104 c57 57 106 102 109 99
2 -2 34 -55 71 -117 56 -96 68 -111 83 -103 10 5 75 115 145 244 70 128 138
255 153 280 18 33 22 47 12 47 -7 0 -80 -124 -161 -275z"/>
<path d="M1390 918 c-127 -156 -234 -284 -239 -286 -5 -2 -37 31 -72 73 -34
42 -67 74 -73 72 -6 -2 -31 -51 -56 -110 -25 -58 -48 -109 -52 -112 -3 -4 -52
21 -108 55 -56 35 -110 63 -121 64 -19 1 -308 -211 -309 -226 -1 -19 27 -2
152 95 73 57 138 106 145 110 7 5 60 -22 126 -63 63 -38 118 -70 123 -70 5 0
26 45 48 100 56 146 50 143 124 55 34 -41 67 -75 71 -75 8 0 465 555 485 588
4 6 3 12 -3 12 -6 0 -114 -127 -241 -282z"/>
</g>
</svg>
