<svg id="svg" version="1.1" xmlns="http://www.w3.org/2000/svg" xmlns:xlink="http://www.w3.org/1999/xlink" width="400" height="577.0491803278688" viewBox="0, 0, 400,577.0491803278688"><g id="svgg"><path id="path0" d="M186.492 124.301 C 185.303 124.702,184.800 126.732,184.800 131.130 C 184.800 138.241,182.835 147.957,180.980 150.018 C 179.827 151.300,178.124 160.977,177.382 170.469 L 177.111 173.938 178.810 174.805 L 180.510 175.672 181.413 174.736 C 182.085 174.041,182.596 172.473,183.400 168.642 C 184.599 162.931,185.703 159.391,186.591 158.410 C 187.382 157.536,188.628 152.063,189.397 146.087 C 190.181 139.996,190.302 139.682,192.784 137.291 C 195.734 134.447,195.314 128.577,192.100 127.746 C 191.605 127.618,191.200 127.378,191.200 127.213 C 191.200 126.700,187.029 124.120,186.492 124.301 M218.861 125.227 C 217.756 126.412,217.614 127.687,218.187 131.265 C 218.637 134.074,218.594 135.060,217.773 140.819 C 216.388 150.532,215.610 153.298,213.852 154.757 C 211.483 156.723,210.362 166.489,212.013 170.770 L 213.242 173.957 215.121 174.279 C 217.551 174.694,223.350 174.594,225.400 174.100 L 227.000 173.715 225.800 173.431 C 217.849 171.545,216.414 170.421,216.952 166.500 C 217.207 164.638,218.611 160.983,219.457 159.980 C 220.334 158.939,221.124 156.233,222.406 149.878 C 223.680 143.565,224.667 140.151,225.463 139.307 C 227.471 137.180,227.551 132.979,225.612 131.545 C 224.978 131.077,224.349 130.250,224.212 129.707 C 223.882 128.391,222.508 126.578,220.928 125.372 L 219.640 124.390 218.861 125.227 M173.370 127.777 C 173.237 128.308,173.319 129.070,173.552 129.471 C 173.785 129.872,173.981 129.988,173.988 129.729 C 173.995 129.469,174.231 129.019,174.514 128.729 C 174.934 128.297,174.899 128.073,174.320 127.506 C 173.647 126.846,173.600 126.860,173.370 127.777 M197.000 127.973 L 195.800 128.270 196.838 128.563 C 198.210 128.950,201.000 128.707,201.000 128.200 C 201.000 127.707,198.622 127.572,197.000 127.973 M232.619 163.000 C 232.124 167.405,232.139 167.800,232.800 167.800 C 233.551 167.800,233.793 164.980,233.286 162.161 L 232.933 160.200 232.619 163.000 M114.475 282.706 C 113.268 286.736,112.481 298.337,113.185 301.728 C 114.503 308.076,116.031 305.340,117.036 294.836 C 117.655 288.358,118.052 287.390,120.422 286.593 C 122.237 285.982,122.348 284.657,120.600 284.476 C 117.874 284.194,116.359 283.552,115.645 282.379 L 114.927 281.198 114.475 282.706 M139.977 283.025 C 138.998 284.067,138.230 290.163,138.697 293.190 C 139.099 295.797,141.200 298.996,141.200 297.000 C 141.200 296.670,141.352 296.400,141.537 296.400 C 142.100 296.400,143.149 291.991,143.380 288.653 C 143.707 283.925,141.915 280.961,139.977 283.025 M133.833 302.681 C 132.608 306.271,132.523 311.233,133.663 312.559 L 134.634 313.688 135.972 312.562 L 137.310 311.437 137.048 307.443 C 136.659 301.515,135.047 299.125,133.833 302.681 M284.493 324.334 C 283.221 325.142,283.104 327.381,283.189 349.257 C 283.293 375.541,283.403 374.961,277.984 376.561 L 276.348 377.045 280.874 378.094 C 284.694 378.980,285.743 379.085,287.600 378.764 C 288.810 378.555,291.775 378.203,294.190 377.982 C 300.519 377.403,300.844 376.726,295.177 375.925 C 287.915 374.898,288.000 375.204,288.000 350.058 C 288.000 328.313,287.712 324.989,285.764 324.242 C 285.004 323.950,285.110 323.942,284.493 324.334 M79.600 342.435 C 72.887 343.530,71.609 343.971,72.019 345.049 C 72.228 345.601,72.404 346.985,72.409 348.126 C 72.421 351.095,74.865 355.600,76.463 355.600 C 77.068 355.600,79.812 360.179,80.751 362.753 C 81.387 364.498,81.954 365.363,82.722 365.763 C 84.255 366.561,85.461 367.961,86.204 369.805 C 86.571 370.716,87.937 372.430,89.387 373.800 C 91.276 375.585,92.396 377.115,93.758 379.770 C 94.867 381.934,96.148 383.802,97.011 384.513 C 97.793 385.158,99.036 386.881,99.773 388.343 C 100.566 389.917,101.741 391.506,102.656 392.241 C 103.691 393.072,104.773 394.629,105.940 396.965 C 107.029 399.147,108.001 400.574,108.540 400.783 C 110.391 401.498,113.095 406.055,113.771 409.600 C 113.918 410.370,114.238 411.897,114.481 412.993 L 114.924 414.986 115.422 413.549 C 116.236 411.197,117.903 408.875,119.706 407.579 C 121.304 406.432,122.800 404.383,122.800 403.343 C 122.800 403.086,121.920 402.138,120.844 401.237 C 119.422 400.046,118.502 398.785,117.469 396.610 C 116.630 394.844,115.218 392.756,114.020 391.510 C 112.905 390.350,111.287 388.050,110.424 386.400 C 109.265 384.181,108.495 383.207,107.464 382.656 C 106.388 382.082,105.685 381.146,104.368 378.537 C 103.086 375.995,102.270 374.895,101.062 374.081 C 99.903 373.299,98.947 372.053,97.603 369.573 C 96.582 367.688,95.353 365.753,94.873 365.273 C 94.393 364.793,93.997 364.265,93.993 364.100 C 93.989 363.935,93.197 362.958,92.231 361.929 C 91.266 360.900,90.358 359.520,90.213 358.861 C 89.943 357.628,88.984 356.498,86.821 354.862 C 83.628 352.446,84.126 348.873,87.939 346.833 C 90.007 345.726,155.205 346.401,155.983 347.538 C 156.102 347.712,157.001 348.171,157.980 348.556 C 158.959 348.942,160.329 349.758,161.026 350.369 C 161.722 350.980,163.711 352.057,165.446 352.761 C 170.049 354.631,170.366 354.824,171.899 356.695 C 173.092 358.151,173.516 358.400,174.798 358.400 C 178.452 358.400,178.800 358.644,178.800 361.204 C 178.800 364.177,180.018 366.815,181.010 365.992 C 182.466 364.783,181.573 358.400,179.947 358.400 C 179.536 358.400,179.200 358.130,179.200 357.800 C 179.200 357.470,179.025 357.200,178.810 357.200 C 177.993 357.200,177.245 354.802,176.623 350.186 C 175.809 344.152,175.533 343.459,173.676 342.778 C 171.921 342.133,83.426 341.811,79.600 342.435 M238.703 402.830 C 238.057 403.207,238.053 403.309,238.649 404.218 L 239.292 405.200 285.400 405.200 L 331.508 405.200 332.128 404.254 C 332.590 403.548,332.632 403.192,332.294 402.854 C 331.688 402.248,239.743 402.225,238.703 402.830 M107.597 422.406 C 107.254 423.046,107.298 423.263,107.810 423.459 C 108.648 423.781,109.296 423.116,108.970 422.267 C 108.628 421.374,108.121 421.426,107.597 422.406 M101.258 428.930 C 100.895 429.368,100.924 429.605,101.390 429.992 C 101.880 430.398,102.038 430.366,102.248 429.818 C 102.607 428.883,101.856 428.209,101.258 428.930 M94.952 435.782 C 94.593 436.717,95.344 437.391,95.942 436.670 C 96.305 436.232,96.276 435.995,95.810 435.608 C 95.320 435.202,95.162 435.234,94.952 435.782 M179.670 441.502 C 179.160 442.218,178.800 443.326,178.800 444.180 C 178.800 446.143,177.359 447.600,175.418 447.600 C 174.020 447.600,172.400 448.694,172.400 449.638 C 172.400 450.837,170.535 452.458,167.473 453.920 C 165.616 454.806,163.870 455.939,163.507 456.492 C 162.055 458.709,155.796 459.975,146.200 459.995 C 142.415 460.003,140.095 460.223,137.675 460.803 C 134.546 461.553,132.962 461.599,110.875 461.590 C 86.861 461.580,84.750 461.461,82.734 459.999 C 79.860 457.916,75.472 458.131,73.611 460.446 L 72.301 462.076 73.091 463.138 C 74.364 464.848,75.653 465.089,78.726 464.192 C 80.741 463.604,82.435 463.431,85.600 463.489 C 87.910 463.532,99.870 463.678,112.178 463.814 C 129.451 464.004,134.789 464.180,135.578 464.584 C 137.577 465.610,140.857 466.046,143.000 465.571 C 144.103 465.327,151.372 465.009,159.200 464.864 C 174.757 464.575,175.672 464.414,176.169 461.873 C 177.741 453.837,178.405 451.667,179.601 450.660 C 180.477 449.924,180.851 449.022,181.491 446.108 L 182.290 442.475 181.415 441.378 L 180.540 440.280 179.670 441.502 M87.808 442.375 C 87.338 443.856,88.408 444.897,89.272 443.799 C 90.166 442.662,90.191 442.159,89.367 441.843 C 88.354 441.454,88.069 441.551,87.808 442.375 M284.290 445.501 C 282.508 447.470,282.643 450.081,284.592 451.358 C 285.428 451.906,285.568 451.883,286.292 451.077 C 287.602 449.621,287.653 448.878,286.589 446.778 C 285.489 444.607,285.229 444.463,284.290 445.501 M271.105 447.442 C 269.669 448.201,269.359 449.572,270.217 451.380 C 271.346 453.759,272.114 453.861,273.131 451.767 C 274.630 448.682,273.465 446.195,271.105 447.442 M264.859 461.897 C 264.415 463.824,263.846 467.200,263.595 469.400 C 263.344 471.600,262.905 473.878,262.619 474.462 C 261.977 475.775,264.759 476.911,266.582 476.081 C 268.841 475.052,268.329 460.039,265.985 458.591 C 265.811 458.483,265.304 459.971,264.859 461.897 M251.505 472.196 L 250.409 475.400 251.249 476.100 C 252.302 476.977,252.722 476.975,254.726 476.078 C 256.204 475.416,256.276 475.315,255.583 474.882 C 254.733 474.351,253.682 472.503,253.033 470.396 L 252.600 468.993 251.505 472.196 M304.114 480.212 C 303.506 481.487,303.494 481.943,303.990 484.912 C 304.292 486.720,304.611 489.775,304.698 491.700 C 304.785 493.625,305.033 495.200,305.249 495.200 C 305.477 495.200,305.625 493.743,305.604 491.700 C 305.584 489.775,305.745 487.480,305.962 486.600 C 306.622 483.920,306.582 481.496,305.856 480.100 C 305.012 478.478,304.938 478.483,304.114 480.212 M74.249 493.611 C 72.664 495.002,72.693 495.303,74.513 496.410 C 76.978 497.910,78.926 495.436,76.847 493.445 L 75.695 492.341 74.249 493.611 M171.400 494.582 C 170.520 494.876,170.024 495.135,170.299 495.158 C 170.573 495.181,171.473 495.803,172.299 496.541 C 173.124 497.278,174.286 497.999,174.881 498.143 C 175.476 498.288,176.466 498.839,177.081 499.368 L 178.200 500.330 178.311 521.001 C 178.419 541.232,178.404 541.700,177.602 542.997 C 176.653 544.533,173.124 546.123,169.695 546.560 C 163.100 547.401,166.183 547.988,177.200 547.988 C 187.183 547.988,189.710 547.666,186.369 546.820 C 181.007 545.463,181.435 547.786,181.200 518.818 L 181.000 494.200 177.000 494.124 C 174.529 494.077,172.388 494.252,171.400 494.582 M68.043 523.989 C 66.507 527.560,66.548 529.803,68.221 533.793 L 68.889 535.387 69.870 532.793 C 71.243 529.162,71.464 526.807,70.634 524.634 C 69.548 521.790,69.043 521.665,68.043 523.989 M95.000 534.000 C 94.308 535.120,95.878 535.200,118.524 535.194 C 141.154 535.188,143.986 535.047,142.400 534.006 C 141.573 533.463,95.336 533.457,95.000 534.000 M62.212 540.363 C 61.774 541.742,62.498 542.597,63.328 541.680 C 63.968 540.973,63.963 540.890,63.239 540.236 C 62.508 539.574,62.460 539.580,62.212 540.363 " stroke="none" fill="#383838" fill-rule="evenodd"></path><path id="path1" d="M0.000 288.400 L 0.000 576.800 200.000 576.800 L 400.000 576.800 400.000 288.400 L 400.000 0.000 200.000 0.000 L 0.000 0.000 0.000 288.400 M185.000 117.986 C 187.081 118.329,187.613 118.611,189.000 120.103 C 193.009 124.414,200.705 124.803,203.054 120.812 C 205.641 116.417,218.116 116.084,222.000 120.306 C 222.990 121.382,224.983 123.096,226.429 124.115 C 227.874 125.134,229.289 126.470,229.572 127.084 C 231.994 132.337,230.791 145.129,227.549 148.607 C 226.930 149.271,226.208 150.441,225.946 151.207 C 225.684 151.973,225.313 152.704,225.122 152.831 C 224.129 153.493,223.722 166.309,224.665 167.211 C 226.209 168.687,226.976 167.891,228.068 163.678 C 229.727 157.277,231.511 155.517,234.824 157.011 C 237.801 158.353,238.329 159.661,237.773 164.312 C 237.160 169.444,236.543 170.471,232.875 172.467 C 232.201 172.834,231.278 173.863,230.824 174.754 C 230.369 175.644,229.652 176.558,229.230 176.784 C 228.808 177.010,228.147 177.510,227.761 177.896 C 226.944 178.713,213.437 178.981,212.886 178.191 C 212.729 177.966,212.107 177.468,211.505 177.085 C 210.395 176.379,208.800 173.743,208.800 172.616 C 208.800 172.277,208.642 172.000,208.449 172.000 C 207.581 172.000,206.940 167.466,207.459 165.000 C 207.738 163.680,207.973 162.105,207.983 161.500 C 207.992 160.895,208.180 160.400,208.400 160.400 C 208.620 160.400,208.800 159.696,208.800 158.835 C 208.800 154.546,210.484 148.991,212.388 147.000 C 215.169 144.091,216.046 132.586,213.875 127.500 C 213.414 126.422,211.062 126.227,210.400 127.213 C 210.290 127.377,209.515 127.699,208.679 127.929 C 207.807 128.169,206.493 129.032,205.601 129.952 C 204.550 131.034,203.369 131.757,201.970 132.172 C 199.182 133.000,198.933 133.266,197.994 136.421 C 197.444 138.266,196.618 139.841,195.444 141.283 C 193.471 143.704,192.663 146.485,192.184 152.500 C 192.031 154.425,191.783 156.000,191.634 156.000 C 191.484 156.000,191.158 157.575,190.910 159.500 C 190.317 164.085,189.363 166.894,187.933 168.264 C 187.132 169.032,186.455 170.417,185.749 172.731 C 184.697 176.181,183.398 178.057,181.602 178.721 C 180.625 179.083,176.757 178.563,176.401 178.022 C 176.291 177.854,175.557 177.506,174.771 177.250 C 172.229 176.422,170.667 174.396,170.985 172.338 C 171.465 169.238,172.364 166.557,173.168 165.829 C 173.601 165.437,174.077 164.551,174.228 163.859 C 174.378 163.166,174.640 162.510,174.811 162.400 C 174.982 162.290,175.502 158.690,175.967 154.400 C 176.432 150.110,177.009 145.114,177.248 143.297 C 177.488 141.481,177.580 139.726,177.454 139.397 C 176.940 138.056,170.797 139.000,168.552 140.766 C 167.162 141.860,166.996 141.653,166.219 137.858 L 165.576 134.716 167.132 133.027 C 168.407 131.645,168.813 130.781,169.372 128.267 C 170.090 125.039,171.216 123.235,173.148 122.216 C 173.726 121.911,175.029 120.871,176.041 119.905 C 177.054 118.940,178.494 117.962,179.241 117.732 C 180.639 117.302,180.921 117.314,185.000 117.986 M180.178 126.835 C 179.731 127.559,177.987 133.842,177.731 135.656 C 177.246 139.081,180.325 140.311,181.153 137.023 C 182.100 133.261,181.310 125.004,180.178 126.835 M354.757 223.418 C 359.011 224.385,359.883 225.371,360.299 229.680 C 360.668 233.506,360.397 234.294,358.348 235.357 C 355.060 237.063,361.079 237.000,201.129 237.000 L 49.259 237.000 48.154 236.175 C 44.882 233.733,44.585 227.321,47.603 224.303 L 49.106 222.800 200.574 222.800 C 335.684 222.800,352.335 222.867,354.757 223.418 M117.480 275.666 C 118.184 276.092,119.132 277.043,119.588 277.780 C 120.883 279.877,122.549 279.964,123.605 277.990 C 125.625 274.216,138.826 273.857,142.822 277.468 C 145.897 280.246,146.836 285.027,146.019 293.754 C 145.480 299.506,145.803 301.230,147.520 301.775 C 151.791 303.130,152.593 312.774,148.600 314.767 C 148.160 314.987,147.032 315.362,146.094 315.600 C 144.772 315.936,144.166 316.386,143.400 317.600 C 141.836 320.078,141.100 320.276,138.842 318.827 C 137.790 318.152,136.496 317.596,135.965 317.591 C 134.773 317.580,131.975 316.339,131.298 315.520 C 128.316 311.916,130.021 296.065,133.829 291.994 C 135.051 290.687,135.986 285.766,135.299 284.259 C 134.877 283.332,134.613 283.253,131.523 283.123 C 127.555 282.958,127.538 282.968,126.428 286.012 C 125.514 288.519,124.211 290.050,122.327 290.830 C 120.975 291.390,120.598 292.576,119.995 298.160 C 118.818 309.072,118.211 311.202,115.463 314.070 C 114.511 315.064,112.495 316.533,110.983 317.336 L 108.234 318.796 106.883 317.498 C 103.014 313.781,103.417 304.878,107.659 300.337 C 109.768 298.079,110.579 291.387,109.130 288.205 C 108.072 285.883,103.097 287.546,102.525 290.413 C 101.978 293.151,101.408 292.436,101.283 288.857 L 101.166 285.514 102.591 284.257 C 103.758 283.228,104.093 282.572,104.440 280.637 C 105.200 276.400,106.518 275.289,111.330 274.831 C 115.011 274.480,115.667 274.569,117.480 275.666 M289.519 321.657 C 289.893 321.945,290.783 322.725,291.496 323.390 L 292.791 324.600 292.796 347.683 L 292.800 370.765 296.019 371.782 C 303.262 374.070,305.219 378.125,300.296 380.648 C 299.583 381.013,298.898 381.468,298.774 381.660 C 298.432 382.187,279.219 382.273,278.878 381.749 C 278.725 381.514,277.105 381.209,275.277 381.071 C 266.355 380.400,266.331 373.587,275.249 372.939 C 277.834 372.751,278.806 372.509,279.500 371.878 L 280.400 371.061 280.400 354.112 C 280.400 335.854,280.019 331.587,278.446 332.213 C 278.091 332.354,276.540 332.798,275.000 333.199 L 272.200 333.928 270.939 332.724 C 265.542 327.567,283.381 316.940,289.519 321.657 M175.896 340.108 C 177.801 341.149,178.470 342.454,179.424 346.987 C 180.229 350.809,180.392 351.171,182.064 352.843 C 186.314 357.093,186.394 369.008,182.190 371.606 L 180.739 372.503 179.136 370.951 C 177.325 369.200,176.138 367.124,175.678 364.906 C 175.396 363.551,175.108 363.274,172.795 362.139 C 170.241 360.886,168.000 358.880,168.000 357.847 C 168.000 357.357,163.451 355.711,158.556 354.430 C 157.652 354.193,156.109 353.293,155.128 352.429 C 151.802 349.502,152.267 349.537,118.852 349.677 C 85.142 349.818,84.869 349.846,90.046 352.663 C 91.818 353.628,92.234 354.116,93.423 356.622 C 94.427 358.737,95.185 359.749,96.341 360.513 C 98.151 361.711,99.031 363.070,100.638 367.147 C 101.569 369.508,102.096 370.282,103.290 371.045 C 105.055 372.173,105.899 373.365,106.578 375.689 C 106.932 376.899,107.476 377.655,108.439 378.272 C 110.610 379.662,112.400 381.239,112.400 381.761 C 112.400 383.047,114.546 386.390,115.981 387.340 C 117.566 388.389,120.800 393.957,120.800 395.637 C 120.800 396.047,121.295 396.693,121.900 397.074 C 127.694 400.719,127.955 406.582,122.561 411.936 C 121.148 413.338,119.640 415.299,119.187 416.322 C 118.165 418.633,117.407 419.477,115.467 420.468 C 114.307 421.060,113.709 421.755,113.010 423.325 C 111.960 425.683,110.884 426.797,108.632 427.860 C 107.340 428.469,106.881 429.024,106.032 431.000 C 104.659 434.194,104.586 434.289,102.802 435.199 C 101.953 435.632,101.129 436.392,100.972 436.888 C 100.454 438.520,98.763 440.717,97.181 441.813 C 96.325 442.407,95.093 443.816,94.444 444.946 C 93.795 446.076,92.072 448.260,90.616 449.800 C 89.159 451.340,87.486 453.296,86.899 454.148 L 85.830 455.695 86.994 456.697 L 88.158 457.698 118.579 457.479 C 151.539 457.241,153.356 457.124,156.101 455.065 C 157.727 453.844,161.797 452.118,165.200 451.207 C 167.759 450.522,167.822 450.472,169.200 448.027 C 170.375 445.942,170.981 445.334,172.967 444.249 C 174.928 443.179,175.426 442.685,175.868 441.378 C 176.746 438.780,177.302 437.968,178.991 436.813 L 180.600 435.713 182.272 436.428 C 185.443 437.785,186.091 440.459,185.044 447.868 C 184.292 453.193,183.233 456.235,181.583 457.816 C 180.773 458.592,180.085 459.913,179.518 461.779 C 177.362 468.877,176.611 469.145,158.018 469.459 C 152.156 469.558,147.230 469.809,146.974 470.021 C 144.522 472.056,143.265 472.156,118.279 472.309 L 94.758 472.452 90.679 471.455 C 83.462 469.691,82.903 469.600,79.229 469.600 C 72.128 469.600,69.753 468.602,68.271 464.993 L 67.160 462.286 68.115 461.243 C 68.641 460.669,69.492 459.570,70.005 458.800 C 71.737 456.204,74.434 453.227,75.521 452.712 C 76.236 452.373,77.072 451.257,78.000 449.404 C 78.970 447.465,79.830 446.340,80.800 445.735 C 82.844 444.463,83.920 443.276,84.204 441.981 C 84.576 440.286,85.842 438.894,88.005 437.798 C 89.490 437.045,90.038 436.498,90.398 435.407 C 90.654 434.629,91.075 433.762,91.332 433.479 C 91.590 433.197,91.996 432.614,92.236 432.183 C 92.476 431.752,93.412 430.987,94.315 430.482 C 95.219 429.977,96.082 429.167,96.234 428.682 C 96.700 427.192,98.668 424.642,100.002 423.800 C 100.699 423.360,102.276 421.482,103.508 419.627 C 104.739 417.772,106.601 415.381,107.646 414.314 C 110.271 411.634,110.734 410.103,109.555 408.006 C 109.059 407.123,108.437 406.400,108.173 406.400 C 106.833 406.400,103.593 401.663,102.634 398.300 C 102.238 396.912,101.756 396.000,101.420 396.000 C 100.294 396.000,98.266 393.775,97.174 391.342 C 96.327 389.454,95.660 388.595,94.444 387.828 C 93.559 387.269,92.620 386.404,92.357 385.906 C 92.095 385.408,91.738 384.906,91.564 384.791 C 91.391 384.677,90.687 383.331,90.000 381.800 C 89.177 379.965,87.946 378.179,86.387 376.555 C 84.627 374.722,83.891 373.600,83.511 372.171 C 83.125 370.721,82.710 370.097,81.817 369.625 C 79.842 368.582,78.489 367.017,78.004 365.214 C 77.383 362.909,76.102 361.040,74.724 360.430 C 73.381 359.836,71.562 357.309,70.004 353.874 C 69.387 352.512,68.516 351.067,68.069 350.662 C 67.249 349.920,65.200 345.302,65.200 344.196 C 65.200 343.868,65.900 342.900,66.756 342.044 C 69.469 339.331,70.220 339.297,127.200 339.353 C 171.749 339.397,174.678 339.443,175.896 340.108 M332.067 398.700 C 332.140 398.865,332.876 399.313,333.703 399.695 C 337.695 401.541,337.479 406.286,333.228 410.127 L 331.598 411.600 285.413 411.600 L 239.228 411.600 237.841 410.382 C 233.599 406.658,233.601 400.418,237.845 399.353 C 238.370 399.221,238.800 398.953,238.800 398.757 C 238.800 398.323,331.874 398.267,332.067 398.700 M269.052 439.961 C 270.400 440.598,271.633 441.330,271.792 441.586 C 272.003 441.929,272.254 441.897,272.740 441.466 C 275.595 438.931,283.768 437.981,286.625 439.853 C 289.529 441.756,291.444 448.833,289.871 451.855 C 287.005 457.367,280.840 455.951,279.413 449.453 C 279.069 447.888,278.885 448.202,278.002 451.851 C 277.127 455.469,275.335 460.851,274.897 461.178 C 271.866 463.441,270.096 471.030,272.126 473.059 C 272.319 473.253,279.854 472.137,280.326 471.846 C 280.612 471.669,281.304 470.558,281.863 469.377 C 283.501 465.918,285.075 464.651,286.415 465.713 C 290.709 469.117,288.282 474.818,280.856 478.773 C 280.336 479.049,278.645 479.627,277.096 480.056 C 275.548 480.485,273.841 481.181,273.305 481.604 C 272.338 482.364,272.318 482.363,271.132 481.486 C 268.734 479.712,259.590 479.990,253.000 482.037 C 252.154 482.300,245.669 478.408,244.053 476.668 C 242.834 475.355,243.161 474.319,246.283 469.613 C 250.317 463.533,254.225 462.783,256.574 467.639 C 256.999 468.518,257.808 469.699,258.370 470.261 L 259.393 471.284 260.086 469.742 C 260.467 468.894,260.784 467.565,260.790 466.788 C 260.805 464.643,261.932 455.798,262.640 452.262 L 263.268 449.124 262.334 448.124 C 259.820 445.432,257.425 445.643,256.561 448.634 C 255.848 451.104,254.936 452.648,253.654 453.561 L 252.497 454.386 251.148 453.480 C 247.882 451.285,248.380 446.822,252.152 444.483 C 253.112 443.887,254.279 442.821,254.744 442.113 C 256.892 438.847,264.333 437.728,269.052 439.961 M314.951 451.705 C 315.977 455.928,315.973 455.832,315.158 457.173 C 313.185 460.418,309.705 460.175,307.735 456.655 C 307.290 455.861,307.806 451.967,308.404 451.597 C 308.587 451.484,308.864 450.854,309.019 450.196 C 309.174 449.538,309.855 448.414,310.530 447.699 L 311.759 446.398 313.004 447.604 C 313.934 448.506,314.426 449.540,314.951 451.705 M309.955 465.230 C 313.579 465.841,314.762 467.569,314.783 472.283 L 314.800 475.966 313.162 477.683 C 309.962 481.036,309.775 484.087,312.585 487.067 C 315.954 490.638,314.564 496.688,310.030 498.187 C 301.396 501.043,297.890 496.235,299.890 484.280 C 300.452 480.921,299.820 478.344,298.009 476.609 C 296.856 475.504,296.800 475.298,296.800 472.173 L 296.800 468.895 298.641 467.248 C 299.653 466.341,300.598 465.592,300.741 465.582 C 300.883 465.573,301.900 465.324,303.000 465.031 C 304.980 464.502,305.769 464.525,309.955 465.230 M79.635 491.211 C 81.793 493.720,81.763 496.272,79.551 498.251 C 75.350 502.009,67.806 498.146,69.987 493.354 C 72.038 488.848,76.710 487.810,79.635 491.211 M182.553 490.412 C 185.204 492.740,185.200 492.699,185.200 518.409 C 185.200 544.463,184.904 542.203,188.474 543.419 C 192.225 544.697,194.004 547.268,192.278 548.918 C 188.697 552.344,188.456 552.400,177.200 552.400 C 166.478 552.400,165.791 552.271,163.300 549.780 C 160.900 547.380,161.844 544.745,165.520 543.580 C 166.334 543.322,167.765 542.674,168.700 542.139 L 170.400 541.166 170.400 521.556 L 170.400 501.947 169.369 500.594 C 168.775 499.816,167.583 498.954,166.559 498.563 C 165.581 498.190,164.241 497.269,163.581 496.517 L 162.381 495.150 163.224 493.966 C 164.572 492.073,166.662 491.276,172.068 490.594 C 174.781 490.251,177.630 489.816,178.400 489.626 C 180.688 489.063,181.107 489.143,182.553 490.412 M72.200 509.697 C 73.300 510.241,74.692 510.804,75.292 510.948 C 75.893 511.093,77.043 511.870,77.848 512.675 L 79.312 514.138 79.066 517.874 C 78.796 521.993,78.496 522.785,76.312 525.136 C 74.944 526.609,74.778 527.054,74.243 530.648 C 73.529 535.446,73.834 536.323,76.585 537.373 C 77.656 537.782,78.841 538.631,79.444 539.422 L 80.475 540.773 79.389 544.087 C 77.905 548.612,76.743 549.795,73.148 550.437 C 71.636 550.707,70.400 551.079,70.400 551.264 C 70.400 551.449,69.770 551.600,69.000 551.600 C 68.230 551.600,67.600 551.452,67.600 551.271 C 67.600 551.089,66.475 550.735,65.100 550.482 C 62.123 549.935,59.990 548.024,59.150 545.148 C 58.869 544.187,58.480 543.290,58.286 543.156 C 57.837 542.845,57.822 539.170,58.268 538.844 C 58.453 538.710,58.961 537.520,59.398 536.200 C 59.835 534.880,60.771 533.157,61.479 532.370 C 63.186 530.474,63.449 529.670,63.795 525.280 C 64.205 520.074,62.626 518.389,60.016 521.247 C 59.390 521.933,58.159 522.815,57.280 523.209 L 55.683 523.924 54.380 522.580 L 53.078 521.236 55.310 519.003 C 56.659 517.654,57.653 516.271,57.820 515.510 C 58.338 513.151,60.850 511.035,64.817 509.616 C 66.783 508.912,68.501 508.159,68.636 507.942 C 68.784 507.702,69.137 507.774,69.540 508.128 C 69.903 508.448,71.100 509.154,72.200 509.697 M142.300 514.252 C 143.147 514.479,143.200 514.701,143.200 518.029 L 143.200 521.564 141.900 521.796 C 141.185 521.924,130.340 521.977,117.800 521.914 L 95.000 521.800 94.883 518.433 C 94.818 516.582,94.858 514.827,94.970 514.533 C 95.184 513.976,140.269 513.708,142.300 514.252 M145.800 530.537 C 148.293 531.267,150.800 533.205,150.800 534.400 C 150.800 535.595,148.293 537.533,145.800 538.263 C 143.653 538.893,140.870 538.981,119.384 539.103 L 95.368 539.240 93.199 538.107 C 88.769 535.793,88.769 533.007,93.199 530.693 L 95.368 529.560 119.384 529.697 C 140.870 529.819,143.653 529.907,145.800 530.537 " stroke="none" fill="#fbfbfb" fill-rule="evenodd"></path><path id="path2" d="M179.148 120.762 C 178.148 121.572,178.877 123.200,180.240 123.200 C 183.972 123.200,184.495 134.093,181.210 143.423 C 178.644 150.710,178.329 151.939,177.365 158.400 C 176.823 162.030,176.212 165.540,176.007 166.200 C 175.802 166.860,175.513 168.525,175.366 169.900 C 175.218 171.275,174.940 172.400,174.748 172.400 C 173.781 172.400,174.597 173.949,176.066 174.901 C 180.885 178.026,182.839 177.102,184.411 170.956 C 184.835 169.301,185.805 166.384,186.567 164.474 C 188.492 159.650,189.410 155.973,190.429 149.000 C 190.911 145.700,191.438 142.910,191.599 142.800 C 191.760 142.690,192.030 142.150,192.199 141.600 C 192.369 141.050,193.068 139.900,193.753 139.045 C 194.439 138.190,195.630 136.210,196.400 134.645 C 197.669 132.066,198.017 131.685,200.115 130.570 C 205.885 127.506,203.978 124.605,196.933 125.730 C 193.929 126.210,193.590 126.195,192.733 125.535 C 192.220 125.141,191.649 124.814,191.464 124.809 C 191.279 124.804,190.109 124.092,188.864 123.227 C 184.925 120.490,180.782 119.439,179.148 120.762 M209.031 120.558 C 204.858 121.359,205.407 122.042,210.993 122.999 C 215.540 123.777,215.480 123.704,216.413 129.629 C 217.608 137.222,216.348 145.796,213.215 151.400 C 211.631 154.233,210.929 156.681,210.060 162.400 L 209.301 167.400 210.285 170.600 C 210.923 172.677,211.676 174.217,212.429 174.987 L 213.589 176.174 220.014 176.160 L 226.438 176.146 227.718 174.867 C 229.736 172.848,228.890 171.808,224.000 170.298 C 218.425 168.577,218.204 168.284,219.843 164.800 C 221.040 162.256,221.680 160.093,222.805 154.800 C 223.677 150.696,224.748 147.121,225.200 146.800 C 226.043 146.202,228.741 137.409,228.777 135.142 C 228.819 132.501,227.337 128.611,225.695 127.052 C 218.842 120.544,215.627 119.291,209.031 120.558 M183.329 121.841 C 183.065 122.528,180.357 122.597,179.694 121.934 C 179.339 121.579,179.383 121.354,179.878 120.993 C 180.771 120.340,183.635 121.044,183.329 121.841 M215.311 121.027 C 216.201 121.240,216.330 121.402,215.962 121.846 C 215.395 122.529,213.361 122.557,210.877 121.915 L 209.000 121.430 211.000 120.958 C 212.100 120.698,213.270 120.548,213.600 120.624 C 213.930 120.700,214.700 120.881,215.311 121.027 M188.623 123.790 C 192.155 126.485,193.502 126.893,197.105 126.359 C 202.889 125.503,205.029 128.020,200.068 129.846 C 197.682 130.724,196.511 131.778,196.173 133.350 C 195.819 134.994,194.932 136.711,193.645 138.243 C 193.070 138.927,192.284 139.875,191.897 140.351 C 191.420 140.939,190.812 143.556,190.004 148.508 C 188.652 156.793,188.436 157.667,186.553 162.506 C 185.803 164.434,184.720 167.854,184.148 170.106 C 182.568 176.324,181.408 177.268,177.800 175.278 L 175.800 174.174 175.898 171.987 C 175.952 170.784,176.350 167.640,176.783 165.000 C 177.216 162.360,177.858 158.400,178.210 156.200 C 178.795 152.542,179.244 151.002,181.652 144.400 C 183.287 139.918,183.984 134.994,183.723 129.761 C 183.403 123.313,183.546 122.800,185.670 122.800 C 186.814 122.800,187.725 123.105,188.623 123.790 M222.238 124.857 C 226.161 128.274,226.718 129.007,227.603 131.921 C 228.535 134.988,228.188 137.852,226.391 141.912 C 225.956 142.897,225.600 143.949,225.600 144.251 C 225.600 144.553,225.445 144.800,225.255 144.800 C 224.883 144.800,223.155 150.686,222.378 154.598 C 221.774 157.642,220.365 161.941,218.998 164.907 C 217.279 168.639,218.872 170.180,226.088 171.770 C 227.655 172.115,228.302 173.482,227.340 174.417 C 225.406 176.297,214.258 176.146,212.541 174.216 C 209.081 170.328,209.466 160.851,213.420 152.600 C 216.446 146.285,218.098 137.212,217.235 131.650 C 215.860 122.790,217.425 120.666,222.238 124.857 M172.916 125.700 C 171.292 127.474,171.255 130.944,172.837 132.956 C 173.798 134.178,174.540 133.660,176.044 130.717 C 178.019 126.850,175.524 122.850,172.916 125.700 M175.194 126.000 C 176.665 126.000,176.150 129.813,174.430 131.660 L 173.615 132.535 172.784 130.657 C 171.714 128.238,172.677 125.160,174.307 125.786 C 174.614 125.904,175.013 126.000,175.194 126.000 M231.871 159.526 C 231.282 160.141,230.800 161.063,230.800 161.576 C 230.800 162.088,230.590 163.650,230.332 165.046 C 229.776 168.068,230.186 169.359,231.836 169.773 C 234.020 170.321,235.132 168.475,235.277 164.062 L 235.400 160.324 234.171 159.366 L 232.943 158.407 231.871 159.526 M234.715 163.738 C 234.877 168.543,233.404 170.614,231.401 168.401 C 230.516 167.423,231.177 161.132,232.295 159.895 C 233.668 158.377,234.584 159.832,234.715 163.738 M52.200 225.971 L 49.400 226.200 48.835 229.521 C 48.111 233.777,48.289 233.994,52.871 234.432 C 54.702 234.607,122.450 234.761,203.422 234.775 L 350.645 234.800 353.122 233.963 C 354.485 233.503,355.600 233.071,355.600 233.003 C 355.600 231.867,352.306 226.068,351.545 225.864 C 350.371 225.550,56.060 225.654,52.200 225.971 M352.349 230.218 C 353.859 233.378,353.860 233.031,352.340 233.561 C 350.961 234.042,56.281 234.136,51.800 233.657 C 48.610 233.316,47.987 231.349,50.675 230.105 C 51.514 229.717,52.296 229.273,52.413 229.117 C 53.570 227.581,48.466 227.632,203.249 227.616 L 351.099 227.600 352.349 230.218 M111.400 277.638 C 110.520 277.835,109.395 278.091,108.900 278.206 C 108.073 278.398,107.578 279.600,108.326 279.600 C 112.199 279.600,112.614 303.043,108.789 305.723 C 108.315 306.055,107.512 307.471,107.004 308.870 L 106.081 311.413 107.081 313.107 C 108.408 315.353,108.599 315.302,112.345 311.700 C 116.719 307.496,117.369 305.682,118.621 294.200 C 118.935 291.321,119.603 289.918,121.232 288.713 C 124.737 286.122,124.520 284.106,120.522 282.127 C 119.254 281.500,118.013 280.578,117.764 280.078 C 116.411 277.364,115.016 276.829,111.400 277.638 M115.685 278.300 C 116.020 278.685,116.543 279.540,116.847 280.200 C 117.240 281.052,118.151 281.770,119.993 282.676 C 123.749 284.524,123.984 286.229,120.748 288.160 C 119.214 289.076,118.474 290.994,118.016 295.237 C 117.079 303.935,115.848 308.000,114.151 308.000 C 112.916 308.000,111.600 309.334,111.600 310.586 C 111.600 311.276,111.153 311.875,110.107 312.586 C 108.237 313.856,108.151 313.852,107.421 312.440 C 106.558 310.773,107.599 307.600,109.009 307.600 C 110.586 307.600,111.113 306.642,111.370 303.306 C 111.502 301.598,111.793 298.130,112.016 295.600 C 112.431 290.906,112.006 282.809,111.195 279.984 C 110.985 279.252,110.856 278.614,110.907 278.566 C 110.982 278.496,113.887 277.814,114.838 277.643 C 114.969 277.619,115.350 277.915,115.685 278.300 M131.400 277.866 C 126.377 278.475,126.694 279.012,132.329 279.438 C 134.348 279.590,136.000 279.869,136.000 280.057 C 136.000 280.246,136.257 280.400,136.571 280.400 C 138.089 280.400,137.325 292.256,135.634 294.938 C 131.406 301.643,130.230 310.091,133.017 313.741 L 134.434 315.597 135.896 314.985 C 136.701 314.649,137.390 314.335,137.429 314.287 C 138.164 313.366,138.769 311.152,138.981 308.600 C 139.379 303.823,139.547 303.280,141.105 301.722 C 146.684 296.143,145.427 279.600,139.423 279.600 C 138.662 279.600,137.896 279.359,137.720 279.064 C 137.544 278.770,136.788 278.320,136.040 278.064 C 134.709 277.610,133.820 277.572,131.400 277.866 M134.705 278.675 C 134.322 278.775,133.602 278.779,133.105 278.683 C 132.607 278.587,132.920 278.505,133.800 278.501 C 134.680 278.496,135.087 278.575,134.705 278.675 M142.100 281.593 C 145.523 284.286,144.623 296.708,140.739 300.366 C 138.842 302.153,138.400 303.607,138.400 308.067 C 138.400 313.777,135.363 316.698,133.053 313.209 C 130.812 309.822,132.457 299.248,135.471 297.661 C 136.550 297.093,137.037 294.962,137.763 287.626 C 138.419 280.996,139.475 279.528,142.100 281.593 M147.454 309.929 C 147.272 310.659,147.231 311.364,147.362 311.495 C 147.814 311.947,148.056 311.272,147.920 309.938 L 147.784 308.600 147.454 309.929 M282.700 323.426 L 280.800 324.415 280.800 327.508 C 280.800 329.208,281.070 332.011,281.400 333.735 C 282.253 338.192,282.285 370.292,281.438 371.920 C 280.387 373.941,279.153 374.687,276.000 375.212 C 264.110 377.191,278.285 380.886,293.163 379.686 C 302.300 378.949,303.847 375.944,296.000 374.178 C 289.519 372.719,290.000 374.555,290.000 351.255 C 290.000 326.968,289.777 324.828,287.074 323.180 C 285.457 322.194,285.021 322.218,282.700 323.426 M288.392 325.820 C 288.877 327.116,289.021 331.319,289.192 349.218 C 289.442 375.432,288.938 373.565,296.093 374.811 C 297.882 375.122,298.995 375.556,299.565 376.163 L 300.404 377.056 299.502 377.866 C 297.433 379.724,285.566 380.125,278.110 378.589 C 270.964 377.117,270.668 376.596,276.511 375.774 C 278.851 375.446,280.673 374.255,281.675 372.400 C 282.441 370.981,282.518 339.737,281.779 330.242 C 281.223 323.102,286.142 319.813,288.392 325.820 M77.200 341.375 C 69.477 342.390,67.300 343.493,68.816 345.623 C 69.306 346.311,70.051 347.981,70.473 349.335 C 71.521 352.701,72.930 355.018,75.438 357.497 C 76.879 358.922,78.063 360.652,79.132 362.897 C 80.244 365.232,81.180 366.581,82.329 367.500 C 83.226 368.218,84.537 369.895,85.256 371.245 C 85.973 372.590,87.214 374.217,88.014 374.860 C 88.814 375.502,89.890 376.787,90.404 377.714 C 90.919 378.641,91.461 379.490,91.607 379.600 C 91.754 379.710,92.364 380.790,92.963 382.000 C 93.561 383.210,94.921 385.100,95.985 386.200 C 97.048 387.300,98.288 388.940,98.739 389.845 C 99.191 390.750,100.389 392.280,101.403 393.245 C 102.441 394.233,103.797 396.137,104.506 397.600 C 106.013 400.711,107.503 402.800,108.213 402.800 C 108.776 402.800,110.581 405.588,111.772 408.297 C 112.451 409.840,112.472 410.255,112.003 412.897 C 111.105 417.949,111.057 417.800,113.595 417.800 L 115.790 417.800 117.247 414.862 C 118.049 413.246,119.527 411.086,120.532 410.062 C 124.799 405.716,125.004 403.510,121.505 399.600 C 120.422 398.390,119.037 396.320,118.427 395.000 C 117.817 393.680,116.210 391.285,114.855 389.679 C 113.500 388.072,111.957 385.912,111.426 384.879 C 110.538 383.151,109.961 382.472,106.944 379.600 C 106.366 379.050,105.534 377.790,105.097 376.800 C 104.659 375.810,103.355 374.100,102.199 373.000 C 100.797 371.666,99.522 369.867,98.370 367.600 C 97.421 365.730,95.824 363.287,94.822 362.172 C 93.820 361.056,92.730 359.619,92.400 358.977 C 91.555 357.336,90.918 356.560,88.300 353.987 C 85.724 351.455,85.571 350.942,86.992 349.608 C 88.569 348.126,90.191 348.049,120.265 348.024 C 153.501 347.996,152.304 347.888,159.247 351.528 C 161.751 352.840,164.747 354.218,165.906 354.591 C 167.410 355.075,168.809 356.001,170.807 357.834 C 172.345 359.245,173.947 360.400,174.366 360.400 C 175.380 360.400,177.081 362.474,177.580 364.318 C 179.449 371.233,184.559 367.973,182.987 360.868 C 182.252 357.545,181.621 356.047,180.597 355.198 C 179.387 354.194,178.413 351.675,177.782 347.924 C 177.112 343.934,176.408 342.550,174.564 341.600 C 172.971 340.779,83.307 340.572,77.200 341.375 M175.056 342.639 C 176.532 343.833,176.611 344.026,177.280 348.039 C 178.069 352.777,178.770 354.596,180.398 356.134 C 182.065 357.707,183.352 363.176,182.532 365.200 C 181.058 368.837,179.399 368.163,177.813 363.285 C 177.119 361.148,176.245 360.262,174.383 359.804 C 173.823 359.667,172.290 358.530,170.976 357.277 C 169.060 355.450,167.907 354.742,165.144 353.696 C 163.251 352.980,161.093 351.985,160.351 351.487 C 158.092 349.972,154.136 348.378,152.011 348.127 C 150.905 347.996,150.000 347.734,150.000 347.544 C 150.000 347.355,136.590 347.200,120.200 347.200 C 100.600 347.200,90.400 347.337,90.400 347.600 C 90.400 347.820,89.866 348.000,89.213 348.000 C 85.345 348.000,84.651 351.757,88.018 354.463 C 88.907 355.177,90.025 356.400,90.502 357.181 C 90.980 357.961,91.602 358.838,91.885 359.129 C 92.168 359.419,92.400 359.835,92.400 360.053 C 92.400 360.270,93.267 361.382,94.328 362.524 C 95.388 363.666,97.029 366.130,97.976 368.000 C 99.132 370.283,100.389 372.057,101.803 373.400 C 102.961 374.500,104.362 376.300,104.917 377.400 C 105.472 378.500,106.848 380.300,107.976 381.400 C 109.103 382.500,110.564 384.397,111.223 385.615 C 111.882 386.833,113.427 388.983,114.656 390.393 C 115.886 391.803,117.441 394.106,118.112 395.511 C 118.783 396.916,120.378 399.220,121.657 400.631 C 123.726 402.914,123.940 403.306,123.600 404.201 C 122.779 406.359,121.935 407.617,120.244 409.202 C 118.546 410.794,116.000 414.917,116.000 416.076 C 116.000 417.141,115.192 417.556,113.956 417.125 L 112.800 416.722 112.800 412.994 C 112.800 408.394,110.632 402.923,108.483 402.100 C 107.405 401.688,106.444 400.403,105.139 397.632 C 104.456 396.181,103.062 394.191,101.934 393.057 C 100.836 391.954,99.517 390.229,99.003 389.225 C 98.490 388.221,97.321 386.680,96.406 385.800 C 95.492 384.920,94.109 382.940,93.333 381.400 C 92.557 379.860,91.801 378.510,91.652 378.400 C 91.503 378.290,91.042 377.660,90.627 377.000 C 90.212 376.340,89.214 375.229,88.408 374.530 C 87.603 373.832,86.369 372.181,85.665 370.862 C 84.923 369.470,83.580 367.788,82.465 366.854 C 81.159 365.761,80.363 364.701,79.982 363.547 C 79.243 361.306,76.708 357.420,75.446 356.594 C 73.882 355.569,71.959 352.231,71.115 349.075 C 70.692 347.494,69.979 345.808,69.531 345.330 C 68.437 344.161,68.739 343.836,71.689 343.001 C 77.606 341.327,79.367 341.275,127.463 341.339 L 173.526 341.400 175.056 342.639 M238.200 401.519 C 236.213 403.238,236.182 403.464,237.644 405.608 L 239.000 407.598 285.509 407.599 L 332.018 407.600 333.209 405.722 C 334.709 403.356,334.699 403.068,333.062 401.820 L 331.724 400.800 285.362 400.813 C 241.994 400.826,238.948 400.871,238.200 401.519 M332.766 402.233 C 334.108 403.362,334.026 403.983,332.280 405.900 L 331.461 406.800 285.351 406.800 L 239.241 406.800 238.220 405.462 C 236.919 403.756,236.935 403.064,238.300 402.046 C 239.394 401.230,239.647 401.225,285.469 401.213 L 331.539 401.200 332.766 402.233 M106.430 420.513 C 103.992 423.743,104.382 425.600,107.499 425.600 C 110.689 425.600,112.443 418.779,109.330 418.477 C 108.206 418.368,107.875 418.600,106.430 420.513 M109.922 421.259 C 110.930 423.908,108.750 425.761,106.489 424.177 C 105.322 423.360,105.363 423.015,106.849 421.138 C 108.341 419.254,109.171 419.287,109.922 421.259 M100.136 427.498 C 98.018 429.810,98.277 432.147,100.671 432.322 C 102.212 432.434,102.422 432.326,103.371 430.929 C 105.968 427.107,103.191 424.163,100.136 427.498 M102.977 427.689 C 104.502 429.865,102.230 432.656,100.331 430.938 C 99.324 430.026,99.414 429.238,100.675 427.922 C 101.972 426.568,102.178 426.548,102.977 427.689 M93.829 434.671 C 91.080 438.717,93.830 441.633,97.064 438.102 C 99.182 435.790,98.923 433.453,96.529 433.278 C 94.988 433.166,94.778 433.274,93.829 434.671 M96.869 434.662 C 97.908 435.602,97.778 436.480,96.407 437.793 C 94.406 439.710,92.607 437.315,94.300 434.988 C 95.128 433.850,95.867 433.756,96.869 434.662 M179.606 439.393 C 179.064 439.970,178.076 441.468,177.410 442.721 C 176.573 444.296,175.793 445.190,174.881 445.618 C 173.233 446.392,171.237 448.251,170.789 449.428 C 170.349 450.586,168.280 452.092,165.960 452.944 C 164.948 453.316,163.379 454.254,162.474 455.030 C 159.881 457.249,154.893 458.353,145.400 458.811 C 141.220 459.012,137.080 459.358,136.200 459.579 C 135.222 459.825,125.649 459.985,111.579 459.990 L 88.557 460.000 86.571 459.010 C 82.814 457.138,82.625 455.827,85.293 450.127 C 86.303 447.968,86.628 447.600,87.523 447.600 C 88.688 447.600,92.253 444.079,92.646 442.541 C 93.181 440.452,92.731 439.808,90.644 439.676 C 87.679 439.488,86.000 441.219,86.000 444.464 C 86.000 447.069,85.505 447.600,83.075 447.600 C 81.325 447.600,80.974 448.051,80.435 451.000 C 79.882 454.031,78.990 455.243,76.758 456.000 C 71.496 457.784,69.338 462.645,72.692 465.160 C 73.301 465.617,74.057 466.211,74.372 466.479 C 75.100 467.099,79.259 466.952,79.667 466.292 C 80.015 465.729,87.590 465.758,87.972 466.323 C 88.098 466.508,89.100 466.897,90.200 467.187 C 91.300 467.478,92.836 468.061,93.613 468.482 C 95.675 469.602,138.310 469.380,142.200 468.230 C 144.191 467.641,146.979 467.470,158.579 467.223 C 168.581 467.011,172.602 466.795,172.712 466.463 C 172.797 466.208,173.230 466.000,173.673 466.000 C 175.281 466.000,177.027 463.609,178.180 459.829 C 178.777 457.873,179.975 454.906,180.842 453.236 C 181.833 451.328,182.639 449.035,183.010 447.065 C 183.891 442.382,183.817 441.801,182.096 439.957 L 180.592 438.344 179.606 439.393 M182.877 441.749 C 183.588 443.068,182.128 449.379,180.361 452.629 C 179.515 454.184,178.374 457.154,177.825 459.229 C 176.047 465.944,175.884 466.000,158.141 466.000 C 152.124 466.000,147.200 466.144,147.200 466.319 C 147.200 468.792,94.444 468.830,92.400 466.358 C 91.448 465.207,82.925 464.732,78.323 465.574 C 72.660 466.609,69.833 463.576,72.871 459.726 C 74.729 457.372,75.015 457.214,78.900 456.416 L 81.200 455.943 81.200 452.451 C 81.200 448.498,81.516 447.873,83.213 448.464 L 84.337 448.856 83.545 451.128 C 81.899 455.841,82.562 457.965,86.200 459.644 C 88.052 460.499,133.335 460.800,136.600 459.979 C 137.480 459.758,141.620 459.414,145.800 459.216 C 155.551 458.753,160.253 457.787,162.460 455.794 C 163.296 455.038,165.344 453.773,167.011 452.982 C 169.573 451.766,170.226 451.244,171.231 449.611 C 172.425 447.671,173.889 446.400,174.931 446.400 C 175.781 446.400,177.519 444.481,177.791 443.243 C 177.923 442.638,178.587 441.470,179.265 440.648 L 180.498 439.152 181.486 440.076 C 182.029 440.584,182.655 441.337,182.877 441.749 M90.979 441.346 C 92.272 442.544,92.314 442.363,90.212 444.653 C 88.430 446.593,88.421 446.597,87.651 445.800 C 84.917 442.969,88.115 438.691,90.979 441.346 M261.485 442.001 C 258.767 442.349,258.262 442.663,259.853 443.016 C 266.563 444.507,269.118 448.497,265.991 452.600 C 265.187 453.655,263.460 460.352,262.753 465.154 C 261.386 474.443,259.119 476.524,256.051 471.304 C 252.906 465.952,251.753 466.052,248.760 471.933 L 246.919 475.550 248.560 476.720 C 252.198 479.315,252.360 479.342,256.011 477.996 C 259.240 476.806,259.287 476.801,261.639 477.410 C 264.804 478.230,266.357 478.250,267.831 477.487 C 269.948 476.392,270.085 476.013,269.688 472.331 C 269.114 467.000,269.966 460.774,271.547 458.752 C 271.957 458.228,272.790 456.810,273.398 455.600 C 274.007 454.390,274.629 453.310,274.780 453.200 C 275.580 452.618,276.448 449.313,276.213 447.744 C 275.879 445.518,275.397 445.201,271.934 444.927 C 269.154 444.706,267.600 444.045,267.600 443.082 C 267.600 441.766,265.805 441.448,261.485 442.001 M277.841 442.185 C 276.931 442.892,277.450 443.775,279.005 444.165 C 280.190 444.463,280.698 445.353,281.204 448.022 C 281.656 450.406,282.628 451.911,284.373 452.929 L 285.622 453.658 286.987 452.293 C 289.220 450.060,289.251 448.027,287.107 444.480 C 285.674 442.108,279.810 440.656,277.841 442.185 M266.115 442.845 C 265.799 443.161,265.340 443.170,264.535 442.877 C 263.413 442.468,263.418 442.463,264.980 442.432 C 266.140 442.408,266.442 442.518,266.115 442.845 M280.705 442.675 C 280.322 442.775,279.602 442.779,279.105 442.683 C 278.607 442.587,278.920 442.505,279.800 442.501 C 280.680 442.496,281.087 442.575,280.705 442.675 M286.327 444.300 C 288.958 448.004,288.389 452.800,285.319 452.800 C 282.999 452.800,280.519 445.215,282.267 443.467 C 283.027 442.706,285.565 443.227,286.327 444.300 M273.326 446.063 C 275.570 447.251,276.296 450.159,274.740 451.719 C 274.443 452.016,273.766 453.188,273.235 454.323 C 272.703 455.459,271.934 456.494,271.524 456.624 C 269.647 457.220,268.452 464.738,269.044 472.232 C 269.432 477.150,267.423 478.455,262.140 476.719 L 259.145 475.735 257.267 476.605 C 252.976 478.593,252.701 478.608,250.244 476.976 L 248.033 475.509 248.962 473.654 C 249.473 472.634,250.104 471.140,250.366 470.333 C 251.416 467.088,252.986 467.184,254.718 470.600 C 258.374 477.807,261.596 475.954,263.165 465.743 C 264.134 459.440,265.217 455.846,266.510 454.648 C 267.247 453.965,267.558 453.152,267.761 451.370 C 268.244 447.149,268.389 446.767,269.740 446.180 C 271.306 445.498,272.205 445.469,273.326 446.063 M252.100 448.228 C 251.649 449.086,252.164 450.993,252.748 450.632 C 253.382 450.240,253.528 448.855,253.010 448.147 C 252.536 447.498,252.480 447.503,252.100 448.228 M311.023 453.685 C 310.044 456.247,311.001 458.127,312.605 456.796 C 313.376 456.156,313.343 455.365,312.461 453.400 L 311.742 451.801 311.023 453.685 M312.310 456.305 C 311.507 457.279,310.796 456.132,311.302 454.680 L 311.745 453.409 312.235 454.605 C 312.578 455.439,312.600 455.952,312.310 456.305 M303.100 468.206 C 301.795 468.941,301.767 469.176,302.757 471.116 C 304.784 475.086,309.111 474.397,310.209 469.929 C 310.617 468.269,305.284 466.977,303.100 468.206 M307.353 469.816 C 305.970 471.927,305.007 472.107,304.065 470.429 L 303.214 468.916 304.095 468.523 C 305.775 467.773,308.090 468.692,307.353 469.816 M303.694 476.900 C 302.265 478.421,301.921 481.153,302.230 488.515 L 302.512 495.230 303.708 496.166 L 304.905 497.102 307.152 496.185 L 309.400 495.268 309.374 493.334 C 309.323 489.660,308.681 482.800,308.388 482.800 C 308.226 482.800,308.017 481.606,307.924 480.147 C 307.683 476.363,305.658 474.809,303.694 476.900 M306.939 479.295 C 307.359 480.472,307.606 483.180,307.737 488.043 L 307.928 495.086 306.517 495.759 C 304.073 496.924,303.207 495.975,303.172 492.091 C 303.156 490.391,303.000 487.380,302.825 485.400 C 302.204 478.383,305.087 474.106,306.939 479.295 M75.000 491.190 C 74.097 491.544,72.122 493.425,71.569 494.458 C 71.120 495.296,72.953 497.296,74.742 497.920 C 76.117 498.399,77.914 497.513,79.035 495.803 C 80.101 494.176,76.854 490.463,75.000 491.190 M77.755 493.203 C 79.381 495.003,79.294 495.526,77.109 497.078 C 75.741 498.050,74.526 497.826,72.900 496.304 C 71.682 495.163,71.760 494.667,73.413 493.013 C 75.225 491.201,75.976 491.234,77.755 493.203 M174.400 492.390 C 167.228 493.151,165.084 494.585,168.243 496.507 C 170.601 497.942,172.161 499.415,173.100 501.095 C 173.481 501.776,173.600 506.651,173.600 521.581 L 173.600 541.173 172.260 542.513 C 171.523 543.250,170.353 544.066,169.660 544.327 C 168.967 544.587,167.878 544.994,167.240 545.232 C 166.601 545.470,165.692 546.076,165.219 546.580 L 164.359 547.495 165.610 548.547 L 166.861 549.600 177.200 549.600 L 187.539 549.600 188.798 548.540 C 190.299 547.277,189.936 546.683,186.542 544.840 C 185.488 544.268,184.215 543.188,183.713 542.441 L 182.800 541.082 182.800 517.772 L 182.800 494.461 181.764 493.231 C 180.629 491.881,179.936 491.802,174.400 492.390 M181.571 493.854 C 182.388 494.893,182.400 495.242,182.400 518.160 C 182.400 544.878,182.198 543.350,185.985 545.256 C 189.183 546.865,189.498 547.308,188.178 548.346 C 186.503 549.663,167.906 549.670,166.233 548.355 C 164.875 547.286,165.591 546.248,168.164 545.556 C 170.667 544.883,172.059 544.066,173.700 542.307 L 175.200 540.699 175.200 521.400 L 175.200 502.101 174.100 500.794 C 171.973 498.268,170.298 496.764,168.709 495.954 C 166.759 494.959,166.991 494.678,170.600 493.652 C 175.084 492.378,180.488 492.478,181.571 493.854 M66.600 512.628 C 65.500 512.934,64.223 513.188,63.762 513.192 C 61.345 513.215,61.235 515.193,63.585 516.392 C 65.973 517.611,67.318 520.589,66.520 522.891 C 66.194 523.831,65.671 526.850,65.357 529.600 C 64.799 534.487,64.756 534.627,63.432 535.800 C 59.726 539.084,59.842 544.975,63.630 545.807 C 64.318 545.958,65.196 546.396,65.581 546.781 C 67.474 548.674,72.346 548.559,71.757 546.635 C 71.364 545.348,70.851 544.875,69.535 544.586 C 66.870 544.000,66.659 540.319,69.208 538.881 C 70.004 538.433,70.541 537.722,70.780 536.800 C 71.756 533.045,72.763 527.934,72.994 525.562 C 73.135 524.112,73.509 522.426,73.825 521.817 C 74.141 521.207,74.400 520.472,74.400 520.183 C 74.400 519.894,74.678 519.379,75.018 519.040 C 75.879 518.178,76.298 514.465,75.555 514.274 C 75.250 514.195,73.830 513.753,72.400 513.291 C 70.970 512.830,69.530 512.367,69.200 512.262 C 68.870 512.158,67.700 512.323,66.600 512.628 M71.096 513.883 C 73.093 514.512,73.244 514.645,73.034 515.583 C 72.115 519.696,71.996 520.955,72.232 524.051 C 72.461 527.054,72.357 528.016,71.429 531.451 C 70.014 536.689,69.673 537.311,68.041 537.645 C 66.376 537.986,66.014 538.533,66.006 540.718 C 65.996 543.528,63.094 545.643,62.014 543.627 C 60.510 540.816,61.290 537.606,63.480 537.594 C 65.668 537.582,65.781 537.296,66.032 531.116 C 66.199 527.006,66.466 524.894,66.980 523.600 C 67.869 521.365,67.844 520.067,66.869 517.864 C 66.140 516.214,65.715 515.899,63.043 515.028 C 61.717 514.596,63.611 513.987,68.565 513.254 C 68.766 513.224,69.904 513.507,71.096 513.883 M93.900 532.846 C 92.484 533.902,92.505 534.935,93.962 535.973 C 97.320 538.364,146.600 536.891,146.600 534.400 C 146.600 531.914,97.106 530.454,93.900 532.846 M143.626 533.249 C 146.079 534.304,146.079 534.496,143.626 535.551 C 141.689 536.384,141.214 536.400,118.448 536.400 L 95.245 536.400 94.122 535.400 L 93.000 534.400 94.122 533.400 L 95.245 532.400 118.448 532.400 C 141.214 532.400,141.689 532.416,143.626 533.249 M74.240 541.361 C 74.592 542.278,75.904 542.412,76.128 541.554 C 76.287 540.945,76.105 540.800,75.175 540.800 C 74.353 540.800,74.086 540.960,74.240 541.361 M69.600 547.200 C 69.600 547.420,69.330 547.600,69.000 547.600 C 68.670 547.600,68.400 547.420,68.400 547.200 C 68.400 546.980,68.670 546.800,69.000 546.800 C 69.330 546.800,69.600 546.980,69.600 547.200 " stroke="none" fill="#7c7c7c" fill-rule="evenodd"></path><path id="path3" d="M179.878 120.993 C 179.383 121.354,179.339 121.579,179.694 121.934 C 180.357 122.597,183.065 122.528,183.329 121.841 C 183.635 121.044,180.771 120.340,179.878 120.993 M211.000 120.958 L 209.000 121.430 210.877 121.915 C 213.361 122.557,215.395 122.529,215.962 121.846 C 216.426 121.287,216.385 121.266,213.600 120.624 C 213.270 120.548,212.100 120.698,211.000 120.958 M183.749 123.861 C 183.603 124.444,183.591 127.099,183.723 129.761 C 183.984 134.994,183.287 139.918,181.652 144.400 C 179.244 151.002,178.795 152.542,178.210 156.200 C 177.858 158.400,177.216 162.360,176.783 165.000 C 176.350 167.640,175.952 170.784,175.898 171.987 L 175.800 174.174 177.800 175.278 C 181.408 177.268,182.568 176.324,184.148 170.106 C 184.720 167.854,185.803 164.434,186.553 162.506 C 188.436 157.667,188.652 156.793,190.004 148.508 C 190.812 143.556,191.420 140.939,191.897 140.351 C 192.284 139.875,193.070 138.927,193.645 138.243 C 194.932 136.711,195.819 134.994,196.173 133.350 C 196.511 131.778,197.682 130.724,200.068 129.846 C 205.029 128.020,202.889 125.503,197.105 126.359 C 193.502 126.893,192.155 126.485,188.623 123.790 C 186.730 122.346,184.120 122.384,183.749 123.861 M217.280 123.280 C 216.679 123.881,216.658 127.929,217.235 131.650 C 218.098 137.212,216.446 146.285,213.420 152.600 C 209.466 160.851,209.081 170.328,212.541 174.216 C 214.258 176.146,225.406 176.297,227.340 174.417 C 228.302 173.482,227.655 172.115,226.088 171.770 C 218.872 170.180,217.279 168.639,218.998 164.907 C 220.365 161.941,221.774 157.642,222.378 154.598 C 223.155 150.686,224.883 144.800,225.255 144.800 C 225.445 144.800,225.600 144.553,225.600 144.251 C 225.600 143.949,225.956 142.897,226.391 141.912 C 228.799 136.471,228.517 130.970,225.682 128.034 C 221.342 123.541,218.581 121.979,217.280 123.280 M191.200 127.213 C 191.200 127.378,191.605 127.618,192.100 127.746 C 195.314 128.577,195.734 134.447,192.784 137.291 C 190.302 139.682,190.181 139.996,189.397 146.087 C 188.628 152.063,187.382 157.536,186.591 158.410 C 185.703 159.391,184.599 162.931,183.400 168.642 C 182.596 172.473,182.085 174.041,181.413 174.736 L 180.510 175.672 178.810 174.805 L 177.111 173.938 177.382 170.469 C 178.124 160.977,179.827 151.300,180.980 150.018 C 182.835 147.957,184.800 138.241,184.800 131.130 C 184.800 126.732,185.303 124.702,186.492 124.301 C 187.029 124.120,191.200 126.700,191.200 127.213 M223.090 127.537 C 223.571 128.188,224.076 129.164,224.212 129.707 C 224.349 130.250,224.978 131.077,225.612 131.545 C 227.551 132.979,227.471 137.180,225.463 139.307 C 224.667 140.151,223.680 143.565,222.406 149.878 C 221.124 156.233,220.334 158.939,219.457 159.980 C 218.611 160.983,217.207 164.638,216.952 166.500 C 216.414 170.421,217.849 171.545,225.800 173.431 L 227.000 173.715 225.400 174.100 C 223.350 174.594,217.551 174.694,215.121 174.279 L 213.242 173.957 212.013 170.770 C 210.362 166.489,211.483 156.723,213.852 154.757 C 215.610 153.298,216.388 150.532,217.773 140.819 C 218.594 135.060,218.637 134.074,218.187 131.265 C 217.614 127.687,217.756 126.412,218.861 125.227 L 219.640 124.390 220.928 125.372 C 221.636 125.913,222.609 126.887,223.090 127.537 M173.122 126.286 C 171.998 127.566,171.911 128.684,172.784 130.657 L 173.615 132.535 174.430 131.660 C 176.150 129.813,176.665 126.000,175.194 126.000 C 175.013 126.000,174.614 125.904,174.307 125.786 C 174.001 125.668,173.467 125.893,173.122 126.286 M174.514 128.729 C 174.231 129.019,173.995 129.469,173.988 129.729 C 173.981 129.988,173.785 129.872,173.552 129.471 C 172.823 128.217,173.439 126.642,174.320 127.506 C 174.899 128.073,174.934 128.297,174.514 128.729 M201.000 128.200 C 201.000 128.707,198.210 128.950,196.838 128.563 L 195.800 128.270 197.000 127.973 C 198.622 127.572,201.000 127.707,201.000 128.200 M232.295 159.895 C 231.177 161.132,230.516 167.423,231.401 168.401 C 233.404 170.614,234.877 168.543,234.715 163.738 C 234.584 159.832,233.668 158.377,232.295 159.895 M233.519 165.961 C 233.434 167.276,233.229 167.800,232.800 167.800 C 232.139 167.800,232.124 167.405,232.619 163.000 L 232.933 160.200 233.286 162.161 C 233.480 163.239,233.585 164.949,233.519 165.961 M54.013 228.233 C 53.250 228.564,52.530 228.962,52.413 229.117 C 52.296 229.273,51.514 229.717,50.675 230.105 C 47.987 231.349,48.610 233.316,51.800 233.657 C 56.281 234.136,350.961 234.042,352.340 233.561 C 353.860 233.031,353.859 233.378,352.349 230.218 L 351.099 227.600 203.249 227.616 C 72.552 227.629,55.239 227.701,54.013 228.233 M112.800 278.083 C 110.592 278.570,110.740 278.395,111.195 279.984 C 112.006 282.809,112.431 290.906,112.016 295.600 C 111.793 298.130,111.502 301.598,111.370 303.306 C 111.113 306.642,110.586 307.600,109.009 307.600 C 107.599 307.600,106.558 310.773,107.421 312.440 C 108.151 313.852,108.237 313.856,110.107 312.586 C 111.153 311.875,111.600 311.276,111.600 310.586 C 111.600 309.334,112.916 308.000,114.151 308.000 C 115.848 308.000,117.079 303.935,118.016 295.237 C 118.474 290.994,119.214 289.076,120.748 288.160 C 123.984 286.229,123.749 284.524,119.993 282.676 C 118.151 281.770,117.240 281.052,116.847 280.200 C 116.241 278.884,115.212 277.575,114.838 277.643 C 114.707 277.666,113.790 277.864,112.800 278.083 M133.105 278.683 C 133.602 278.779,134.322 278.775,134.705 278.675 C 135.087 278.575,134.680 278.496,133.800 278.501 C 132.920 278.505,132.607 278.587,133.105 278.683 M139.192 281.526 C 138.402 282.166,138.231 282.895,137.763 287.626 C 137.037 294.962,136.550 297.093,135.471 297.661 C 132.457 299.248,130.812 309.822,133.053 313.209 C 135.363 316.698,138.400 313.777,138.400 308.067 C 138.400 303.607,138.842 302.153,140.739 300.366 C 146.206 295.217,144.714 277.055,139.192 281.526 M117.882 283.955 C 118.717 284.173,119.940 284.407,120.600 284.476 C 122.348 284.657,122.237 285.982,120.422 286.593 C 118.052 287.390,117.655 288.358,117.036 294.836 C 116.031 305.340,114.503 308.076,113.185 301.728 C 112.481 298.337,113.268 286.736,114.475 282.706 L 114.927 281.198 115.645 282.379 C 116.119 283.157,116.881 283.694,117.882 283.955 M142.736 283.971 C 143.980 286.185,142.994 296.400,141.537 296.400 C 141.352 296.400,141.200 296.670,141.200 297.000 C 141.200 298.081,140.431 297.630,139.665 296.100 C 136.725 290.229,139.684 278.541,142.736 283.971 M136.089 302.257 C 136.556 303.056,136.873 304.768,137.048 307.443 L 137.310 311.437 135.972 312.562 L 134.634 313.688 133.663 312.559 C 132.523 311.233,132.608 306.271,133.833 302.681 C 134.556 300.563,135.046 300.471,136.089 302.257 M283.722 323.590 C 281.705 324.493,281.410 325.504,281.779 330.242 C 282.518 339.737,282.441 370.981,281.675 372.400 C 280.673 374.255,278.851 375.446,276.511 375.774 C 270.668 376.596,270.964 377.117,278.110 378.589 C 285.566 380.125,297.433 379.724,299.502 377.866 L 300.404 377.056 299.565 376.163 C 298.995 375.556,297.882 375.122,296.093 374.811 C 288.938 373.565,289.442 375.432,289.192 349.218 C 288.963 325.245,288.928 324.898,286.598 323.541 C 285.447 322.871,285.324 322.873,283.722 323.590 M285.764 324.242 C 287.712 324.989,288.000 328.313,288.000 350.058 C 288.000 375.204,287.915 374.898,295.177 375.925 C 300.844 376.726,300.519 377.403,294.190 377.982 C 291.775 378.203,288.810 378.555,287.600 378.764 C 285.743 379.085,284.694 378.980,280.874 378.094 L 276.348 377.045 277.984 376.561 C 283.403 374.961,283.293 375.541,283.189 349.257 C 283.104 327.381,283.221 325.142,284.493 324.334 C 285.110 323.942,285.004 323.950,285.764 324.242 M77.800 341.784 C 70.521 342.809,68.130 343.833,69.531 345.330 C 69.979 345.808,70.692 347.494,71.115 349.075 C 71.959 352.231,73.882 355.569,75.446 356.594 C 76.708 357.420,79.243 361.306,79.982 363.547 C 80.363 364.701,81.159 365.761,82.465 366.854 C 83.580 367.788,84.923 369.470,85.665 370.862 C 86.369 372.181,87.603 373.832,88.408 374.530 C 89.214 375.229,90.212 376.340,90.627 377.000 C 91.042 377.660,91.503 378.290,91.652 378.400 C 91.801 378.510,92.557 379.860,93.333 381.400 C 94.109 382.940,95.492 384.920,96.406 385.800 C 97.321 386.680,98.490 388.221,99.003 389.225 C 99.517 390.229,100.836 391.954,101.934 393.057 C 103.062 394.191,104.456 396.181,105.139 397.632 C 106.444 400.403,107.405 401.688,108.483 402.100 C 110.632 402.923,112.800 408.394,112.800 412.994 L 112.800 416.722 113.956 417.125 C 115.192 417.556,116.000 417.141,116.000 416.076 C 116.000 414.917,118.546 410.794,120.244 409.202 C 121.935 407.617,122.779 406.359,123.600 404.201 C 123.940 403.306,123.726 402.914,121.657 400.631 C 120.378 399.220,118.783 396.916,118.112 395.511 C 117.441 394.106,115.886 391.803,114.656 390.393 C 113.427 388.983,111.882 386.833,111.223 385.615 C 110.564 384.397,109.103 382.500,107.976 381.400 C 106.848 380.300,105.472 378.500,104.917 377.400 C 104.362 376.300,102.961 374.500,101.803 373.400 C 100.389 372.057,99.132 370.283,97.976 368.000 C 97.029 366.130,95.388 363.666,94.328 362.524 C 93.267 361.382,92.400 360.270,92.400 360.053 C 92.400 359.835,92.168 359.419,91.885 359.129 C 91.602 358.838,90.980 357.961,90.502 357.181 C 90.025 356.400,88.907 355.177,88.018 354.463 C 84.651 351.757,85.345 348.000,89.213 348.000 C 89.866 348.000,90.400 347.820,90.400 347.600 C 90.400 347.337,100.600 347.200,120.200 347.200 C 136.590 347.200,150.000 347.355,150.000 347.544 C 150.000 347.734,150.905 347.996,152.011 348.127 C 154.136 348.378,158.092 349.972,160.351 351.487 C 161.093 351.985,163.251 352.980,165.144 353.696 C 167.907 354.742,169.060 355.450,170.976 357.277 C 172.290 358.530,173.823 359.667,174.383 359.804 C 176.245 360.262,177.119 361.148,177.813 363.285 C 179.399 368.163,181.058 368.837,182.532 365.200 C 183.352 363.176,182.065 357.707,180.398 356.134 C 178.770 354.596,178.069 352.777,177.280 348.039 C 176.611 344.026,176.532 343.833,175.056 342.639 L 173.526 341.400 127.463 341.339 C 92.170 341.292,80.558 341.396,77.800 341.784 M173.676 342.778 C 175.533 343.459,175.809 344.152,176.623 350.186 C 177.245 354.802,177.993 357.200,178.810 357.200 C 179.025 357.200,179.200 357.470,179.200 357.800 C 179.200 358.130,179.536 358.400,179.947 358.400 C 181.573 358.400,182.466 364.783,181.010 365.992 C 180.018 366.815,178.800 364.177,178.800 361.204 C 178.800 358.644,178.452 358.400,174.798 358.400 C 173.516 358.400,173.092 358.151,171.899 356.695 C 170.366 354.824,170.049 354.631,165.446 352.761 C 163.711 352.057,161.722 350.980,161.026 350.369 C 160.329 349.758,158.959 348.942,157.980 348.556 C 157.001 348.171,156.102 347.712,155.983 347.538 C 155.205 346.401,90.007 345.726,87.939 346.833 C 84.126 348.873,83.628 352.446,86.821 354.862 C 88.984 356.498,89.943 357.628,90.213 358.861 C 90.358 359.520,91.266 360.900,92.231 361.929 C 93.197 362.958,93.989 363.935,93.993 364.100 C 93.997 364.265,94.393 364.793,94.873 365.273 C 95.353 365.753,96.582 367.688,97.603 369.573 C 98.947 372.053,99.903 373.299,101.062 374.081 C 102.270 374.895,103.086 375.995,104.368 378.537 C 105.685 381.146,106.388 382.082,107.464 382.656 C 108.495 383.207,109.265 384.181,110.424 386.400 C 111.287 388.050,112.905 390.350,114.020 391.510 C 115.218 392.756,116.630 394.844,117.469 396.610 C 118.502 398.785,119.422 400.046,120.844 401.237 C 121.920 402.138,122.800 403.086,122.800 403.343 C 122.800 404.383,121.304 406.432,119.706 407.579 C 117.903 408.875,116.236 411.197,115.422 413.549 L 114.924 414.986 114.481 412.993 C 114.238 411.897,113.918 410.370,113.771 409.600 C 113.095 406.055,110.391 401.498,108.540 400.783 C 108.001 400.574,107.029 399.147,105.940 396.965 C 104.773 394.629,103.691 393.072,102.656 392.241 C 101.741 391.506,100.566 389.917,99.773 388.343 C 99.036 386.881,97.793 385.158,97.011 384.513 C 96.148 383.802,94.867 381.934,93.758 379.770 C 92.396 377.115,91.276 375.585,89.387 373.800 C 87.937 372.430,86.571 370.716,86.204 369.805 C 85.461 367.961,84.255 366.561,82.722 365.763 C 81.954 365.363,81.387 364.498,80.751 362.753 C 79.812 360.179,77.068 355.600,76.463 355.600 C 74.865 355.600,72.421 351.095,72.409 348.126 C 72.404 346.985,72.228 345.601,72.019 345.049 C 71.609 343.971,72.887 343.530,79.600 342.435 C 83.426 341.811,171.921 342.133,173.676 342.778 M238.300 402.046 C 236.935 403.064,236.919 403.756,238.220 405.462 L 239.241 406.800 285.351 406.800 L 331.461 406.800 332.280 405.900 C 334.026 403.983,334.108 403.362,332.766 402.233 L 331.539 401.200 285.469 401.213 C 239.647 401.225,239.394 401.230,238.300 402.046 M332.294 402.854 C 332.632 403.192,332.590 403.548,332.128 404.254 L 331.508 405.200 285.400 405.200 L 239.292 405.200 238.649 404.218 C 238.053 403.309,238.057 403.207,238.703 402.830 C 239.743 402.225,331.688 402.248,332.294 402.854 M106.849 421.138 C 105.363 423.015,105.322 423.360,106.489 424.177 C 108.750 425.761,110.930 423.908,109.922 421.259 C 109.171 419.287,108.341 419.254,106.849 421.138 M108.970 422.267 C 109.296 423.116,108.648 423.781,107.810 423.459 C 107.298 423.263,107.254 423.046,107.597 422.406 C 108.121 421.426,108.628 421.374,108.970 422.267 M100.675 427.922 C 99.414 429.238,99.324 430.026,100.331 430.938 C 102.230 432.656,104.502 429.865,102.977 427.689 C 102.178 426.548,101.972 426.568,100.675 427.922 M102.248 429.818 C 102.038 430.366,101.880 430.398,101.390 429.992 C 100.924 429.605,100.895 429.368,101.258 428.930 C 101.856 428.209,102.607 428.883,102.248 429.818 M94.300 434.988 C 92.607 437.315,94.406 439.710,96.407 437.793 C 97.778 436.480,97.908 435.602,96.869 434.662 C 95.867 433.756,95.128 433.850,94.300 434.988 M95.942 436.670 C 95.344 437.391,94.593 436.717,94.952 435.782 C 95.162 435.234,95.320 435.202,95.810 435.608 C 96.276 435.995,96.305 436.232,95.942 436.670 M179.265 440.648 C 178.587 441.470,177.923 442.638,177.791 443.243 C 177.519 444.481,175.781 446.400,174.931 446.400 C 173.889 446.400,172.425 447.671,171.231 449.611 C 170.226 451.244,169.573 451.766,167.011 452.982 C 165.344 453.773,163.296 455.038,162.460 455.794 C 160.253 457.787,155.551 458.753,145.800 459.216 C 141.620 459.414,137.480 459.758,136.600 459.979 C 133.335 460.800,88.052 460.499,86.200 459.644 C 82.562 457.965,81.899 455.841,83.545 451.128 L 84.337 448.856 83.213 448.464 C 81.516 447.873,81.200 448.498,81.200 452.451 L 81.200 455.943 78.900 456.416 C 75.015 457.214,74.729 457.372,72.871 459.726 C 69.833 463.576,72.660 466.609,78.323 465.574 C 82.925 464.732,91.448 465.207,92.400 466.358 C 94.444 468.830,147.200 468.792,147.200 466.319 C 147.200 466.144,152.124 466.000,158.141 466.000 C 175.884 466.000,176.047 465.944,177.825 459.229 C 178.374 457.154,179.515 454.184,180.361 452.629 C 181.436 450.651,182.107 448.702,182.590 446.149 C 183.335 442.211,183.246 441.722,181.486 440.076 L 180.498 439.152 179.265 440.648 M87.366 441.475 C 86.217 442.715,86.330 444.432,87.651 445.800 C 88.421 446.597,88.430 446.593,90.212 444.653 C 92.314 442.363,92.272 442.544,90.979 441.346 C 89.649 440.113,88.593 440.150,87.366 441.475 M181.491 446.108 C 180.851 449.022,180.477 449.924,179.601 450.660 C 178.405 451.667,177.741 453.837,176.169 461.873 C 175.672 464.414,174.757 464.575,159.200 464.864 C 151.372 465.009,144.103 465.327,143.000 465.571 C 140.857 466.046,137.577 465.610,135.578 464.584 C 134.789 464.180,129.451 464.004,112.178 463.814 C 99.870 463.678,87.910 463.532,85.600 463.489 C 82.435 463.431,80.741 463.604,78.726 464.192 C 75.653 465.089,74.364 464.848,73.091 463.138 L 72.301 462.076 73.611 460.446 C 75.472 458.131,79.860 457.916,82.734 459.999 C 84.750 461.461,86.861 461.580,110.875 461.590 C 132.962 461.599,134.546 461.553,137.675 460.803 C 140.095 460.223,142.415 460.003,146.200 459.995 C 155.796 459.975,162.055 458.709,163.507 456.492 C 163.870 455.939,165.616 454.806,167.473 453.920 C 170.535 452.458,172.400 450.837,172.400 449.638 C 172.400 448.694,174.020 447.600,175.418 447.600 C 177.359 447.600,178.800 446.143,178.800 444.180 C 178.800 443.326,179.160 442.218,179.670 441.502 L 180.540 440.280 181.415 441.378 L 182.290 442.475 181.491 446.108 M89.367 441.843 C 90.191 442.159,90.166 442.662,89.272 443.799 C 88.559 444.706,88.535 444.709,88.053 443.937 C 87.171 442.523,87.941 441.296,89.367 441.843 M264.535 442.877 C 265.340 443.170,265.799 443.161,266.115 442.845 C 266.442 442.518,266.140 442.408,264.980 442.432 C 263.418 442.463,263.413 442.468,264.535 442.877 M279.105 442.683 C 279.602 442.779,280.322 442.775,280.705 442.675 C 281.087 442.575,280.680 442.496,279.800 442.501 C 278.920 442.505,278.607 442.587,279.105 442.683 M282.267 443.467 C 281.258 444.476,282.030 450.110,283.360 451.440 C 286.176 454.256,289.419 450.942,287.754 446.949 C 286.379 443.649,283.751 441.982,282.267 443.467 M286.589 446.778 C 287.653 448.878,287.602 449.621,286.292 451.077 C 284.755 452.787,282.282 449.815,283.210 447.374 C 284.348 444.381,285.290 444.215,286.589 446.778 M269.740 446.180 C 268.389 446.767,268.244 447.149,267.761 451.370 C 267.558 453.152,267.247 453.965,266.510 454.648 C 265.217 455.846,264.134 459.440,263.165 465.743 C 261.596 475.954,258.374 477.807,254.718 470.600 C 252.986 467.184,251.416 467.088,250.366 470.333 C 250.104 471.140,249.473 472.634,248.962 473.654 L 248.033 475.509 250.244 476.976 C 252.701 478.608,252.976 478.593,257.267 476.605 L 259.145 475.735 262.140 476.719 C 267.423 478.455,269.432 477.150,269.044 472.232 C 268.452 464.738,269.647 457.220,271.524 456.624 C 271.934 456.494,272.703 455.459,273.235 454.323 C 273.766 453.188,274.443 452.016,274.740 451.719 C 277.596 448.857,273.646 444.480,269.740 446.180 M274.000 449.259 C 274.000 450.821,272.306 453.578,271.583 453.191 C 270.591 452.660,269.489 450.098,269.770 448.976 C 270.367 446.597,274.000 446.840,274.000 449.259 M311.302 454.680 C 310.958 455.665,310.975 456.047,311.376 456.380 C 312.270 457.122,312.810 456.005,312.235 454.605 L 311.745 453.409 311.302 454.680 M266.980 460.215 C 268.571 463.568,268.277 475.309,266.582 476.081 C 264.759 476.911,261.977 475.775,262.619 474.462 C 262.905 473.878,263.344 471.600,263.595 469.400 C 264.137 464.647,265.537 458.314,265.985 458.591 C 266.160 458.699,266.608 459.430,266.980 460.215 M304.095 468.523 L 303.214 468.916 304.065 470.429 C 305.007 472.107,305.970 471.927,307.353 469.816 C 308.090 468.692,305.775 467.773,304.095 468.523 M254.145 473.104 C 254.519 473.822,255.166 474.622,255.583 474.882 C 256.276 475.315,256.204 475.416,254.726 476.078 C 252.722 476.975,252.302 476.977,251.249 476.100 L 250.409 475.400 251.505 472.196 L 252.600 468.993 253.033 470.396 C 253.271 471.168,253.771 472.387,254.145 473.104 M304.223 477.575 C 302.935 478.998,302.483 481.531,302.825 485.400 C 303.000 487.380,303.156 490.391,303.172 492.091 C 303.207 495.975,304.073 496.924,306.517 495.759 L 307.928 495.086 307.737 488.043 C 307.490 478.905,306.280 475.301,304.223 477.575 M305.856 480.100 C 306.582 481.496,306.622 483.920,305.962 486.600 C 305.745 487.480,305.584 489.775,305.604 491.700 C 305.625 493.743,305.477 495.200,305.249 495.200 C 305.033 495.200,304.785 493.625,304.698 491.700 C 304.611 489.775,304.292 486.720,303.990 484.912 C 303.494 481.943,303.506 481.487,304.114 480.212 C 304.938 478.483,305.012 478.478,305.856 480.100 M73.413 493.013 C 71.760 494.667,71.682 495.163,72.900 496.304 C 74.526 497.826,75.741 498.050,77.109 497.078 C 79.294 495.526,79.381 495.003,77.755 493.203 C 75.976 491.234,75.225 491.201,73.413 493.013 M78.000 495.048 C 78.000 496.353,75.819 497.205,74.513 496.410 C 72.693 495.303,72.664 495.002,74.249 493.611 L 75.695 492.341 76.847 493.445 C 77.481 494.053,78.000 494.774,78.000 495.048 M170.600 493.652 C 166.991 494.678,166.759 494.959,168.709 495.954 C 170.298 496.764,171.973 498.268,174.100 500.794 L 175.200 502.101 175.200 521.400 L 175.200 540.699 173.700 542.307 C 172.059 544.066,170.667 544.883,168.164 545.556 C 165.591 546.248,164.875 547.286,166.233 548.355 C 167.906 549.670,186.503 549.663,188.178 548.346 C 189.498 547.308,189.183 546.865,185.985 545.256 C 182.198 543.350,182.400 544.878,182.400 518.160 C 182.400 490.352,182.911 492.783,177.071 492.828 C 174.690 492.847,172.416 493.136,170.600 493.652 M181.200 518.818 C 181.435 547.786,181.007 545.463,186.369 546.820 C 189.710 547.666,187.183 547.988,177.200 547.988 C 166.183 547.988,163.100 547.401,169.695 546.560 C 173.124 546.123,176.653 544.533,177.602 542.997 C 178.404 541.700,178.419 541.232,178.311 521.001 L 178.200 500.330 177.081 499.368 C 176.466 498.839,175.476 498.288,174.881 498.143 C 174.286 497.999,173.124 497.278,172.299 496.541 C 171.473 495.803,170.573 495.181,170.299 495.158 C 167.966 494.962,173.791 494.063,177.000 494.124 L 181.000 494.200 181.200 518.818 M65.489 513.799 C 62.515 514.337,61.888 514.652,63.043 515.028 C 65.715 515.899,66.140 516.214,66.869 517.864 C 67.844 520.067,67.869 521.365,66.980 523.600 C 66.466 524.894,66.199 527.006,66.032 531.116 C 65.781 537.296,65.668 537.582,63.480 537.594 C 61.290 537.606,60.510 540.816,62.014 543.627 C 63.094 545.643,65.996 543.528,66.006 540.718 C 66.014 538.533,66.376 537.986,68.041 537.645 C 69.673 537.311,70.014 536.689,71.429 531.451 C 72.357 528.016,72.461 527.054,72.232 524.051 C 71.996 520.955,72.115 519.696,73.034 515.583 C 73.249 514.623,70.166 513.017,68.565 513.254 C 68.364 513.284,66.980 513.529,65.489 513.799 M70.634 524.634 C 71.464 526.807,71.243 529.162,69.870 532.793 L 68.889 535.387 68.221 533.793 C 66.548 529.803,66.507 527.560,68.043 523.989 C 69.043 521.665,69.548 521.790,70.634 524.634 M94.122 533.400 L 93.000 534.400 94.122 535.400 L 95.245 536.400 118.448 536.400 C 142.653 536.400,145.600 536.183,145.600 534.400 C 145.600 532.617,142.653 532.400,118.448 532.400 L 95.245 532.400 94.122 533.400 M142.400 534.006 C 143.986 535.047,141.154 535.188,118.524 535.194 C 95.878 535.200,94.308 535.120,95.000 534.000 C 95.336 533.457,141.573 533.463,142.400 534.006 M63.328 541.680 C 62.498 542.597,61.774 541.742,62.212 540.363 C 62.460 539.580,62.508 539.574,63.239 540.236 C 63.963 540.890,63.968 540.973,63.328 541.680 M68.400 547.200 C 68.400 547.420,68.670 547.600,69.000 547.600 C 69.330 547.600,69.600 547.420,69.600 547.200 C 69.600 546.980,69.330 546.800,69.000 546.800 C 68.670 546.800,68.400 546.980,68.400 547.200 " stroke="none" fill="#6c6c6c" fill-rule="evenodd"></path><path id="path4" d="M179.241 117.732 C 178.494 117.962,177.054 118.940,176.041 119.905 C 175.029 120.871,173.726 121.911,173.148 122.216 C 171.216 123.235,170.090 125.039,169.372 128.267 C 168.813 130.781,168.407 131.645,167.132 133.027 L 165.576 134.716 166.219 137.858 C 166.996 141.653,167.162 141.860,168.552 140.766 C 170.797 139.000,176.940 138.056,177.454 139.397 C 177.580 139.726,177.488 141.481,177.248 143.297 C 177.009 145.114,176.432 150.110,175.967 154.400 C 175.502 158.690,174.982 162.290,174.811 162.400 C 174.640 162.510,174.378 163.166,174.228 163.859 C 174.077 164.551,173.601 165.437,173.168 165.829 C 172.364 166.557,171.465 169.238,170.985 172.338 C 170.667 174.396,172.229 176.422,174.771 177.250 C 175.557 177.506,176.291 177.854,176.401 178.022 C 176.757 178.563,180.625 179.083,181.602 178.721 C 183.398 178.057,184.697 176.181,185.749 172.731 C 186.455 170.417,187.132 169.032,187.933 168.264 C 189.363 166.894,190.317 164.085,190.910 159.500 C 191.158 157.575,191.484 156.000,191.634 156.000 C 191.783 156.000,192.031 154.425,192.184 152.500 C 192.663 146.485,193.471 143.704,195.444 141.283 C 196.618 139.841,197.444 138.266,197.994 136.421 C 198.933 133.266,199.182 133.000,201.970 132.172 C 203.369 131.757,204.550 131.034,205.601 129.952 C 206.493 129.032,207.807 128.169,208.679 127.929 C 209.515 127.699,210.290 127.377,210.400 127.213 C 211.062 126.227,213.414 126.422,213.875 127.500 C 216.046 132.586,215.169 144.091,212.388 147.000 C 210.484 148.991,208.800 154.546,208.800 158.835 C 208.800 159.696,208.620 160.400,208.400 160.400 C 208.180 160.400,207.992 160.895,207.983 161.500 C 207.973 162.105,207.738 163.680,207.459 165.000 C 206.940 167.466,207.581 172.000,208.449 172.000 C 208.642 172.000,208.800 172.277,208.800 172.616 C 208.800 173.743,210.395 176.379,211.505 177.085 C 212.107 177.468,212.729 177.966,212.886 178.191 C 213.437 178.981,226.944 178.713,227.761 177.896 C 228.147 177.510,228.808 177.010,229.230 176.784 C 229.652 176.558,230.369 175.644,230.824 174.754 C 231.278 173.863,232.201 172.834,232.875 172.467 C 238.979 169.144,240.204 159.437,234.824 157.011 C 231.511 155.517,229.727 157.277,228.068 163.678 C 226.976 167.891,226.209 168.687,224.665 167.211 C 223.722 166.309,224.129 153.493,225.122 152.831 C 225.313 152.704,225.684 151.973,225.946 151.207 C 226.208 150.441,226.930 149.271,227.549 148.607 C 230.791 145.129,231.994 132.337,229.572 127.084 C 229.289 126.470,227.874 125.134,226.429 124.115 C 224.983 123.096,222.990 121.382,222.000 120.306 C 218.116 116.084,205.641 116.417,203.054 120.812 C 200.705 124.803,193.009 124.414,189.000 120.103 C 187.613 118.611,187.081 118.329,185.000 117.986 C 180.921 117.314,180.639 117.302,179.241 117.732 M184.113 120.827 C 185.481 121.282,187.619 122.362,188.864 123.227 C 190.109 124.092,191.279 124.804,191.464 124.809 C 191.649 124.814,192.220 125.141,192.733 125.535 C 193.590 126.195,193.929 126.210,196.933 125.730 C 203.978 124.605,205.885 127.506,200.115 130.570 C 198.017 131.685,197.669 132.066,196.400 134.645 C 195.630 136.210,194.439 138.190,193.753 139.045 C 193.068 139.900,192.369 141.050,192.199 141.600 C 192.030 142.150,191.760 142.690,191.599 142.800 C 191.438 142.910,190.911 145.700,190.429 149.000 C 189.410 155.973,188.492 159.650,186.567 164.474 C 185.805 166.384,184.835 169.301,184.411 170.956 C 182.839 177.102,180.885 178.026,176.066 174.901 C 174.597 173.949,173.781 172.400,174.748 172.400 C 174.940 172.400,175.218 171.275,175.366 169.900 C 175.513 168.525,175.802 166.860,176.007 166.200 C 176.212 165.540,176.823 162.030,177.365 158.400 C 178.329 151.939,178.644 150.710,181.210 143.423 C 184.495 134.093,183.972 123.200,180.240 123.200 C 178.877 123.200,178.148 121.572,179.148 120.762 C 180.340 119.797,181.042 119.806,184.113 120.827 M216.995 120.857 C 219.530 121.690,221.603 123.165,225.695 127.052 C 227.337 128.611,228.819 132.501,228.777 135.142 C 228.741 137.409,226.043 146.202,225.200 146.800 C 224.748 147.121,223.677 150.696,222.805 154.800 C 221.680 160.093,221.040 162.256,219.843 164.800 C 218.204 168.284,218.425 168.577,224.000 170.298 C 228.890 171.808,229.736 172.848,227.718 174.867 L 226.438 176.146 220.014 176.160 L 213.589 176.174 212.429 174.987 C 211.676 174.217,210.923 172.677,210.285 170.600 L 209.301 167.400 210.060 162.400 C 210.929 156.681,211.631 154.233,213.215 151.400 C 216.348 145.796,217.608 137.222,216.413 129.629 C 215.480 123.704,215.540 123.777,210.993 122.999 C 205.407 122.042,204.858 121.359,209.031 120.558 C 212.636 119.865,214.145 119.922,216.995 120.857 M175.967 125.500 C 177.566 126.807,176.742 130.858,174.400 133.200 C 173.643 133.957,173.621 133.953,172.837 132.956 C 170.026 129.383,172.759 122.876,175.967 125.500 M181.600 132.069 C 181.600 136.822,181.002 138.800,179.567 138.800 C 177.304 138.800,177.152 137.004,178.892 130.786 C 180.469 125.149,181.600 125.685,181.600 132.069 M235.277 164.062 C 235.132 168.475,234.020 170.321,231.836 169.773 C 230.186 169.359,229.776 168.068,230.332 165.046 C 230.590 163.650,230.800 162.088,230.800 161.576 C 230.800 161.063,231.282 160.141,231.871 159.526 L 232.943 158.407 234.171 159.366 L 235.400 160.324 235.277 164.062 M47.603 224.303 C 44.585 227.321,44.882 233.733,48.154 236.175 L 49.259 237.000 201.129 237.000 C 361.079 237.000,355.060 237.063,358.348 235.357 C 361.107 233.925,361.343 227.399,358.718 225.118 C 355.865 222.638,366.904 222.800,200.574 222.800 L 49.106 222.800 47.603 224.303 M351.545 225.864 C 352.306 226.068,355.600 231.867,355.600 233.003 C 355.600 233.071,354.485 233.503,353.122 233.963 L 350.645 234.800 203.422 234.775 C 122.450 234.761,54.702 234.607,52.871 234.432 C 48.289 233.994,48.111 233.777,48.835 229.521 L 49.400 226.200 52.200 225.971 C 56.060 225.654,350.371 225.550,351.545 225.864 M111.330 274.831 C 106.518 275.289,105.200 276.400,104.440 280.637 C 104.093 282.572,103.758 283.228,102.591 284.257 L 101.166 285.514 101.283 288.857 C 101.408 292.436,101.978 293.151,102.525 290.413 C 103.097 287.546,108.072 285.883,109.130 288.205 C 110.579 291.387,109.768 298.079,107.659 300.337 C 103.417 304.878,103.014 313.781,106.883 317.498 L 108.234 318.796 110.983 317.336 C 112.495 316.533,114.511 315.064,115.463 314.070 C 118.211 311.202,118.818 309.072,119.995 298.160 C 120.598 292.576,120.975 291.390,122.327 290.830 C 124.211 290.050,125.514 288.519,126.428 286.012 C 127.538 282.968,127.555 282.958,131.523 283.123 C 134.613 283.253,134.877 283.332,135.299 284.259 C 135.986 285.766,135.051 290.687,133.829 291.994 C 130.021 296.065,128.316 311.916,131.298 315.520 C 131.975 316.339,134.773 317.580,135.965 317.591 C 136.496 317.596,137.790 318.152,138.842 318.827 C 141.100 320.276,141.836 320.078,143.400 317.600 C 144.166 316.386,144.772 315.936,146.094 315.600 C 147.032 315.362,148.160 314.987,148.600 314.767 C 152.593 312.774,151.791 303.130,147.520 301.775 C 145.803 301.230,145.480 299.506,146.019 293.754 C 146.836 285.027,145.897 280.246,142.822 277.468 C 138.826 273.857,125.625 274.216,123.605 277.990 C 122.549 279.964,120.883 279.877,119.588 277.780 C 117.936 275.107,115.933 274.392,111.330 274.831 M116.386 278.185 C 116.895 278.727,117.515 279.579,117.764 280.078 C 118.013 280.578,119.254 281.500,120.522 282.127 C 124.520 284.106,124.737 286.122,121.232 288.713 C 119.603 289.918,118.935 291.321,118.621 294.200 C 117.369 305.682,116.719 307.496,112.345 311.700 C 108.599 315.302,108.408 315.353,107.081 313.107 L 106.081 311.413 107.004 308.870 C 107.512 307.471,108.315 306.055,108.789 305.723 C 112.614 303.043,112.199 279.600,108.326 279.600 C 107.578 279.600,108.073 278.398,108.900 278.206 C 114.372 276.933,115.208 276.931,116.386 278.185 M136.040 278.064 C 136.788 278.320,137.544 278.770,137.720 279.064 C 137.896 279.359,138.662 279.600,139.423 279.600 C 145.427 279.600,146.684 296.143,141.105 301.722 C 139.547 303.280,139.379 303.823,138.981 308.600 C 138.769 311.152,138.164 313.366,137.429 314.287 C 137.390 314.335,136.701 314.649,135.896 314.985 L 134.434 315.597 133.017 313.741 C 130.230 310.091,131.406 301.643,135.634 294.938 C 137.325 292.256,138.089 280.400,136.571 280.400 C 136.257 280.400,136.000 280.246,136.000 280.057 C 136.000 279.869,134.348 279.590,132.329 279.438 C 128.133 279.121,126.612 278.603,128.812 278.240 C 132.967 277.555,134.443 277.519,136.040 278.064 M147.828 311.505 C 147.333 312.000,147.141 311.189,147.454 309.929 L 147.784 308.600 147.920 309.938 C 147.995 310.675,147.954 311.380,147.828 311.505 M283.273 320.609 C 277.646 321.903,272.698 324.829,271.133 327.789 C 269.559 330.766,269.535 331.382,270.939 332.724 L 272.200 333.928 275.000 333.199 C 276.540 332.798,278.091 332.354,278.446 332.213 C 280.019 331.587,280.400 335.854,280.400 354.112 L 280.400 371.061 279.500 371.878 C 278.806 372.509,277.834 372.751,275.249 372.939 C 266.331 373.587,266.355 380.400,275.277 381.071 C 277.105 381.209,278.725 381.514,278.878 381.749 C 279.219 382.273,298.432 382.187,298.774 381.660 C 298.898 381.468,299.583 381.013,300.296 380.648 C 305.219 378.125,303.262 374.070,296.019 371.782 L 292.800 370.765 292.796 347.683 L 292.791 324.600 291.496 323.390 C 288.439 320.536,286.476 319.872,283.273 320.609 M287.074 323.180 C 289.777 324.828,290.000 326.968,290.000 351.255 C 290.000 374.555,289.519 372.719,296.000 374.178 C 298.869 374.823,300.800 375.959,300.800 377.000 C 300.800 379.904,287.911 381.040,277.456 379.059 C 269.900 377.626,269.402 376.310,276.000 375.212 C 279.153 374.687,280.387 373.941,281.438 371.920 C 282.285 370.292,282.253 338.192,281.400 333.735 C 281.070 332.011,280.800 329.208,280.800 327.508 L 280.800 324.415 282.700 323.426 C 285.021 322.218,285.457 322.194,287.074 323.180 M76.200 339.592 C 66.061 340.394,64.063 341.951,66.228 347.359 C 66.793 348.771,67.621 350.257,68.069 350.662 C 68.516 351.067,69.387 352.512,70.004 353.874 C 71.562 357.309,73.381 359.836,74.724 360.430 C 76.102 361.040,77.383 362.909,78.004 365.214 C 78.489 367.017,79.842 368.582,81.817 369.625 C 82.710 370.097,83.125 370.721,83.511 372.171 C 83.891 373.600,84.627 374.722,86.387 376.555 C 87.946 378.179,89.177 379.965,90.000 381.800 C 90.687 383.331,91.391 384.677,91.564 384.791 C 91.738 384.906,92.095 385.408,92.357 385.906 C 92.620 386.404,93.559 387.269,94.444 387.828 C 95.660 388.595,96.327 389.454,97.174 391.342 C 98.266 393.775,100.294 396.000,101.420 396.000 C 101.756 396.000,102.238 396.912,102.634 398.300 C 103.593 401.663,106.833 406.400,108.173 406.400 C 108.437 406.400,109.059 407.123,109.555 408.006 C 110.734 410.103,110.271 411.634,107.646 414.314 C 106.601 415.381,104.739 417.772,103.508 419.627 C 102.276 421.482,100.699 423.360,100.002 423.800 C 98.668 424.642,96.700 427.192,96.234 428.682 C 96.082 429.167,95.219 429.977,94.315 430.482 C 93.412 430.987,92.476 431.752,92.236 432.183 C 91.996 432.614,91.590 433.197,91.332 433.479 C 91.075 433.762,90.654 434.629,90.398 435.407 C 90.038 436.498,89.490 437.045,88.005 437.798 C 85.842 438.894,84.576 440.286,84.204 441.981 C 83.920 443.276,82.844 444.463,80.800 445.735 C 79.830 446.340,78.970 447.465,78.000 449.404 C 77.072 451.257,76.236 452.373,75.521 452.712 C 74.434 453.227,71.737 456.204,70.005 458.800 C 69.492 459.570,68.641 460.669,68.115 461.243 L 67.160 462.286 68.271 464.993 C 69.753 468.602,72.128 469.600,79.229 469.600 C 82.903 469.600,83.462 469.691,90.679 471.455 L 94.758 472.452 118.279 472.309 C 143.265 472.156,144.522 472.056,146.974 470.021 C 147.230 469.809,152.156 469.558,158.018 469.459 C 176.611 469.145,177.362 468.877,179.518 461.779 C 180.085 459.913,180.773 458.592,181.583 457.816 C 183.233 456.235,184.292 453.193,185.044 447.868 C 186.091 440.459,185.443 437.785,182.272 436.428 L 180.600 435.713 178.991 436.813 C 177.302 437.968,176.746 438.780,175.868 441.378 C 175.426 442.685,174.928 443.179,172.967 444.249 C 170.981 445.334,170.375 445.942,169.200 448.027 C 167.822 450.472,167.759 450.522,165.200 451.207 C 161.797 452.118,157.727 453.844,156.101 455.065 C 153.356 457.124,151.539 457.241,118.579 457.479 L 88.158 457.698 86.994 456.697 L 85.830 455.695 86.899 454.148 C 87.486 453.296,89.159 451.340,90.616 449.800 C 92.072 448.260,93.795 446.076,94.444 444.946 C 95.093 443.816,96.325 442.407,97.181 441.813 C 98.763 440.717,100.454 438.520,100.972 436.888 C 101.129 436.392,101.953 435.632,102.802 435.199 C 104.586 434.289,104.659 434.194,106.032 431.000 C 106.881 429.024,107.340 428.469,108.632 427.860 C 110.884 426.797,111.960 425.683,113.010 423.325 C 113.709 421.755,114.307 421.060,115.467 420.468 C 117.407 419.477,118.165 418.633,119.187 416.322 C 119.640 415.299,121.148 413.338,122.561 411.936 C 127.955 406.582,127.694 400.719,121.900 397.074 C 121.295 396.693,120.800 396.047,120.800 395.637 C 120.800 393.957,117.566 388.389,115.981 387.340 C 114.546 386.390,112.400 383.047,112.400 381.761 C 112.400 381.239,110.610 379.662,108.439 378.272 C 107.476 377.655,106.932 376.899,106.578 375.689 C 105.899 373.365,105.055 372.173,103.290 371.045 C 102.096 370.282,101.569 369.508,100.638 367.147 C 99.031 363.070,98.151 361.711,96.341 360.513 C 95.185 359.749,94.427 358.737,93.423 356.622 C 92.234 354.116,91.818 353.628,90.046 352.663 C 84.869 349.846,85.142 349.818,118.852 349.677 C 152.267 349.537,151.802 349.502,155.128 352.429 C 156.109 353.293,157.652 354.193,158.556 354.430 C 163.451 355.711,168.000 357.357,168.000 357.847 C 168.000 358.880,170.241 360.886,172.795 362.139 C 175.108 363.274,175.396 363.551,175.678 364.906 C 176.138 367.124,177.325 369.200,179.136 370.951 L 180.739 372.503 182.190 371.606 C 186.394 369.008,186.314 357.093,182.064 352.843 C 180.392 351.171,180.229 350.809,179.424 346.987 C 178.470 342.454,177.801 341.149,175.896 340.108 C 174.520 339.356,85.028 338.893,76.200 339.592 M174.564 341.600 C 176.408 342.550,177.112 343.934,177.782 347.924 C 178.413 351.675,179.387 354.194,180.597 355.198 C 181.621 356.047,182.252 357.545,182.987 360.868 C 184.559 367.973,179.449 371.233,177.580 364.318 C 177.081 362.474,175.380 360.400,174.366 360.400 C 173.947 360.400,172.345 359.245,170.807 357.834 C 168.809 356.001,167.410 355.075,165.906 354.591 C 164.747 354.218,161.751 352.840,159.247 351.528 C 152.304 347.888,153.501 347.996,120.265 348.024 C 90.191 348.049,88.569 348.126,86.992 349.608 C 85.571 350.942,85.724 351.455,88.300 353.987 C 90.918 356.560,91.555 357.336,92.400 358.977 C 92.730 359.619,93.820 361.056,94.822 362.172 C 95.824 363.287,97.421 365.730,98.370 367.600 C 99.522 369.867,100.797 371.666,102.199 373.000 C 103.355 374.100,104.659 375.810,105.097 376.800 C 105.534 377.790,106.366 379.050,106.944 379.600 C 109.961 382.472,110.538 383.151,111.426 384.879 C 111.957 385.912,113.500 388.072,114.855 389.679 C 116.210 391.285,117.817 393.680,118.427 395.000 C 119.037 396.320,120.422 398.390,121.505 399.600 C 125.004 403.510,124.799 405.716,120.532 410.062 C 119.527 411.086,118.049 413.246,117.247 414.862 L 115.790 417.800 113.595 417.800 C 111.057 417.800,111.105 417.949,112.003 412.897 C 112.472 410.255,112.451 409.840,111.772 408.297 C 110.581 405.588,108.776 402.800,108.213 402.800 C 107.503 402.800,106.013 400.711,104.506 397.600 C 103.797 396.137,102.441 394.233,101.403 393.245 C 100.389 392.280,99.191 390.750,98.739 389.845 C 98.288 388.940,97.048 387.300,95.985 386.200 C 94.921 385.100,93.561 383.210,92.963 382.000 C 92.364 380.790,91.754 379.710,91.607 379.600 C 91.461 379.490,90.919 378.641,90.404 377.714 C 89.890 376.787,88.814 375.502,88.014 374.860 C 87.214 374.217,85.973 372.590,85.256 371.245 C 84.537 369.895,83.226 368.218,82.329 367.500 C 81.180 366.581,80.244 365.232,79.132 362.897 C 78.063 360.652,76.879 358.922,75.438 357.497 C 72.930 355.018,71.521 352.701,70.473 349.335 C 70.051 347.981,69.306 346.311,68.816 345.623 C 67.300 343.493,69.477 342.390,77.200 341.375 C 83.307 340.572,172.971 340.779,174.564 341.600 M238.800 398.757 C 238.800 398.953,238.370 399.221,237.845 399.353 C 233.601 400.418,233.599 406.658,237.841 410.382 L 239.228 411.600 285.413 411.600 L 331.598 411.600 333.228 410.127 C 337.479 406.286,337.695 401.541,333.703 399.695 C 332.876 399.313,332.140 398.865,332.067 398.700 C 331.874 398.267,238.800 398.323,238.800 398.757 M333.062 401.820 C 334.699 403.068,334.709 403.356,333.209 405.722 L 332.018 407.600 285.509 407.599 L 239.000 407.598 237.644 405.608 C 236.182 403.464,236.213 403.238,238.200 401.519 C 238.948 400.871,241.994 400.826,285.362 400.813 L 331.724 400.800 333.062 401.820 M110.722 420.956 C 110.909 424.586,108.363 426.679,105.574 425.186 C 103.539 424.097,106.821 418.234,109.330 418.477 C 110.583 418.598,110.602 418.632,110.722 420.956 M103.986 426.774 C 105.258 429.151,103.252 432.509,100.671 432.322 C 99.031 432.202,98.998 432.170,98.882 430.598 C 98.660 427.597,102.776 424.513,103.986 426.774 M98.318 435.002 C 98.484 437.244,96.398 439.600,94.246 439.600 C 92.811 439.600,92.800 439.588,92.800 437.893 C 92.800 433.640,98.016 430.907,98.318 435.002 M183.600 442.749 C 183.600 445.591,182.355 450.324,180.842 453.236 C 179.975 454.906,178.777 457.873,178.180 459.829 C 177.027 463.609,175.281 466.000,173.673 466.000 C 173.230 466.000,172.797 466.208,172.712 466.463 C 172.602 466.795,168.581 467.011,158.579 467.223 C 146.979 467.470,144.191 467.641,142.200 468.230 C 138.310 469.380,95.675 469.602,93.613 468.482 C 92.836 468.061,91.300 467.478,90.200 467.187 C 89.100 466.897,88.098 466.508,87.972 466.323 C 87.590 465.758,80.015 465.729,79.667 466.292 C 79.259 466.952,75.100 467.099,74.372 466.479 C 74.057 466.211,73.301 465.617,72.692 465.160 C 69.338 462.645,71.496 457.784,76.758 456.000 C 78.990 455.243,79.882 454.031,80.435 451.000 C 80.974 448.051,81.325 447.600,83.075 447.600 C 85.505 447.600,86.000 447.069,86.000 444.464 C 86.000 441.219,87.679 439.488,90.644 439.676 C 92.731 439.808,93.181 440.452,92.646 442.541 C 92.253 444.079,88.688 447.600,87.523 447.600 C 86.628 447.600,86.303 447.968,85.293 450.127 C 82.625 455.827,82.814 457.138,86.571 459.010 L 88.557 460.000 111.579 459.990 C 125.649 459.985,135.222 459.825,136.200 459.579 C 137.080 459.358,141.220 459.012,145.400 458.811 C 154.893 458.353,159.881 457.249,162.474 455.030 C 163.379 454.254,164.948 453.316,165.960 452.944 C 168.280 452.092,170.349 450.586,170.789 449.428 C 171.237 448.251,173.233 446.392,174.881 445.618 C 175.793 445.190,176.573 444.296,177.410 442.721 C 178.076 441.468,179.064 439.970,179.606 439.393 L 180.592 438.344 182.096 439.957 C 183.131 441.066,183.600 441.937,183.600 442.749 M259.961 439.205 C 257.456 439.629,255.754 440.578,254.744 442.113 C 254.279 442.821,253.112 443.887,252.152 444.483 C 248.380 446.822,247.882 451.285,251.148 453.480 L 252.497 454.386 253.654 453.561 C 254.936 452.648,255.848 451.104,256.561 448.634 C 257.425 445.643,259.820 445.432,262.334 448.124 L 263.268 449.124 262.640 452.262 C 261.932 455.798,260.805 464.643,260.790 466.788 C 260.784 467.565,260.467 468.894,260.086 469.742 L 259.393 471.284 258.370 470.261 C 257.808 469.699,256.999 468.518,256.574 467.639 C 255.460 465.336,253.221 464.133,251.257 464.782 C 247.358 466.070,242.166 474.636,244.053 476.668 C 245.669 478.408,252.154 482.300,253.000 482.037 C 259.590 479.990,268.734 479.712,271.132 481.486 C 272.318 482.363,272.338 482.364,273.305 481.604 C 273.841 481.181,275.548 480.485,277.096 480.056 C 286.715 477.390,291.621 469.840,286.415 465.713 C 285.075 464.651,283.501 465.918,281.863 469.377 C 281.304 470.558,280.612 471.669,280.326 471.846 C 279.854 472.137,272.319 473.253,272.126 473.059 C 270.096 471.030,271.866 463.441,274.897 461.178 C 275.335 460.851,277.127 455.469,278.002 451.851 C 278.885 448.202,279.069 447.888,279.413 449.453 C 280.840 455.951,287.005 457.367,289.871 451.855 C 291.444 448.833,289.529 441.756,286.625 439.853 C 283.768 437.981,275.595 438.931,272.740 441.466 C 272.254 441.897,272.003 441.929,271.792 441.586 C 270.524 439.536,264.808 438.385,259.961 439.205 M266.900 442.157 C 267.285 442.449,267.600 442.865,267.600 443.082 C 267.600 444.045,269.154 444.706,271.934 444.927 C 275.397 445.201,275.879 445.518,276.213 447.744 C 276.448 449.313,275.580 452.618,274.780 453.200 C 274.629 453.310,274.007 454.390,273.398 455.600 C 272.790 456.810,271.957 458.228,271.547 458.752 C 269.966 460.774,269.114 467.000,269.688 472.331 C 270.085 476.013,269.948 476.392,267.831 477.487 C 266.357 478.250,264.804 478.230,261.639 477.410 C 259.287 476.801,259.240 476.806,256.011 477.996 C 252.360 479.342,252.198 479.315,248.560 476.720 L 246.919 475.550 248.760 471.933 C 251.753 466.052,252.906 465.952,256.051 471.304 C 259.119 476.524,261.386 474.443,262.753 465.154 C 263.460 460.352,265.187 453.655,265.991 452.600 C 269.118 448.497,266.563 444.507,259.853 443.016 C 258.262 442.663,258.767 442.349,261.485 442.001 C 265.035 441.547,266.138 441.579,266.900 442.157 M285.455 442.621 C 288.754 444.699,289.551 449.729,286.987 452.293 L 285.622 453.658 284.373 452.929 C 282.628 451.911,281.656 450.406,281.204 448.022 C 280.698 445.353,280.190 444.463,279.005 444.165 C 277.450 443.775,276.931 442.892,277.841 442.185 C 278.768 441.465,284.105 441.770,285.455 442.621 M310.530 447.699 C 309.855 448.414,309.174 449.538,309.019 450.196 C 308.864 450.854,308.587 451.484,308.404 451.597 C 307.806 451.967,307.290 455.861,307.735 456.655 C 308.238 457.555,309.456 458.628,310.834 459.384 C 312.569 460.337,316.175 457.339,315.782 455.269 C 314.966 450.979,314.144 448.708,313.004 447.604 L 311.759 446.398 310.530 447.699 M253.309 449.625 C 252.996 450.823,252.433 450.957,252.044 449.926 C 251.534 448.573,252.296 447.170,253.010 448.147 C 253.288 448.526,253.423 449.192,253.309 449.625 M313.190 455.651 C 313.204 456.526,312.156 457.346,311.396 457.054 C 310.376 456.662,310.265 455.668,311.023 453.685 L 311.742 451.801 312.461 453.400 C 312.856 454.280,313.184 455.293,313.190 455.651 M303.000 465.031 C 301.900 465.324,300.883 465.573,300.741 465.582 C 300.598 465.592,299.653 466.341,298.641 467.248 L 296.800 468.895 296.800 472.173 C 296.800 475.298,296.856 475.504,298.009 476.609 C 299.820 478.344,300.452 480.921,299.890 484.280 C 297.890 496.235,301.396 501.043,310.030 498.187 C 314.564 496.688,315.954 490.638,312.585 487.067 C 309.775 484.087,309.962 481.036,313.162 477.683 L 314.800 475.966 314.783 472.283 C 314.758 466.597,313.711 465.649,306.400 464.682 C 305.630 464.580,304.100 464.737,303.000 465.031 M308.936 468.420 C 311.426 469.129,310.251 472.180,307.011 473.417 C 304.879 474.231,304.144 473.834,302.757 471.116 C 301.139 467.945,303.559 466.889,308.936 468.420 M306.833 476.747 C 307.587 477.357,307.786 477.978,307.924 480.147 C 308.017 481.606,308.226 482.800,308.388 482.800 C 308.681 482.800,309.323 489.660,309.374 493.334 L 309.400 495.268 307.152 496.185 L 304.905 497.102 303.708 496.166 L 302.512 495.230 302.230 488.515 C 301.792 478.088,303.403 473.969,306.833 476.747 M74.262 489.403 C 69.741 490.958,68.159 495.580,71.256 498.186 C 74.527 500.938,79.399 499.969,80.997 496.247 C 82.475 492.805,77.896 488.152,74.262 489.403 M178.400 489.626 C 177.630 489.816,174.781 490.251,172.068 490.594 C 166.662 491.276,164.572 492.073,163.224 493.966 L 162.381 495.150 163.581 496.517 C 164.241 497.269,165.581 498.190,166.559 498.563 C 167.583 498.954,168.775 499.816,169.369 500.594 L 170.400 501.947 170.400 521.556 L 170.400 541.166 168.700 542.139 C 167.765 542.674,166.334 543.322,165.520 543.580 C 161.844 544.745,160.900 547.380,163.300 549.780 C 165.791 552.271,166.478 552.400,177.200 552.400 C 188.456 552.400,188.697 552.344,192.278 548.918 C 194.004 547.268,192.225 544.697,188.474 543.419 C 184.904 542.203,185.200 544.463,185.200 518.409 C 185.200 492.699,185.204 492.740,182.553 490.412 C 181.107 489.143,180.688 489.063,178.400 489.626 M78.547 493.326 C 80.344 495.546,77.563 498.903,74.742 497.920 C 71.425 496.764,70.829 494.883,73.067 492.639 C 75.268 490.432,76.311 490.563,78.547 493.326 M181.764 493.231 L 182.800 494.461 182.800 517.772 L 182.800 541.082 183.713 542.441 C 184.215 543.188,185.488 544.268,186.542 544.840 C 189.936 546.683,190.299 547.277,188.798 548.540 L 187.539 549.600 177.200 549.600 L 166.861 549.600 165.610 548.547 L 164.359 547.495 165.219 546.580 C 165.692 546.076,166.601 545.470,167.240 545.232 C 167.878 544.994,168.967 544.587,169.660 544.327 C 170.353 544.066,171.523 543.250,172.260 542.513 L 173.600 541.173 173.600 521.581 C 173.600 506.651,173.481 501.776,173.100 501.095 C 172.161 499.415,170.601 497.942,168.243 496.507 C 165.084 494.585,167.228 493.151,174.400 492.390 C 179.936 491.802,180.629 491.881,181.764 493.231 M68.636 507.942 C 68.501 508.159,66.783 508.912,64.817 509.616 C 60.850 511.035,58.338 513.151,57.820 515.510 C 57.653 516.271,56.659 517.654,55.310 519.003 L 53.078 521.236 54.380 522.580 L 55.683 523.924 57.280 523.209 C 58.159 522.815,59.390 521.933,60.016 521.247 C 62.626 518.389,64.205 520.074,63.795 525.280 C 63.449 529.670,63.186 530.474,61.479 532.370 C 60.771 533.157,59.835 534.880,59.398 536.200 C 58.961 537.520,58.453 538.710,58.268 538.844 C 57.822 539.170,57.837 542.845,58.286 543.156 C 58.480 543.290,58.869 544.187,59.150 545.148 C 59.990 548.024,62.123 549.935,65.100 550.482 C 66.475 550.735,67.600 551.089,67.600 551.271 C 67.600 551.452,68.230 551.600,69.000 551.600 C 69.770 551.600,70.400 551.449,70.400 551.264 C 70.400 551.079,71.636 550.707,73.148 550.437 C 76.743 549.795,77.905 548.612,79.389 544.087 L 80.475 540.773 79.444 539.422 C 78.841 538.631,77.656 537.782,76.585 537.373 C 73.834 536.323,73.529 535.446,74.243 530.648 C 74.778 527.054,74.944 526.609,76.312 525.136 C 78.496 522.785,78.796 521.993,79.066 517.874 L 79.312 514.138 77.848 512.675 C 77.043 511.870,75.893 511.093,75.292 510.948 C 73.924 510.619,70.418 508.900,69.540 508.128 C 69.137 507.774,68.784 507.702,68.636 507.942 M72.400 513.291 C 73.830 513.753,75.250 514.195,75.555 514.274 C 76.298 514.465,75.879 518.178,75.018 519.040 C 74.678 519.379,74.400 519.894,74.400 520.183 C 74.400 520.472,74.141 521.207,73.825 521.817 C 73.509 522.426,73.135 524.112,72.994 525.562 C 72.763 527.934,71.756 533.045,70.780 536.800 C 70.541 537.722,70.004 538.433,69.208 538.881 C 66.659 540.319,66.870 544.000,69.535 544.586 C 70.851 544.875,71.364 545.348,71.757 546.635 C 72.346 548.559,67.474 548.674,65.581 546.781 C 65.196 546.396,64.318 545.958,63.630 545.807 C 59.842 544.975,59.726 539.084,63.432 535.800 C 64.756 534.627,64.799 534.487,65.357 529.600 C 65.671 526.850,66.194 523.831,66.520 522.891 C 67.318 520.589,65.973 517.611,63.585 516.392 C 61.235 515.193,61.345 513.215,63.762 513.192 C 64.223 513.188,65.500 512.934,66.600 512.628 C 67.700 512.323,68.870 512.158,69.200 512.262 C 69.530 512.367,70.970 512.830,72.400 513.291 M94.970 514.533 C 94.858 514.827,94.818 516.582,94.883 518.433 L 95.000 521.800 117.800 521.914 C 130.340 521.977,141.185 521.924,141.900 521.796 L 143.200 521.564 143.200 518.029 C 143.200 514.701,143.147 514.479,142.300 514.252 C 140.269 513.708,95.184 513.976,94.970 514.533 M93.199 530.693 C 88.769 533.007,88.769 535.793,93.199 538.107 L 95.368 539.240 119.384 539.103 C 146.147 538.951,146.828 538.888,149.500 536.301 C 151.734 534.139,150.261 531.844,145.800 530.537 C 143.653 529.907,140.870 529.819,119.384 529.697 L 95.368 529.560 93.199 530.693 M144.400 532.916 C 145.676 533.433,146.600 534.056,146.600 534.400 C 146.600 536.891,97.320 538.364,93.962 535.973 C 92.505 534.935,92.484 533.902,93.900 532.846 C 95.696 531.506,141.076 531.569,144.400 532.916 M76.128 541.554 C 75.904 542.412,74.592 542.278,74.240 541.361 C 74.086 540.960,74.353 540.800,75.175 540.800 C 76.105 540.800,76.287 540.945,76.128 541.554 " stroke="none" fill="#8c8c8c" fill-rule="evenodd"></path></g></svg>