<svg id="svg" version="1.1" xmlns="http://www.w3.org/2000/svg" xmlns:xlink="http://www.w3.org/1999/xlink" width="400" height="423.1404958677686" viewBox="0, 0, 400,423.1404958677686"><g id="svgg"><path id="path0" d="M181.893 91.547 C 180.402 92.370,179.768 93.054,178.992 94.677 C 178.445 95.819,177.799 96.877,177.555 97.028 C 177.310 97.179,176.691 98.252,176.178 99.412 C 175.665 100.572,174.721 102.124,174.080 102.860 C 173.439 103.597,172.692 104.884,172.420 105.720 C 172.147 106.556,171.468 107.726,170.909 108.320 C 170.351 108.914,169.664 109.940,169.383 110.600 C 169.102 111.260,168.351 112.455,167.715 113.256 C 167.078 114.057,166.307 115.470,166.002 116.395 C 165.696 117.320,164.937 118.555,164.315 119.139 C 163.693 119.722,163.002 120.871,162.779 121.691 C 162.556 122.510,161.660 124.006,160.787 125.015 C 159.914 126.023,159.200 127.191,159.200 127.610 C 159.200 128.029,158.689 128.963,158.064 129.686 C 157.439 130.409,156.462 131.990,155.892 133.200 C 155.322 134.410,154.494 135.704,154.051 136.076 C 153.608 136.448,153.031 137.472,152.767 138.351 C 152.504 139.230,151.594 140.791,150.744 141.818 C 149.895 142.846,149.200 143.924,149.200 144.213 C 149.200 144.502,148.763 145.258,148.229 145.893 C 147.695 146.528,146.797 148.089,146.234 149.362 C 145.671 150.635,144.762 152.029,144.215 152.460 C 143.667 152.891,143.027 153.956,142.793 154.827 C 142.558 155.698,141.859 156.993,141.239 157.705 C 140.620 158.417,139.736 159.857,139.277 160.905 C 138.817 161.952,138.168 162.914,137.835 163.042 C 137.502 163.170,136.851 164.292,136.388 165.537 C 135.925 166.782,135.035 168.340,134.409 169.000 C 133.784 169.660,133.044 170.977,132.765 171.927 C 132.485 172.877,131.829 173.991,131.306 174.402 C 130.783 174.814,129.827 176.241,129.181 177.575 C 128.535 178.909,127.849 180.000,127.657 180.000 C 127.466 180.000,126.991 180.855,126.603 181.900 C 126.214 182.945,125.388 184.341,124.765 185.001 C 124.143 185.662,123.349 187.010,123.001 187.996 C 122.654 188.982,121.937 190.241,121.410 190.794 C 120.883 191.347,120.095 192.634,119.660 193.653 C 119.225 194.673,118.504 195.762,118.058 196.074 C 117.613 196.386,116.876 197.636,116.421 198.851 C 115.967 200.066,115.155 201.442,114.618 201.909 C 114.081 202.376,113.448 203.478,113.211 204.358 C 112.974 205.238,112.244 206.494,111.588 207.150 C 110.933 207.806,110.029 209.210,109.580 210.271 C 109.131 211.332,108.534 212.380,108.253 212.600 C 107.973 212.820,107.153 214.166,106.432 215.590 C 105.711 217.015,104.784 218.416,104.372 218.705 C 103.960 218.993,103.438 219.918,103.211 220.759 C 102.985 221.600,102.165 223.079,101.389 224.044 C 100.614 225.010,99.634 226.565,99.212 227.500 C 98.790 228.435,98.277 229.200,98.071 229.200 C 97.866 229.200,97.302 230.258,96.818 231.551 C 96.333 232.849,95.342 234.481,94.606 235.194 C 93.873 235.905,93.164 237.067,93.031 237.777 C 92.898 238.487,92.184 239.748,91.444 240.579 C 90.705 241.410,89.892 242.783,89.638 243.630 C 89.384 244.478,88.789 245.442,88.316 245.774 C 87.842 246.106,87.039 247.399,86.531 248.649 C 86.022 249.898,85.272 251.154,84.864 251.440 C 84.456 251.726,83.725 253.048,83.241 254.377 C 82.739 255.753,82.008 256.982,81.543 257.231 C 81.094 257.471,80.301 258.629,79.781 259.804 C 79.262 260.978,78.592 262.088,78.293 262.270 C 77.993 262.451,77.338 263.625,76.836 264.879 C 76.335 266.132,75.521 267.422,75.028 267.745 C 74.523 268.076,73.741 269.404,73.236 270.790 C 72.743 272.142,72.076 273.349,71.755 273.473 C 70.539 273.939,69.944 275.825,70.775 276.577 C 71.569 277.296,95.763 277.386,97.226 276.675 C 97.571 276.508,98.181 275.456,98.584 274.337 C 98.986 273.219,99.823 271.851,100.444 271.297 C 101.066 270.744,101.779 269.641,102.031 268.845 C 102.282 268.050,103.018 266.723,103.666 265.896 C 104.314 265.069,105.125 263.719,105.469 262.896 C 105.813 262.073,106.594 260.830,107.204 260.134 C 107.815 259.438,108.540 258.178,108.814 257.334 C 109.088 256.490,109.917 255.124,110.656 254.299 C 111.395 253.473,112.000 252.555,112.000 252.259 C 112.000 251.963,112.525 250.995,113.167 250.110 C 113.808 249.224,114.734 247.712,115.224 246.750 C 115.714 245.787,116.520 244.460,117.014 243.800 C 117.508 243.140,118.283 241.774,118.736 240.765 C 119.190 239.756,119.868 238.676,120.245 238.365 C 120.621 238.054,121.365 236.810,121.898 235.600 C 122.431 234.390,123.195 233.040,123.596 232.600 C 123.998 232.160,124.731 230.990,125.227 230.000 C 125.723 229.010,126.520 227.750,126.998 227.200 C 127.477 226.650,128.171 225.376,128.541 224.368 C 128.911 223.360,129.747 222.026,130.398 221.402 C 131.049 220.778,131.792 219.623,132.049 218.834 C 132.306 218.045,132.957 216.870,133.497 216.223 C 134.037 215.575,134.882 214.135,135.375 213.023 C 135.867 211.910,136.589 210.737,136.978 210.416 C 137.366 210.095,138.125 208.837,138.663 207.620 C 139.201 206.403,139.974 205.046,140.382 204.604 C 140.790 204.162,141.395 203.141,141.727 202.335 C 142.058 201.529,142.700 200.500,143.153 200.047 C 143.606 199.594,144.507 198.172,145.156 196.888 C 145.804 195.603,146.605 194.328,146.935 194.054 C 147.265 193.780,147.865 192.638,148.268 191.518 C 148.671 190.397,149.496 189.012,150.102 188.440 C 150.708 187.868,151.402 186.770,151.645 186.000 C 151.888 185.230,152.620 183.920,153.271 183.090 C 153.921 182.259,154.809 180.777,155.243 179.795 C 155.677 178.814,156.361 177.835,156.762 177.620 C 157.163 177.406,157.891 176.160,158.381 174.852 C 158.870 173.544,159.704 172.066,160.235 171.567 C 160.766 171.069,161.200 170.436,161.200 170.161 C 161.200 169.887,162.099 168.343,163.197 166.731 C 164.296 165.119,165.196 163.581,165.197 163.314 C 165.199 163.047,165.714 162.237,166.343 161.514 C 166.971 160.791,167.712 159.480,167.990 158.600 C 168.267 157.720,169.081 156.370,169.800 155.600 C 170.519 154.830,171.327 153.510,171.596 152.666 C 171.865 151.822,172.585 150.562,173.196 149.866 C 173.806 149.170,174.574 147.960,174.900 147.178 C 175.227 146.395,175.959 145.254,176.527 144.641 C 177.095 144.028,177.847 142.664,178.197 141.610 C 178.547 140.556,179.205 139.358,179.660 138.947 C 180.115 138.536,180.993 137.199,181.611 135.976 C 182.734 133.753,183.821 132.488,184.244 132.910 C 184.367 133.034,184.980 132.956,185.606 132.738 C 187.297 132.149,188.165 132.833,189.184 135.557 C 189.675 136.870,190.338 138.044,190.658 138.167 C 190.978 138.290,191.683 139.393,192.225 140.618 C 192.767 141.843,193.662 143.331,194.214 143.923 C 194.766 144.515,195.402 145.681,195.628 146.514 C 195.854 147.347,196.563 148.496,197.205 149.067 C 197.846 149.639,198.662 150.982,199.018 152.053 C 199.373 153.124,200.014 154.244,200.441 154.544 C 200.869 154.843,201.681 156.047,202.247 157.220 C 202.812 158.393,203.686 159.903,204.188 160.576 C 204.690 161.249,205.312 162.460,205.571 163.267 C 205.829 164.074,206.471 165.016,206.996 165.361 C 207.566 165.734,208.313 166.975,208.844 168.432 C 209.334 169.777,209.980 170.971,210.280 171.086 C 210.580 171.201,211.348 172.349,211.987 173.637 C 212.626 174.924,213.524 176.382,213.984 176.875 C 214.443 177.368,215.027 178.465,215.281 179.312 C 215.535 180.160,216.169 181.246,216.690 181.727 C 217.731 182.687,219.200 185.254,219.200 186.114 C 219.200 186.415,219.672 187.097,220.248 187.630 C 220.825 188.164,221.623 189.352,222.021 190.271 C 222.420 191.190,223.389 192.875,224.173 194.016 C 224.958 195.156,225.600 196.307,225.600 196.573 C 225.600 196.839,226.203 197.763,226.940 198.628 C 227.677 199.493,228.507 200.920,228.786 201.800 C 229.065 202.680,229.722 203.812,230.247 204.316 C 230.771 204.820,231.581 205.990,232.046 206.916 C 232.511 207.842,233.286 209.140,233.769 209.800 C 234.251 210.460,234.960 211.840,235.344 212.868 C 235.727 213.895,236.467 215.014,236.987 215.355 C 237.522 215.705,238.306 216.972,238.790 218.266 C 239.262 219.527,239.989 220.797,240.406 221.089 C 240.823 221.382,241.560 222.704,242.042 224.028 C 242.525 225.353,243.260 226.618,243.675 226.840 C 244.090 227.062,244.847 228.179,245.357 229.322 C 245.867 230.465,246.663 231.736,247.126 232.147 C 247.588 232.558,248.261 233.780,248.621 234.862 C 248.992 235.979,249.684 237.099,250.222 237.451 C 250.755 237.801,251.540 239.062,252.016 240.336 C 252.482 241.581,253.190 242.904,253.590 243.276 C 253.989 243.648,254.621 244.751,254.994 245.728 C 255.366 246.704,256.160 247.863,256.756 248.304 C 257.372 248.759,258.078 249.862,258.389 250.853 C 258.690 251.814,259.441 253.143,260.057 253.807 C 260.673 254.471,261.384 255.641,261.638 256.407 C 261.891 257.173,262.627 258.477,263.272 259.304 C 263.917 260.132,264.639 261.392,264.876 262.104 C 265.113 262.817,265.809 263.940,266.422 264.600 C 267.036 265.260,267.992 266.835,268.547 268.100 C 269.102 269.365,269.756 270.400,270.001 270.400 C 270.245 270.400,271.049 271.725,271.787 273.343 C 273.554 277.221,273.467 277.200,287.888 277.200 C 301.752 277.200,302.190 277.037,299.079 273.039 C 298.411 272.181,297.614 270.752,297.309 269.865 C 297.003 268.978,296.235 267.663,295.603 266.942 C 294.970 266.222,294.138 264.950,293.753 264.116 C 293.367 263.282,292.545 262.009,291.926 261.286 C 291.307 260.563,290.800 259.720,290.800 259.411 C 290.800 259.103,289.990 257.667,289.000 256.221 C 288.010 254.775,287.200 253.420,287.200 253.210 C 287.200 253.000,286.664 252.217,286.008 251.470 C 285.352 250.723,284.420 249.079,283.937 247.816 C 283.454 246.554,282.811 245.426,282.509 245.310 C 282.206 245.194,281.343 243.875,280.589 242.379 C 279.836 240.883,279.021 239.536,278.777 239.386 C 278.533 239.235,277.978 238.277,277.542 237.256 C 277.107 236.235,276.248 234.860,275.634 234.200 C 275.020 233.540,274.207 232.190,273.827 231.200 C 273.447 230.210,272.779 229.016,272.342 228.547 C 271.905 228.077,271.027 226.592,270.391 225.247 C 269.755 223.901,269.066 222.800,268.861 222.800 C 268.656 222.800,268.091 221.945,267.606 220.900 C 267.121 219.855,266.303 218.550,265.790 218.000 C 265.276 217.450,264.476 215.982,264.013 214.737 C 263.549 213.492,262.898 212.370,262.565 212.242 C 262.233 212.114,261.537 211.052,261.019 209.882 C 260.502 208.712,259.640 207.225,259.103 206.577 C 258.567 205.930,257.914 204.774,257.653 204.008 C 257.392 203.243,256.672 202.155,256.053 201.589 C 255.434 201.024,254.600 199.671,254.198 198.581 C 253.797 197.491,253.070 196.150,252.583 195.600 C 252.096 195.050,251.365 193.880,250.958 193.000 C 250.552 192.120,249.771 190.894,249.223 190.277 C 248.675 189.659,247.909 188.318,247.522 187.297 C 247.134 186.277,246.528 185.279,246.174 185.082 C 245.821 184.884,245.035 183.614,244.427 182.261 C 243.820 180.907,243.006 179.537,242.619 179.216 C 242.232 178.895,241.505 177.703,241.002 176.567 C 240.500 175.432,239.885 174.376,239.636 174.222 C 239.386 174.068,238.621 172.830,237.936 171.471 C 237.250 170.112,236.379 168.782,235.999 168.516 C 235.620 168.249,234.907 166.956,234.416 165.643 C 233.925 164.329,233.188 162.951,232.779 162.581 C 232.371 162.211,231.554 160.984,230.965 159.854 C 230.376 158.724,229.458 157.280,228.926 156.644 C 228.393 156.008,227.856 154.979,227.731 154.357 C 227.607 153.734,226.933 152.634,226.234 151.912 C 225.535 151.191,224.642 149.790,224.249 148.800 C 223.857 147.810,223.210 146.640,222.812 146.200 C 222.414 145.760,221.628 144.481,221.066 143.357 C 220.504 142.233,219.596 140.781,219.048 140.130 C 218.500 139.479,217.932 138.466,217.784 137.880 C 217.637 137.293,217.020 136.315,216.413 135.707 C 215.807 135.098,214.991 133.700,214.601 132.600 C 214.211 131.500,213.475 130.212,212.967 129.737 C 212.458 129.263,211.754 128.183,211.403 127.337 C 211.051 126.492,210.260 125.170,209.645 124.400 C 209.030 123.630,208.314 122.355,208.054 121.566 C 207.794 120.777,207.049 119.622,206.398 118.998 C 205.747 118.374,204.911 117.040,204.541 116.032 C 204.171 115.024,203.467 113.750,202.976 113.200 C 202.485 112.650,201.688 111.268,201.205 110.129 C 200.721 108.989,200.066 107.957,199.748 107.835 C 199.430 107.713,198.771 106.755,198.284 105.707 C 197.797 104.658,196.928 103.170,196.353 102.400 C 195.777 101.630,194.993 100.157,194.609 99.126 C 194.225 98.095,193.668 97.158,193.372 97.045 C 193.075 96.931,192.388 95.960,191.844 94.888 C 189.806 90.865,185.652 89.470,181.893 91.547 " stroke="none" fill="#07060b" fill-rule="evenodd"></path><path id="path1" d="M0.000 211.400 L 0.000 422.800 200.000 422.800 L 400.000 422.800 400.000 211.400 L 400.000 0.000 200.000 0.000 L 0.000 0.000 0.000 211.400 M191.238 88.820 C 191.669 89.051,192.300 89.933,192.639 90.781 C 192.978 91.628,193.589 92.408,193.996 92.515 C 194.817 92.730,196.400 95.523,196.400 96.757 C 196.400 97.191,196.915 97.912,197.545 98.361 C 198.276 98.882,198.868 99.815,199.186 100.949 C 199.476 101.985,200.251 103.274,201.049 104.047 C 201.801 104.776,202.607 106.082,202.840 106.949 C 203.074 107.817,203.786 109.047,204.423 109.684 C 205.059 110.321,205.763 111.518,205.985 112.344 C 206.208 113.171,206.851 114.248,207.416 114.739 C 207.980 115.229,208.798 116.461,209.233 117.476 C 209.668 118.491,210.548 119.919,211.190 120.650 C 211.831 121.380,212.531 122.612,212.745 123.387 C 212.959 124.162,213.672 125.333,214.328 125.990 C 215.043 126.705,215.728 127.989,216.037 129.192 C 216.320 130.296,216.775 131.200,217.048 131.200 C 217.693 131.200,219.008 133.090,219.352 134.510 C 219.499 135.121,220.223 136.291,220.960 137.110 C 221.697 137.930,222.421 139.159,222.569 139.843 C 222.717 140.526,223.459 141.763,224.218 142.591 C 224.976 143.420,225.819 144.840,226.090 145.749 C 226.361 146.657,227.057 147.800,227.637 148.289 C 228.226 148.787,228.917 149.990,229.206 151.023 C 229.534 152.194,230.135 153.171,230.852 153.702 C 231.521 154.196,232.238 155.310,232.611 156.433 C 232.958 157.477,233.493 158.427,233.802 158.545 C 234.398 158.774,236.000 161.969,236.000 162.931 C 236.000 163.247,236.585 163.952,237.300 164.498 C 238.153 165.150,238.782 166.113,239.131 167.300 C 239.423 168.295,240.195 169.621,240.848 170.246 C 241.509 170.879,242.224 172.134,242.461 173.078 C 242.709 174.063,243.177 174.866,243.576 174.992 C 244.353 175.239,246.000 178.280,246.000 179.469 C 246.000 179.898,246.523 180.636,247.163 181.109 C 247.886 181.644,248.577 182.728,248.993 183.979 C 249.419 185.262,250.084 186.290,250.832 186.822 C 251.613 187.379,252.149 188.237,252.442 189.401 C 252.684 190.361,253.140 191.245,253.456 191.366 C 254.104 191.615,255.990 195.427,255.996 196.500 C 255.998 196.885,256.242 197.200,256.538 197.200 C 257.337 197.200,258.202 198.363,259.007 200.520 C 259.401 201.575,260.152 202.776,260.675 203.188 C 261.199 203.599,261.912 204.775,262.262 205.799 C 262.611 206.824,263.152 207.760,263.465 207.880 C 264.112 208.128,265.349 210.430,265.766 212.160 C 265.920 212.799,266.486 213.667,267.025 214.091 C 267.564 214.515,268.434 215.793,268.958 216.931 C 269.482 218.069,270.379 219.434,270.950 219.964 C 271.521 220.494,272.099 221.523,272.236 222.250 C 272.372 222.977,272.759 223.800,273.096 224.080 C 274.071 224.888,275.472 227.306,275.780 228.711 C 275.936 229.420,276.222 230.000,276.416 230.000 C 277.139 230.000,278.328 231.714,278.817 233.461 C 279.135 234.595,279.743 235.577,280.452 236.102 C 281.108 236.587,281.836 237.705,282.191 238.772 C 282.526 239.782,283.149 240.825,283.574 241.091 C 283.999 241.357,284.735 242.638,285.210 243.938 C 285.738 245.388,286.498 246.618,287.175 247.118 C 287.856 247.622,288.470 248.621,288.781 249.732 C 289.058 250.722,289.809 252.033,290.449 252.647 C 291.089 253.260,291.802 254.463,292.032 255.320 C 292.263 256.177,293.040 257.467,293.759 258.186 C 294.481 258.908,295.288 260.285,295.562 261.264 C 295.879 262.397,296.372 263.173,296.929 263.418 C 297.499 263.668,298.037 264.540,298.487 265.944 C 298.870 267.140,299.701 268.593,300.367 269.229 C 301.024 269.856,301.747 271.062,301.975 271.908 C 302.203 272.754,302.842 273.840,303.395 274.321 C 304.613 275.380,304.663 276.137,303.584 277.216 C 302.106 278.694,300.997 278.800,287.274 278.777 C 271.446 278.751,271.367 278.737,270.286 275.800 C 269.881 274.700,269.139 273.440,268.638 273.000 C 267.516 272.016,266.800 270.712,266.800 269.654 C 266.800 269.214,266.280 268.485,265.645 268.032 C 264.499 267.216,263.200 264.668,263.200 263.235 C 263.200 262.775,262.823 262.392,262.221 262.241 C 261.467 262.052,261.042 261.448,260.374 259.618 C 259.898 258.310,258.998 256.670,258.375 255.972 C 257.752 255.274,257.129 254.188,256.991 253.557 C 256.852 252.927,256.235 252.052,255.619 251.614 C 254.853 251.068,254.262 250.062,253.750 248.429 C 253.249 246.836,252.714 245.911,252.140 245.648 C 251.667 245.431,251.054 244.566,250.777 243.727 C 250.206 241.991,248.465 239.200,247.953 239.200 C 247.765 239.200,247.404 238.376,247.150 237.369 C 246.895 236.356,246.341 235.328,245.911 235.069 C 244.990 234.515,243.200 231.176,243.200 230.013 C 243.200 229.566,242.958 229.200,242.662 229.200 C 241.876 229.200,240.971 228.018,240.402 226.248 C 240.128 225.394,239.318 224.044,238.602 223.248 C 237.886 222.451,237.182 221.254,237.037 220.587 C 236.893 219.919,236.241 218.870,235.589 218.254 C 234.877 217.582,234.154 216.278,233.779 214.988 C 233.380 213.613,232.889 212.755,232.416 212.605 C 231.710 212.381,230.808 210.857,230.211 208.880 C 230.058 208.373,229.423 207.438,228.800 206.800 C 227.691 205.665,227.521 205.311,227.036 203.127 C 226.905 202.536,226.436 201.938,225.992 201.798 C 225.109 201.517,223.600 198.896,223.600 197.643 C 223.600 197.209,223.059 196.470,222.399 195.999 C 221.595 195.427,221.055 194.578,220.767 193.437 C 220.508 192.407,219.715 191.069,218.769 190.064 C 217.788 189.022,217.200 188.016,217.200 187.377 C 217.200 186.775,216.734 185.912,216.067 185.277 C 214.896 184.164,213.600 181.741,213.600 180.667 C 213.600 180.330,213.252 179.943,212.827 179.808 C 212.128 179.587,210.400 176.707,210.400 175.763 C 210.400 175.551,209.866 174.793,209.213 174.079 C 208.560 173.364,207.808 172.053,207.543 171.167 C 207.269 170.252,206.590 169.220,205.974 168.782 C 205.234 168.254,204.664 167.257,204.179 165.639 C 203.686 163.993,203.196 163.144,202.576 162.862 C 202.006 162.602,201.440 161.725,201.013 160.439 C 200.645 159.331,199.740 157.820,199.003 157.083 C 198.200 156.280,197.552 155.150,197.385 154.261 C 197.230 153.433,196.775 152.601,196.355 152.376 C 195.399 151.865,194.000 149.149,194.000 147.806 C 194.000 147.105,193.710 146.670,193.084 146.432 C 191.904 145.983,191.417 145.351,190.816 143.485 C 190.548 142.652,189.829 141.424,189.218 140.756 C 188.608 140.087,187.875 138.834,187.590 137.970 C 187.007 136.205,187.124 136.259,185.117 136.816 C 183.734 137.201,183.587 137.393,182.948 139.672 C 182.426 141.532,181.997 142.268,181.155 142.752 C 180.389 143.191,179.916 143.910,179.621 145.083 C 179.386 146.016,178.642 147.407,177.969 148.174 C 177.295 148.942,176.566 150.214,176.348 151.003 C 176.130 151.791,175.443 152.890,174.820 153.445 C 174.198 154.000,173.377 155.297,172.997 156.327 C 172.617 157.357,171.810 158.683,171.202 159.274 C 170.595 159.865,169.983 160.966,169.841 161.721 C 169.698 162.486,168.979 163.716,168.221 164.498 C 167.471 165.270,166.667 166.607,166.435 167.470 C 166.203 168.332,165.489 169.540,164.849 170.153 C 164.209 170.767,163.459 172.074,163.184 173.059 C 162.856 174.228,162.248 175.181,161.429 175.805 C 160.585 176.449,160.016 177.361,159.684 178.603 C 159.413 179.616,158.746 180.891,158.201 181.435 C 157.657 181.979,156.831 183.311,156.365 184.393 C 155.899 185.476,155.114 186.627,154.619 186.950 C 154.109 187.285,153.503 188.317,153.216 189.342 C 152.746 191.023,151.544 192.800,150.878 192.800 C 150.719 192.800,150.267 193.704,149.875 194.808 C 149.482 195.913,148.642 197.407,148.008 198.130 C 147.374 198.852,146.729 199.974,146.576 200.622 C 146.424 201.270,145.791 202.340,145.170 203.000 C 144.549 203.660,143.576 205.253,143.008 206.541 C 142.429 207.851,141.661 208.964,141.263 209.068 C 140.820 209.184,140.369 209.937,140.067 211.067 C 139.792 212.092,139.034 213.427,138.322 214.140 C 137.629 214.833,136.826 216.182,136.538 217.139 C 136.250 218.095,135.480 219.487,134.826 220.232 C 134.171 220.977,133.411 222.340,133.135 223.260 C 132.810 224.343,132.248 225.154,131.541 225.560 C 130.797 225.987,130.314 226.717,130.031 227.844 C 129.801 228.755,129.073 230.080,128.412 230.787 C 127.752 231.494,127.024 232.767,126.796 233.616 C 126.549 234.530,125.925 235.484,125.263 235.955 C 124.543 236.468,123.874 237.554,123.376 239.017 C 122.883 240.468,122.209 241.566,121.503 242.069 C 120.896 242.501,120.400 243.196,120.400 243.614 C 120.400 244.854,119.155 247.089,118.171 247.616 C 117.549 247.948,117.104 248.733,116.787 250.054 C 116.469 251.380,115.975 252.248,115.243 252.769 C 114.556 253.259,113.922 254.310,113.491 255.677 C 112.997 257.246,112.494 258.008,111.608 258.531 C 110.910 258.944,110.400 259.580,110.400 260.039 C 110.400 261.098,108.858 264.078,107.995 264.686 C 107.616 264.953,107.188 265.758,107.045 266.475 C 106.902 267.192,106.211 268.370,105.510 269.093 C 104.810 269.816,103.860 271.351,103.400 272.504 C 102.921 273.705,102.202 274.762,101.716 274.980 C 101.249 275.189,100.769 275.857,100.647 276.463 C 100.201 278.693,99.447 278.800,84.194 278.800 C 70.483 278.800,69.137 278.685,68.306 277.440 C 67.400 276.084,68.836 271.719,70.559 270.590 C 71.162 270.195,71.589 269.429,71.743 268.468 C 71.879 267.613,72.559 266.281,73.316 265.382 C 74.049 264.512,74.892 263.170,75.190 262.400 C 75.849 260.698,76.739 259.600,77.462 259.600 C 77.758 259.600,78.000 259.255,78.000 258.833 C 78.000 257.483,79.517 254.473,80.534 253.807 C 81.121 253.422,81.621 252.613,81.773 251.802 C 81.914 251.054,82.649 249.699,83.407 248.792 C 84.164 247.885,84.979 246.421,85.216 245.539 C 85.503 244.474,86.022 243.720,86.760 243.297 C 87.524 242.859,88.016 242.119,88.333 240.934 C 88.587 239.985,89.426 238.509,90.197 237.656 C 90.969 236.802,91.600 235.786,91.600 235.399 C 91.600 234.500,93.045 232.145,93.766 231.868 C 94.069 231.752,94.622 230.737,94.996 229.613 C 95.383 228.446,96.075 227.307,96.609 226.958 C 97.177 226.585,97.814 225.483,98.235 224.145 C 98.725 222.588,99.318 221.645,100.264 220.924 C 100.999 220.364,101.600 219.557,101.600 219.133 C 101.600 218.105,102.517 216.380,103.572 215.426 C 104.041 215.001,104.627 213.852,104.874 212.873 C 105.186 211.632,105.650 210.905,106.403 210.472 C 107.139 210.050,107.718 209.164,108.216 207.702 C 108.617 206.519,109.429 205.068,110.019 204.476 C 110.609 203.884,111.218 202.860,111.373 202.200 C 111.528 201.540,112.251 200.370,112.980 199.600 C 113.710 198.830,114.530 197.480,114.804 196.600 C 115.365 194.794,116.264 193.600,117.062 193.600 C 117.358 193.600,117.600 193.207,117.600 192.726 C 117.600 191.416,119.113 188.549,120.171 187.856 C 120.717 187.498,121.211 186.666,121.365 185.844 C 121.510 185.073,122.253 183.694,123.017 182.780 C 123.781 181.866,124.523 180.641,124.666 180.059 C 125.021 178.617,125.933 177.276,126.736 177.016 C 127.124 176.890,127.711 175.802,128.150 174.392 C 128.666 172.734,129.248 171.735,130.019 171.186 C 130.635 170.748,131.258 169.845,131.405 169.179 C 131.551 168.514,132.261 167.196,132.983 166.250 C 133.704 165.305,134.514 163.865,134.783 163.051 C 135.052 162.238,135.660 161.317,136.136 161.005 C 136.611 160.693,137.436 159.340,137.969 157.997 C 138.563 156.500,139.375 155.245,140.069 154.751 C 140.691 154.308,141.200 153.586,141.200 153.146 C 141.200 152.080,141.858 150.855,143.214 149.400 C 143.829 148.740,144.537 147.427,144.786 146.482 C 145.097 145.305,145.549 144.624,146.220 144.318 C 146.759 144.072,147.200 143.727,147.200 143.551 C 147.200 142.278,149.008 138.688,149.841 138.309 C 150.439 138.036,150.953 137.326,151.197 136.435 C 151.658 134.753,153.030 132.400,153.551 132.400 C 153.750 132.400,154.037 131.905,154.187 131.300 C 154.660 129.404,155.668 127.600,156.254 127.600 C 156.564 127.600,156.974 127.195,157.165 126.700 C 158.420 123.450,159.018 122.349,159.808 121.832 C 160.338 121.484,160.817 120.637,160.983 119.751 C 161.154 118.840,161.798 117.722,162.635 116.885 C 163.389 116.131,164.120 115.038,164.259 114.457 C 164.671 112.737,165.542 111.272,166.296 111.032 C 166.736 110.892,167.254 109.943,167.676 108.504 C 168.190 106.753,168.637 106.031,169.541 105.498 C 170.421 104.978,170.799 104.391,170.994 103.236 C 171.146 102.333,171.817 101.023,172.587 100.123 C 173.319 99.269,174.143 97.814,174.420 96.891 C 174.781 95.686,175.244 95.071,176.061 94.709 C 176.762 94.399,177.203 93.896,177.207 93.402 C 177.217 92.171,178.899 89.475,180.008 88.913 C 181.237 88.292,190.112 88.218,191.238 88.820 " stroke="none" fill="#fbfbfb" fill-rule="evenodd"></path><path id="path2" d="M180.116 90.016 C 179.630 90.207,178.789 91.237,178.248 92.306 C 177.706 93.375,176.991 94.475,176.660 94.750 C 176.329 95.025,175.575 96.184,174.986 97.325 C 174.396 98.466,173.590 99.760,173.195 100.200 C 172.800 100.640,172.194 101.686,171.848 102.525 C 171.503 103.363,170.631 104.740,169.910 105.586 C 169.190 106.431,168.278 108.039,167.884 109.161 C 167.490 110.282,166.991 111.200,166.775 111.200 C 166.560 111.200,165.802 112.334,165.092 113.719 C 163.611 116.606,161.947 119.317,160.153 121.767 C 159.467 122.703,158.683 124.144,158.410 124.969 C 158.138 125.794,157.415 127.038,156.804 127.734 C 156.194 128.430,155.394 129.718,155.028 130.595 C 154.661 131.472,154.019 132.554,153.600 133.000 C 153.181 133.446,152.544 134.528,152.183 135.405 C 151.823 136.282,150.936 137.630,150.212 138.400 C 149.488 139.170,148.595 140.729,148.227 141.865 C 147.860 143.001,147.317 144.023,147.022 144.136 C 146.727 144.249,145.937 145.502,145.268 146.919 C 144.598 148.336,143.789 149.595,143.470 149.718 C 143.150 149.841,142.570 150.809,142.179 151.870 C 141.789 152.932,140.967 154.341,140.352 155.001 C 139.737 155.662,138.950 157.007,138.603 157.990 C 138.257 158.973,137.579 160.197,137.097 160.710 C 136.274 161.585,135.144 163.459,132.579 168.200 C 131.983 169.300,130.890 170.876,130.148 171.701 C 129.407 172.527,128.800 173.466,128.800 173.788 C 128.800 174.623,127.519 177.200,127.103 177.200 C 126.912 177.200,126.400 178.002,125.967 178.982 C 125.533 179.962,124.730 181.298,124.181 181.949 C 123.633 182.601,122.807 184.004,122.346 185.067 C 121.885 186.130,121.015 187.540,120.413 188.200 C 119.811 188.860,119.008 190.210,118.628 191.200 C 118.249 192.190,117.519 193.450,117.006 194.000 C 116.494 194.550,115.779 195.718,115.418 196.595 C 115.057 197.472,114.424 198.552,114.011 198.995 C 113.598 199.438,112.805 200.710,112.248 201.821 C 111.692 202.933,110.872 204.172,110.427 204.576 C 109.981 204.979,109.252 206.284,108.806 207.476 C 108.360 208.667,107.580 210.038,107.073 210.521 C 106.566 211.005,105.913 211.991,105.622 212.713 C 105.331 213.435,104.576 214.675,103.946 215.469 C 103.315 216.262,102.592 217.602,102.339 218.447 C 102.086 219.291,101.284 220.523,100.556 221.185 C 99.803 221.870,99.050 223.072,98.806 223.976 C 98.571 224.849,97.930 226.097,97.381 226.749 C 96.833 227.401,96.034 228.725,95.607 229.692 C 95.179 230.659,94.487 231.759,94.070 232.137 C 93.652 232.515,92.979 233.583,92.574 234.512 C 92.169 235.440,91.244 236.876,90.519 237.701 C 89.793 238.527,89.200 239.481,89.200 239.821 C 89.200 240.671,88.127 242.673,87.144 243.656 C 86.696 244.104,86.055 245.128,85.719 245.932 C 85.383 246.736,84.697 247.883,84.193 248.481 C 83.690 249.079,82.975 250.364,82.603 251.335 C 82.232 252.307,81.406 253.489,80.768 253.961 C 79.994 254.533,79.454 255.425,79.149 256.637 C 78.897 257.636,78.086 259.179,77.346 260.065 C 76.606 260.951,76.000 261.915,76.000 262.207 C 76.000 262.500,75.348 263.593,74.552 264.636 C 73.755 265.680,72.834 267.178,72.505 267.967 C 72.176 268.755,71.387 269.991,70.753 270.714 C 70.119 271.437,69.600 272.219,69.600 272.453 C 69.600 272.688,69.299 273.513,68.932 274.287 C 67.462 277.384,68.124 277.533,83.000 277.466 L 95.000 277.413 83.225 277.300 C 70.022 277.174,69.433 277.057,70.600 274.800 C 70.914 274.193,71.433 273.596,71.755 273.473 C 72.076 273.349,72.743 272.142,73.236 270.790 C 73.741 269.404,74.523 268.076,75.028 267.745 C 75.521 267.422,76.335 266.132,76.836 264.879 C 77.338 263.625,77.993 262.451,78.293 262.270 C 78.592 262.088,79.262 260.978,79.781 259.804 C 80.301 258.629,81.094 257.471,81.543 257.231 C 82.008 256.982,82.739 255.753,83.241 254.377 C 83.725 253.048,84.456 251.726,84.864 251.440 C 85.272 251.154,86.022 249.898,86.531 248.649 C 87.039 247.399,87.842 246.106,88.316 245.774 C 88.789 245.442,89.384 244.478,89.638 243.630 C 89.892 242.783,90.705 241.410,91.444 240.579 C 92.184 239.748,92.898 238.487,93.031 237.777 C 93.164 237.067,93.873 235.905,94.606 235.194 C 95.342 234.481,96.333 232.849,96.818 231.551 C 97.302 230.258,97.866 229.200,98.071 229.200 C 98.277 229.200,98.790 228.435,99.212 227.500 C 99.634 226.565,100.614 225.010,101.389 224.044 C 102.165 223.079,102.985 221.600,103.211 220.759 C 103.438 219.918,103.960 218.993,104.372 218.705 C 104.784 218.416,105.711 217.015,106.432 215.590 C 107.153 214.166,107.973 212.820,108.253 212.600 C 108.534 212.380,109.131 211.332,109.580 210.271 C 110.029 209.210,110.933 207.806,111.588 207.150 C 112.244 206.494,112.974 205.238,113.211 204.358 C 113.448 203.478,114.081 202.376,114.618 201.909 C 115.155 201.442,115.967 200.066,116.421 198.851 C 116.876 197.636,117.613 196.386,118.058 196.074 C 118.504 195.762,119.225 194.673,119.660 193.653 C 120.095 192.634,120.883 191.347,121.410 190.794 C 121.937 190.241,122.654 188.982,123.001 187.996 C 123.349 187.010,124.143 185.662,124.765 185.001 C 125.388 184.341,126.214 182.945,126.603 181.900 C 126.991 180.855,127.466 180.000,127.657 180.000 C 127.849 180.000,128.535 178.909,129.181 177.575 C 129.827 176.241,130.783 174.814,131.306 174.402 C 131.829 173.991,132.485 172.877,132.765 171.927 C 133.044 170.977,133.784 169.660,134.409 169.000 C 135.035 168.340,135.925 166.782,136.388 165.537 C 136.851 164.292,137.502 163.170,137.835 163.042 C 138.168 162.914,138.817 161.952,139.277 160.905 C 139.736 159.857,140.620 158.417,141.239 157.705 C 141.859 156.993,142.558 155.698,142.793 154.827 C 143.027 153.956,143.667 152.891,144.215 152.460 C 144.762 152.029,145.671 150.635,146.234 149.362 C 146.797 148.089,147.695 146.528,148.229 145.893 C 148.763 145.258,149.200 144.502,149.200 144.213 C 149.200 143.924,149.895 142.846,150.744 141.818 C 151.594 140.791,152.504 139.230,152.767 138.351 C 153.031 137.472,153.608 136.448,154.051 136.076 C 154.494 135.704,155.322 134.410,155.892 133.200 C 156.462 131.990,157.439 130.409,158.064 129.686 C 158.689 128.963,159.200 128.029,159.200 127.610 C 159.200 127.191,159.914 126.023,160.787 125.015 C 161.660 124.006,162.556 122.510,162.779 121.691 C 163.002 120.871,163.693 119.722,164.315 119.139 C 164.937 118.555,165.696 117.320,166.002 116.395 C 166.307 115.470,167.078 114.057,167.715 113.256 C 168.351 112.455,169.102 111.260,169.383 110.600 C 169.664 109.940,170.351 108.914,170.909 108.320 C 171.468 107.726,172.147 106.556,172.420 105.720 C 172.692 104.884,173.439 103.597,174.080 102.860 C 174.721 102.124,175.665 100.572,176.178 99.412 C 176.691 98.252,177.310 97.179,177.555 97.028 C 177.799 96.877,178.442 95.819,178.985 94.677 C 179.759 93.045,180.363 92.393,181.801 91.636 C 182.808 91.106,183.490 90.544,183.316 90.388 C 182.737 89.866,181.011 89.666,180.116 90.016 M184.800 90.400 C 184.800 90.620,185.565 90.797,186.500 90.794 C 187.745 90.789,188.039 90.684,187.600 90.400 C 186.810 89.890,184.800 89.890,184.800 90.400 M185.501 132.675 C 184.630 132.903,185.076 133.885,187.058 136.101 C 187.796 136.927,188.400 137.837,188.400 138.123 C 188.400 138.410,188.870 139.265,189.445 140.022 C 190.019 140.780,190.913 142.337,191.432 143.482 C 191.950 144.628,192.797 145.842,193.313 146.180 C 193.879 146.551,194.521 147.646,194.927 148.937 C 195.299 150.115,195.983 151.421,196.448 151.839 C 196.913 152.258,197.697 153.500,198.191 154.600 C 198.685 155.700,199.572 157.113,200.163 157.740 C 200.753 158.367,201.343 159.413,201.473 160.064 C 201.603 160.715,202.220 161.759,202.844 162.383 C 203.469 163.007,204.355 164.481,204.814 165.659 C 205.273 166.836,205.993 168.070,206.414 168.400 C 206.835 168.730,207.741 170.080,208.427 171.400 C 211.189 176.713,212.064 178.239,212.897 179.198 C 213.377 179.749,214.184 181.061,214.692 182.114 C 215.200 183.167,216.152 184.769,216.808 185.674 C 217.464 186.579,218.000 187.535,218.000 187.798 C 218.000 188.061,218.467 188.799,219.039 189.438 C 219.610 190.077,220.523 191.579,221.067 192.776 C 221.612 193.973,222.479 195.454,222.994 196.066 C 223.510 196.679,224.152 197.859,224.421 198.690 C 224.691 199.520,225.606 200.961,226.455 201.891 C 227.305 202.821,228.000 203.836,228.000 204.146 C 228.000 204.456,228.597 205.585,229.326 206.655 C 230.055 207.725,231.068 209.470,231.577 210.532 C 232.086 211.595,232.743 212.557,233.036 212.669 C 233.330 212.782,233.947 213.882,234.408 215.114 C 234.869 216.347,235.848 218.020,236.582 218.833 C 237.317 219.646,238.051 220.736,238.214 221.256 C 238.376 221.775,239.000 222.920,239.600 223.800 C 240.200 224.680,240.824 225.825,240.986 226.344 C 241.149 226.864,241.873 227.944,242.596 228.744 C 243.318 229.545,244.144 230.982,244.429 231.938 C 244.717 232.900,245.541 234.234,246.275 234.926 C 247.004 235.614,247.600 236.483,247.600 236.857 C 247.600 237.232,248.246 238.385,249.035 239.419 C 249.825 240.453,250.724 242.017,251.033 242.895 C 251.343 243.772,252.127 245.095,252.776 245.834 C 253.425 246.573,254.140 247.843,254.364 248.656 C 254.589 249.468,255.309 250.688,255.964 251.367 C 257.191 252.636,258.683 255.130,260.830 259.500 C 261.505 260.875,262.236 262.000,262.454 262.000 C 262.672 262.000,263.360 263.125,263.984 264.501 C 264.608 265.877,265.508 267.355,265.985 267.786 C 266.461 268.217,267.222 269.432,267.675 270.485 C 268.128 271.538,268.643 272.400,268.820 272.400 C 268.997 272.400,269.622 273.382,270.209 274.583 C 270.797 275.784,271.525 276.972,271.828 277.223 C 272.440 277.732,298.772 277.787,299.279 277.281 C 299.434 277.127,294.575 277.057,288.481 277.127 C 281.145 277.210,276.681 277.097,275.274 276.792 L 273.148 276.331 271.797 273.366 C 271.054 271.734,270.245 270.400,270.001 270.400 C 269.756 270.400,269.102 269.365,268.547 268.100 C 267.992 266.835,267.036 265.260,266.422 264.600 C 265.809 263.940,265.113 262.817,264.876 262.104 C 264.639 261.392,263.917 260.132,263.272 259.304 C 262.627 258.477,261.891 257.173,261.638 256.407 C 261.384 255.641,260.673 254.471,260.057 253.807 C 259.441 253.143,258.690 251.814,258.389 250.853 C 258.078 249.862,257.372 248.759,256.756 248.304 C 256.160 247.863,255.366 246.704,254.994 245.728 C 254.621 244.751,253.989 243.648,253.590 243.276 C 253.190 242.904,252.482 241.581,252.016 240.336 C 251.540 239.062,250.755 237.801,250.222 237.451 C 249.684 237.099,248.992 235.979,248.621 234.862 C 248.261 233.780,247.588 232.558,247.126 232.147 C 246.663 231.736,245.867 230.465,245.357 229.322 C 244.847 228.179,244.090 227.062,243.675 226.840 C 243.260 226.618,242.525 225.353,242.042 224.028 C 241.560 222.704,240.823 221.382,240.406 221.089 C 239.989 220.797,239.262 219.527,238.790 218.266 C 238.306 216.972,237.522 215.705,236.987 215.355 C 236.467 215.014,235.727 213.895,235.344 212.868 C 234.960 211.840,234.251 210.460,233.769 209.800 C 233.286 209.140,232.511 207.842,232.046 206.916 C 231.581 205.990,230.771 204.820,230.247 204.316 C 229.722 203.812,229.065 202.680,228.786 201.800 C 228.507 200.920,227.677 199.493,226.940 198.628 C 226.203 197.763,225.600 196.839,225.600 196.573 C 225.600 196.307,224.958 195.156,224.173 194.016 C 223.389 192.875,222.420 191.190,222.021 190.271 C 221.623 189.352,220.825 188.164,220.248 187.630 C 219.672 187.097,219.200 186.415,219.200 186.114 C 219.200 185.254,217.731 182.687,216.690 181.727 C 216.169 181.246,215.535 180.160,215.281 179.312 C 215.027 178.465,214.443 177.368,213.984 176.875 C 213.524 176.382,212.626 174.924,211.987 173.637 C 211.348 172.349,210.580 171.201,210.280 171.086 C 209.980 170.971,209.334 169.777,208.844 168.432 C 208.313 166.975,207.566 165.734,206.996 165.361 C 206.471 165.016,205.829 164.074,205.571 163.267 C 205.312 162.460,204.690 161.249,204.188 160.576 C 203.686 159.903,202.812 158.393,202.247 157.220 C 201.681 156.047,200.869 154.843,200.441 154.544 C 200.014 154.244,199.373 153.124,199.018 152.053 C 198.662 150.982,197.846 149.639,197.205 149.067 C 196.563 148.496,195.854 147.347,195.628 146.514 C 195.402 145.681,194.766 144.515,194.214 143.923 C 193.662 143.331,192.767 141.843,192.225 140.618 C 191.683 139.393,190.978 138.290,190.658 138.167 C 190.338 138.044,189.675 136.870,189.184 135.557 C 188.693 134.244,187.968 132.997,187.572 132.785 C 186.822 132.384,186.652 132.375,185.501 132.675 " stroke="none" fill="#b06c18" fill-rule="evenodd"></path><path id="path3" d="M181.830 89.551 C 181.521 90.051,183.549 90.383,185.416 90.139 C 187.481 89.868,190.392 92.022,191.850 94.899 C 192.390 95.965,193.075 96.931,193.372 97.045 C 193.668 97.158,194.225 98.095,194.609 99.126 C 194.993 100.157,195.777 101.630,196.353 102.400 C 196.928 103.170,197.797 104.658,198.284 105.707 C 198.771 106.755,199.430 107.713,199.748 107.835 C 200.066 107.957,200.721 108.989,201.205 110.129 C 201.688 111.268,202.485 112.650,202.976 113.200 C 203.467 113.750,204.171 115.024,204.541 116.032 C 204.911 117.040,205.747 118.374,206.398 118.998 C 207.049 119.622,207.794 120.777,208.054 121.566 C 208.314 122.355,209.030 123.630,209.645 124.400 C 210.260 125.170,211.051 126.492,211.403 127.337 C 211.754 128.183,212.458 129.263,212.967 129.737 C 213.475 130.212,214.211 131.500,214.601 132.600 C 214.991 133.700,215.807 135.098,216.413 135.707 C 217.020 136.315,217.637 137.293,217.784 137.880 C 217.932 138.466,218.500 139.479,219.048 140.130 C 219.596 140.781,220.504 142.233,221.066 143.357 C 221.628 144.481,222.414 145.760,222.812 146.200 C 223.210 146.640,223.857 147.810,224.249 148.800 C 224.642 149.790,225.535 151.191,226.234 151.912 C 226.933 152.634,227.607 153.734,227.731 154.357 C 227.856 154.979,228.393 156.008,228.926 156.644 C 229.458 157.280,230.376 158.724,230.965 159.854 C 231.554 160.984,232.371 162.211,232.779 162.581 C 233.188 162.951,233.925 164.329,234.416 165.643 C 234.907 166.956,235.620 168.249,235.999 168.516 C 236.379 168.782,237.250 170.112,237.936 171.471 C 238.621 172.830,239.386 174.068,239.636 174.222 C 239.885 174.376,240.500 175.432,241.002 176.567 C 241.505 177.703,242.232 178.895,242.619 179.216 C 243.006 179.537,243.820 180.907,244.427 182.261 C 245.035 183.614,245.821 184.884,246.174 185.082 C 246.528 185.279,247.134 186.277,247.522 187.297 C 247.909 188.318,248.675 189.659,249.223 190.277 C 249.771 190.894,250.552 192.120,250.958 193.000 C 251.365 193.880,252.096 195.050,252.583 195.600 C 253.070 196.150,253.797 197.491,254.198 198.581 C 254.600 199.671,255.434 201.024,256.053 201.589 C 256.672 202.155,257.392 203.243,257.653 204.008 C 257.914 204.774,258.567 205.930,259.103 206.577 C 259.640 207.225,260.502 208.712,261.019 209.882 C 261.537 211.052,262.233 212.114,262.565 212.242 C 262.898 212.370,263.549 213.492,264.013 214.737 C 264.476 215.982,265.276 217.450,265.790 218.000 C 266.303 218.550,267.121 219.855,267.606 220.900 C 268.091 221.945,268.656 222.800,268.861 222.800 C 269.066 222.800,269.755 223.901,270.391 225.247 C 271.027 226.592,271.905 228.077,272.342 228.547 C 272.779 229.016,273.447 230.210,273.827 231.200 C 274.207 232.190,275.020 233.540,275.634 234.200 C 276.248 234.860,277.107 236.235,277.542 237.256 C 277.978 238.277,278.533 239.235,278.777 239.386 C 279.021 239.536,279.836 240.883,280.589 242.379 C 281.343 243.875,282.206 245.194,282.509 245.310 C 282.811 245.426,283.454 246.554,283.937 247.816 C 284.420 249.079,285.352 250.723,286.008 251.470 C 286.664 252.217,287.200 253.000,287.200 253.210 C 287.200 253.420,288.010 254.775,289.000 256.221 C 289.990 257.667,290.800 259.103,290.800 259.411 C 290.800 259.720,291.307 260.563,291.926 261.286 C 292.545 262.009,293.367 263.282,293.753 264.116 C 294.138 264.950,294.970 266.222,295.603 266.942 C 296.235 267.663,297.003 268.978,297.309 269.865 C 297.614 270.752,298.411 272.181,299.079 273.039 C 302.467 277.394,301.931 277.589,286.425 277.647 C 279.481 277.673,274.340 277.832,275.000 278.000 C 277.264 278.576,298.686 278.458,300.113 277.862 C 302.788 276.744,302.600 273.740,299.660 270.632 C 299.019 269.954,298.284 268.737,298.025 267.927 C 297.767 267.117,297.010 265.767,296.342 264.927 C 295.674 264.087,294.870 262.784,294.556 262.032 C 294.241 261.280,293.640 260.423,293.219 260.129 C 292.799 259.834,292.071 258.560,291.603 257.297 C 291.134 256.033,290.328 254.604,289.813 254.119 C 289.298 253.635,288.409 252.250,287.837 251.042 C 287.266 249.834,286.615 248.733,286.390 248.594 C 286.166 248.455,285.450 247.288,284.800 246.000 C 284.150 244.712,283.430 243.542,283.200 243.400 C 282.970 243.258,282.266 242.005,281.636 240.616 C 281.007 239.227,280.214 237.935,279.874 237.745 C 279.535 237.555,278.872 236.500,278.402 235.400 C 277.931 234.300,277.215 233.040,276.810 232.600 C 276.405 232.160,275.669 230.990,275.173 230.000 C 274.677 229.010,273.863 227.750,273.364 227.200 C 272.864 226.650,272.082 225.196,271.625 223.970 C 271.168 222.743,270.332 221.338,269.767 220.846 C 269.202 220.355,268.466 219.288,268.131 218.476 C 267.797 217.664,267.189 216.638,266.781 216.195 C 266.373 215.752,265.645 214.492,265.163 213.395 C 264.680 212.298,263.844 210.870,263.304 210.223 C 262.764 209.575,261.918 208.135,261.425 207.023 C 260.933 205.910,260.228 204.751,259.860 204.447 C 259.492 204.143,258.851 203.126,258.436 202.187 C 258.020 201.249,257.298 200.098,256.831 199.631 C 256.364 199.164,255.556 197.819,255.036 196.642 C 254.515 195.465,253.885 194.376,253.635 194.222 C 253.386 194.068,252.643 192.755,251.986 191.305 C 251.329 189.855,250.417 188.407,249.961 188.088 C 249.505 187.768,248.801 186.736,248.397 185.793 C 247.993 184.850,247.120 183.331,246.458 182.416 C 245.795 181.502,245.136 180.218,244.992 179.563 C 244.848 178.909,244.313 178.099,243.803 177.765 C 243.293 177.431,242.471 176.132,241.977 174.879 C 241.482 173.625,240.565 172.051,239.939 171.381 C 239.312 170.710,238.800 169.966,238.800 169.726 C 238.800 169.486,238.147 168.341,237.349 167.180 C 236.551 166.020,235.567 164.324,235.163 163.411 C 234.760 162.497,234.084 161.438,233.661 161.056 C 233.239 160.673,232.580 159.515,232.196 158.480 C 231.812 157.446,230.913 155.970,230.199 155.200 C 229.485 154.430,228.788 153.319,228.650 152.731 C 228.513 152.143,227.972 151.153,227.449 150.531 C 226.926 149.909,226.100 148.554,225.614 147.520 C 225.128 146.486,224.308 145.217,223.791 144.700 C 223.274 144.184,222.470 142.793,222.004 141.610 C 221.538 140.428,220.700 138.906,220.142 138.230 C 218.837 136.646,216.661 133.097,215.587 130.800 C 215.125 129.810,214.411 128.640,214.000 128.200 C 213.590 127.760,212.703 126.286,212.028 124.924 C 211.354 123.562,210.617 122.334,210.392 122.195 C 210.167 122.056,209.462 120.920,208.827 119.671 C 208.192 118.422,207.319 117.028,206.888 116.573 C 206.457 116.118,205.865 115.084,205.573 114.275 C 205.280 113.466,204.553 112.270,203.958 111.618 C 203.362 110.966,202.575 109.528,202.207 108.422 C 201.834 107.297,201.053 106.011,200.436 105.505 C 199.829 105.007,199.094 103.970,198.802 103.200 C 198.511 102.430,197.876 101.260,197.393 100.600 C 196.909 99.940,196.052 98.489,195.488 97.375 C 194.924 96.261,194.177 95.113,193.828 94.823 C 193.479 94.534,192.709 93.406,192.116 92.317 C 191.524 91.228,190.544 90.081,189.939 89.769 C 188.716 89.136,182.195 88.961,181.830 89.551 M183.108 133.500 C 182.769 133.885,182.040 135.100,181.489 136.200 C 180.938 137.300,180.114 138.536,179.660 138.947 C 179.205 139.358,178.547 140.556,178.197 141.610 C 177.847 142.664,177.095 144.028,176.527 144.641 C 175.959 145.254,175.227 146.395,174.900 147.178 C 174.574 147.960,173.806 149.170,173.196 149.866 C 172.585 150.562,171.865 151.822,171.596 152.666 C 171.327 153.510,170.519 154.830,169.800 155.600 C 169.081 156.370,168.267 157.720,167.990 158.600 C 167.712 159.480,166.971 160.791,166.343 161.514 C 165.714 162.237,165.199 163.047,165.197 163.314 C 165.196 163.581,164.296 165.119,163.197 166.731 C 162.099 168.343,161.200 169.887,161.200 170.161 C 161.200 170.436,160.766 171.069,160.235 171.567 C 159.704 172.066,158.870 173.544,158.381 174.852 C 157.891 176.160,157.163 177.406,156.762 177.620 C 156.361 177.835,155.677 178.814,155.243 179.795 C 154.809 180.777,153.921 182.259,153.271 183.090 C 152.620 183.920,151.888 185.230,151.645 186.000 C 151.402 186.770,150.708 187.868,150.102 188.440 C 149.496 189.012,148.671 190.397,148.268 191.518 C 147.865 192.638,147.265 193.780,146.935 194.054 C 146.605 194.328,145.804 195.603,145.156 196.888 C 144.507 198.172,143.606 199.594,143.153 200.047 C 142.700 200.500,142.058 201.529,141.727 202.335 C 141.395 203.141,140.790 204.162,140.382 204.604 C 139.974 205.046,139.201 206.403,138.663 207.620 C 138.125 208.837,137.366 210.095,136.978 210.416 C 136.589 210.737,135.867 211.910,135.375 213.023 C 134.882 214.135,134.037 215.575,133.497 216.223 C 132.957 216.870,132.306 218.045,132.049 218.834 C 131.792 219.623,131.049 220.778,130.398 221.402 C 129.747 222.026,128.911 223.360,128.541 224.368 C 128.171 225.376,127.477 226.650,126.998 227.200 C 126.520 227.750,125.723 229.010,125.227 230.000 C 124.731 230.990,123.998 232.160,123.596 232.600 C 123.195 233.040,122.431 234.390,121.898 235.600 C 121.365 236.810,120.621 238.054,120.245 238.365 C 119.868 238.676,119.190 239.756,118.736 240.765 C 118.283 241.774,117.508 243.140,117.014 243.800 C 116.520 244.460,115.714 245.787,115.224 246.750 C 114.734 247.712,113.808 249.224,113.167 250.110 C 112.525 250.995,112.000 251.963,112.000 252.259 C 112.000 252.555,111.395 253.473,110.656 254.299 C 109.917 255.124,109.088 256.490,108.814 257.334 C 108.540 258.178,107.815 259.438,107.204 260.134 C 106.594 260.830,105.813 262.073,105.469 262.896 C 105.125 263.719,104.314 265.069,103.666 265.896 C 103.018 266.723,102.282 268.050,102.031 268.845 C 101.779 269.641,101.066 270.744,100.444 271.297 C 99.823 271.851,98.981 273.231,98.574 274.365 C 97.998 275.966,97.605 276.475,96.816 276.645 C 96.257 276.764,95.433 277.038,94.985 277.253 C 94.491 277.490,89.339 277.596,81.905 277.522 C 71.412 277.418,69.789 277.478,70.673 277.940 C 71.495 278.371,74.336 278.452,84.621 278.340 L 97.536 278.200 98.568 277.230 C 99.136 276.697,99.600 276.063,99.600 275.821 C 99.600 275.580,100.146 274.720,100.814 273.910 C 101.481 273.100,102.463 271.452,102.995 270.249 C 103.528 269.045,104.217 267.912,104.527 267.730 C 105.167 267.355,107.200 263.674,107.200 262.891 C 107.200 262.607,107.462 262.274,107.782 262.152 C 108.102 262.029,108.759 261.090,109.243 260.064 C 109.727 259.039,110.720 257.352,111.450 256.316 C 112.179 255.279,113.043 253.792,113.370 253.010 C 113.697 252.228,114.227 251.488,114.547 251.365 C 114.868 251.242,115.534 250.119,116.027 248.870 C 116.520 247.622,117.415 246.060,118.017 245.400 C 118.619 244.740,119.232 243.800,119.379 243.311 C 119.527 242.821,120.256 241.536,121.000 240.455 C 121.744 239.374,122.642 237.794,122.995 236.944 C 123.349 236.095,124.069 235.028,124.596 234.573 C 125.123 234.119,125.934 232.769,126.399 231.573 C 126.863 230.378,127.509 229.196,127.833 228.948 C 128.157 228.699,128.948 227.410,129.591 226.084 C 130.233 224.758,130.951 223.554,131.187 223.408 C 131.422 223.263,132.083 222.211,132.656 221.072 C 133.228 219.932,134.024 218.688,134.424 218.307 C 134.825 217.925,135.550 216.522,136.036 215.189 C 136.523 213.855,137.270 212.576,137.698 212.348 C 138.125 212.119,138.820 211.153,139.240 210.202 C 139.661 209.251,140.634 207.538,141.403 206.396 C 142.171 205.254,142.800 204.069,142.800 203.763 C 142.800 203.457,143.337 202.727,143.994 202.142 C 144.651 201.557,145.560 200.084,146.015 198.868 C 146.470 197.652,147.373 196.054,148.021 195.315 C 148.669 194.576,149.200 193.722,149.200 193.417 C 149.200 193.111,149.846 192.015,150.636 190.980 C 151.425 189.946,152.401 188.332,152.803 187.394 C 153.205 186.456,153.733 185.565,153.977 185.414 C 154.221 185.264,155.041 183.907,155.800 182.400 C 156.559 180.893,157.368 179.543,157.598 179.401 C 157.827 179.260,158.482 178.211,159.053 177.072 C 159.624 175.932,160.321 174.730,160.601 174.400 C 160.881 174.070,161.594 172.866,162.184 171.725 C 162.775 170.584,163.542 169.414,163.890 169.125 C 164.238 168.836,165.035 167.460,165.660 166.067 C 166.285 164.674,167.337 162.878,167.998 162.076 C 168.659 161.274,169.200 160.415,169.200 160.168 C 169.200 159.921,170.010 158.485,171.000 156.978 C 171.990 155.471,172.800 154.078,172.800 153.882 C 172.800 153.687,173.414 152.810,174.165 151.932 C 174.916 151.055,175.770 149.524,176.064 148.530 C 176.357 147.536,176.915 146.553,177.302 146.345 C 177.689 146.138,178.514 144.850,179.134 143.482 C 179.754 142.115,180.544 140.713,180.891 140.366 C 181.238 140.020,181.944 138.857,182.461 137.782 C 183.208 136.227,183.667 135.761,184.707 135.501 C 185.904 135.201,185.975 135.099,185.547 134.287 C 184.710 132.698,184.012 132.473,183.108 133.500 " stroke="none" fill="#4c94cc" fill-rule="evenodd"></path><path id="path4" d="M180.008 88.913 C 178.894 89.477,177.212 92.180,177.216 93.400 C 177.218 93.916,177.605 93.502,178.309 92.229 C 180.760 87.801,189.689 87.858,192.116 92.317 C 192.709 93.406,193.479 94.534,193.828 94.823 C 194.177 95.113,194.924 96.261,195.488 97.375 C 196.052 98.489,196.909 99.940,197.393 100.600 C 197.876 101.260,198.511 102.430,198.802 103.200 C 199.094 103.970,199.829 105.007,200.436 105.505 C 201.053 106.011,201.834 107.297,202.207 108.422 C 202.575 109.528,203.362 110.966,203.958 111.618 C 204.553 112.270,205.280 113.466,205.573 114.275 C 205.865 115.084,206.457 116.118,206.888 116.573 C 207.319 117.028,208.192 118.422,208.827 119.671 C 209.462 120.920,210.167 122.056,210.392 122.195 C 210.617 122.334,211.354 123.562,212.028 124.924 C 212.703 126.286,213.590 127.760,214.000 128.200 C 214.411 128.640,215.125 129.810,215.587 130.800 C 216.661 133.097,218.837 136.646,220.142 138.230 C 220.700 138.906,221.538 140.428,222.004 141.610 C 222.470 142.793,223.274 144.184,223.791 144.700 C 224.308 145.217,225.128 146.486,225.614 147.520 C 226.100 148.554,226.926 149.909,227.449 150.531 C 227.972 151.153,228.513 152.143,228.650 152.731 C 228.788 153.319,229.485 154.430,230.199 155.200 C 230.913 155.970,231.812 157.446,232.196 158.480 C 232.580 159.515,233.239 160.673,233.661 161.056 C 234.084 161.438,234.760 162.497,235.163 163.411 C 235.567 164.324,236.551 166.020,237.349 167.180 C 238.147 168.341,238.800 169.486,238.800 169.726 C 238.800 169.966,239.312 170.710,239.939 171.381 C 240.565 172.051,241.482 173.625,241.977 174.879 C 242.471 176.132,243.293 177.431,243.803 177.765 C 244.313 178.099,244.848 178.909,244.992 179.563 C 245.136 180.218,245.795 181.502,246.458 182.416 C 247.120 183.331,247.993 184.850,248.397 185.793 C 248.801 186.736,249.505 187.768,249.961 188.088 C 250.417 188.407,251.329 189.855,251.986 191.305 C 252.643 192.755,253.386 194.068,253.635 194.222 C 253.885 194.376,254.515 195.465,255.036 196.642 C 255.556 197.819,256.364 199.164,256.831 199.631 C 257.298 200.098,258.020 201.249,258.436 202.187 C 258.851 203.126,259.492 204.143,259.860 204.447 C 260.228 204.751,260.933 205.910,261.425 207.023 C 261.918 208.135,262.764 209.575,263.304 210.223 C 263.844 210.870,264.680 212.298,265.163 213.395 C 265.645 214.492,266.373 215.752,266.781 216.195 C 267.189 216.638,267.797 217.664,268.131 218.476 C 268.466 219.288,269.202 220.355,269.767 220.846 C 270.332 221.338,271.168 222.743,271.625 223.970 C 272.082 225.196,272.864 226.650,273.364 227.200 C 273.863 227.750,274.677 229.010,275.173 230.000 C 275.669 230.990,276.405 232.160,276.810 232.600 C 277.215 233.040,277.931 234.300,278.402 235.400 C 278.872 236.500,279.535 237.555,279.874 237.745 C 280.214 237.935,281.007 239.227,281.636 240.616 C 282.266 242.005,282.970 243.258,283.200 243.400 C 283.430 243.542,284.150 244.712,284.800 246.000 C 285.450 247.288,286.166 248.455,286.390 248.594 C 286.615 248.733,287.266 249.834,287.837 251.042 C 288.409 252.250,289.298 253.635,289.813 254.119 C 290.328 254.604,291.134 256.033,291.603 257.297 C 292.071 258.560,292.799 259.834,293.219 260.129 C 293.640 260.423,294.241 261.280,294.556 262.032 C 294.870 262.784,295.674 264.087,296.342 264.927 C 297.010 265.767,297.767 267.117,298.025 267.927 C 298.284 268.737,299.019 269.954,299.660 270.632 C 301.512 272.590,302.622 275.892,301.752 276.853 C 300.427 278.317,298.625 278.484,285.762 278.339 C 271.553 278.180,272.024 278.292,270.233 274.632 C 269.633 273.404,268.997 272.400,268.820 272.400 C 268.643 272.400,268.131 271.545,267.681 270.499 C 267.231 269.454,266.419 268.181,265.875 267.670 C 265.331 267.160,264.578 265.934,264.201 264.947 C 263.824 263.959,263.418 263.248,263.300 263.367 C 262.828 263.838,264.532 267.239,265.631 268.022 C 266.274 268.480,266.800 269.214,266.800 269.654 C 266.800 270.712,267.516 272.016,268.638 273.000 C 269.139 273.440,269.881 274.700,270.286 275.800 C 271.367 278.737,271.446 278.751,287.274 278.777 C 300.997 278.800,302.106 278.694,303.584 277.216 C 304.663 276.137,304.613 275.380,303.395 274.321 C 302.842 273.840,302.203 272.754,301.975 271.908 C 301.747 271.062,301.024 269.856,300.367 269.229 C 299.701 268.593,298.870 267.140,298.487 265.944 C 298.037 264.540,297.499 263.668,296.929 263.418 C 296.372 263.173,295.879 262.397,295.562 261.264 C 295.288 260.285,294.481 258.908,293.759 258.186 C 293.040 257.467,292.263 256.177,292.032 255.320 C 291.802 254.463,291.089 253.260,290.449 252.647 C 289.809 252.033,289.058 250.722,288.781 249.732 C 288.470 248.621,287.856 247.622,287.175 247.118 C 286.498 246.618,285.738 245.388,285.210 243.938 C 284.735 242.638,283.999 241.357,283.574 241.091 C 283.149 240.825,282.526 239.782,282.191 238.772 C 281.836 237.705,281.108 236.587,280.452 236.102 C 279.743 235.577,279.135 234.595,278.817 233.461 C 278.328 231.714,277.139 230.000,276.416 230.000 C 276.222 230.000,275.936 229.420,275.780 228.711 C 275.472 227.306,274.071 224.888,273.096 224.080 C 272.759 223.800,272.372 222.977,272.236 222.250 C 272.099 221.523,271.521 220.494,270.950 219.964 C 270.379 219.434,269.482 218.069,268.958 216.931 C 268.434 215.793,267.564 214.515,267.025 214.091 C 266.486 213.667,265.920 212.799,265.766 212.160 C 265.349 210.430,264.112 208.128,263.465 207.880 C 263.152 207.760,262.611 206.824,262.262 205.799 C 261.912 204.775,261.199 203.599,260.675 203.188 C 260.152 202.776,259.401 201.575,259.007 200.520 C 258.202 198.363,257.337 197.200,256.538 197.200 C 256.242 197.200,255.998 196.885,255.996 196.500 C 255.990 195.427,254.104 191.615,253.456 191.366 C 253.140 191.245,252.684 190.361,252.442 189.401 C 252.149 188.237,251.613 187.379,250.832 186.822 C 250.084 186.290,249.419 185.262,248.993 183.979 C 248.577 182.728,247.886 181.644,247.163 181.109 C 246.523 180.636,246.000 179.898,246.000 179.469 C 246.000 178.280,244.353 175.239,243.576 174.992 C 243.177 174.866,242.709 174.063,242.461 173.078 C 242.224 172.134,241.509 170.879,240.848 170.246 C 240.195 169.621,239.423 168.295,239.131 167.300 C 238.782 166.113,238.153 165.150,237.300 164.498 C 236.585 163.952,236.000 163.247,236.000 162.931 C 236.000 161.969,234.398 158.774,233.802 158.545 C 233.493 158.427,232.958 157.477,232.611 156.433 C 232.238 155.310,231.521 154.196,230.852 153.702 C 230.135 153.171,229.534 152.194,229.206 151.023 C 228.917 149.990,228.226 148.787,227.637 148.289 C 227.057 147.800,226.361 146.657,226.090 145.749 C 225.819 144.840,224.976 143.420,224.218 142.591 C 223.459 141.763,222.717 140.526,222.569 139.843 C 222.421 139.159,221.697 137.930,220.960 137.110 C 220.223 136.291,219.499 135.121,219.352 134.510 C 219.008 133.090,217.693 131.200,217.048 131.200 C 216.775 131.200,216.320 130.296,216.037 129.192 C 215.728 127.989,215.043 126.705,214.328 125.990 C 213.672 125.333,212.959 124.162,212.745 123.387 C 212.531 122.612,211.831 121.380,211.190 120.650 C 210.548 119.919,209.668 118.491,209.233 117.476 C 208.798 116.461,207.980 115.229,207.416 114.739 C 206.851 114.248,206.208 113.171,205.985 112.344 C 205.763 111.518,205.059 110.321,204.423 109.684 C 203.786 109.047,203.074 107.817,202.840 106.949 C 202.607 106.082,201.801 104.776,201.049 104.047 C 200.251 103.274,199.476 101.985,199.186 100.949 C 198.868 99.815,198.276 98.882,197.545 98.361 C 196.915 97.912,196.400 97.191,196.400 96.757 C 196.400 95.523,194.817 92.730,193.996 92.515 C 193.589 92.408,192.978 91.628,192.639 90.781 C 192.300 89.933,191.669 89.051,191.238 88.820 C 190.112 88.218,181.237 88.292,180.008 88.913 M175.563 94.913 C 175.213 95.181,174.691 96.120,174.403 97.000 C 174.115 97.880,173.297 99.283,172.586 100.118 C 171.875 100.952,171.181 102.196,171.044 102.882 C 170.673 104.735,171.010 104.660,171.782 102.717 C 172.157 101.772,172.783 100.640,173.174 100.200 C 173.564 99.760,174.309 98.590,174.829 97.600 C 175.349 96.610,176.033 95.485,176.349 95.100 C 177.005 94.301,176.515 94.185,175.563 94.913 M169.093 105.762 C 168.364 106.315,166.950 109.883,167.315 110.248 C 167.428 110.361,167.743 109.767,168.016 108.927 C 168.288 108.087,168.858 106.905,169.283 106.300 C 170.146 105.070,170.116 104.985,169.093 105.762 M165.621 111.579 C 165.193 112.007,164.637 113.118,164.387 114.048 C 164.136 114.982,163.478 116.096,162.917 116.536 C 162.360 116.975,161.655 117.928,161.352 118.654 C 160.399 120.934,160.758 121.087,161.995 118.929 C 162.649 117.790,163.360 116.749,163.575 116.615 C 163.791 116.482,164.452 115.293,165.045 113.972 C 165.637 112.652,166.410 111.403,166.761 111.198 C 167.153 110.968,167.207 110.820,166.900 110.812 C 166.625 110.805,166.049 111.151,165.621 111.579 M159.569 121.993 C 159.014 122.318,158.374 123.570,157.165 126.700 C 156.974 127.195,156.564 127.600,156.254 127.600 C 155.671 127.600,154.661 129.402,154.195 131.271 C 154.048 131.860,153.683 132.436,153.385 132.550 C 152.780 132.782,151.672 134.755,151.178 136.477 C 150.678 138.220,151.142 137.803,152.041 135.700 C 152.488 134.655,153.193 133.438,153.608 132.995 C 154.023 132.552,154.661 131.472,155.028 130.595 C 155.394 129.718,156.194 128.430,156.804 127.734 C 157.415 127.038,158.137 125.778,158.407 124.934 C 158.677 124.090,159.268 122.995,159.719 122.500 C 160.601 121.533,160.565 121.411,159.569 121.993 M184.400 135.548 C 183.717 135.731,183.102 136.437,182.461 137.776 C 181.944 138.854,181.238 140.020,180.891 140.366 C 180.544 140.713,179.754 142.115,179.134 143.482 C 178.514 144.850,177.689 146.138,177.302 146.345 C 176.915 146.553,176.357 147.536,176.064 148.530 C 175.770 149.524,174.916 151.055,174.165 151.932 C 173.414 152.810,172.800 153.687,172.800 153.882 C 172.800 154.078,171.990 155.471,171.000 156.978 C 170.010 158.485,169.200 159.921,169.200 160.168 C 169.200 160.415,168.659 161.274,167.998 162.076 C 167.337 162.878,166.285 164.674,165.660 166.067 C 165.035 167.460,164.238 168.836,163.890 169.125 C 163.542 169.414,162.775 170.584,162.184 171.725 C 161.594 172.866,160.881 174.070,160.601 174.400 C 160.321 174.730,159.624 175.932,159.053 177.072 C 158.482 178.211,157.827 179.260,157.598 179.401 C 157.368 179.543,156.559 180.893,155.800 182.400 C 155.041 183.907,154.221 185.264,153.977 185.414 C 153.733 185.565,153.205 186.456,152.803 187.394 C 152.401 188.332,151.425 189.946,150.636 190.980 C 149.846 192.015,149.200 193.111,149.200 193.417 C 149.200 193.722,148.669 194.576,148.021 195.315 C 147.373 196.054,146.470 197.652,146.015 198.868 C 145.560 200.084,144.651 201.557,143.994 202.142 C 143.337 202.727,142.800 203.457,142.800 203.763 C 142.800 204.069,142.171 205.254,141.403 206.396 C 140.634 207.538,139.661 209.251,139.240 210.202 C 138.820 211.153,138.125 212.119,137.698 212.348 C 137.270 212.576,136.523 213.855,136.036 215.189 C 135.550 216.522,134.825 217.925,134.424 218.307 C 134.024 218.688,133.228 219.932,132.656 221.072 C 132.083 222.211,131.422 223.263,131.187 223.408 C 130.951 223.554,130.233 224.758,129.591 226.084 C 128.948 227.410,128.157 228.699,127.833 228.948 C 127.509 229.196,126.863 230.378,126.399 231.573 C 125.934 232.769,125.123 234.119,124.596 234.573 C 124.069 235.028,123.349 236.095,122.995 236.944 C 122.642 237.794,121.744 239.374,121.000 240.455 C 120.256 241.536,119.527 242.821,119.379 243.311 C 119.232 243.800,118.619 244.740,118.017 245.400 C 117.415 246.060,116.520 247.622,116.027 248.870 C 115.534 250.119,114.868 251.242,114.547 251.365 C 114.227 251.488,113.697 252.228,113.370 253.010 C 113.043 253.792,112.179 255.279,111.450 256.316 C 110.720 257.352,109.727 259.039,109.243 260.064 C 108.759 261.090,108.102 262.029,107.782 262.152 C 107.462 262.274,107.200 262.607,107.200 262.891 C 107.200 263.674,105.167 267.355,104.527 267.730 C 104.217 267.912,103.528 269.045,102.995 270.249 C 102.463 271.452,101.481 273.100,100.814 273.910 C 100.146 274.720,99.600 275.580,99.600 275.821 C 99.600 276.063,99.136 276.697,98.568 277.230 L 97.536 278.200 84.468 278.321 C 67.120 278.482,66.665 278.263,70.229 271.436 C 70.783 270.374,70.780 270.318,70.198 270.801 C 69.293 271.552,67.999 274.550,68.006 275.878 C 68.022 278.731,68.404 278.800,84.194 278.800 C 99.447 278.800,100.201 278.693,100.647 276.463 C 100.769 275.857,101.249 275.189,101.716 274.980 C 102.202 274.762,102.921 273.705,103.400 272.504 C 103.860 271.351,104.810 269.816,105.510 269.093 C 106.211 268.370,106.902 267.192,107.045 266.475 C 107.188 265.758,107.616 264.953,107.995 264.686 C 108.858 264.078,110.400 261.098,110.400 260.039 C 110.400 259.580,110.910 258.944,111.608 258.531 C 112.494 258.008,112.997 257.246,113.491 255.677 C 113.922 254.310,114.556 253.259,115.243 252.769 C 115.975 252.248,116.469 251.380,116.787 250.054 C 117.104 248.733,117.549 247.948,118.171 247.616 C 119.155 247.089,120.400 244.854,120.400 243.614 C 120.400 243.196,120.896 242.501,121.503 242.069 C 122.209 241.566,122.883 240.468,123.376 239.017 C 123.874 237.554,124.543 236.468,125.263 235.955 C 125.925 235.484,126.549 234.530,126.796 233.616 C 127.024 232.767,127.752 231.494,128.412 230.787 C 129.073 230.080,129.801 228.755,130.031 227.844 C 130.314 226.717,130.797 225.987,131.541 225.560 C 132.248 225.154,132.810 224.343,133.135 223.260 C 133.411 222.340,134.171 220.977,134.826 220.232 C 135.480 219.487,136.250 218.095,136.538 217.139 C 136.826 216.182,137.629 214.833,138.322 214.140 C 139.034 213.427,139.792 212.092,140.067 211.067 C 140.369 209.937,140.820 209.184,141.263 209.068 C 141.661 208.964,142.429 207.851,143.008 206.541 C 143.576 205.253,144.549 203.660,145.170 203.000 C 145.791 202.340,146.424 201.270,146.576 200.622 C 146.729 199.974,147.374 198.852,148.008 198.130 C 148.642 197.407,149.482 195.913,149.875 194.808 C 150.267 193.704,150.719 192.800,150.878 192.800 C 151.544 192.800,152.746 191.023,153.216 189.342 C 153.503 188.317,154.109 187.285,154.619 186.950 C 155.114 186.627,155.899 185.476,156.365 184.393 C 156.831 183.311,157.657 181.979,158.201 181.435 C 158.746 180.891,159.413 179.616,159.684 178.603 C 160.016 177.361,160.585 176.449,161.429 175.805 C 162.248 175.181,162.856 174.228,163.184 173.059 C 163.459 172.074,164.209 170.767,164.849 170.153 C 165.489 169.540,166.203 168.332,166.435 167.470 C 166.667 166.607,167.471 165.270,168.221 164.498 C 168.979 163.716,169.698 162.486,169.841 161.721 C 169.983 160.966,170.595 159.865,171.202 159.274 C 171.810 158.683,172.625 157.336,173.015 156.280 C 173.405 155.225,174.166 154.013,174.706 153.588 C 175.246 153.163,175.949 152.059,176.268 151.134 C 176.586 150.209,177.375 148.851,178.020 148.116 C 178.666 147.381,179.386 146.016,179.621 145.083 C 179.916 143.910,180.389 143.191,181.155 142.752 C 181.997 142.268,182.426 141.532,182.948 139.672 C 183.587 137.393,183.734 137.201,185.117 136.816 C 187.124 136.259,187.007 136.205,187.590 137.970 C 187.875 138.834,188.608 140.087,189.218 140.756 C 189.829 141.424,190.547 142.652,190.815 143.485 C 191.325 145.074,192.269 146.400,192.891 146.400 C 193.093 146.400,192.885 145.926,192.429 145.346 C 191.973 144.766,191.600 144.067,191.600 143.792 C 191.600 143.516,190.880 142.213,190.000 140.895 C 189.120 139.577,188.400 138.311,188.400 138.080 C 188.400 137.443,186.393 135.195,185.864 135.240 C 185.609 135.262,184.950 135.400,184.400 135.548 M149.248 138.752 C 148.468 139.532,146.967 143.500,147.318 143.852 C 147.428 143.962,147.829 143.095,148.209 141.926 C 148.589 140.757,149.269 139.395,149.720 138.900 C 150.709 137.814,150.311 137.689,149.248 138.752 M145.912 144.425 C 145.533 144.646,145.023 145.586,144.778 146.513 C 144.533 147.441,143.829 148.740,143.214 149.400 C 141.858 150.855,141.200 152.080,141.200 153.146 C 141.200 153.586,140.691 154.308,140.069 154.751 C 139.375 155.245,138.563 156.500,137.969 157.997 C 137.436 159.340,136.611 160.693,136.136 161.005 C 135.660 161.317,135.052 162.238,134.783 163.051 C 134.514 163.865,133.704 165.305,132.983 166.250 C 132.261 167.196,131.549 168.522,131.400 169.198 C 131.252 169.874,130.688 170.717,130.146 171.072 C 129.172 171.711,128.174 173.599,127.766 175.577 L 127.554 176.600 128.163 175.600 C 128.498 175.050,128.778 174.286,128.786 173.901 C 128.794 173.517,129.407 172.527,130.148 171.701 C 130.890 170.876,131.983 169.300,132.579 168.200 C 135.144 163.459,136.274 161.585,137.097 160.710 C 137.579 160.197,138.257 158.973,138.603 157.990 C 138.950 157.007,139.737 155.662,140.352 155.001 C 140.967 154.341,141.789 152.932,142.179 151.870 C 142.570 150.809,143.141 149.844,143.450 149.726 C 143.864 149.567,147.027 143.941,146.663 144.012 C 146.628 144.019,146.290 144.205,145.912 144.425 M193.980 147.868 C 194.350 149.856,195.412 151.871,196.358 152.377 C 196.775 152.600,197.230 153.436,197.385 154.261 C 197.552 155.150,198.200 156.280,199.003 157.083 C 199.740 157.820,200.645 159.331,201.013 160.439 C 201.440 161.725,202.006 162.602,202.576 162.862 C 203.196 163.144,203.686 163.993,204.179 165.639 C 204.664 167.257,205.234 168.254,205.974 168.782 C 206.590 169.220,207.269 170.252,207.543 171.167 C 207.808 172.053,208.535 173.337,209.158 174.019 C 209.781 174.701,210.491 175.927,210.736 176.744 C 211.188 178.251,212.518 180.000,213.213 180.000 C 213.423 180.000,213.242 179.594,212.810 179.098 C 212.058 178.233,211.149 176.636,208.427 171.400 C 207.741 170.080,206.835 168.730,206.414 168.400 C 205.993 168.070,205.273 166.836,204.814 165.659 C 204.355 164.481,203.469 163.007,202.844 162.383 C 202.220 161.759,201.603 160.715,201.473 160.064 C 201.343 159.413,200.753 158.367,200.163 157.740 C 199.572 157.113,198.685 155.700,198.191 154.600 C 197.697 153.500,196.920 152.264,196.463 151.853 C 196.007 151.442,195.333 150.182,194.967 149.053 C 194.133 146.480,193.605 145.845,193.980 147.868 M125.830 177.806 C 125.317 178.359,124.796 179.319,124.672 179.940 C 124.548 180.561,123.812 181.828,123.037 182.755 C 122.262 183.683,121.510 185.073,121.365 185.844 C 121.211 186.666,120.717 187.498,120.171 187.856 C 119.076 188.573,117.477 191.670,117.675 192.691 C 117.760 193.125,118.102 192.625,118.558 191.400 C 118.968 190.300,119.799 188.860,120.406 188.200 C 121.012 187.540,121.885 186.130,122.346 185.067 C 122.807 184.004,123.644 182.588,124.207 181.919 C 124.769 181.250,125.499 180.050,125.828 179.252 C 126.157 178.453,126.725 177.575,127.089 177.300 C 127.497 176.993,127.562 176.800,127.257 176.800 C 126.985 176.800,126.342 177.253,125.830 177.806 M213.600 180.822 C 213.600 181.836,215.288 184.818,216.105 185.247 C 216.967 185.699,216.975 185.688,216.315 184.944 C 215.939 184.519,215.255 183.322,214.797 182.285 C 213.981 180.441,213.600 179.975,213.600 180.822 M217.190 187.332 C 217.389 188.228,218.108 189.442,218.924 190.257 C 219.767 191.101,220.492 192.341,220.758 193.397 C 221.070 194.637,221.575 195.404,222.499 196.043 L 223.800 196.942 222.933 195.971 C 222.457 195.437,221.619 194.010,221.072 192.800 C 220.525 191.590,219.610 190.077,219.039 189.438 C 218.467 188.799,218.000 188.068,218.000 187.814 C 218.000 187.561,217.741 187.004,217.425 186.576 C 216.904 185.874,216.882 185.945,217.190 187.332 M115.913 194.300 C 115.576 194.685,115.077 195.720,114.804 196.600 C 114.530 197.480,113.710 198.830,112.980 199.600 C 112.251 200.370,111.528 201.540,111.373 202.200 C 111.218 202.860,110.619 203.874,110.041 204.454 C 109.012 205.487,107.305 209.438,107.712 209.845 C 107.826 209.959,108.227 209.124,108.604 207.989 C 108.980 206.855,109.776 205.358,110.371 204.663 C 110.966 203.969,111.863 202.590,112.364 201.600 C 112.864 200.610,113.609 199.438,114.018 198.995 C 114.427 198.552,115.058 197.472,115.421 196.595 C 115.783 195.718,116.360 194.685,116.702 194.300 C 117.044 193.915,117.144 193.600,116.924 193.600 C 116.704 193.600,116.249 193.915,115.913 194.300 M223.600 197.816 C 223.600 198.841,225.118 201.483,225.874 201.773 C 226.468 202.001,226.447 201.897,225.740 201.122 C 225.277 200.615,224.682 199.525,224.418 198.700 C 223.913 197.122,223.600 196.784,223.600 197.816 M227.189 203.753 C 227.357 204.497,227.642 205.344,227.822 205.635 C 228.451 206.653,229.381 207.600,229.751 207.600 C 229.956 207.600,229.839 207.285,229.491 206.900 C 229.142 206.515,228.491 205.345,228.043 204.300 C 227.086 202.068,226.763 201.860,227.189 203.753 M230.218 208.900 C 230.737 210.622,231.665 212.339,232.184 212.538 C 232.485 212.654,232.206 211.738,231.522 210.369 C 230.310 207.944,229.733 207.295,230.218 208.900 M106.140 210.587 C 105.679 210.910,105.104 211.957,104.863 212.914 C 104.623 213.870,104.041 215.001,103.572 215.426 C 102.517 216.380,101.600 218.105,101.600 219.133 C 101.600 219.557,100.999 220.364,100.264 220.924 C 99.318 221.645,98.725 222.588,98.235 224.145 C 97.814 225.483,97.177 226.585,96.609 226.958 C 96.075 227.307,95.383 228.446,94.996 229.613 C 94.622 230.737,94.069 231.752,93.766 231.868 C 93.016 232.156,91.600 234.515,91.600 235.477 C 91.600 235.908,91.126 236.697,90.547 237.230 C 89.453 238.238,88.014 240.958,88.023 242.000 C 88.030 242.833,89.168 240.779,89.186 239.901 C 89.194 239.517,89.793 238.527,90.519 237.701 C 91.244 236.876,92.169 235.440,92.574 234.512 C 92.979 233.583,93.652 232.515,94.070 232.137 C 94.487 231.759,95.179 230.659,95.607 229.692 C 96.034 228.725,96.833 227.401,97.381 226.749 C 97.930 226.097,98.571 224.849,98.806 223.976 C 99.050 223.072,99.803 221.870,100.556 221.185 C 101.284 220.523,102.086 219.291,102.339 218.447 C 102.592 217.602,103.334 216.238,103.988 215.415 C 104.643 214.591,105.399 213.306,105.669 212.559 C 105.940 211.811,106.285 211.200,106.438 211.200 C 106.590 211.200,106.818 210.930,106.945 210.600 C 107.229 209.859,107.181 209.858,106.140 210.587 M233.446 213.900 C 233.938 215.975,234.740 217.553,235.750 218.431 C 236.306 218.915,236.882 219.870,237.030 220.555 C 237.179 221.240,237.886 222.451,238.602 223.248 C 239.318 224.044,240.128 225.394,240.402 226.248 C 240.910 227.828,241.862 229.200,242.450 229.200 C 242.629 229.200,242.331 228.545,241.788 227.744 C 241.245 226.943,240.800 226.121,240.800 225.916 C 240.800 225.712,240.285 224.792,239.655 223.872 C 239.025 222.952,238.376 221.775,238.214 221.256 C 238.051 220.736,237.317 219.646,236.582 218.833 C 235.848 218.020,234.863 216.330,234.395 215.077 C 233.491 212.663,233.011 212.067,233.446 213.900 M243.200 230.133 C 243.200 231.031,245.182 234.951,245.484 234.649 C 245.610 234.523,245.532 234.190,245.309 233.910 C 245.086 233.629,244.679 232.680,244.404 231.800 C 243.829 229.962,243.200 229.091,243.200 230.133 M246.268 235.200 C 246.517 235.530,246.926 236.565,247.176 237.500 C 247.426 238.435,247.780 239.200,247.962 239.200 C 248.463 239.200,250.210 242.002,250.770 243.703 C 251.042 244.530,251.655 245.411,252.132 245.661 C 252.968 246.100,252.975 246.088,252.311 245.338 C 251.931 244.910,251.362 243.827,251.046 242.930 C 250.729 242.033,249.825 240.453,249.035 239.419 C 248.246 238.385,247.600 237.220,247.600 236.831 C 247.600 236.442,247.198 235.781,246.707 235.362 C 246.216 234.943,246.018 234.870,246.268 235.200 M86.500 243.415 C 86.018 243.753,85.430 244.745,85.195 245.620 C 84.959 246.495,84.217 247.836,83.545 248.601 C 82.496 249.796,80.882 253.600,81.424 253.600 C 81.526 253.600,82.067 252.567,82.625 251.304 C 83.184 250.041,83.974 248.646,84.382 248.204 C 84.790 247.762,85.395 246.741,85.727 245.935 C 86.058 245.129,86.706 244.094,87.165 243.635 C 88.142 242.658,87.761 242.531,86.500 243.415 M253.366 247.223 C 253.774 249.201,254.772 251.089,255.746 251.728 C 256.288 252.083,256.846 252.897,256.986 253.538 C 257.127 254.179,257.767 255.291,258.408 256.009 C 259.049 256.727,259.865 258.191,260.221 259.263 C 260.871 261.219,261.712 262.400,262.457 262.400 C 262.677 262.400,262.560 262.103,262.197 261.740 C 261.834 261.377,261.106 260.162,260.579 259.040 C 258.924 255.512,257.259 252.763,255.805 251.153 C 255.032 250.298,254.394 249.283,254.386 248.899 C 254.378 248.514,254.098 247.750,253.763 247.200 L 253.154 246.200 253.366 247.223 M79.896 254.300 C 79.052 255.240,77.879 258.246,78.106 258.886 C 78.206 259.169,78.583 258.425,78.942 257.233 C 79.302 256.042,79.895 254.737,80.260 254.333 C 80.625 253.930,80.834 253.600,80.724 253.600 C 80.614 253.600,80.241 253.915,79.896 254.300 M76.328 260.300 C 76.000 260.685,75.489 261.630,75.193 262.400 C 74.897 263.170,74.135 264.405,73.501 265.144 C 72.266 266.583,71.583 268.036,71.628 269.126 C 71.644 269.497,71.986 269.060,72.388 268.156 C 72.790 267.252,73.768 265.663,74.560 264.626 C 75.352 263.588,76.000 262.507,76.000 262.223 C 76.000 261.940,76.373 261.234,76.829 260.654 C 77.740 259.496,77.286 259.175,76.328 260.300 " stroke="none" fill="#9ed2f2" fill-rule="evenodd"></path></g></svg>