<svg id="svg" version="1.1" xmlns="http://www.w3.org/2000/svg" xmlns:xlink="http://www.w3.org/1999/xlink" width="400" height="225" viewBox="0, 0, 400,225"><g id="svgg"><path id="path0" d="M0.000 112.549 L 0.000 225.098 200.000 225.098 L 400.000 225.098 400.000 112.549 L 400.000 0.000 200.000 0.000 L 0.000 0.000 0.000 112.549 M200.956 56.583 C 201.347 56.785,202.276 57.092,203.021 57.266 C 203.766 57.440,204.646 57.794,204.976 58.054 C 205.306 58.313,205.807 58.526,206.091 58.526 C 206.374 58.526,206.892 58.763,207.242 59.052 C 207.592 59.342,208.207 59.691,208.609 59.828 C 209.011 59.965,209.679 60.336,210.094 60.652 C 210.508 60.968,210.952 61.227,211.080 61.227 C 211.208 61.227,211.443 61.385,211.603 61.577 C 211.763 61.770,212.215 62.062,212.607 62.226 C 212.998 62.389,213.584 62.789,213.909 63.113 C 214.233 63.437,214.648 63.703,214.830 63.703 C 215.013 63.703,215.300 63.841,215.468 64.009 C 215.636 64.177,216.251 64.526,216.835 64.784 C 217.418 65.042,217.895 65.356,217.895 65.482 C 217.895 65.608,218.326 65.823,218.852 65.959 C 219.378 66.095,220.113 66.426,220.484 66.694 C 221.045 67.099,221.546 67.196,223.447 67.268 L 225.734 67.354 227.217 65.886 C 228.033 65.078,228.700 64.288,228.700 64.131 C 228.700 63.973,228.891 63.635,229.124 63.380 C 229.371 63.109,229.658 62.258,229.812 61.339 C 230.116 59.525,230.873 57.242,231.361 56.669 C 231.755 56.206,233.259 56.130,233.592 56.556 C 234.389 57.576,234.309 63.449,233.472 65.342 C 233.235 65.878,232.972 66.777,232.887 67.341 C 232.803 67.906,232.490 68.698,232.192 69.102 C 231.894 69.506,231.584 70.134,231.504 70.499 C 231.424 70.863,231.213 71.218,231.034 71.286 C 230.855 71.355,230.561 71.698,230.379 72.050 C 230.197 72.401,229.796 72.941,229.487 73.250 C 229.178 73.559,228.925 73.918,228.925 74.047 C 228.925 74.177,228.785 74.282,228.613 74.282 C 228.442 74.282,228.136 74.536,227.933 74.845 C 227.730 75.155,227.426 75.408,227.258 75.408 C 227.089 75.408,226.785 75.661,226.582 75.971 C 226.380 76.280,226.088 76.533,225.933 76.533 C 225.779 76.533,225.300 76.773,224.869 77.065 C 224.162 77.546,223.163 77.857,219.865 78.625 C 219.060 78.812,218.504 78.805,217.614 78.597 C 216.964 78.445,215.575 78.169,214.528 77.983 C 213.481 77.796,212.453 77.489,212.244 77.300 C 212.034 77.110,211.334 76.815,210.687 76.645 C 210.040 76.474,209.295 76.133,209.032 75.888 C 208.769 75.642,208.250 75.368,207.878 75.278 C 207.507 75.188,206.917 74.877,206.567 74.586 C 206.217 74.295,205.804 74.057,205.649 74.057 C 205.495 74.057,205.130 73.804,204.840 73.495 C 204.549 73.185,204.125 72.932,203.898 72.932 C 203.671 72.932,203.167 72.628,202.778 72.257 C 202.390 71.885,201.935 71.581,201.767 71.581 C 201.600 71.581,201.282 71.400,201.060 71.178 C 200.838 70.956,200.334 70.641,199.940 70.478 C 199.547 70.315,198.963 69.939,198.644 69.643 C 198.325 69.347,197.880 69.105,197.656 69.105 C 197.432 69.105,196.876 68.810,196.422 68.448 C 194.964 67.290,190.011 67.253,189.087 68.393 C 188.899 68.625,188.571 68.876,188.358 68.950 C 188.146 69.025,187.821 69.445,187.638 69.883 C 187.455 70.322,187.203 70.681,187.079 70.681 C 186.954 70.681,186.792 71.061,186.718 71.525 C 186.644 71.989,186.339 73.180,186.041 74.170 C 185.742 75.160,185.439 76.349,185.367 76.812 C 185.216 77.790,184.758 78.109,183.509 78.109 C 182.355 78.109,181.547 77.318,181.747 76.383 C 181.822 76.032,182.025 74.249,182.197 72.420 C 182.404 70.221,182.631 68.910,182.866 68.551 C 183.062 68.253,183.331 67.521,183.464 66.925 C 183.597 66.329,183.875 65.588,184.082 65.279 C 184.290 64.969,184.573 64.395,184.712 64.004 C 185.487 61.818,189.796 57.922,192.234 57.202 C 192.791 57.038,193.356 56.815,193.490 56.706 C 194.374 55.987,199.636 55.900,200.956 56.583 M198.781 95.231 C 199.575 96.105,200.317 97.017,200.428 97.257 C 200.540 97.497,200.723 97.693,200.835 97.693 C 200.947 97.693,201.235 98.138,201.476 98.682 C 201.716 99.225,202.055 99.725,202.228 99.791 C 202.402 99.858,202.667 100.299,202.819 100.772 C 202.970 101.245,203.279 101.836,203.505 102.085 C 203.732 102.334,203.989 102.992,204.077 103.548 C 204.165 104.104,204.426 104.814,204.655 105.126 C 204.885 105.438,205.176 106.333,205.302 107.115 C 205.428 107.898,205.723 108.807,205.958 109.137 C 206.193 109.466,206.493 110.469,206.627 111.365 C 206.760 112.261,207.070 113.324,207.316 113.728 C 207.563 114.132,207.766 114.716,207.769 115.025 C 207.777 116.107,208.115 116.247,208.626 115.380 C 208.888 114.937,209.195 114.575,209.310 114.575 C 209.424 114.575,209.577 114.339,209.650 114.050 C 209.722 113.761,210.088 113.139,210.462 112.668 C 210.836 112.197,211.142 111.678,211.142 111.513 C 211.142 111.349,211.337 111.110,211.575 110.983 C 211.812 110.856,212.119 110.413,212.256 109.998 C 212.392 109.583,212.755 109.026,213.061 108.760 C 213.368 108.493,213.618 108.124,213.618 107.938 C 213.618 107.753,213.821 107.474,214.069 107.320 C 214.316 107.165,214.519 106.921,214.519 106.776 C 214.519 106.387,217.523 102.794,218.973 101.450 C 219.132 101.303,219.855 100.625,220.579 99.944 C 222.208 98.411,223.653 97.243,223.919 97.243 C 224.029 97.243,224.358 96.989,224.648 96.680 C 224.939 96.370,225.296 96.117,225.440 96.117 C 225.585 96.117,225.884 95.918,226.104 95.675 C 226.324 95.432,226.973 95.060,227.546 94.849 C 228.119 94.638,228.775 94.305,229.004 94.109 C 229.885 93.357,237.254 93.545,237.254 94.319 C 237.254 94.415,237.499 94.554,237.798 94.629 C 239.605 95.083,241.652 98.643,241.481 101.034 C 241.376 102.499,240.244 105.121,239.716 105.121 C 239.609 105.121,239.172 105.427,238.745 105.802 C 237.194 107.163,231.719 107.266,229.640 105.973 C 228.284 105.130,223.835 105.199,222.956 106.078 C 222.615 106.418,222.233 106.697,222.108 106.697 C 221.881 106.697,218.245 110.357,217.266 111.571 C 216.207 112.885,215.419 113.966,215.419 114.106 C 215.419 114.185,215.115 114.582,214.744 114.989 C 214.373 115.396,214.069 115.868,214.069 116.039 C 214.069 116.210,213.874 116.487,213.635 116.654 C 213.397 116.821,213.032 117.384,212.823 117.905 C 212.615 118.426,212.352 118.852,212.239 118.852 C 212.126 118.852,211.915 119.131,211.770 119.471 C 211.625 119.811,211.320 120.302,211.093 120.562 C 210.447 121.298,209.848 123.151,210.032 123.840 C 210.120 124.170,210.266 125.170,210.355 126.064 C 210.445 126.958,210.749 128.208,211.031 128.842 C 211.313 129.476,211.610 130.691,211.690 131.543 C 211.770 132.395,211.996 133.400,212.191 133.778 C 212.387 134.156,212.639 135.210,212.752 136.120 C 212.865 137.029,213.152 138.151,213.390 138.611 C 213.628 139.072,213.934 140.360,214.069 141.474 C 214.204 142.589,214.508 143.905,214.744 144.401 C 214.980 144.896,215.267 146.068,215.382 147.005 C 215.497 147.942,215.758 149.031,215.962 149.426 C 216.166 149.821,216.437 150.977,216.565 151.997 C 216.693 153.016,216.941 154.008,217.117 154.202 C 217.292 154.396,217.564 155.118,217.722 155.806 C 218.065 157.305,219.104 158.632,220.090 158.829 C 221.014 159.014,223.115 158.376,223.468 157.803 C 223.624 157.550,223.871 157.344,224.017 157.344 C 224.373 157.344,228.475 153.117,228.475 152.751 C 228.475 152.592,228.686 152.271,228.944 152.037 C 229.202 151.804,229.558 151.265,229.736 150.839 C 229.914 150.413,230.249 149.932,230.480 149.770 C 230.711 149.608,230.958 149.246,231.030 148.964 C 231.417 147.438,234.837 148.176,234.957 149.813 C 235.005 150.460,234.899 150.867,234.588 151.225 C 234.349 151.502,234.028 152.029,233.875 152.397 C 233.722 152.766,233.510 153.067,233.403 153.067 C 233.296 153.067,233.054 153.436,232.865 153.888 C 232.676 154.339,232.270 154.961,231.962 155.269 C 231.653 155.577,231.401 155.964,231.401 156.129 C 231.401 156.293,231.199 156.536,230.951 156.669 C 230.703 156.801,230.501 157.019,230.501 157.153 C 230.501 157.769,225.704 163.007,223.485 164.814 C 222.805 165.368,222.029 166.041,221.760 166.309 C 221.492 166.578,221.136 166.798,220.969 166.798 C 220.803 166.798,220.491 166.991,220.277 167.228 C 220.064 167.464,219.567 167.784,219.173 167.939 C 218.780 168.094,218.223 168.432,217.935 168.690 C 217.384 169.184,212.528 169.403,211.142 168.996 C 210.237 168.731,207.755 166.232,207.048 164.875 C 206.858 164.509,206.537 163.905,206.335 163.534 C 206.133 163.163,205.967 162.617,205.966 162.323 C 205.966 162.028,205.758 161.451,205.504 161.041 C 205.251 160.631,204.945 159.657,204.823 158.876 C 204.702 158.095,204.391 156.953,204.131 156.339 C 203.872 155.724,203.571 154.516,203.463 153.655 C 203.355 152.794,203.073 151.676,202.837 151.171 C 202.601 150.666,202.340 149.508,202.257 148.598 C 202.172 147.666,201.914 146.572,201.666 146.096 C 201.418 145.621,201.128 144.395,201.003 143.298 C 200.881 142.224,200.684 141.171,200.565 140.959 C 200.446 140.747,200.200 140.194,200.017 139.730 C 199.602 138.673,199.321 138.662,198.982 139.689 C 198.836 140.131,198.576 140.547,198.404 140.613 C 198.232 140.679,197.971 141.134,197.824 141.624 C 197.677 142.113,197.381 142.608,197.165 142.724 C 196.949 142.839,196.709 143.226,196.630 143.583 C 196.552 143.940,196.245 144.460,195.948 144.738 C 195.652 145.017,195.343 145.543,195.263 145.907 C 195.183 146.272,194.966 146.628,194.780 146.699 C 194.593 146.771,194.252 147.270,194.021 147.810 C 193.790 148.349,193.504 148.790,193.385 148.790 C 193.266 148.790,193.054 149.140,192.913 149.567 C 192.772 149.995,192.472 150.403,192.247 150.474 C 192.022 150.546,191.780 150.894,191.709 151.247 C 191.638 151.601,191.271 152.229,190.893 152.643 C 190.515 153.056,190.149 153.574,190.079 153.794 C 190.010 154.013,189.856 154.192,189.737 154.192 C 189.619 154.192,189.420 154.461,189.295 154.789 C 189.052 155.429,188.225 156.537,187.226 157.564 C 186.885 157.914,186.607 158.304,186.607 158.431 C 186.607 158.558,186.353 158.861,186.044 159.104 C 185.734 159.348,185.481 159.615,185.481 159.698 C 185.481 160.143,181.211 164.693,180.168 165.360 C 179.809 165.590,179.384 165.956,179.222 166.175 C 179.060 166.394,178.782 166.573,178.603 166.573 C 178.424 166.573,178.081 166.770,177.840 167.011 C 177.355 167.496,176.187 168.149,175.804 168.149 C 175.669 168.149,175.250 168.376,174.874 168.655 C 174.231 169.130,173.968 169.162,170.625 169.162 C 167.283 169.162,167.019 169.130,166.376 168.655 C 165.999 168.376,165.600 168.149,165.488 168.149 C 165.185 168.149,163.196 166.346,163.196 166.072 C 163.196 165.942,163.027 165.711,162.820 165.560 C 162.004 164.963,161.808 160.620,162.522 158.967 C 162.923 158.040,164.810 155.993,165.264 155.993 C 165.431 155.993,165.970 155.772,166.464 155.501 C 167.727 154.807,169.485 154.859,170.941 155.633 C 171.547 155.955,172.176 156.218,172.338 156.218 C 172.501 156.218,172.743 156.421,172.876 156.669 C 173.008 156.916,173.247 157.119,173.406 157.119 C 173.565 157.119,174.093 157.448,174.580 157.850 C 176.818 159.699,177.882 160.055,178.451 159.145 C 178.605 158.897,178.853 158.694,179.000 158.694 C 179.273 158.694,180.206 157.856,181.499 156.451 C 181.894 156.021,182.496 155.380,182.836 155.026 C 183.177 154.673,183.455 154.307,183.455 154.214 C 183.455 154.122,183.708 153.808,184.018 153.517 C 184.328 153.226,184.581 152.892,184.581 152.774 C 184.581 152.580,185.351 151.593,186.600 150.189 C 186.852 149.905,187.194 149.348,187.360 148.950 C 187.526 148.553,187.830 148.088,188.035 147.918 C 188.240 147.748,188.407 147.479,188.407 147.318 C 188.407 147.158,188.711 146.741,189.083 146.390 C 189.454 146.040,189.758 145.589,189.758 145.389 C 189.758 145.189,190.062 144.643,190.433 144.176 C 190.805 143.708,191.109 143.206,191.109 143.060 C 191.109 142.913,191.362 142.573,191.671 142.304 C 191.981 142.035,192.234 141.629,192.234 141.403 C 192.234 141.176,192.484 140.755,192.790 140.468 C 193.096 140.180,193.459 139.605,193.596 139.190 C 193.733 138.775,193.942 138.436,194.060 138.436 C 194.179 138.436,194.482 137.954,194.734 137.366 C 194.986 136.778,195.337 136.216,195.514 136.117 C 195.691 136.018,195.836 135.755,195.836 135.532 C 195.836 135.309,196.118 134.732,196.464 134.249 C 196.810 133.766,197.220 132.935,197.377 132.402 C 197.534 131.870,197.808 131.378,197.987 131.309 C 198.421 131.142,198.400 130.128,197.952 129.632 C 197.751 129.410,197.468 128.407,197.313 127.363 C 197.159 126.334,196.829 125.087,196.579 124.592 C 196.328 124.097,196.054 122.996,195.970 122.146 C 195.886 121.295,195.629 120.231,195.399 119.780 C 195.169 119.329,194.908 118.353,194.819 117.612 C 194.729 116.870,194.425 115.757,194.143 115.138 C 193.861 114.519,193.559 113.406,193.472 112.666 C 193.385 111.925,193.085 110.861,192.805 110.302 C 192.525 109.743,192.229 108.919,192.148 108.472 C 192.067 108.025,191.809 107.486,191.575 107.274 C 191.341 107.062,191.082 106.622,191.000 106.295 C 190.918 105.969,190.657 105.495,190.419 105.242 C 188.943 103.676,188.022 102.875,187.693 102.873 C 187.486 102.871,187.019 102.619,186.655 102.313 C 185.852 101.637,183.412 101.299,179.325 101.296 C 175.462 101.293,174.402 100.625,174.848 98.474 C 175.024 97.625,175.096 97.563,176.262 97.240 C 176.937 97.053,177.696 96.783,177.949 96.639 C 178.201 96.495,179.670 96.260,181.213 96.115 C 182.756 95.971,184.676 95.666,185.481 95.437 C 186.286 95.208,188.008 94.906,189.308 94.767 C 190.608 94.628,192.026 94.373,192.459 94.201 C 193.575 93.757,193.945 93.697,195.742 93.667 L 197.337 93.641 198.781 95.231 " stroke="none" fill="#fbfbfb" fill-rule="evenodd"></path><path id="path1" d="M193.635 57.766 C 192.649 57.960,191.819 58.265,191.552 58.532 C 191.308 58.776,190.982 58.976,190.827 58.976 C 190.672 58.977,190.191 59.288,189.758 59.667 C 189.325 60.047,188.742 60.449,188.464 60.562 C 188.185 60.674,187.957 60.913,187.957 61.092 C 187.957 61.272,187.729 61.605,187.451 61.832 C 186.745 62.406,185.342 64.579,185.153 65.391 C 185.067 65.763,184.850 66.229,184.671 66.427 C 184.492 66.626,184.235 67.385,184.100 68.115 C 183.964 68.846,183.705 69.899,183.525 70.456 C 183.000 72.073,182.808 73.363,182.793 75.365 L 182.780 77.236 183.624 77.166 L 184.468 77.096 184.814 75.070 C 185.004 73.956,185.324 72.791,185.524 72.482 C 185.724 72.172,185.958 71.483,186.044 70.951 C 186.138 70.368,186.371 69.876,186.628 69.715 C 186.864 69.568,187.057 69.331,187.057 69.189 C 187.057 68.751,188.679 67.330,189.347 67.183 C 189.695 67.107,190.075 66.875,190.191 66.668 C 190.493 66.129,194.462 66.117,195.080 66.654 C 195.310 66.853,195.802 67.117,196.174 67.241 C 196.545 67.365,197.243 67.734,197.724 68.061 C 198.206 68.388,198.725 68.655,198.878 68.655 C 199.032 68.655,199.295 68.821,199.463 69.023 C 199.631 69.226,200.200 69.577,200.728 69.803 C 201.256 70.030,201.688 70.302,201.688 70.409 C 201.688 70.516,202.195 70.841,202.814 71.131 C 203.433 71.421,203.939 71.735,203.939 71.830 C 203.939 71.924,204.142 72.066,204.391 72.144 C 204.639 72.223,205.120 72.515,205.460 72.794 C 205.800 73.072,206.432 73.440,206.866 73.612 C 207.299 73.783,207.755 74.053,207.878 74.210 C 208.002 74.367,208.554 74.653,209.105 74.845 C 209.656 75.037,210.264 75.330,210.456 75.496 C 210.648 75.662,211.109 75.869,211.480 75.955 C 211.851 76.042,212.705 76.371,213.377 76.686 C 215.468 77.668,222.368 77.667,223.493 76.684 C 223.695 76.508,224.249 76.226,224.725 76.058 C 225.200 75.891,225.685 75.574,225.802 75.355 C 225.919 75.137,226.160 74.958,226.339 74.958 C 226.517 74.958,227.124 74.477,227.689 73.889 C 228.253 73.301,228.914 72.613,229.158 72.361 C 229.401 72.109,229.600 71.794,229.600 71.661 C 229.600 71.527,229.903 71.038,230.273 70.572 C 230.642 70.107,231.043 69.372,231.162 68.939 C 231.282 68.506,231.523 67.986,231.699 67.784 C 231.875 67.582,232.142 66.708,232.292 65.841 C 232.442 64.975,232.710 63.804,232.887 63.240 C 233.064 62.676,233.233 61.207,233.262 59.976 L 233.315 57.738 232.682 57.665 C 231.730 57.556,231.463 57.933,231.361 59.532 C 231.301 60.472,231.135 61.124,230.885 61.401 C 230.674 61.634,230.501 62.037,230.501 62.295 C 230.501 63.882,227.547 67.538,225.999 67.867 C 225.566 67.959,224.938 68.174,224.603 68.344 C 223.831 68.739,223.190 68.738,222.558 68.343 C 222.284 68.171,221.654 67.959,221.159 67.873 C 220.229 67.710,217.427 66.428,216.793 65.874 C 216.594 65.701,216.052 65.425,215.588 65.261 C 215.124 65.097,214.744 64.884,214.744 64.787 C 214.744 64.690,214.263 64.353,213.675 64.039 C 213.087 63.724,212.048 63.064,211.367 62.572 C 210.687 62.079,209.809 61.570,209.418 61.441 C 209.026 61.311,208.652 61.063,208.585 60.890 C 208.519 60.717,208.059 60.466,207.563 60.332 C 207.067 60.199,206.506 59.935,206.317 59.745 C 206.127 59.556,205.490 59.241,204.900 59.045 C 204.309 58.849,203.674 58.557,203.488 58.397 C 202.521 57.565,196.586 57.185,193.635 57.766 M195.498 94.665 C 195.003 94.846,193.309 95.140,191.734 95.319 C 190.159 95.498,188.652 95.761,188.385 95.904 C 188.119 96.047,186.571 96.352,184.946 96.582 C 183.321 96.812,181.438 97.156,180.761 97.346 C 180.084 97.537,179.122 97.693,178.623 97.694 C 177.049 97.696,176.157 98.059,175.872 98.814 C 175.508 99.779,175.631 99.813,179.886 99.952 C 182.451 100.035,183.742 100.165,183.981 100.363 C 184.173 100.523,184.964 100.801,185.738 100.981 C 187.823 101.468,191.559 104.345,191.559 105.464 C 191.559 105.611,191.811 106.003,192.120 106.336 C 192.428 106.669,192.745 107.215,192.824 107.550 C 192.903 107.886,193.151 108.466,193.375 108.840 C 193.600 109.215,193.887 110.164,194.014 110.950 C 194.140 111.735,194.397 112.613,194.585 112.900 C 194.773 113.186,195.041 114.162,195.180 115.067 C 195.319 115.973,195.662 117.271,195.942 117.952 C 196.222 118.633,196.515 119.758,196.592 120.452 C 196.669 121.147,196.892 122.098,197.088 122.565 C 197.283 123.033,197.586 124.227,197.760 125.218 C 197.934 126.209,198.246 127.278,198.453 127.593 C 199.217 128.760,199.148 131.969,198.341 132.746 C 198.112 132.966,197.854 133.443,197.766 133.806 C 197.679 134.169,197.361 134.759,197.059 135.118 C 196.758 135.476,196.511 135.951,196.511 136.174 C 196.511 136.397,196.343 136.719,196.137 136.889 C 195.931 137.059,195.573 137.625,195.341 138.147 C 195.110 138.669,194.791 139.176,194.633 139.273 C 194.475 139.369,194.208 139.803,194.038 140.236 C 193.869 140.670,193.594 141.176,193.426 141.362 C 192.859 141.991,192.038 143.271,191.585 144.232 C 191.337 144.758,191.047 145.189,190.941 145.189 C 190.835 145.189,190.522 145.619,190.245 146.145 C 189.351 147.844,188.680 148.858,188.315 149.063 C 188.118 149.173,187.957 149.388,187.957 149.541 C 187.957 149.693,187.425 150.508,186.775 151.351 C 186.125 152.194,185.462 153.127,185.301 153.424 C 185.140 153.721,184.811 154.069,184.569 154.199 C 184.328 154.328,184.131 154.566,184.131 154.728 C 184.131 155.046,180.386 158.936,179.287 159.761 C 177.784 160.887,175.976 160.436,173.711 158.367 C 173.365 158.052,172.940 157.794,172.767 157.794 C 172.593 157.794,172.319 157.615,172.157 157.397 C 170.969 155.792,166.313 155.910,164.776 157.584 C 162.906 159.620,162.858 159.728,162.864 161.949 C 162.871 164.647,164.122 166.628,166.318 167.420 C 166.751 167.576,167.301 167.880,167.539 168.095 C 168.180 168.673,172.733 168.667,173.551 168.087 C 173.860 167.867,174.495 167.584,174.960 167.458 C 175.426 167.332,176.251 166.930,176.794 166.563 C 177.337 166.197,177.889 165.898,178.021 165.898 C 178.154 165.898,178.371 165.695,178.503 165.447 C 178.636 165.200,178.870 164.997,179.023 164.997 C 179.308 164.997,182.835 161.546,184.177 159.954 C 184.585 159.471,185.146 158.851,185.425 158.578 C 185.703 158.304,185.931 157.975,185.931 157.846 C 185.931 157.645,186.769 156.497,187.778 155.314 C 187.939 155.126,188.263 154.671,188.499 154.301 C 188.735 153.932,189.064 153.549,189.231 153.450 C 189.397 153.351,189.533 153.126,189.533 152.951 C 189.533 152.776,189.823 152.300,190.177 151.893 C 190.531 151.486,190.990 150.824,191.196 150.422 C 191.402 150.020,191.658 149.690,191.765 149.690 C 191.872 149.690,192.020 149.454,192.092 149.165 C 192.165 148.876,192.530 148.254,192.904 147.784 C 193.279 147.313,193.585 146.795,193.585 146.633 C 193.585 146.472,193.780 146.203,194.018 146.036 C 194.256 145.869,194.622 145.306,194.830 144.785 C 195.039 144.264,195.287 143.838,195.383 143.838 C 195.478 143.838,195.691 143.509,195.856 143.106 C 196.021 142.704,196.384 142.126,196.663 141.823 C 196.942 141.519,197.233 140.988,197.309 140.641 C 197.385 140.295,197.626 139.885,197.845 139.730 C 198.064 139.575,198.365 139.077,198.514 138.622 C 199.364 136.031,201.015 137.194,201.450 140.690 C 201.581 141.741,201.883 143.114,202.122 143.741 C 202.361 144.369,202.669 145.708,202.807 146.718 C 202.946 147.727,203.246 148.986,203.474 149.515 C 203.703 150.045,203.962 151.082,204.050 151.821 C 204.137 152.559,204.390 153.622,204.611 154.184 C 204.832 154.746,205.126 155.934,205.264 156.825 C 205.402 157.715,205.707 158.779,205.941 159.188 C 206.175 159.598,206.436 160.439,206.520 161.058 C 206.604 161.677,206.918 162.561,207.219 163.023 C 207.520 163.484,207.766 164.001,207.766 164.171 C 207.766 164.341,208.044 164.789,208.385 165.166 C 208.725 165.543,209.191 166.121,209.419 166.451 C 209.647 166.780,210.204 167.221,210.657 167.431 C 211.109 167.640,211.599 167.963,211.743 168.149 C 212.212 168.749,216.272 168.621,217.087 167.980 C 217.441 167.701,217.847 167.473,217.990 167.473 C 219.079 167.473,224.813 162.439,229.157 157.667 C 229.389 157.412,229.683 156.931,229.810 156.598 C 229.936 156.265,230.141 155.993,230.266 155.993 C 230.390 155.993,230.700 155.613,230.956 155.149 C 231.506 154.148,232.355 152.888,232.859 152.326 C 233.622 151.475,233.909 149.812,233.382 149.285 C 232.864 148.767,231.854 148.960,231.557 149.634 C 231.080 150.714,230.073 152.204,228.423 154.269 C 227.929 154.887,225.223 157.618,224.315 158.415 C 223.184 159.408,221.213 160.168,219.998 160.080 C 219.278 160.028,217.525 158.222,217.329 157.329 C 217.238 156.914,216.970 156.312,216.734 155.993 C 216.498 155.673,216.195 154.707,216.062 153.846 C 215.928 152.984,215.635 151.918,215.410 151.476 C 215.186 151.034,214.888 149.819,214.750 148.775 C 214.611 147.731,214.351 146.559,214.172 146.170 C 213.993 145.781,213.739 144.693,213.608 143.752 C 213.477 142.811,213.184 141.610,212.957 141.083 C 212.729 140.555,212.426 139.299,212.284 138.291 C 212.142 137.283,211.837 136.067,211.607 135.590 C 211.377 135.112,211.115 134.012,211.026 133.146 C 210.937 132.279,210.682 131.165,210.460 130.669 C 210.238 130.173,209.945 128.965,209.808 127.985 C 209.672 127.004,209.403 125.890,209.211 125.509 C 208.556 124.209,208.556 122.889,209.210 122.016 C 209.530 121.590,209.792 121.122,209.792 120.977 C 209.792 120.832,210.016 120.428,210.291 120.079 C 210.565 119.730,210.945 119.176,211.135 118.846 C 212.052 117.255,212.419 116.702,212.869 116.229 C 213.138 115.946,213.431 115.484,213.519 115.201 C 213.678 114.693,214.276 113.870,215.476 112.509 C 215.816 112.123,216.095 111.709,216.095 111.590 C 216.095 111.470,216.349 111.105,216.659 110.779 C 216.970 110.453,217.806 109.539,218.517 108.749 C 219.759 107.367,222.635 104.896,223.000 104.896 C 223.097 104.896,223.713 104.673,224.369 104.401 C 225.530 103.920,225.594 103.917,226.737 104.287 C 227.384 104.496,228.571 104.776,229.375 104.910 C 230.180 105.044,231.092 105.319,231.401 105.522 C 232.193 106.040,236.015 106.174,236.804 105.711 C 237.113 105.529,237.790 105.179,238.307 104.933 C 239.396 104.415,239.816 103.722,240.155 101.888 C 240.475 100.157,239.802 96.792,239.136 96.792 C 238.973 96.792,238.678 96.545,238.479 96.242 C 238.263 95.911,237.653 95.538,236.954 95.309 C 236.314 95.099,235.591 94.789,235.347 94.621 C 234.731 94.198,231.430 94.208,230.821 94.635 C 230.571 94.811,229.772 95.109,229.047 95.298 C 228.322 95.488,227.669 95.734,227.595 95.846 C 227.522 95.958,227.048 96.293,226.542 96.590 C 224.871 97.570,223.748 98.371,223.748 98.581 C 223.748 98.695,223.554 98.849,223.317 98.925 C 222.693 99.123,217.041 104.767,215.873 106.359 C 215.327 107.102,214.772 107.811,214.639 107.935 C 214.506 108.059,214.207 108.590,213.974 109.116 C 213.741 109.643,213.466 110.073,213.364 110.073 C 213.261 110.073,212.971 110.478,212.718 110.974 C 212.465 111.469,212.159 111.874,212.038 111.874 C 211.917 111.874,211.818 112.018,211.818 112.194 C 211.818 112.371,211.463 112.979,211.030 113.547 C 210.597 114.115,210.242 114.664,210.242 114.767 C 210.242 114.871,210.035 115.143,209.781 115.373 C 209.528 115.602,209.104 116.175,208.839 116.645 C 208.575 117.116,208.293 117.501,208.214 117.501 C 207.556 117.501,206.322 114.898,206.080 112.999 C 205.994 112.319,205.735 111.435,205.505 111.035 C 205.275 110.636,204.976 109.700,204.841 108.955 C 204.706 108.210,204.347 107.068,204.044 106.417 C 203.741 105.766,203.492 105.030,203.491 104.782 C 203.490 104.533,203.249 103.875,202.955 103.318 C 202.662 102.762,202.344 102.054,202.249 101.745 C 202.154 101.435,201.837 100.895,201.545 100.545 C 201.252 100.196,201.013 99.804,201.013 99.675 C 201.013 99.546,200.734 99.103,200.394 98.691 C 200.053 98.279,199.471 97.533,199.100 97.034 C 198.274 95.924,196.757 94.313,196.550 94.326 C 196.467 94.332,195.993 94.484,195.498 94.665 " stroke="none" fill="#0d0d0d" fill-rule="evenodd"></path><path id="path2" d="M196.349 56.665 C 196.941 56.712,197.852 56.711,198.375 56.664 C 198.897 56.617,198.413 56.579,197.299 56.580 C 196.185 56.580,195.757 56.619,196.349 56.665 M231.851 56.813 C 231.851 56.861,232.199 56.941,232.623 56.991 C 233.048 57.040,233.346 57.001,233.286 56.903 C 233.177 56.727,231.851 56.643,231.851 56.813 M233.714 59.426 C 233.714 59.983,233.757 60.211,233.811 59.932 C 233.865 59.654,233.865 59.198,233.811 58.920 C 233.757 58.641,233.714 58.869,233.714 59.426 M192.065 66.784 C 192.282 66.841,192.636 66.841,192.853 66.784 C 193.070 66.728,192.893 66.681,192.459 66.681 C 192.026 66.681,191.849 66.728,192.065 66.784 M223.244 67.914 C 223.524 67.968,223.929 67.966,224.144 67.909 C 224.360 67.853,224.131 67.809,223.635 67.811 C 223.140 67.814,222.964 67.860,223.244 67.914 M183.042 69.678 C 182.664 70.505,182.736 70.682,183.144 69.929 C 183.335 69.578,183.448 69.248,183.397 69.197 C 183.345 69.145,183.186 69.362,183.042 69.678 M230.520 70.992 L 229.977 71.694 230.621 71.082 C 230.975 70.745,231.220 70.429,231.164 70.380 C 231.109 70.330,230.819 70.606,230.520 70.992 M217.839 78.049 C 218.365 78.096,219.226 78.096,219.752 78.049 C 220.279 78.002,219.848 77.963,218.796 77.963 C 217.743 77.963,217.313 78.002,217.839 78.049 M196.170 94.033 C 196.664 94.084,197.221 94.244,197.409 94.389 C 197.706 94.620,197.710 94.604,197.440 94.260 C 197.224 93.984,196.852 93.877,196.202 93.904 L 195.273 93.942 196.170 94.033 M175.361 98.020 C 175.212 98.199,175.137 98.529,175.194 98.751 C 175.279 99.076,175.305 99.058,175.326 98.661 C 175.340 98.388,175.529 98.062,175.746 97.936 C 175.962 97.810,176.025 97.703,175.886 97.700 C 175.746 97.696,175.510 97.840,175.361 98.020 M240.543 98.706 C 240.635 98.953,240.778 99.814,240.860 100.619 L 241.010 102.082 241.037 100.732 C 241.055 99.870,240.940 99.177,240.719 98.818 C 240.506 98.471,240.439 98.428,240.543 98.706 M221.325 99.725 C 220.920 100.093,220.673 100.394,220.776 100.394 C 220.879 100.394,221.254 100.090,221.609 99.719 C 222.437 98.855,222.277 98.859,221.325 99.725 M176.104 100.447 C 176.247 100.538,177.631 100.597,179.178 100.580 C 182.312 100.543,181.896 100.439,178.242 100.344 C 176.923 100.309,175.960 100.356,176.104 100.447 M194.279 138.747 L 193.736 139.449 194.380 138.836 C 194.734 138.500,194.979 138.184,194.923 138.134 C 194.868 138.085,194.578 138.361,194.279 138.747 M199.113 138.189 C 199.043 138.302,199.184 138.342,199.426 138.279 C 199.748 138.194,199.989 138.365,200.326 138.919 C 200.579 139.334,200.787 139.561,200.787 139.423 C 200.790 138.660,199.437 137.664,199.113 138.189 M190.434 152.278 C 190.144 152.587,189.949 152.878,190.001 152.924 C 190.053 152.970,190.331 152.717,190.619 152.362 C 191.264 151.567,191.150 151.516,190.434 152.278 M226.551 155.599 L 225.661 156.556 226.618 155.666 C 227.144 155.177,227.575 154.746,227.575 154.710 C 227.575 154.539,227.379 154.710,226.551 155.599 M164.420 157.175 L 163.759 157.907 164.491 157.245 C 164.893 156.882,165.222 156.553,165.222 156.514 C 165.222 156.340,165.037 156.493,164.420 157.175 M228.123 159.426 L 227.462 160.158 228.194 159.496 C 228.876 158.880,229.029 158.694,228.855 158.694 C 228.816 158.694,228.487 159.024,228.123 159.426 M176.984 159.975 C 177.200 160.032,177.555 160.032,177.772 159.975 C 177.988 159.918,177.811 159.872,177.378 159.872 C 176.944 159.872,176.767 159.918,176.984 159.975 M162.360 161.958 C 162.362 162.577,162.406 162.804,162.458 162.462 C 162.509 162.120,162.508 161.613,162.454 161.336 C 162.401 161.059,162.359 161.339,162.360 161.958 M225.098 162.634 C 224.552 163.191,224.155 163.647,224.217 163.647 C 224.279 163.647,224.777 163.191,225.324 162.634 C 225.870 162.077,226.267 161.621,226.205 161.621 C 226.143 161.621,225.645 162.077,225.098 162.634 M181.654 163.309 C 181.108 163.866,180.711 164.322,180.773 164.322 C 180.835 164.322,181.333 163.866,181.880 163.309 C 182.426 162.752,182.823 162.296,182.761 162.296 C 182.699 162.296,182.201 162.752,181.654 163.309 M222.946 164.603 L 222.285 165.335 223.016 164.674 C 223.419 164.310,223.748 163.981,223.748 163.942 C 223.748 163.768,223.562 163.921,222.946 164.603 M208.215 165.841 C 208.510 166.244,208.786 166.573,208.829 166.573 C 209.000 166.573,208.442 165.729,208.073 165.429 C 207.830 165.231,207.884 165.389,208.215 165.841 " stroke="none" fill="#8c8c8c" fill-rule="evenodd"></path><path id="path3" d="M193.532 57.303 C 191.809 57.822,190.067 58.689,189.195 59.462 C 187.114 61.307,185.031 63.848,185.031 64.542 C 185.031 64.668,184.787 65.215,184.490 65.757 C 184.192 66.298,183.821 67.349,183.665 68.092 C 183.509 68.835,183.236 69.736,183.058 70.095 C 182.622 70.974,182.154 76.654,182.475 77.167 C 183.272 78.440,184.912 77.523,185.141 75.676 C 185.228 74.972,185.447 74.041,185.627 73.609 C 185.807 73.177,186.054 72.366,186.177 71.808 C 187.157 67.345,193.564 65.211,197.074 68.180 C 197.321 68.390,197.878 68.741,198.312 68.961 C 199.259 69.442,200.922 70.407,201.822 70.998 C 202.182 71.235,202.831 71.649,203.264 71.919 C 203.697 72.189,204.346 72.603,204.707 72.840 C 206.451 73.985,210.814 76.308,211.221 76.308 C 211.373 76.308,211.899 76.520,212.389 76.778 C 213.414 77.318,216.665 77.880,218.777 77.882 C 226.171 77.891,231.501 72.528,233.433 63.136 C 233.744 61.627,233.760 58.017,233.459 57.456 C 232.665 55.981,231.409 56.942,230.958 59.370 C 230.837 60.019,230.597 60.830,230.424 61.170 C 230.252 61.511,230.044 62.159,229.962 62.611 C 229.881 63.063,229.614 63.686,229.369 63.997 C 229.125 64.308,228.925 64.649,228.925 64.755 C 228.925 65.131,226.827 67.132,226.136 67.416 C 223.335 68.568,219.617 67.438,213.956 63.714 C 213.213 63.226,212.251 62.615,211.818 62.356 C 211.384 62.098,210.574 61.587,210.017 61.220 C 209.460 60.853,208.649 60.398,208.216 60.209 C 207.783 60.020,207.276 59.764,207.091 59.640 C 206.905 59.516,206.297 59.209,205.740 58.958 C 205.183 58.707,204.322 58.314,203.827 58.085 C 203.331 57.856,202.481 57.597,201.936 57.509 C 201.392 57.421,200.610 57.209,200.199 57.037 C 199.010 56.540,195.616 56.676,193.532 57.303 M200.958 57.753 C 202.163 57.947,203.301 58.236,203.488 58.397 C 203.674 58.557,204.309 58.849,204.900 59.045 C 205.490 59.241,206.127 59.556,206.317 59.745 C 206.506 59.935,207.067 60.199,207.563 60.332 C 208.059 60.466,208.519 60.717,208.585 60.890 C 208.652 61.063,209.026 61.311,209.418 61.441 C 209.809 61.570,210.687 62.079,211.367 62.572 C 212.048 63.064,213.087 63.724,213.675 64.039 C 214.263 64.353,214.744 64.690,214.744 64.787 C 214.744 64.884,215.124 65.097,215.588 65.261 C 216.052 65.425,216.594 65.701,216.793 65.874 C 217.427 66.428,220.229 67.710,221.159 67.873 C 221.654 67.959,222.284 68.171,222.558 68.343 C 223.190 68.738,223.831 68.739,224.603 68.344 C 224.938 68.174,225.566 67.959,225.999 67.867 C 227.547 67.538,230.501 63.882,230.501 62.295 C 230.501 62.037,230.674 61.634,230.885 61.401 C 231.135 61.124,231.301 60.472,231.361 59.532 C 231.463 57.933,231.730 57.556,232.682 57.665 L 233.315 57.738 233.262 59.976 C 233.233 61.207,233.064 62.676,232.887 63.240 C 232.710 63.804,232.442 64.975,232.292 65.841 C 232.142 66.708,231.875 67.582,231.699 67.784 C 231.523 67.986,231.282 68.506,231.162 68.939 C 231.043 69.372,230.642 70.107,230.273 70.572 C 229.903 71.038,229.600 71.527,229.600 71.661 C 229.600 71.794,229.401 72.109,229.158 72.361 C 228.914 72.613,228.253 73.301,227.689 73.889 C 227.124 74.477,226.517 74.958,226.339 74.958 C 226.160 74.958,225.919 75.137,225.802 75.355 C 225.685 75.574,225.200 75.891,224.725 76.058 C 224.249 76.226,223.695 76.508,223.493 76.684 C 222.368 77.667,215.468 77.668,213.377 76.686 C 212.705 76.371,211.851 76.042,211.480 75.955 C 211.109 75.869,210.648 75.662,210.456 75.496 C 210.264 75.330,209.656 75.037,209.105 74.845 C 208.554 74.653,208.002 74.367,207.878 74.210 C 207.755 74.053,207.299 73.783,206.866 73.612 C 206.432 73.440,205.800 73.072,205.460 72.794 C 205.120 72.515,204.639 72.223,204.391 72.144 C 204.142 72.066,203.939 71.924,203.939 71.830 C 203.939 71.735,203.433 71.421,202.814 71.131 C 202.195 70.841,201.688 70.516,201.688 70.409 C 201.688 70.302,201.256 70.030,200.728 69.803 C 200.200 69.577,199.631 69.226,199.463 69.023 C 199.295 68.821,199.032 68.655,198.878 68.655 C 198.725 68.655,198.206 68.388,197.724 68.061 C 197.243 67.734,196.545 67.365,196.174 67.241 C 195.802 67.117,195.310 66.853,195.080 66.654 C 194.462 66.117,190.493 66.129,190.191 66.668 C 190.075 66.875,189.695 67.107,189.347 67.183 C 188.679 67.330,187.057 68.751,187.057 69.189 C 187.057 69.331,186.864 69.568,186.628 69.715 C 186.371 69.876,186.138 70.368,186.044 70.951 C 185.958 71.483,185.724 72.172,185.524 72.482 C 185.324 72.791,185.004 73.956,184.814 75.070 L 184.468 77.096 183.624 77.166 L 182.780 77.236 182.793 75.365 C 182.808 73.363,183.000 72.073,183.525 70.456 C 183.705 69.899,183.964 68.846,184.100 68.115 C 184.235 67.385,184.492 66.626,184.671 66.427 C 184.850 66.229,185.067 65.763,185.153 65.391 C 185.342 64.579,186.745 62.406,187.451 61.832 C 187.729 61.605,187.957 61.272,187.957 61.092 C 187.957 60.913,188.185 60.674,188.464 60.562 C 188.742 60.449,189.325 60.047,189.758 59.667 C 190.191 59.288,190.672 58.977,190.827 58.976 C 190.982 58.976,191.308 58.776,191.552 58.532 C 192.560 57.525,197.168 57.143,200.958 57.753 M230.726 94.179 C 227.964 95.027,227.163 95.458,223.887 97.856 C 220.638 100.236,215.111 106.104,213.824 108.540 C 213.673 108.826,213.355 109.313,213.117 109.623 C 212.879 109.932,212.057 111.148,211.289 112.324 C 210.521 113.500,209.499 115.005,209.017 115.668 L 208.141 116.873 207.737 116.343 C 207.514 116.052,207.266 115.509,207.186 115.138 C 207.105 114.766,206.951 114.353,206.843 114.218 C 206.735 114.084,206.496 113.186,206.312 112.223 C 206.128 111.259,205.874 110.347,205.748 110.195 C 205.621 110.043,205.322 109.168,205.083 108.251 C 204.343 105.419,203.012 101.990,202.120 100.619 C 201.999 100.433,201.726 99.991,201.513 99.635 C 200.888 98.593,198.770 95.849,197.888 94.939 C 196.915 93.935,196.130 93.856,193.693 94.518 C 192.829 94.752,191.412 95.012,190.546 95.096 C 189.679 95.180,188.160 95.436,187.169 95.664 C 186.179 95.893,184.710 96.148,183.905 96.230 C 183.101 96.312,181.683 96.562,180.754 96.786 C 179.826 97.009,178.509 97.266,177.828 97.356 C 176.399 97.546,175.352 98.016,175.352 98.468 C 175.352 98.640,175.299 98.919,175.234 99.088 C 174.880 100.010,175.631 100.276,178.991 100.417 C 184.223 100.636,187.507 101.613,189.420 103.520 C 191.059 105.153,191.143 105.277,192.361 107.822 C 193.412 110.020,193.544 110.387,193.810 111.864 C 193.954 112.664,194.204 113.576,194.366 113.890 C 194.528 114.205,194.834 115.324,195.047 116.376 C 195.260 117.428,195.520 118.451,195.625 118.650 C 195.815 119.008,196.617 122.215,197.415 125.798 C 197.645 126.832,198.006 128.043,198.217 128.487 C 198.720 129.547,198.752 131.518,198.276 132.061 C 198.078 132.286,197.703 132.926,197.442 133.483 C 197.181 134.041,196.661 135.003,196.286 135.622 C 195.911 136.241,195.407 137.159,195.166 137.662 C 194.924 138.165,194.520 138.763,194.268 138.991 C 194.016 139.219,193.810 139.522,193.810 139.664 C 193.810 139.806,193.379 140.558,192.853 141.337 C 192.327 142.115,191.730 143.052,191.526 143.418 C 191.322 143.785,190.907 144.459,190.604 144.918 C 188.748 147.725,186.947 150.375,186.365 151.154 C 185.995 151.649,185.523 152.307,185.315 152.617 C 184.022 154.547,180.008 158.786,178.808 159.490 C 177.325 160.359,176.313 160.065,173.841 158.047 C 172.281 156.774,171.811 156.498,170.412 156.029 C 167.685 155.116,165.117 156.070,163.196 158.709 C 161.488 161.057,163.391 167.698,165.772 167.698 C 165.865 167.698,166.234 167.908,166.594 168.163 C 168.144 169.268,172.691 169.187,174.890 168.017 C 175.451 167.718,175.984 167.473,176.074 167.473 C 176.300 167.473,177.928 166.414,179.403 165.305 C 181.009 164.099,185.586 159.251,186.250 158.053 C 186.363 157.849,186.667 157.472,186.925 157.216 C 187.183 156.960,187.569 156.453,187.783 156.090 C 187.997 155.727,188.529 154.975,188.965 154.418 C 189.401 153.860,189.824 153.253,189.904 153.067 C 189.984 152.881,190.275 152.476,190.550 152.167 C 190.826 151.857,191.191 151.338,191.361 151.014 C 191.532 150.690,192.153 149.716,192.741 148.850 C 193.329 147.984,193.810 147.179,193.810 147.059 C 193.810 146.940,194.063 146.605,194.373 146.314 C 194.682 146.023,194.935 145.673,194.935 145.536 C 194.935 145.269,196.186 143.197,196.912 142.262 C 197.152 141.953,197.425 141.446,197.518 141.137 C 197.612 140.827,197.874 140.370,198.102 140.121 C 198.329 139.871,198.676 139.282,198.873 138.812 C 199.643 136.969,200.616 138.242,201.238 141.904 C 201.488 143.379,201.798 144.712,201.926 144.866 C 202.054 145.020,202.348 146.194,202.580 147.475 C 202.811 148.755,203.216 150.613,203.480 151.604 C 204.358 154.907,204.664 156.093,205.076 157.794 C 205.908 161.229,207.079 164.181,208.091 165.399 C 208.371 165.735,208.707 166.215,208.839 166.466 C 209.999 168.675,215.413 169.744,217.609 168.197 C 217.952 167.955,218.486 167.679,218.796 167.584 C 221.372 166.789,231.339 156.555,232.595 153.415 C 232.694 153.167,232.927 152.796,233.112 152.592 C 234.217 151.371,234.631 149.538,233.905 149.085 C 232.338 148.106,231.873 148.364,230.156 151.165 C 229.904 151.575,229.524 152.103,229.311 152.338 C 229.099 152.573,228.925 152.881,228.925 153.024 C 228.925 154.363,222.269 159.595,220.565 159.595 C 219.471 159.595,217.848 158.068,217.542 156.750 C 217.459 156.396,217.231 155.853,217.035 155.543 C 216.839 155.234,216.453 153.967,216.177 152.729 C 215.902 151.491,215.517 149.845,215.322 149.071 C 214.385 145.338,213.914 143.331,212.634 137.603 C 212.324 136.216,211.976 134.900,211.860 134.677 C 211.745 134.454,211.480 133.335,211.272 132.190 C 211.065 131.045,210.759 129.779,210.592 129.376 C 210.425 128.973,210.174 127.884,210.033 126.956 C 209.893 126.027,209.615 124.835,209.415 124.307 C 209.043 123.322,209.843 121.001,210.839 120.174 C 211.006 120.036,211.142 119.831,211.142 119.719 C 211.142 119.608,211.491 119.010,211.917 118.390 C 212.343 117.771,212.755 117.064,212.833 116.820 C 212.910 116.576,213.065 116.376,213.178 116.376 C 213.290 116.376,213.551 116.047,213.758 115.644 C 214.137 114.906,216.416 111.727,216.865 111.311 C 216.998 111.187,217.374 110.732,217.701 110.298 C 218.745 108.910,220.227 107.513,222.464 105.806 C 224.164 104.509,228.315 104.532,230.796 105.853 C 232.025 106.507,236.691 106.610,237.399 105.999 C 237.629 105.800,238.240 105.406,238.758 105.121 C 241.309 103.722,241.511 98.444,239.100 96.173 C 237.051 94.244,233.369 93.367,230.726 94.179 M197.563 95.221 C 198.037 95.719,198.728 96.535,199.100 97.034 C 199.471 97.533,200.053 98.279,200.394 98.691 C 200.734 99.103,201.013 99.546,201.013 99.675 C 201.013 99.804,201.252 100.196,201.545 100.545 C 201.837 100.895,202.154 101.435,202.249 101.745 C 202.344 102.054,202.662 102.762,202.955 103.318 C 203.249 103.875,203.490 104.533,203.491 104.782 C 203.492 105.030,203.741 105.766,204.044 106.417 C 204.347 107.068,204.706 108.210,204.841 108.955 C 204.976 109.700,205.275 110.636,205.505 111.035 C 205.735 111.435,205.994 112.319,206.080 112.999 C 206.322 114.898,207.556 117.501,208.214 117.501 C 208.293 117.501,208.575 117.116,208.839 116.645 C 209.104 116.175,209.528 115.602,209.781 115.373 C 210.035 115.143,210.242 114.871,210.242 114.767 C 210.242 114.664,210.597 114.115,211.030 113.547 C 211.463 112.979,211.818 112.371,211.818 112.194 C 211.818 112.018,211.917 111.874,212.038 111.874 C 212.159 111.874,212.465 111.469,212.718 110.974 C 212.971 110.478,213.261 110.073,213.364 110.073 C 213.466 110.073,213.741 109.643,213.974 109.116 C 214.207 108.590,214.506 108.059,214.639 107.935 C 214.772 107.811,215.327 107.102,215.873 106.359 C 217.041 104.767,222.693 99.123,223.317 98.925 C 223.554 98.849,223.748 98.695,223.748 98.581 C 223.748 98.371,224.871 97.570,226.542 96.590 C 227.048 96.293,227.522 95.958,227.595 95.846 C 227.669 95.734,228.322 95.488,229.047 95.298 C 229.772 95.109,230.571 94.811,230.821 94.635 C 231.430 94.208,234.731 94.198,235.347 94.621 C 235.591 94.789,236.314 95.099,236.954 95.309 C 237.653 95.538,238.263 95.911,238.479 96.242 C 238.678 96.545,238.973 96.792,239.136 96.792 C 239.802 96.792,240.475 100.157,240.155 101.888 C 239.816 103.722,239.396 104.415,238.307 104.933 C 237.790 105.179,237.113 105.529,236.804 105.711 C 236.015 106.174,232.193 106.040,231.401 105.522 C 231.092 105.319,230.180 105.044,229.375 104.910 C 228.571 104.776,227.384 104.496,226.737 104.287 C 225.594 103.917,225.530 103.920,224.369 104.401 C 223.713 104.673,223.097 104.896,223.000 104.896 C 222.635 104.896,219.759 107.367,218.517 108.749 C 217.806 109.539,216.970 110.453,216.659 110.779 C 216.349 111.105,216.095 111.470,216.095 111.590 C 216.095 111.709,215.816 112.123,215.476 112.509 C 214.276 113.870,213.678 114.693,213.519 115.201 C 213.431 115.484,213.138 115.946,212.869 116.229 C 212.419 116.702,212.052 117.255,211.135 118.846 C 210.945 119.176,210.565 119.730,210.291 120.079 C 210.016 120.428,209.792 120.832,209.792 120.977 C 209.792 121.122,209.530 121.590,209.210 122.016 C 208.556 122.889,208.556 124.209,209.211 125.509 C 209.403 125.890,209.672 127.004,209.808 127.985 C 209.945 128.965,210.238 130.173,210.460 130.669 C 210.682 131.165,210.937 132.279,211.026 133.146 C 211.115 134.012,211.377 135.112,211.607 135.590 C 211.837 136.067,212.142 137.283,212.284 138.291 C 212.426 139.299,212.729 140.555,212.957 141.083 C 213.184 141.610,213.477 142.811,213.608 143.752 C 213.739 144.693,213.993 145.781,214.172 146.170 C 214.351 146.559,214.611 147.731,214.750 148.775 C 214.888 149.819,215.186 151.034,215.410 151.476 C 215.635 151.918,215.928 152.984,216.062 153.846 C 216.195 154.707,216.498 155.673,216.734 155.993 C 216.970 156.312,217.238 156.914,217.329 157.329 C 217.525 158.222,219.278 160.028,219.998 160.080 C 221.213 160.168,223.184 159.408,224.315 158.415 C 225.223 157.618,227.929 154.887,228.423 154.269 C 230.073 152.204,231.080 150.714,231.557 149.634 C 231.854 148.960,232.864 148.767,233.382 149.285 C 233.909 149.812,233.622 151.475,232.859 152.326 C 232.355 152.888,231.506 154.148,230.956 155.149 C 230.700 155.613,230.390 155.993,230.266 155.993 C 230.141 155.993,229.936 156.265,229.810 156.598 C 229.683 156.931,229.389 157.412,229.157 157.667 C 228.190 158.729,221.925 164.924,221.342 165.395 C 220.378 166.173,218.281 167.473,217.990 167.473 C 217.847 167.473,217.441 167.701,217.087 167.980 C 216.272 168.621,212.212 168.749,211.743 168.149 C 211.599 167.963,211.109 167.640,210.657 167.431 C 210.204 167.221,209.647 166.780,209.419 166.451 C 209.191 166.121,208.725 165.543,208.385 165.166 C 208.044 164.789,207.766 164.341,207.766 164.171 C 207.766 164.001,207.520 163.484,207.219 163.023 C 206.918 162.561,206.604 161.677,206.520 161.058 C 206.436 160.439,206.175 159.598,205.941 159.188 C 205.707 158.779,205.402 157.715,205.264 156.825 C 205.126 155.934,204.832 154.746,204.611 154.184 C 204.390 153.622,204.137 152.559,204.050 151.821 C 203.962 151.082,203.703 150.045,203.474 149.515 C 203.246 148.986,202.946 147.727,202.807 146.718 C 202.669 145.708,202.361 144.369,202.122 143.741 C 201.883 143.114,201.581 141.741,201.450 140.690 C 201.015 137.194,199.364 136.031,198.514 138.622 C 198.365 139.077,198.064 139.575,197.845 139.730 C 197.626 139.885,197.385 140.295,197.309 140.641 C 197.233 140.988,196.942 141.519,196.663 141.823 C 196.384 142.126,196.021 142.704,195.856 143.106 C 195.691 143.509,195.478 143.838,195.383 143.838 C 195.287 143.838,195.039 144.264,194.830 144.785 C 194.622 145.306,194.256 145.869,194.018 146.036 C 193.780 146.203,193.585 146.472,193.585 146.633 C 193.585 146.795,193.279 147.313,192.904 147.784 C 192.530 148.254,192.165 148.876,192.092 149.165 C 192.020 149.454,191.872 149.690,191.765 149.690 C 191.658 149.690,191.402 150.020,191.196 150.422 C 190.990 150.824,190.531 151.486,190.177 151.893 C 189.823 152.300,189.533 152.776,189.533 152.951 C 189.533 153.126,189.397 153.351,189.231 153.450 C 189.064 153.549,188.735 153.932,188.499 154.301 C 188.263 154.671,187.939 155.126,187.778 155.314 C 186.769 156.497,185.931 157.645,185.931 157.846 C 185.931 157.975,185.703 158.304,185.425 158.578 C 185.146 158.851,184.585 159.471,184.177 159.954 C 182.835 161.546,179.308 164.997,179.023 164.997 C 178.870 164.997,178.636 165.200,178.503 165.447 C 178.371 165.695,178.154 165.898,178.021 165.898 C 177.889 165.898,177.337 166.197,176.794 166.563 C 176.251 166.930,175.426 167.332,174.960 167.458 C 174.495 167.584,173.860 167.867,173.551 168.087 C 172.733 168.667,168.180 168.673,167.539 168.095 C 167.301 167.880,166.751 167.576,166.318 167.420 C 164.122 166.628,162.871 164.647,162.864 161.949 C 162.858 159.728,162.906 159.620,164.776 157.584 C 166.313 155.910,170.969 155.792,172.157 157.397 C 172.319 157.615,172.593 157.794,172.767 157.794 C 172.940 157.794,173.365 158.052,173.711 158.367 C 175.976 160.436,177.784 160.887,179.287 159.761 C 180.386 158.936,184.131 155.046,184.131 154.728 C 184.131 154.566,184.328 154.328,184.569 154.199 C 184.811 154.069,185.140 153.721,185.301 153.424 C 185.462 153.127,186.125 152.194,186.775 151.351 C 187.425 150.508,187.957 149.693,187.957 149.541 C 187.957 149.388,188.118 149.173,188.315 149.063 C 188.680 148.858,189.351 147.844,190.245 146.145 C 190.522 145.619,190.835 145.189,190.941 145.189 C 191.047 145.189,191.337 144.758,191.585 144.232 C 192.038 143.271,192.859 141.991,193.426 141.362 C 193.594 141.176,193.869 140.670,194.038 140.236 C 194.208 139.803,194.475 139.369,194.633 139.273 C 194.791 139.176,195.110 138.669,195.341 138.147 C 195.573 137.625,195.931 137.059,196.137 136.889 C 196.343 136.719,196.511 136.397,196.511 136.174 C 196.511 135.951,196.758 135.476,197.059 135.118 C 197.361 134.759,197.679 134.169,197.766 133.806 C 197.854 133.443,198.112 132.966,198.341 132.746 C 199.148 131.969,199.217 128.760,198.453 127.593 C 198.246 127.278,197.934 126.209,197.760 125.218 C 197.586 124.227,197.283 123.033,197.088 122.565 C 196.892 122.098,196.669 121.147,196.592 120.452 C 196.515 119.758,196.222 118.633,195.942 117.952 C 195.662 117.271,195.319 115.973,195.180 115.067 C 195.041 114.162,194.773 113.186,194.585 112.900 C 194.397 112.613,194.140 111.735,194.014 110.950 C 193.887 110.164,193.600 109.215,193.375 108.840 C 193.151 108.466,192.903 107.886,192.824 107.550 C 192.745 107.215,192.428 106.669,192.120 106.336 C 191.811 106.003,191.559 105.611,191.559 105.464 C 191.559 104.345,187.823 101.468,185.738 100.981 C 184.964 100.801,184.173 100.523,183.981 100.363 C 183.742 100.165,182.451 100.035,179.886 99.952 C 175.631 99.813,175.508 99.779,175.872 98.814 C 176.157 98.059,177.049 97.696,178.623 97.694 C 179.122 97.693,180.084 97.537,180.761 97.346 C 181.438 97.156,183.321 96.812,184.946 96.582 C 186.571 96.352,188.119 96.047,188.385 95.904 C 188.652 95.761,190.159 95.498,191.734 95.319 C 193.309 95.140,195.003 94.846,195.498 94.665 C 196.699 94.226,196.587 94.196,197.563 95.221 " stroke="none" fill="#747474" fill-rule="evenodd"></path><path id="path4" d="M194.615 56.287 C 194.130 56.409,193.623 56.598,193.490 56.706 C 193.356 56.815,192.791 57.038,192.234 57.202 C 189.796 57.922,185.487 61.818,184.712 64.004 C 184.573 64.395,184.290 64.969,184.082 65.279 C 183.875 65.588,183.597 66.329,183.464 66.925 C 183.331 67.521,183.062 68.253,182.866 68.551 C 182.631 68.910,182.404 70.221,182.197 72.420 C 182.025 74.249,181.822 76.032,181.747 76.383 C 181.547 77.318,182.355 78.109,183.509 78.109 C 184.758 78.109,185.216 77.790,185.367 76.812 C 185.439 76.349,185.742 75.160,186.041 74.170 C 186.339 73.180,186.644 71.989,186.718 71.525 C 186.792 71.061,186.954 70.681,187.079 70.681 C 187.203 70.681,187.455 70.322,187.638 69.883 C 187.821 69.445,188.146 69.025,188.358 68.950 C 188.571 68.876,188.899 68.625,189.087 68.393 C 190.011 67.253,194.964 67.290,196.422 68.448 C 196.876 68.810,197.432 69.105,197.656 69.105 C 197.880 69.105,198.325 69.347,198.644 69.643 C 198.963 69.939,199.547 70.315,199.940 70.478 C 200.334 70.641,200.838 70.956,201.060 71.178 C 201.282 71.400,201.600 71.581,201.767 71.581 C 201.935 71.581,202.390 71.885,202.778 72.257 C 203.167 72.628,203.671 72.932,203.898 72.932 C 204.125 72.932,204.549 73.185,204.840 73.495 C 205.130 73.804,205.495 74.057,205.649 74.057 C 205.804 74.057,206.217 74.295,206.567 74.586 C 206.917 74.877,207.507 75.188,207.878 75.278 C 208.250 75.368,208.769 75.642,209.032 75.888 C 209.295 76.133,210.040 76.474,210.687 76.645 C 211.334 76.815,212.034 77.110,212.244 77.300 C 212.453 77.489,213.481 77.796,214.528 77.983 C 215.575 78.169,216.964 78.445,217.614 78.597 C 218.504 78.805,219.060 78.812,219.865 78.625 C 223.163 77.857,224.162 77.546,224.869 77.065 C 225.300 76.773,225.779 76.533,225.933 76.533 C 226.088 76.533,226.380 76.280,226.582 75.971 C 226.785 75.661,227.089 75.408,227.258 75.408 C 227.426 75.408,227.730 75.155,227.933 74.845 C 228.136 74.536,228.442 74.282,228.613 74.282 C 228.785 74.282,228.925 74.177,228.925 74.047 C 228.925 73.918,229.178 73.559,229.487 73.250 C 229.796 72.941,230.197 72.401,230.379 72.050 C 230.561 71.698,230.855 71.355,231.034 71.286 C 231.213 71.218,231.424 70.863,231.504 70.499 C 231.584 70.134,231.894 69.506,232.192 69.102 C 232.490 68.698,232.803 67.906,232.887 67.341 C 232.972 66.777,233.235 65.878,233.472 65.342 C 234.309 63.449,234.389 57.576,233.592 56.556 C 233.259 56.130,231.755 56.206,231.361 56.669 C 230.873 57.242,230.116 59.525,229.812 61.339 C 229.658 62.258,229.371 63.109,229.124 63.380 C 228.891 63.635,228.700 63.973,228.700 64.131 C 228.700 64.288,228.033 65.078,227.217 65.886 L 225.734 67.354 223.447 67.268 C 221.546 67.196,221.045 67.099,220.484 66.694 C 220.113 66.426,219.378 66.095,218.852 65.959 C 218.326 65.823,217.895 65.608,217.895 65.482 C 217.895 65.356,217.418 65.042,216.835 64.784 C 216.251 64.526,215.636 64.177,215.468 64.009 C 215.300 63.841,215.013 63.703,214.830 63.703 C 214.648 63.703,214.233 63.437,213.909 63.113 C 213.584 62.789,212.998 62.389,212.607 62.226 C 212.215 62.062,211.763 61.770,211.603 61.577 C 211.443 61.385,211.208 61.227,211.080 61.227 C 210.952 61.227,210.508 60.968,210.094 60.652 C 209.679 60.336,209.011 59.965,208.609 59.828 C 208.207 59.691,207.592 59.342,207.242 59.052 C 206.892 58.763,206.374 58.526,206.091 58.526 C 205.807 58.526,205.306 58.313,204.976 58.054 C 204.646 57.794,203.766 57.440,203.021 57.266 C 202.276 57.092,201.347 56.785,200.956 56.583 C 200.104 56.142,195.961 55.949,194.615 56.287 M200.288 56.926 C 200.996 57.161,201.930 57.426,202.364 57.515 C 204.219 57.895,209.021 60.335,212.581 62.706 C 214.391 63.911,216.686 65.274,216.911 65.276 C 217.051 65.277,217.287 65.425,217.436 65.605 C 217.584 65.784,218.078 66.052,218.532 66.200 C 218.987 66.348,219.585 66.646,219.862 66.861 C 220.979 67.728,224.958 67.977,226.304 67.264 C 227.583 66.586,229.631 63.820,229.941 62.352 C 230.032 61.919,230.297 61.080,230.529 60.487 C 230.761 59.894,230.951 59.135,230.952 58.799 C 230.954 56.972,232.810 55.990,233.551 57.423 C 234.018 58.325,233.816 62.452,233.200 64.603 C 232.970 65.408,232.711 66.421,232.625 66.854 C 232.539 67.288,232.178 68.188,231.822 68.856 C 231.467 69.523,231.176 70.194,231.176 70.347 C 231.176 70.501,231.010 70.763,230.808 70.931 C 230.605 71.100,230.209 71.603,229.927 72.050 C 228.945 73.604,226.282 75.917,224.423 76.830 C 221.347 78.340,214.974 78.409,212.579 76.959 C 212.193 76.725,211.737 76.533,211.566 76.532 C 211.395 76.531,210.293 76.036,209.116 75.433 C 205.910 73.789,205.404 73.504,204.725 72.971 C 204.383 72.702,204.005 72.482,203.885 72.482 C 203.765 72.482,203.386 72.254,203.043 71.975 C 202.701 71.697,202.080 71.266,201.665 71.019 C 201.250 70.771,200.452 70.295,199.892 69.961 C 199.332 69.628,198.520 69.187,198.087 68.983 C 197.653 68.779,197.096 68.429,196.849 68.205 C 193.630 65.296,187.029 67.610,186.257 71.919 C 186.169 72.414,185.962 73.085,185.798 73.410 C 185.633 73.735,185.388 74.693,185.253 75.540 C 184.954 77.409,184.768 77.659,183.669 77.659 C 182.563 77.659,182.057 77.166,182.203 76.230 C 182.263 75.840,182.377 74.508,182.457 73.270 C 182.536 72.032,182.749 70.613,182.929 70.118 C 183.110 69.623,183.405 68.610,183.585 67.867 C 185.418 60.306,193.840 54.789,200.288 56.926 M193.697 93.790 C 193.450 93.844,192.893 94.028,192.459 94.201 C 192.026 94.373,190.608 94.628,189.308 94.767 C 188.008 94.906,186.286 95.208,185.481 95.437 C 184.676 95.666,182.756 95.971,181.213 96.115 C 179.670 96.260,178.201 96.495,177.949 96.639 C 177.696 96.783,176.937 97.053,176.262 97.240 C 175.096 97.563,175.024 97.625,174.848 98.474 C 174.402 100.625,175.462 101.293,179.325 101.296 C 183.412 101.299,185.852 101.637,186.655 102.313 C 187.019 102.619,187.486 102.871,187.693 102.873 C 188.022 102.875,188.943 103.676,190.419 105.242 C 190.657 105.495,190.918 105.969,191.000 106.295 C 191.082 106.622,191.341 107.062,191.575 107.274 C 191.809 107.486,192.067 108.025,192.148 108.472 C 192.229 108.919,192.525 109.743,192.805 110.302 C 193.085 110.861,193.385 111.925,193.472 112.666 C 193.559 113.406,193.861 114.519,194.143 115.138 C 194.425 115.757,194.729 116.870,194.819 117.612 C 194.908 118.353,195.169 119.329,195.399 119.780 C 195.629 120.231,195.886 121.295,195.970 122.146 C 196.054 122.996,196.328 124.097,196.579 124.592 C 196.829 125.087,197.159 126.334,197.313 127.363 C 197.468 128.407,197.751 129.410,197.952 129.632 C 198.400 130.128,198.421 131.142,197.987 131.309 C 197.808 131.378,197.534 131.870,197.377 132.402 C 197.220 132.935,196.810 133.766,196.464 134.249 C 196.118 134.732,195.836 135.309,195.836 135.532 C 195.836 135.755,195.691 136.018,195.514 136.117 C 195.337 136.216,194.986 136.778,194.734 137.366 C 194.482 137.954,194.179 138.436,194.060 138.436 C 193.942 138.436,193.733 138.775,193.596 139.190 C 193.459 139.605,193.096 140.180,192.790 140.468 C 192.484 140.755,192.234 141.176,192.234 141.403 C 192.234 141.629,191.981 142.035,191.671 142.304 C 191.362 142.573,191.109 142.913,191.109 143.060 C 191.109 143.206,190.805 143.708,190.433 144.176 C 190.062 144.643,189.758 145.189,189.758 145.389 C 189.758 145.589,189.454 146.040,189.083 146.390 C 188.711 146.741,188.407 147.158,188.407 147.318 C 188.407 147.479,188.240 147.748,188.035 147.918 C 187.830 148.088,187.526 148.553,187.360 148.950 C 187.194 149.348,186.852 149.905,186.600 150.189 C 185.351 151.593,184.581 152.580,184.581 152.774 C 184.581 152.892,184.328 153.226,184.018 153.517 C 183.708 153.808,183.455 154.122,183.455 154.214 C 183.455 154.307,183.177 154.673,182.836 155.026 C 182.496 155.380,181.894 156.021,181.499 156.451 C 180.206 157.856,179.273 158.694,179.000 158.694 C 178.853 158.694,178.605 158.897,178.451 159.145 C 177.882 160.055,176.818 159.699,174.580 157.850 C 174.093 157.448,173.565 157.119,173.406 157.119 C 173.247 157.119,173.008 156.916,172.876 156.669 C 172.743 156.421,172.501 156.218,172.338 156.218 C 172.176 156.218,171.547 155.955,170.941 155.633 C 169.485 154.859,167.727 154.807,166.464 155.501 C 165.970 155.772,165.431 155.993,165.264 155.993 C 164.810 155.993,162.923 158.040,162.522 158.967 C 161.808 160.620,162.004 164.963,162.820 165.560 C 163.027 165.711,163.196 165.942,163.196 166.072 C 163.196 166.346,165.185 168.149,165.488 168.149 C 165.600 168.149,165.999 168.376,166.376 168.655 C 167.019 169.130,167.283 169.162,170.625 169.162 C 173.968 169.162,174.231 169.130,174.874 168.655 C 175.250 168.376,175.669 168.149,175.804 168.149 C 176.187 168.149,177.355 167.496,177.840 167.011 C 178.081 166.770,178.424 166.573,178.603 166.573 C 178.782 166.573,179.060 166.394,179.222 166.175 C 179.384 165.956,179.809 165.590,180.168 165.360 C 181.211 164.693,185.481 160.143,185.481 159.698 C 185.481 159.615,185.734 159.348,186.044 159.104 C 186.353 158.861,186.607 158.558,186.607 158.431 C 186.607 158.304,186.885 157.914,187.226 157.564 C 188.225 156.537,189.052 155.429,189.295 154.789 C 189.420 154.461,189.619 154.192,189.737 154.192 C 189.856 154.192,190.010 154.013,190.079 153.794 C 190.149 153.574,190.515 153.056,190.893 152.643 C 191.271 152.229,191.638 151.601,191.709 151.247 C 191.780 150.894,192.022 150.546,192.247 150.474 C 192.472 150.403,192.772 149.995,192.913 149.567 C 193.054 149.140,193.266 148.790,193.385 148.790 C 193.504 148.790,193.790 148.349,194.021 147.810 C 194.252 147.270,194.593 146.771,194.780 146.699 C 194.966 146.628,195.183 146.272,195.263 145.907 C 195.343 145.543,195.652 145.017,195.948 144.738 C 196.245 144.460,196.552 143.940,196.630 143.583 C 196.709 143.226,196.949 142.839,197.165 142.724 C 197.381 142.608,197.677 142.113,197.824 141.624 C 197.971 141.134,198.232 140.679,198.404 140.613 C 198.576 140.547,198.836 140.131,198.982 139.689 C 199.321 138.662,199.602 138.673,200.017 139.730 C 200.200 140.194,200.446 140.747,200.565 140.959 C 200.684 141.171,200.881 142.224,201.003 143.298 C 201.128 144.395,201.418 145.621,201.666 146.096 C 201.914 146.572,202.172 147.666,202.257 148.598 C 202.340 149.508,202.601 150.666,202.837 151.171 C 203.073 151.676,203.355 152.794,203.463 153.655 C 203.571 154.516,203.872 155.724,204.131 156.339 C 204.391 156.953,204.702 158.095,204.823 158.876 C 204.945 159.657,205.251 160.631,205.504 161.041 C 205.758 161.451,205.966 162.028,205.966 162.323 C 205.967 162.617,206.133 163.163,206.335 163.534 C 206.537 163.905,206.858 164.509,207.048 164.875 C 207.755 166.232,210.237 168.731,211.142 168.996 C 212.528 169.403,217.384 169.184,217.935 168.690 C 218.223 168.432,218.780 168.094,219.173 167.939 C 219.567 167.784,220.064 167.464,220.277 167.228 C 220.491 166.991,220.803 166.798,220.969 166.798 C 221.136 166.798,221.492 166.578,221.760 166.309 C 222.029 166.041,222.805 165.368,223.485 164.814 C 225.704 163.007,230.501 157.769,230.501 157.153 C 230.501 157.019,230.703 156.801,230.951 156.669 C 231.199 156.536,231.401 156.293,231.401 156.129 C 231.401 155.964,231.653 155.577,231.962 155.269 C 232.270 154.961,232.676 154.339,232.865 153.888 C 233.054 153.436,233.296 153.067,233.403 153.067 C 233.510 153.067,233.722 152.766,233.875 152.397 C 234.028 152.029,234.349 151.502,234.588 151.225 C 234.899 150.867,235.005 150.460,234.957 149.813 C 234.837 148.176,231.417 147.438,231.030 148.964 C 230.958 149.246,230.711 149.608,230.480 149.770 C 230.249 149.932,229.914 150.413,229.736 150.839 C 229.558 151.265,229.202 151.804,228.944 152.037 C 228.686 152.271,228.475 152.592,228.475 152.751 C 228.475 153.117,224.373 157.344,224.017 157.344 C 223.871 157.344,223.624 157.550,223.468 157.803 C 223.115 158.376,221.014 159.014,220.090 158.829 C 219.104 158.632,218.065 157.305,217.722 155.806 C 217.564 155.118,217.292 154.396,217.117 154.202 C 216.941 154.008,216.693 153.016,216.565 151.997 C 216.437 150.977,216.166 149.821,215.962 149.426 C 215.758 149.031,215.497 147.942,215.382 147.005 C 215.267 146.068,214.980 144.896,214.744 144.401 C 214.508 143.905,214.204 142.589,214.069 141.474 C 213.934 140.360,213.628 139.072,213.390 138.611 C 213.152 138.151,212.865 137.029,212.752 136.120 C 212.639 135.210,212.387 134.156,212.191 133.778 C 211.996 133.400,211.770 132.395,211.690 131.543 C 211.610 130.691,211.313 129.476,211.031 128.842 C 210.749 128.208,210.445 126.958,210.355 126.064 C 210.266 125.170,210.120 124.170,210.032 123.840 C 209.848 123.151,210.447 121.298,211.093 120.562 C 211.320 120.302,211.625 119.811,211.770 119.471 C 211.915 119.131,212.126 118.852,212.239 118.852 C 212.352 118.852,212.615 118.426,212.823 117.905 C 213.032 117.384,213.397 116.821,213.635 116.654 C 213.874 116.487,214.069 116.210,214.069 116.039 C 214.069 115.868,214.373 115.396,214.744 114.989 C 215.115 114.582,215.419 114.185,215.419 114.106 C 215.419 113.966,216.207 112.885,217.266 111.571 C 218.245 110.357,221.881 106.697,222.108 106.697 C 222.233 106.697,222.615 106.418,222.956 106.078 C 223.835 105.199,228.284 105.130,229.640 105.973 C 231.719 107.266,237.194 107.163,238.745 105.802 C 239.172 105.427,239.609 105.121,239.716 105.121 C 240.244 105.121,241.376 102.499,241.481 101.034 C 241.652 98.643,239.605 95.083,237.798 94.629 C 237.499 94.554,237.254 94.415,237.254 94.319 C 237.254 93.545,229.885 93.357,229.004 94.109 C 228.775 94.305,228.119 94.638,227.546 94.849 C 226.973 95.060,226.324 95.432,226.104 95.675 C 225.884 95.918,225.585 96.117,225.440 96.117 C 225.296 96.117,224.939 96.370,224.648 96.680 C 224.358 96.989,224.029 97.243,223.919 97.243 C 223.653 97.243,222.208 98.411,220.579 99.944 C 219.855 100.625,219.132 101.303,218.973 101.450 C 217.523 102.794,214.519 106.387,214.519 106.776 C 214.519 106.921,214.316 107.165,214.069 107.320 C 213.821 107.474,213.618 107.753,213.618 107.938 C 213.618 108.124,213.368 108.493,213.061 108.760 C 212.755 109.026,212.392 109.583,212.256 109.998 C 212.119 110.413,211.812 110.856,211.575 110.983 C 211.337 111.110,211.142 111.349,211.142 111.513 C 211.142 111.678,210.836 112.197,210.462 112.668 C 210.088 113.139,209.722 113.761,209.650 114.050 C 209.577 114.339,209.424 114.575,209.310 114.575 C 209.195 114.575,208.888 114.937,208.626 115.380 C 208.115 116.247,207.777 116.107,207.769 115.025 C 207.766 114.716,207.563 114.132,207.316 113.728 C 207.070 113.324,206.760 112.261,206.627 111.365 C 206.493 110.469,206.193 109.466,205.958 109.137 C 205.723 108.807,205.428 107.898,205.302 107.115 C 205.176 106.333,204.885 105.438,204.655 105.126 C 204.426 104.814,204.165 104.104,204.077 103.548 C 203.989 102.992,203.732 102.334,203.505 102.085 C 203.279 101.836,202.970 101.245,202.819 100.772 C 202.667 100.299,202.402 99.858,202.228 99.791 C 202.055 99.725,201.716 99.225,201.476 98.682 C 201.235 98.138,200.947 97.693,200.835 97.693 C 200.723 97.693,200.540 97.497,200.428 97.257 C 200.317 97.017,199.575 96.105,198.781 95.231 L 197.337 93.641 195.742 93.667 C 194.865 93.681,193.945 93.737,193.697 93.790 M198.203 95.098 C 199.240 96.212,199.905 97.081,201.569 99.494 C 202.257 100.491,203.939 103.955,203.939 104.373 C 203.939 104.547,204.130 105.065,204.363 105.524 C 204.597 105.983,204.912 106.967,205.065 107.710 C 205.217 108.452,205.518 109.415,205.733 109.848 C 205.948 110.281,206.250 111.293,206.404 112.096 C 206.558 112.899,206.826 113.831,207.000 114.167 C 207.174 114.503,207.316 114.963,207.316 115.189 C 207.316 116.065,207.984 116.678,208.464 116.243 C 208.699 116.030,208.891 115.756,208.891 115.633 C 208.891 115.511,209.103 115.197,209.361 114.936 C 209.619 114.676,210.472 113.450,211.257 112.212 C 212.042 110.974,212.879 109.707,213.117 109.398 C 213.355 109.088,213.682 108.582,213.843 108.272 C 214.004 107.963,214.348 107.449,214.609 107.131 C 214.869 106.812,215.335 106.207,215.644 105.785 C 217.503 103.252,221.931 99.034,224.738 97.124 C 226.950 95.617,227.941 95.000,228.151 94.996 C 228.283 94.994,228.840 94.769,229.389 94.497 C 231.264 93.568,234.817 93.621,236.856 94.608 C 241.729 96.967,242.582 102.783,238.454 105.496 L 237.141 106.359 234.328 106.359 C 231.885 106.359,231.380 106.294,230.501 105.863 C 227.951 104.616,222.397 104.706,222.397 105.995 C 222.397 106.117,222.220 106.273,222.002 106.341 C 221.420 106.526,219.040 108.856,217.482 110.767 C 216.733 111.685,215.988 112.598,215.826 112.794 C 215.664 112.991,215.431 113.310,215.307 113.504 C 215.183 113.698,214.778 114.334,214.406 114.919 C 214.035 115.503,213.503 116.208,213.225 116.486 C 212.946 116.763,212.718 117.086,212.718 117.202 C 212.718 117.319,212.194 118.219,211.553 119.202 C 209.428 122.465,209.070 123.286,209.452 124.025 C 209.633 124.375,209.891 125.405,210.025 126.315 C 210.160 127.224,210.461 128.576,210.696 129.319 C 210.930 130.062,211.277 131.510,211.467 132.536 C 211.657 133.562,211.904 134.575,212.017 134.787 C 212.129 134.999,212.391 136.078,212.598 137.185 C 212.805 138.292,213.078 139.393,213.205 139.631 C 213.333 139.868,213.627 141.116,213.859 142.404 C 214.091 143.691,214.381 144.931,214.503 145.159 C 214.625 145.387,214.835 146.264,214.970 147.107 C 215.105 147.951,215.408 149.214,215.644 149.916 C 215.881 150.617,216.184 151.882,216.319 152.726 C 216.454 153.571,216.813 154.788,217.117 155.431 C 217.421 156.074,217.670 156.744,217.670 156.920 C 217.670 157.469,219.023 158.915,219.867 159.267 C 221.626 160.002,226.752 156.277,229.172 152.504 C 229.489 152.009,230.043 151.148,230.403 150.591 C 230.762 150.034,231.162 149.376,231.291 149.130 C 231.678 148.388,233.465 148.409,234.220 149.164 C 234.761 149.706,234.126 151.680,233.055 152.787 C 232.904 152.942,232.710 153.297,232.624 153.575 C 232.537 153.853,232.201 154.404,231.877 154.800 C 231.554 155.195,230.985 155.937,230.613 156.447 C 230.242 156.957,229.772 157.558,229.570 157.784 C 229.367 158.009,229.114 158.347,229.007 158.535 C 228.197 159.961,222.424 165.434,220.259 166.829 C 214.251 170.699,209.771 169.591,206.850 163.512 C 206.487 162.757,206.190 161.943,206.190 161.703 C 206.190 161.462,205.991 160.876,205.749 160.399 C 205.506 159.923,205.140 158.711,204.936 157.707 C 204.732 156.702,204.480 155.720,204.376 155.523 C 204.272 155.326,203.983 154.186,203.733 152.989 C 203.483 151.792,203.179 150.628,203.058 150.402 C 202.937 150.176,202.679 149.003,202.485 147.797 C 202.291 146.591,201.998 145.333,201.833 145.002 C 201.669 144.671,201.354 143.317,201.132 141.993 C 200.519 138.325,199.674 137.318,198.761 139.167 C 198.251 140.201,197.331 141.800,196.644 142.846 C 196.407 143.206,195.977 143.860,195.687 144.300 C 195.397 144.740,195.160 145.218,195.160 145.362 C 195.160 145.505,194.856 145.969,194.485 146.392 C 194.114 146.815,193.810 147.239,193.810 147.333 C 193.810 147.527,192.235 149.966,191.998 150.141 C 191.913 150.203,191.625 150.658,191.356 151.154 C 191.087 151.649,190.564 152.459,190.192 152.954 C 189.821 153.450,189.267 154.209,188.961 154.643 C 188.655 155.076,188.050 155.886,187.617 156.443 C 187.183 157.001,186.647 157.727,186.426 158.058 C 185.509 159.432,180.804 164.425,179.516 165.391 C 174.759 168.959,169.401 170.159,166.575 168.289 C 166.084 167.964,165.604 167.695,165.508 167.690 C 165.171 167.674,163.725 166.223,163.080 165.255 C 162.069 163.737,162.095 160.179,163.127 158.691 C 164.219 157.115,164.982 156.520,166.736 155.871 L 168.361 155.270 169.999 155.762 C 171.660 156.261,171.835 156.353,173.438 157.555 C 177.759 160.797,178.462 160.647,182.780 155.559 C 183.337 154.902,183.945 154.193,184.131 153.983 C 184.965 153.039,185.893 151.769,186.240 151.097 C 186.448 150.695,186.716 150.366,186.836 150.366 C 186.955 150.366,187.231 150.024,187.449 149.607 C 187.667 149.190,188.342 148.101,188.951 147.187 C 189.559 146.274,190.340 145.070,190.686 144.513 C 191.033 143.956,191.528 143.196,191.787 142.825 C 192.798 141.376,193.810 139.676,193.810 139.427 C 193.810 139.284,193.970 139.033,194.165 138.871 C 194.360 138.709,194.768 138.114,195.072 137.549 C 195.375 136.984,195.886 136.066,196.208 135.509 C 198.648 131.280,198.877 130.440,198.096 128.573 C 197.853 127.993,197.542 126.869,197.404 126.074 C 197.266 125.280,197.013 124.267,196.842 123.823 C 196.671 123.380,196.376 122.241,196.186 121.293 C 195.996 120.345,195.728 119.281,195.590 118.929 C 195.453 118.577,195.154 117.396,194.927 116.304 C 194.700 115.212,194.415 114.199,194.295 114.053 C 194.175 113.907,193.951 113.129,193.797 112.324 C 193.496 110.759,192.192 107.280,191.691 106.706 C 191.524 106.515,191.323 106.156,191.246 105.909 C 190.904 104.818,188.370 102.526,186.655 101.756 C 185.369 101.178,181.607 100.619,179.005 100.619 C 175.855 100.619,175.127 100.304,175.127 98.942 C 175.127 97.741,177.137 97.080,183.400 96.220 C 184.670 96.046,186.291 95.756,187.002 95.576 C 187.713 95.396,189.207 95.138,190.321 95.003 C 191.435 94.868,193.056 94.562,193.922 94.325 C 196.529 93.611,196.877 93.673,198.203 95.098 " stroke="none" fill="#949494" fill-rule="evenodd"></path></g></svg>