<svg id="svg" version="1.1" xmlns="http://www.w3.org/2000/svg" xmlns:xlink="http://www.w3.org/1999/xlink" width="400" height="389.7435897435897" viewBox="0, 0, 400,389.7435897435897"><g id="svgg"><path id="path0" d="M0.000 194.932 L 0.000 389.864 200.000 389.864 L 400.000 389.864 400.000 194.932 L 400.000 0.000 200.000 0.000 L 0.000 0.000 0.000 194.932 M111.233 92.284 C 111.994 92.668,112.706 93.246,112.815 93.567 C 112.924 93.889,113.268 94.591,113.581 95.127 C 113.894 95.663,114.466 96.891,114.854 97.856 C 115.241 98.821,116.125 100.096,116.818 100.690 C 118.146 101.828,119.686 105.281,119.690 107.130 C 119.693 108.598,120.431 111.111,120.858 111.111 C 122.378 111.111,123.960 114.365,124.808 119.237 C 125.191 121.438,125.459 121.975,126.745 123.129 C 128.308 124.533,128.880 125.868,130.057 130.860 C 130.529 132.862,130.947 133.779,131.537 134.106 C 132.529 134.657,134.113 137.025,134.113 137.958 C 134.113 139.736,136.156 145.665,137.044 146.462 C 138.378 147.661,139.567 149.731,139.578 150.877 C 139.589 152.022,141.377 157.259,141.809 157.412 C 143.094 157.868,144.597 161.081,145.062 164.364 C 145.474 167.273,145.923 168.287,147.264 169.342 C 148.539 170.345,149.974 173.607,150.456 176.600 C 150.675 177.963,151.178 179.432,151.580 179.884 C 151.980 180.334,152.669 181.111,153.113 181.611 C 153.993 182.604,155.341 186.505,155.951 189.827 C 156.267 191.549,156.611 192.169,157.828 193.211 C 159.327 194.494,160.419 197.226,161.242 201.754 C 161.445 202.868,161.960 203.704,163.047 204.678 C 164.456 205.942,164.639 206.356,165.522 210.294 C 166.466 214.501,166.933 215.594,167.787 215.595 C 168.508 215.596,170.255 219.155,170.554 221.233 C 170.920 223.773,171.893 226.184,172.823 226.854 C 173.762 227.529,175.826 231.838,175.834 233.138 C 175.846 235.078,177.491 238.986,178.295 238.986 C 178.950 238.986,180.897 243.287,180.897 244.733 C 180.897 246.945,181.927 249.414,183.384 250.693 C 184.160 251.375,184.795 252.186,184.795 252.496 C 184.795 252.806,185.075 253.601,185.417 254.263 C 185.759 254.924,186.188 256.522,186.371 257.813 C 186.653 259.812,186.936 260.400,188.268 261.757 C 189.899 263.420,191.090 266.322,191.637 269.973 C 191.814 271.149,192.280 272.199,192.935 272.890 C 194.633 274.684,195.322 275.617,195.322 276.125 C 195.322 276.391,195.758 278.012,196.290 279.727 C 196.823 281.442,197.262 283.245,197.265 283.732 C 197.269 284.265,197.619 284.779,198.148 285.025 C 199.588 285.695,200.415 287.190,201.213 290.567 C 201.629 292.324,202.142 294.298,202.354 294.953 L 202.739 296.144 205.463 295.776 C 207.719 295.470,208.187 295.283,208.187 294.687 C 208.187 291.330,210.936 284.589,212.537 284.021 C 212.974 283.865,213.396 282.816,213.838 280.784 C 214.894 275.931,215.539 274.410,217.372 272.450 C 218.691 271.040,219.104 270.293,219.108 269.315 C 219.119 266.310,220.804 262.035,222.386 260.998 C 223.478 260.283,224.046 258.948,224.287 256.530 C 224.533 254.054,226.324 250.344,227.485 249.903 C 228.477 249.526,228.993 248.162,229.633 244.228 C 230.030 241.789,230.867 240.008,232.372 238.402 C 233.550 237.145,235.088 233.098,235.088 231.256 C 235.088 230.636,235.526 229.482,236.062 228.692 C 236.598 227.902,237.037 227.100,237.037 226.910 C 237.037 226.719,237.344 226.465,237.719 226.344 C 238.548 226.079,239.518 223.680,240.174 220.273 C 240.822 216.907,242.322 214.425,243.708 214.425 C 243.879 214.425,244.132 213.767,244.270 212.963 C 245.217 207.429,246.889 203.696,248.708 203.055 C 248.913 202.983,249.366 201.535,249.716 199.837 C 250.586 195.609,251.350 193.778,252.832 192.364 C 254.145 191.113,254.626 189.965,255.349 186.355 C 255.880 183.705,257.098 181.121,258.243 180.216 C 259.470 179.247,260.429 177.130,260.429 175.393 C 260.429 173.053,261.861 169.676,263.133 169.019 C 264.445 168.340,264.990 167.112,265.663 163.317 C 266.221 160.169,267.180 158.169,268.461 157.484 C 269.072 157.156,269.558 156.032,270.359 153.083 C 271.844 147.625,271.990 147.299,273.416 146.237 C 274.577 145.372,276.426 139.871,276.415 137.313 C 276.413 136.741,276.557 136.538,278.681 134.113 C 279.768 132.872,280.299 131.845,280.495 130.604 C 280.869 128.231,282.271 123.587,282.613 123.587 C 283.889 123.587,285.770 120.835,285.770 118.968 C 285.770 115.824,287.988 111.111,289.468 111.111 C 289.897 111.111,290.519 109.036,291.038 105.876 C 291.361 103.906,292.656 101.100,293.931 99.606 C 294.481 98.961,295.719 97.186,296.681 95.662 C 300.892 88.992,309.744 89.922,313.634 97.443 C 315.250 100.568,313.834 107.880,311.381 109.081 C 310.280 109.619,309.170 112.465,309.153 114.788 C 309.142 116.367,307.833 119.205,306.444 120.663 C 305.288 121.876,303.704 126.051,303.704 127.885 C 303.704 128.463,303.265 129.582,302.729 130.372 C 302.193 131.162,301.754 131.947,301.754 132.115 C 301.754 132.284,301.357 132.635,300.871 132.894 C 300.165 133.273,299.798 134.163,299.036 137.346 C 298.015 141.614,297.500 142.723,295.831 144.250 C 295.144 144.878,294.616 145.917,294.343 147.173 C 293.219 152.361,292.451 154.151,290.837 155.338 C 289.484 156.334,289.279 156.684,289.279 157.998 C 289.279 160.661,287.481 165.346,285.953 166.667 C 284.797 167.666,284.513 168.266,284.011 170.761 C 283.335 174.122,282.076 177.152,280.773 178.558 C 279.362 180.079,278.363 182.286,278.354 183.903 C 278.343 185.774,277.135 188.460,275.701 189.802 C 274.156 191.247,273.829 191.985,273.151 195.560 C 272.479 199.103,271.539 201.036,270.341 201.337 C 269.462 201.558,269.297 201.999,267.811 208.109 C 267.076 211.128,266.693 211.976,265.520 213.185 C 264.206 214.540,261.988 220.268,261.988 222.310 C 261.988 222.639,261.282 223.636,260.419 224.525 C 259.037 225.949,258.719 226.649,257.758 230.382 C 256.736 234.349,256.549 234.733,254.844 236.367 C 253.254 237.890,253.021 238.317,253.021 239.711 C 253.021 242.664,251.518 246.346,249.864 247.440 C 248.505 248.340,248.371 248.603,247.956 251.202 C 247.272 255.487,246.727 256.950,245.280 258.398 C 243.794 259.883,242.495 262.889,242.495 264.840 C 242.495 266.445,240.793 269.925,239.516 270.929 C 238.460 271.760,237.037 275.338,237.037 277.165 C 237.037 278.271,236.353 280.286,235.836 280.702 C 235.703 280.809,235.386 281.291,235.132 281.774 C 234.878 282.256,234.456 282.651,234.195 282.651 C 233.567 282.651,232.972 284.147,232.178 287.719 C 231.325 291.558,229.735 294.347,228.400 294.347 C 228.219 294.347,228.068 294.829,228.065 295.419 C 228.055 297.886,225.868 303.405,224.398 304.675 C 223.240 305.676,222.922 306.281,222.639 308.024 C 222.138 311.101,220.857 314.496,219.606 316.064 C 217.636 318.533,217.259 319.317,217.005 321.479 C 216.669 324.338,215.414 326.887,213.450 328.697 C 212.561 329.516,211.519 330.770,211.135 331.483 C 208.904 335.627,201.538 335.604,199.349 331.447 C 198.926 330.643,197.975 329.710,197.123 329.261 C 195.336 328.320,193.976 325.862,193.651 322.984 C 193.361 320.429,192.732 319.097,191.562 318.564 C 190.196 317.942,188.864 314.590,188.127 309.923 C 187.999 309.112,187.310 307.853,186.462 306.879 C 184.791 304.961,184.051 303.192,183.021 298.654 C 182.477 296.255,182.100 295.350,181.589 295.217 C 181.208 295.117,180.897 294.914,180.897 294.765 C 180.897 294.616,180.587 294.154,180.209 293.738 C 179.495 292.955,177.388 286.186,177.388 284.678 C 177.388 284.206,177.240 283.821,177.059 283.821 C 175.595 283.821,174.159 281.377,173.277 277.388 C 172.448 273.637,171.698 271.735,171.047 271.734 C 170.373 271.734,168.421 268.132,168.421 266.889 C 168.421 265.188,166.933 261.316,165.872 260.254 C 164.694 259.076,162.972 255.537,162.967 254.283 C 162.958 252.139,161.651 248.660,160.723 248.307 C 159.488 247.837,157.897 244.290,157.505 241.133 C 157.154 238.305,157.045 238.074,155.352 236.587 C 154.016 235.414,152.437 231.272,152.437 228.940 C 152.437 227.990,151.981 227.186,150.547 225.601 C 148.738 223.604,146.979 219.178,146.979 216.623 C 146.979 216.253,146.101 214.896,145.029 213.608 C 143.957 212.320,143.078 210.880,143.075 210.409 C 143.072 209.937,142.721 208.440,142.295 207.080 C 141.869 205.721,141.520 204.254,141.520 203.819 C 141.520 203.385,140.810 202.392,139.942 201.612 C 138.526 200.340,138.270 199.816,137.446 196.491 C 136.260 191.705,135.815 190.608,134.973 190.387 C 134.088 190.156,132.719 187.114,132.368 184.600 C 132.032 182.193,131.153 180.268,129.794 178.966 C 128.550 177.775,127.096 174.403,127.096 172.711 C 127.096 171.264,125.299 167.286,124.510 166.983 C 123.546 166.613,122.056 162.833,121.610 159.631 C 121.157 156.372,121.024 155.945,120.463 155.945 C 119.026 155.945,116.179 149.976,116.179 146.964 C 116.179 146.021,115.782 145.330,114.522 144.085 C 113.031 142.611,112.753 142.023,111.736 138.183 C 110.851 134.844,110.329 133.608,109.331 132.491 C 107.760 130.732,107.386 130.025,107.056 128.192 C 106.530 125.276,105.167 121.800,104.104 120.663 C 102.752 119.216,101.756 117.287,101.749 116.101 C 101.738 114.061,100.164 110.186,98.816 108.876 C 94.583 104.765,95.599 95.482,100.589 92.667 C 103.469 91.043,108.417 90.865,111.233 92.284 " stroke="none" fill="#fbfbfb" fill-rule="evenodd"></path><path id="path1" d="M303.818 95.617 C 303.597 96.101,302.642 96.883,301.695 97.356 C 299.821 98.292,298.246 100.104,298.246 101.323 C 298.246 102.585,297.619 103.812,296.183 105.360 C 295.438 106.164,294.732 107.216,294.615 107.699 C 294.497 108.182,294.132 109.366,293.803 110.331 C 293.475 111.296,293.017 112.831,292.787 113.742 C 292.542 114.711,291.744 116.074,290.862 117.029 C 289.706 118.280,289.239 119.212,288.858 121.026 C 287.930 125.444,286.240 129.045,285.094 129.045 C 284.573 129.045,283.821 130.834,283.816 132.085 C 283.806 134.629,281.601 139.747,280.343 140.146 C 279.484 140.419,278.902 141.910,278.364 145.218 C 277.960 147.695,276.722 150.393,275.639 151.151 C 274.784 151.750,272.901 156.344,272.914 157.801 C 272.925 159.136,270.927 163.351,270.283 163.352 C 269.640 163.353,268.424 166.138,267.814 169.006 C 267.206 171.868,266.207 173.961,264.994 174.915 C 264.154 175.576,263.314 177.889,261.984 183.203 C 261.790 183.980,260.991 185.139,260.065 185.985 C 258.933 187.020,258.475 187.754,258.464 188.551 C 258.430 191.104,256.665 195.852,255.298 197.068 C 253.957 198.262,253.021 199.903,253.021 201.064 C 253.021 203.157,251.264 207.987,250.046 209.241 C 248.463 210.871,247.707 212.484,247.424 214.832 C 247.306 215.807,246.940 217.122,246.610 217.756 C 246.279 218.390,246.008 219.115,246.006 219.367 C 246.005 219.620,245.468 220.246,244.813 220.759 C 243.520 221.771,242.539 224.014,242.512 226.022 C 242.489 227.776,240.565 231.835,239.535 232.304 C 238.687 232.691,237.037 237.089,237.037 238.965 C 237.037 240.039,235.656 242.743,234.532 243.866 C 233.463 244.935,232.076 248.308,231.728 250.682 C 231.417 252.816,231.100 253.461,229.462 255.298 C 228.056 256.873,227.223 258.936,226.443 262.768 C 226.013 264.886,225.666 265.559,224.328 266.868 C 223.040 268.128,222.671 268.813,222.438 270.377 C 221.860 274.260,220.636 277.177,219.053 278.450 C 217.841 279.424,217.534 279.960,217.342 281.436 C 216.977 284.241,215.209 288.990,214.173 289.950 C 213.049 290.992,211.696 294.003,211.696 295.462 C 211.696 296.952,209.181 302.027,208.317 302.280 C 205.013 303.248,202.780 303.388,201.849 302.687 C 200.778 301.879,199.220 298.660,199.220 297.255 C 199.220 295.796,197.662 292.003,196.551 290.755 C 195.303 289.355,193.799 285.950,193.778 284.479 C 193.758 283.122,191.987 279.293,191.247 279.009 C 190.312 278.650,188.304 273.357,188.304 271.250 C 188.304 269.799,187.748 268.789,186.203 267.432 C 184.889 266.278,184.046 264.119,183.219 259.790 C 182.882 258.028,182.540 257.278,181.924 256.948 C 180.630 256.256,179.499 254.229,178.970 251.657 C 178.706 250.370,178.241 248.742,177.939 248.037 C 177.636 247.333,177.388 246.510,177.388 246.208 C 177.388 245.906,177.069 245.429,176.679 245.149 C 175.608 244.379,173.879 241.642,173.879 240.717 C 173.879 239.216,171.825 234.133,170.581 232.554 C 169.183 230.779,168.421 229.178,168.421 228.014 C 168.421 226.348,167.108 222.799,166.128 221.816 C 164.621 220.304,163.295 217.371,162.989 214.873 C 162.690 212.437,161.764 210.358,160.814 209.994 C 159.986 209.676,158.377 205.955,157.727 202.856 C 157.325 200.938,156.833 199.910,155.637 198.492 C 154.135 196.711,152.437 192.496,152.437 190.550 C 152.437 189.206,151.558 186.745,151.078 186.745 C 149.707 186.745,147.049 180.994,146.994 177.907 C 146.972 176.672,146.574 175.828,146.015 175.828 C 145.136 175.828,143.432 172.845,142.865 170.313 C 141.973 166.325,141.401 164.752,140.641 164.197 C 139.359 163.260,138.140 160.858,137.900 158.797 C 137.771 157.686,137.304 156.030,136.863 155.118 C 136.423 154.206,136.062 153.299,136.062 153.102 C 136.062 152.905,135.619 152.395,135.077 151.969 C 133.856 151.008,132.554 148.522,132.554 147.152 C 132.554 144.785,130.957 140.742,129.783 140.135 C 129.163 139.814,128.655 139.319,128.655 139.036 C 128.655 138.753,128.384 137.979,128.054 137.316 C 127.723 136.653,127.287 135.091,127.085 133.845 C 126.604 130.883,126.051 129.607,124.932 128.873 C 123.819 128.144,122.645 125.592,122.020 122.542 C 121.426 119.638,120.864 118.129,120.379 118.129 C 119.199 118.129,117.951 115.416,116.702 110.136 C 116.195 107.997,115.736 107.070,114.574 105.848 C 113.563 104.783,112.844 103.481,112.308 101.742 C 111.377 98.726,110.490 97.661,108.377 97.028 C 107.517 96.771,106.619 96.325,106.380 96.038 C 105.716 95.237,105.141 95.411,104.299 96.667 C 103.876 97.298,102.699 98.219,101.683 98.713 C 99.622 99.714,99.080 101.339,100.544 102.123 C 101.548 102.660,103.704 107.373,103.704 109.029 C 103.704 109.766,104.055 111.095,104.483 111.983 C 104.912 112.871,105.263 113.827,105.263 114.108 C 105.263 114.390,105.482 114.622,105.750 114.625 C 106.911 114.636,108.658 118.626,109.584 123.383 C 109.929 125.160,110.333 125.993,111.285 126.892 C 112.917 128.434,113.826 130.475,114.268 133.598 C 114.650 136.300,115.064 137.134,116.633 138.368 C 117.814 139.297,118.735 141.573,119.452 145.339 C 119.888 147.626,120.272 148.467,121.612 150.068 C 123.185 151.946,124.033 154.075,125.160 158.976 C 125.394 159.992,126.097 161.230,126.964 162.150 C 128.298 163.567,129.516 166.623,130.471 170.955 C 130.613 171.598,131.395 172.796,132.209 173.615 C 133.847 175.266,133.781 175.106,134.733 179.671 C 135.296 182.364,135.648 183.175,136.767 184.350 C 138.491 186.160,139.549 188.461,139.571 190.448 C 139.592 192.341,140.666 194.822,142.075 196.230 C 143.444 197.600,145.021 201.032,145.025 202.656 C 145.030 204.163,146.809 208.147,147.616 208.456 C 148.107 208.645,149.095 210.486,149.855 212.630 C 149.999 213.037,150.277 214.500,150.473 215.882 C 150.784 218.080,151.006 218.548,152.249 219.626 C 153.780 220.953,154.810 223.340,155.614 227.430 C 156.002 229.403,156.354 230.055,157.766 231.428 C 158.695 232.331,159.454 233.375,159.454 233.749 C 159.454 235.899,161.663 241.634,163.242 243.582 C 164.322 244.916,164.912 246.031,164.912 246.738 C 164.912 247.339,165.263 248.851,165.692 250.097 C 166.121 251.344,166.472 252.654,166.472 253.009 C 166.472 253.364,166.995 254.042,167.635 254.514 C 169.216 255.683,170.009 257.358,170.604 260.783 C 171.243 264.457,171.759 265.684,172.881 266.195 C 174.087 266.745,175.528 269.831,175.721 272.280 C 175.921 274.800,176.869 277.068,177.827 277.319 C 178.792 277.571,180.564 281.443,180.784 283.779 C 181.000 286.062,181.518 287.164,183.237 288.987 C 184.603 290.437,184.876 291.194,186.819 298.928 C 187.048 299.839,187.381 300.585,187.557 300.585 C 188.960 300.585,191.812 306.924,191.813 310.045 C 191.813 310.543,192.454 311.538,193.309 312.367 C 194.630 313.648,194.953 314.362,196.069 318.458 C 197.108 322.274,197.500 323.188,198.277 323.603 C 198.796 323.881,199.220 324.229,199.220 324.377 C 199.220 324.525,200.058 325.548,201.083 326.650 C 204.141 329.943,208.179 329.493,209.846 325.674 C 210.557 324.044,212.156 322.027,212.736 322.027 C 213.014 322.027,213.334 321.545,213.449 320.955 C 213.564 320.365,213.854 319.094,214.095 318.129 C 215.336 313.149,215.611 312.505,217.091 311.126 C 218.147 310.141,218.675 309.263,218.866 308.176 C 219.616 303.900,220.827 300.758,222.415 298.969 C 223.736 297.480,224.106 296.698,224.499 294.565 C 225.064 291.499,226.646 287.721,227.366 287.716 C 228.213 287.711,229.630 284.782,229.630 283.037 C 229.630 281.094,231.250 277.615,232.796 276.237 C 233.404 275.696,234.007 274.768,234.137 274.176 C 234.266 273.584,234.533 272.591,234.730 271.969 C 234.927 271.347,235.088 270.363,235.088 269.782 C 235.088 268.657,236.441 266.402,237.965 264.989 C 238.797 264.218,239.726 261.346,240.713 256.498 C 240.826 255.944,241.595 254.716,242.422 253.769 C 244.051 251.903,244.531 250.811,245.615 246.500 C 246.307 243.747,247.251 242.085,248.702 241.069 C 249.098 240.792,249.535 239.903,249.672 239.093 C 250.411 234.751,252.443 230.019,253.570 230.019 C 254.203 230.019,254.972 228.345,254.966 226.980 C 254.957 224.902,257.028 219.785,258.135 219.149 C 259.165 218.558,260.429 215.569,260.429 213.723 C 260.429 212.252,262.052 208.415,263.183 207.212 C 264.563 205.746,265.870 202.900,265.869 201.365 C 265.869 199.943,267.844 195.714,268.509 195.712 C 269.173 195.711,270.357 192.884,270.958 189.864 C 271.582 186.730,272.151 185.560,273.678 184.276 C 274.696 183.419,275.015 182.657,275.880 179.023 C 276.884 174.800,277.311 174.019,279.711 172.012 C 280.041 171.735,280.312 171.017,280.312 170.416 C 280.312 169.815,280.663 168.303,281.092 167.057 C 281.520 165.810,281.871 164.503,281.871 164.152 C 281.871 163.801,282.605 162.732,283.502 161.776 C 284.944 160.241,285.261 159.544,286.232 155.771 C 287.244 151.840,287.956 150.440,289.708 148.934 C 290.253 148.466,290.757 147.048,291.018 145.247 C 291.450 142.275,292.699 139.518,294.324 137.950 C 295.626 136.694,295.850 136.197,296.210 133.772 C 296.673 130.650,297.961 127.761,299.274 126.902 C 300.195 126.298,301.737 122.124,301.773 120.134 C 301.783 119.567,302.125 118.489,302.532 117.739 C 302.938 116.988,303.452 115.980,303.673 115.497 C 303.894 115.015,304.249 114.620,304.462 114.620 C 305.013 114.620,306.764 110.640,307.079 108.672 C 307.224 107.762,307.752 106.203,308.252 105.207 C 308.753 104.210,309.162 103.156,309.162 102.864 C 309.162 102.571,309.513 102.113,309.942 101.845 C 310.723 101.357,311.040 99.805,310.358 99.805 C 309.371 99.805,307.240 97.883,306.581 96.397 C 305.742 94.505,304.486 94.150,303.818 95.617 " stroke="none" fill="#0e0e0e" fill-rule="evenodd"></path><path id="path2" d="M302.824 94.298 C 300.108 95.651,296.296 99.849,296.296 101.489 C 296.296 101.626,295.714 102.664,295.003 103.794 C 293.574 106.062,292.968 107.498,292.575 109.552 C 292.297 110.999,291.085 113.519,290.043 114.815 C 289.111 115.974,287.329 120.233,287.329 121.302 C 287.329 122.333,286.006 124.989,284.795 126.389 C 283.968 127.346,282.355 131.431,281.891 133.746 C 281.562 135.389,280.377 137.622,279.475 138.298 C 278.927 138.709,276.413 145.729,276.413 146.849 C 276.413 147.060,275.624 148.249,274.659 149.491 C 273.694 150.734,272.902 152.037,272.900 152.386 C 272.887 153.933,270.891 159.073,269.473 161.209 C 268.608 162.511,267.648 164.615,267.308 165.956 C 266.567 168.879,265.178 171.927,264.463 172.201 C 264.174 172.312,263.938 172.630,263.938 172.906 C 263.938 173.183,263.501 174.173,262.968 175.106 C 262.434 176.040,261.996 177.294,261.993 177.894 C 261.990 178.494,261.637 179.711,261.209 180.599 C 260.780 181.487,260.429 182.424,260.429 182.683 C 260.429 182.941,260.189 183.245,259.895 183.357 C 259.027 183.690,257.371 187.016,256.957 189.260 C 256.488 191.792,255.137 194.771,254.139 195.470 C 253.411 195.980,251.462 200.907,251.462 202.237 C 251.462 203.008,249.853 206.189,248.552 207.992 C 248.088 208.635,247.310 210.478,246.825 212.086 C 245.620 216.076,245.346 216.693,244.050 218.330 C 243.046 219.597,240.546 226.301,240.546 227.725 C 240.546 228.026,240.151 228.716,239.669 229.258 C 238.198 230.909,237.037 232.686,237.037 233.287 C 237.037 234.083,234.782 240.635,234.414 240.907 C 233.717 241.425,232.444 243.580,231.981 245.029 C 230.447 249.824,229.516 252.222,228.926 252.891 C 227.834 254.133,226.238 257.413,226.017 258.869 C 225.789 260.374,223.990 264.543,223.415 264.898 C 222.804 265.276,221.002 269.392,220.789 270.900 C 220.526 272.753,219.259 275.576,218.140 276.803 C 217.193 277.840,215.842 281.172,215.193 284.068 C 214.976 285.038,214.105 286.744,213.248 287.879 C 212.394 289.010,211.696 290.129,211.696 290.368 C 211.696 291.283,209.378 297.643,208.798 298.321 C 208.462 298.713,208.187 299.182,208.187 299.362 C 208.187 299.542,207.003 299.892,205.556 300.138 L 202.924 300.586 201.967 299.377 C 201.044 298.211,199.577 294.225,199.063 291.488 C 198.927 290.761,198.468 289.851,198.043 289.467 C 197.618 289.082,197.271 288.612,197.271 288.422 C 197.271 288.232,196.913 287.693,196.476 287.223 C 196.039 286.754,195.588 285.928,195.475 285.388 C 195.361 284.848,194.930 283.469,194.515 282.324 C 194.101 281.179,193.762 279.949,193.762 279.591 C 193.762 279.233,193.334 278.478,192.811 277.914 C 191.633 276.643,190.253 274.115,190.253 273.226 C 190.253 271.943,188.212 266.851,187.311 265.887 C 186.132 264.624,184.815 261.701,184.804 260.320 C 184.795 259.149,182.804 254.872,181.678 253.606 C 181.053 252.904,180.458 251.376,178.940 246.589 C 178.668 245.731,177.893 244.152,177.218 243.080 C 175.719 240.699,173.879 236.485,173.879 235.433 C 173.879 234.505,172.966 232.629,171.674 230.903 C 170.674 229.567,169.961 227.826,168.811 223.912 C 168.423 222.590,167.387 220.451,166.509 219.158 C 165.631 217.865,164.912 216.624,164.912 216.401 C 164.912 215.737,162.539 208.799,162.238 208.582 C 161.538 208.078,159.453 204.460,159.445 203.734 C 159.440 203.289,159.002 201.871,158.472 200.585 C 157.942 199.298,157.508 198.048,157.507 197.806 C 157.506 197.564,157.243 197.149,156.923 196.883 C 156.010 196.126,153.996 192.394,153.996 191.461 C 153.996 189.976,152.405 185.802,151.456 184.795 C 150.290 183.559,148.548 179.835,148.538 178.558 C 148.529 177.370,146.923 173.828,145.940 172.827 C 145.175 172.049,144.532 170.575,143.593 167.446 C 142.853 164.979,141.610 162.334,140.463 160.782 C 139.972 160.118,139.571 159.376,139.571 159.133 C 139.571 157.358,136.961 151.151,135.468 149.377 C 134.530 148.262,133.135 144.465,132.654 141.715 C 132.542 141.072,131.596 139.328,130.552 137.839 C 129.509 136.350,128.653 134.859,128.650 134.525 C 128.637 132.955,126.589 127.729,125.351 126.107 C 124.595 125.117,123.878 123.838,123.758 123.264 C 123.322 121.183,121.507 116.734,120.591 115.500 C 119.437 113.946,118.149 111.164,118.137 110.203 C 118.122 108.934,116.103 104.311,115.213 103.509 C 114.737 103.080,113.855 101.589,113.251 100.195 C 111.608 96.401,110.580 95.316,107.713 94.347 L 105.246 93.514 103.890 94.352 C 103.144 94.813,102.314 95.495,102.046 95.867 C 101.779 96.238,101.290 96.643,100.961 96.765 C 100.632 96.887,99.865 97.705,99.258 98.581 L 98.153 100.175 99.077 102.817 C 99.584 104.269,100.337 105.851,100.748 106.331 C 101.464 107.165,102.980 111.002,103.696 113.794 C 103.882 114.519,104.654 116.011,105.411 117.110 C 106.209 118.270,107.348 120.858,108.125 123.282 C 108.974 125.929,109.974 128.151,110.856 129.352 C 111.621 130.394,112.424 132.024,112.641 132.973 C 113.280 135.772,114.628 139.344,115.217 139.800 C 116.094 140.479,118.128 144.623,118.137 145.751 C 118.142 146.319,118.493 147.548,118.917 148.483 C 119.341 149.418,119.688 150.373,119.688 150.606 C 119.688 150.839,120.114 151.478,120.635 152.025 C 121.917 153.374,123.587 156.796,123.587 158.074 C 123.587 159.422,125.035 162.884,126.121 164.133 C 126.994 165.137,128.653 168.754,128.657 169.663 C 128.663 171.024,129.601 173.257,130.859 174.906 C 132.151 176.598,134.113 181.380,134.113 182.835 C 134.113 183.182,134.990 184.803,136.062 186.436 C 137.135 188.069,138.012 189.641,138.012 189.930 C 138.012 191.333,140.359 197.364,141.433 198.721 C 142.511 200.081,145.029 206.538,145.029 207.941 C 145.029 208.228,145.468 208.936,146.004 209.515 C 146.540 210.093,146.979 210.711,146.979 210.889 C 146.979 211.066,147.237 211.425,147.553 211.687 C 147.869 211.950,148.234 212.804,148.365 213.587 C 148.685 215.504,149.723 218.821,150.145 219.279 C 150.333 219.482,150.487 219.893,150.487 220.191 C 150.487 220.489,150.823 221.024,151.233 221.380 C 152.278 222.288,153.996 225.724,153.996 226.908 C 153.996 227.833,154.814 229.616,158.103 235.867 C 158.836 237.261,159.440 238.791,159.445 239.268 C 159.457 240.375,161.226 244.392,162.153 245.415 C 163.002 246.352,164.912 251.062,164.912 252.218 C 164.912 253.267,166.818 256.928,167.500 257.189 C 167.965 257.368,170.370 264.059,170.370 265.174 C 170.370 265.420,171.096 266.582,171.982 267.756 C 173.040 269.157,173.830 270.777,174.280 272.470 C 175.117 275.616,176.139 278.452,176.537 278.737 C 177.338 279.309,179.338 282.907,179.346 283.790 C 179.351 284.343,179.701 285.560,180.126 286.495 C 180.550 287.430,180.897 288.446,180.897 288.753 C 180.897 289.061,181.571 290.226,182.396 291.342 C 183.221 292.459,184.080 293.986,184.305 294.737 C 185.966 300.260,186.633 302.014,187.377 302.817 C 188.572 304.107,190.253 307.798,190.253 309.134 C 190.253 310.425,191.770 313.894,192.879 315.137 C 193.811 316.183,195.322 319.730,195.322 320.873 C 195.322 322.369,197.394 325.533,200.187 328.299 L 202.908 330.994 205.450 330.972 L 207.992 330.951 209.747 328.750 C 213.422 324.141,214.677 321.959,215.203 319.258 C 215.641 317.009,217.353 313.217,218.050 312.949 C 218.685 312.706,220.188 308.910,220.688 306.289 C 220.897 305.194,221.710 303.402,222.611 302.053 C 223.469 300.768,224.172 299.594,224.172 299.444 C 224.172 299.294,224.517 298.456,224.940 297.582 C 225.362 296.707,225.876 295.243,226.082 294.328 C 226.287 293.413,226.819 292.172,227.263 291.572 C 227.707 290.971,228.070 290.297,228.070 290.074 C 228.070 289.851,228.227 289.669,228.418 289.669 C 228.894 289.669,231.579 282.697,231.579 281.460 C 231.579 281.058,233.802 277.640,234.354 277.193 C 234.486 277.086,234.893 275.945,235.258 274.659 C 236.273 271.081,237.497 267.836,237.832 267.836 C 238.415 267.836,240.546 264.182,240.546 263.183 C 240.546 262.287,241.074 260.618,242.423 257.250 C 242.650 256.682,243.027 256.099,243.260 255.955 C 243.955 255.525,246.004 251.169,246.004 250.120 C 246.004 248.978,247.829 244.822,248.581 244.253 C 249.336 243.680,251.462 238.784,251.462 237.617 C 251.462 236.386,253.042 233.201,254.149 232.201 C 254.601 231.792,254.971 231.145,254.971 230.762 C 254.971 230.379,255.116 229.976,255.293 229.866 C 255.471 229.757,255.924 228.562,256.301 227.212 C 257.114 224.297,258.415 221.501,259.342 220.674 C 259.997 220.089,261.988 214.679,261.988 213.485 C 261.988 212.864,264.220 208.955,264.808 208.546 C 264.987 208.422,265.698 206.491,266.387 204.255 C 267.077 202.019,268.105 199.577,268.672 198.828 C 270.017 197.049,271.345 194.521,271.345 193.738 C 271.345 192.635,273.172 187.854,273.922 186.994 C 275.017 185.737,276.268 183.210,276.554 181.676 C 276.943 179.586,278.387 176.135,279.327 175.049 C 280.735 173.420,281.412 172.118,281.678 170.525 C 282.025 168.445,283.126 165.302,283.508 165.302 C 283.680 165.302,283.821 165.092,283.821 164.836 C 283.821 164.580,284.230 163.922,284.731 163.374 C 285.727 162.285,286.675 159.941,287.334 156.939 C 287.567 155.878,288.451 153.994,289.298 152.753 C 290.145 151.512,290.838 150.346,290.838 150.162 C 290.838 149.978,291.092 149.318,291.403 148.695 C 291.713 148.073,292.240 146.511,292.574 145.224 C 292.908 143.938,293.531 142.410,293.959 141.829 C 294.387 141.248,294.737 140.590,294.737 140.367 C 294.737 140.144,294.893 139.961,295.084 139.961 C 295.572 139.961,298.246 132.970,298.246 131.695 C 298.246 131.494,299.035 130.222,300.000 128.870 C 300.965 127.518,301.754 126.160,301.754 125.852 C 301.754 124.657,304.086 118.476,304.994 117.263 C 306.204 115.646,307.212 113.663,307.212 112.899 C 307.212 111.933,308.740 108.149,309.702 106.731 C 312.291 102.915,312.444 100.022,310.178 97.724 C 309.236 96.769,308.315 95.741,308.132 95.440 C 307.831 94.948,305.535 93.175,305.203 93.179 C 305.129 93.180,304.058 93.683,302.824 94.298 M306.581 96.397 C 307.240 97.883,309.371 99.805,310.358 99.805 C 311.040 99.805,310.723 101.357,309.942 101.845 C 309.513 102.113,309.162 102.571,309.162 102.864 C 309.162 103.156,308.753 104.210,308.252 105.207 C 307.752 106.203,307.224 107.762,307.079 108.672 C 306.764 110.640,305.013 114.620,304.462 114.620 C 304.249 114.620,303.894 115.015,303.673 115.497 C 303.452 115.980,302.938 116.988,302.532 117.739 C 302.125 118.489,301.783 119.567,301.773 120.134 C 301.737 122.124,300.195 126.298,299.274 126.902 C 297.961 127.761,296.673 130.650,296.210 133.772 C 295.850 136.197,295.626 136.694,294.324 137.950 C 292.699 139.518,291.450 142.275,291.018 145.247 C 290.757 147.048,290.253 148.466,289.708 148.934 C 287.956 150.440,287.244 151.840,286.232 155.771 C 285.261 159.544,284.944 160.241,283.502 161.776 C 282.605 162.732,281.871 163.801,281.871 164.152 C 281.871 164.503,281.520 165.810,281.092 167.057 C 280.663 168.303,280.312 169.815,280.312 170.416 C 280.312 171.017,280.041 171.735,279.711 172.012 C 277.311 174.019,276.884 174.800,275.880 179.023 C 275.015 182.657,274.696 183.419,273.678 184.276 C 272.151 185.560,271.582 186.730,270.958 189.864 C 270.357 192.884,269.173 195.711,268.509 195.712 C 267.844 195.714,265.869 199.943,265.869 201.365 C 265.870 202.900,264.563 205.746,263.183 207.212 C 262.052 208.415,260.429 212.252,260.429 213.723 C 260.429 215.569,259.165 218.558,258.135 219.149 C 257.028 219.785,254.957 224.902,254.966 226.980 C 254.972 228.345,254.203 230.019,253.570 230.019 C 252.443 230.019,250.411 234.751,249.672 239.093 C 249.535 239.903,249.098 240.792,248.702 241.069 C 247.251 242.085,246.307 243.747,245.615 246.500 C 244.531 250.811,244.051 251.903,242.422 253.769 C 241.595 254.716,240.826 255.944,240.713 256.498 C 239.726 261.346,238.797 264.218,237.965 264.989 C 236.441 266.402,235.088 268.657,235.088 269.782 C 235.088 270.363,234.927 271.347,234.730 271.969 C 234.533 272.591,234.266 273.584,234.137 274.176 C 234.007 274.768,233.404 275.696,232.796 276.237 C 231.250 277.615,229.630 281.094,229.630 283.037 C 229.630 284.782,228.213 287.711,227.366 287.716 C 226.646 287.721,225.064 291.499,224.499 294.565 C 224.106 296.698,223.736 297.480,222.415 298.969 C 220.827 300.758,219.616 303.900,218.866 308.176 C 218.675 309.263,218.147 310.141,217.091 311.126 C 215.611 312.505,215.336 313.149,214.095 318.129 C 213.854 319.094,213.564 320.365,213.449 320.955 C 213.334 321.545,213.014 322.027,212.736 322.027 C 212.156 322.027,210.557 324.044,209.846 325.674 C 208.179 329.493,204.141 329.943,201.083 326.650 C 200.058 325.548,199.220 324.525,199.220 324.377 C 199.220 324.229,198.796 323.881,198.277 323.603 C 197.500 323.188,197.108 322.274,196.069 318.458 C 194.953 314.362,194.630 313.648,193.309 312.367 C 192.454 311.538,191.813 310.543,191.813 310.045 C 191.812 306.924,188.960 300.585,187.557 300.585 C 187.381 300.585,187.048 299.839,186.819 298.928 C 184.876 291.194,184.603 290.437,183.237 288.987 C 181.518 287.164,181.000 286.062,180.784 283.779 C 180.564 281.443,178.792 277.571,177.827 277.319 C 176.869 277.068,175.921 274.800,175.721 272.280 C 175.528 269.831,174.087 266.745,172.881 266.195 C 171.759 265.684,171.243 264.457,170.604 260.783 C 170.009 257.358,169.216 255.683,167.635 254.514 C 166.995 254.042,166.472 253.364,166.472 253.009 C 166.472 252.654,166.121 251.344,165.692 250.097 C 165.263 248.851,164.912 247.339,164.912 246.738 C 164.912 246.031,164.322 244.916,163.242 243.582 C 161.663 241.634,159.454 235.899,159.454 233.749 C 159.454 233.375,158.695 232.331,157.766 231.428 C 156.354 230.055,156.002 229.403,155.614 227.430 C 154.810 223.340,153.780 220.953,152.249 219.626 C 151.006 218.548,150.784 218.080,150.473 215.882 C 150.277 214.500,149.999 213.037,149.855 212.630 C 149.095 210.486,148.107 208.645,147.616 208.456 C 146.809 208.147,145.030 204.163,145.025 202.656 C 145.021 201.032,143.444 197.600,142.075 196.230 C 140.666 194.822,139.592 192.341,139.571 190.448 C 139.549 188.461,138.491 186.160,136.767 184.350 C 135.648 183.175,135.296 182.364,134.733 179.671 C 133.781 175.106,133.847 175.266,132.209 173.615 C 131.395 172.796,130.613 171.598,130.471 170.955 C 129.516 166.623,128.298 163.567,126.964 162.150 C 126.097 161.230,125.394 159.992,125.160 158.976 C 124.033 154.075,123.185 151.946,121.612 150.068 C 120.272 148.467,119.888 147.626,119.452 145.339 C 118.735 141.573,117.814 139.297,116.633 138.368 C 115.064 137.134,114.650 136.300,114.268 133.598 C 113.826 130.475,112.917 128.434,111.285 126.892 C 110.333 125.993,109.929 125.160,109.584 123.383 C 108.658 118.626,106.911 114.636,105.750 114.625 C 105.482 114.622,105.263 114.390,105.263 114.108 C 105.263 113.827,104.912 112.871,104.483 111.983 C 104.055 111.095,103.704 109.766,103.704 109.029 C 103.704 107.373,101.548 102.660,100.544 102.123 C 99.080 101.339,99.622 99.714,101.683 98.713 C 102.699 98.219,103.876 97.298,104.299 96.667 C 105.141 95.411,105.716 95.237,106.380 96.038 C 106.619 96.325,107.517 96.771,108.377 97.028 C 110.490 97.661,111.377 98.726,112.308 101.742 C 112.844 103.481,113.563 104.783,114.574 105.848 C 115.736 107.070,116.195 107.997,116.702 110.136 C 117.951 115.416,119.199 118.129,120.379 118.129 C 120.864 118.129,121.426 119.638,122.020 122.542 C 122.645 125.592,123.819 128.144,124.932 128.873 C 126.051 129.607,126.604 130.883,127.085 133.845 C 127.287 135.091,127.723 136.653,128.054 137.316 C 128.384 137.979,128.655 138.753,128.655 139.036 C 128.655 139.319,129.163 139.814,129.783 140.135 C 130.957 140.742,132.554 144.785,132.554 147.152 C 132.554 148.522,133.856 151.008,135.077 151.969 C 135.619 152.395,136.062 152.905,136.062 153.102 C 136.062 153.299,136.423 154.206,136.863 155.118 C 137.304 156.030,137.771 157.686,137.900 158.797 C 138.140 160.858,139.359 163.260,140.641 164.197 C 141.401 164.752,141.973 166.325,142.865 170.313 C 143.432 172.845,145.136 175.828,146.015 175.828 C 146.574 175.828,146.972 176.672,146.994 177.907 C 147.049 180.994,149.707 186.745,151.078 186.745 C 151.558 186.745,152.437 189.206,152.437 190.550 C 152.437 192.496,154.135 196.711,155.637 198.492 C 156.833 199.910,157.325 200.938,157.727 202.856 C 158.377 205.955,159.986 209.676,160.814 209.994 C 161.764 210.358,162.690 212.437,162.989 214.873 C 163.295 217.371,164.621 220.304,166.128 221.816 C 167.108 222.799,168.421 226.348,168.421 228.014 C 168.421 229.178,169.183 230.779,170.581 232.554 C 171.825 234.133,173.879 239.216,173.879 240.717 C 173.879 241.642,175.608 244.379,176.679 245.149 C 177.069 245.429,177.388 245.906,177.388 246.208 C 177.388 246.510,177.636 247.333,177.939 248.037 C 178.241 248.742,178.706 250.370,178.970 251.657 C 179.499 254.229,180.630 256.256,181.924 256.948 C 182.540 257.278,182.882 258.028,183.219 259.790 C 184.046 264.119,184.889 266.278,186.203 267.432 C 187.748 268.789,188.304 269.799,188.304 271.250 C 188.304 273.357,190.312 278.650,191.247 279.009 C 191.987 279.293,193.758 283.122,193.778 284.479 C 193.799 285.950,195.303 289.355,196.551 290.755 C 197.662 292.003,199.220 295.796,199.220 297.255 C 199.220 298.660,200.778 301.879,201.849 302.687 C 202.780 303.388,205.013 303.248,208.317 302.280 C 209.181 302.027,211.696 296.952,211.696 295.462 C 211.696 294.003,213.049 290.992,214.173 289.950 C 215.209 288.990,216.977 284.241,217.342 281.436 C 217.534 279.960,217.841 279.424,219.053 278.450 C 220.636 277.177,221.860 274.260,222.438 270.377 C 222.671 268.813,223.040 268.128,224.328 266.868 C 225.666 265.559,226.013 264.886,226.443 262.768 C 227.223 258.936,228.056 256.873,229.462 255.298 C 231.100 253.461,231.417 252.816,231.728 250.682 C 232.076 248.308,233.463 244.935,234.532 243.866 C 235.656 242.743,237.037 240.039,237.037 238.965 C 237.037 237.089,238.687 232.691,239.535 232.304 C 240.565 231.835,242.489 227.776,242.512 226.022 C 242.539 224.014,243.520 221.771,244.813 220.759 C 245.468 220.246,246.005 219.620,246.006 219.367 C 246.008 219.115,246.279 218.390,246.610 217.756 C 246.940 217.122,247.306 215.807,247.424 214.832 C 247.707 212.484,248.463 210.871,250.046 209.241 C 251.264 207.987,253.021 203.157,253.021 201.064 C 253.021 199.903,253.957 198.262,255.298 197.068 C 256.665 195.852,258.430 191.104,258.464 188.551 C 258.475 187.754,258.933 187.020,260.065 185.985 C 260.991 185.139,261.790 183.980,261.984 183.203 C 263.314 177.889,264.154 175.576,264.994 174.915 C 266.207 173.961,267.206 171.868,267.814 169.006 C 268.424 166.138,269.640 163.353,270.283 163.352 C 270.927 163.351,272.925 159.136,272.914 157.801 C 272.901 156.344,274.784 151.750,275.639 151.151 C 276.722 150.393,277.960 147.695,278.364 145.218 C 278.902 141.910,279.484 140.419,280.343 140.146 C 281.601 139.747,283.806 134.629,283.816 132.085 C 283.821 130.834,284.573 129.045,285.094 129.045 C 286.240 129.045,287.930 125.444,288.858 121.026 C 289.239 119.212,289.706 118.280,290.862 117.029 C 291.744 116.074,292.542 114.711,292.787 113.742 C 293.017 112.831,293.475 111.296,293.803 110.331 C 294.132 109.366,294.497 108.182,294.615 107.699 C 294.732 107.216,295.438 106.164,296.183 105.360 C 297.619 103.812,298.246 102.585,298.246 101.323 C 298.246 100.104,299.821 98.292,301.695 97.356 C 302.642 96.883,303.597 96.101,303.818 95.617 C 304.486 94.150,305.742 94.505,306.581 96.397 " stroke="none" fill="#646464" fill-rule="evenodd"></path><path id="path3" d="M102.073 94.752 C 97.108 98.711,96.632 102.032,100.296 107.132 C 100.887 107.955,101.610 109.495,101.902 110.552 C 102.848 113.984,103.855 116.330,105.353 118.594 C 106.168 119.826,107.015 121.733,107.258 122.882 C 107.498 124.020,108.025 125.642,108.428 126.486 C 108.832 127.331,109.162 128.252,109.162 128.533 C 109.162 128.815,109.325 129.045,109.525 129.045 C 110.005 129.045,112.671 134.396,112.671 135.360 C 112.671 136.518,114.250 140.039,115.268 141.152 C 115.769 141.700,116.179 142.325,116.179 142.541 C 116.179 142.757,116.535 143.670,116.970 144.570 C 117.405 145.469,117.925 147.076,118.127 148.140 C 118.329 149.204,118.982 150.805,119.578 151.698 C 120.175 152.591,120.973 153.780,121.353 154.341 C 121.981 155.269,123.189 158.858,123.752 161.471 C 123.875 162.044,124.594 163.322,125.348 164.310 C 126.666 166.036,128.655 171.046,128.655 172.638 C 128.655 173.059,129.428 174.454,130.373 175.737 C 131.898 177.808,133.039 180.618,133.988 184.639 C 134.094 185.088,134.605 185.949,135.122 186.551 C 135.639 187.153,136.062 187.882,136.062 188.170 C 136.062 188.458,136.210 188.694,136.390 188.694 C 136.858 188.694,137.689 190.574,138.027 192.398 C 138.467 194.770,139.804 198.138,140.710 199.156 C 141.156 199.657,141.520 200.205,141.520 200.375 C 141.520 200.545,141.772 200.893,142.078 201.147 C 142.385 201.402,142.827 202.520,143.059 203.632 C 143.645 206.432,144.986 209.754,146.001 210.916 C 147.047 212.115,148.538 215.606,148.538 216.857 C 148.538 217.966,150.292 221.678,151.397 222.907 C 152.262 223.870,152.923 225.456,153.954 229.045 C 154.323 230.331,155.273 232.396,156.065 233.633 C 156.856 234.869,157.968 237.325,158.536 239.091 C 159.971 243.556,160.946 245.624,162.066 246.580 C 162.526 246.972,164.908 253.746,164.916 254.684 C 164.919 254.949,165.708 256.215,166.671 257.497 C 167.633 258.780,168.421 260.170,168.421 260.587 C 168.421 261.967,170.440 267.221,171.415 268.381 C 172.631 269.826,173.746 272.299,174.005 274.127 C 174.230 275.720,176.022 279.909,176.733 280.507 C 177.437 281.098,179.337 285.219,179.337 286.154 C 179.337 286.607,179.688 287.703,180.117 288.591 C 180.546 289.479,180.897 290.382,180.897 290.598 C 180.897 290.814,181.313 291.439,181.823 291.986 C 182.851 293.092,184.795 297.706,184.795 299.039 C 184.795 300.016,186.127 302.654,187.348 304.094 C 187.802 304.630,188.667 306.647,189.269 308.577 C 190.666 313.051,191.769 315.629,192.614 316.394 C 193.245 316.964,194.985 321.370,195.486 323.662 C 195.612 324.239,196.855 325.879,198.247 327.307 C 199.640 328.734,200.780 330.050,200.780 330.231 C 200.780 331.142,202.640 331.774,205.322 331.774 C 208.327 331.774,208.341 331.766,210.331 329.210 C 210.975 328.384,211.983 327.152,212.573 326.473 C 213.163 325.794,213.645 325.100,213.645 324.930 C 213.645 324.761,213.891 324.346,214.191 324.007 C 214.491 323.669,214.996 322.427,215.314 321.248 C 216.244 317.797,217.361 315.061,218.221 314.126 C 219.344 312.904,220.663 310.306,220.663 309.314 C 220.663 307.842,222.634 302.807,223.395 302.337 C 223.977 301.978,226.121 297.374,226.121 296.484 C 226.121 296.045,226.730 294.551,227.475 293.164 C 230.007 288.448,231.123 285.968,231.412 284.410 C 231.672 283.007,233.458 279.597,234.492 278.527 C 234.715 278.296,235.402 276.454,236.018 274.433 C 237.421 269.829,237.606 269.433,239.216 267.588 C 239.939 266.760,240.534 265.837,240.538 265.537 C 240.549 264.737,242.893 257.551,243.220 257.316 C 244.162 256.638,245.965 253.094,246.392 251.081 C 246.669 249.777,247.045 248.617,247.229 248.504 C 247.413 248.390,247.563 247.949,247.563 247.524 C 247.563 247.099,247.922 246.367,248.359 245.897 C 249.707 244.450,251.026 241.907,251.463 239.914 C 251.986 237.528,253.446 233.918,253.888 233.918 C 254.346 233.918,256.919 228.475,256.924 227.496 C 256.929 226.512,258.683 222.686,259.611 221.637 C 260.452 220.687,261.988 217.092,261.988 216.076 C 261.988 215.669,262.426 214.474,262.961 213.419 C 263.496 212.364,263.935 211.276,263.936 211.001 C 263.937 210.727,264.194 210.403,264.508 210.283 C 265.159 210.033,267.446 204.384,267.446 203.027 C 267.446 202.139,268.805 199.804,270.264 198.186 C 270.680 197.724,271.167 196.759,271.345 196.042 C 272.388 191.859,273.413 189.207,274.657 187.476 C 275.531 186.259,276.593 183.887,277.469 181.197 C 278.242 178.820,279.155 176.580,279.496 176.220 C 280.938 174.699,281.329 173.863,282.875 169.006 C 283.489 167.076,284.320 165.146,284.720 164.717 C 285.852 163.507,287.192 160.603,287.478 158.742 C 287.744 157.019,289.837 152.437,290.359 152.437 C 290.808 152.437,292.427 148.669,292.670 147.059 C 292.899 145.539,294.440 142.256,295.545 140.936 C 296.340 139.985,298.246 135.240,298.246 134.210 C 298.246 133.240,300.011 129.758,300.794 129.183 C 301.433 128.713,303.704 122.736,303.704 121.522 C 303.704 121.133,304.406 119.781,305.264 118.518 C 306.222 117.107,307.297 114.721,308.052 112.331 C 308.728 110.192,309.689 107.945,310.188 107.339 C 310.688 106.734,311.264 106.037,311.469 105.793 C 313.222 103.704,312.849 99.332,310.741 97.255 C 309.880 96.406,309.166 95.536,309.154 95.322 C 309.113 94.547,306.303 92.788,305.109 92.788 C 302.437 92.788,297.547 96.649,296.437 99.635 C 296.115 100.499,294.296 103.407,293.885 103.713 C 293.734 103.826,292.999 105.783,292.253 108.062 C 291.413 110.625,290.289 113.094,289.306 114.534 C 288.343 115.945,287.573 117.624,287.350 118.800 C 286.873 121.317,285.197 125.091,284.425 125.388 C 284.093 125.515,283.820 125.820,283.819 126.065 C 283.818 126.310,283.380 127.374,282.844 128.429 C 282.309 129.484,281.871 130.764,281.871 131.274 C 281.871 131.784,281.520 132.928,281.092 133.815 C 280.663 134.703,280.312 135.606,280.312 135.822 C 280.312 136.038,279.902 136.663,279.401 137.211 C 278.258 138.459,276.902 141.671,276.400 144.317 C 276.190 145.429,275.755 146.629,275.435 146.982 C 275.115 147.336,274.854 147.824,274.854 148.068 C 274.854 148.311,274.529 148.684,274.133 148.896 C 273.400 149.288,271.598 153.823,271.177 156.335 C 271.051 157.086,270.160 158.749,269.197 160.031 C 268.234 161.314,267.444 162.629,267.441 162.955 C 267.431 164.156,265.424 169.810,264.740 170.565 C 263.551 171.879,261.988 174.603,261.988 175.364 C 261.988 176.779,260.204 181.153,258.705 183.410 C 257.867 184.673,257.054 186.335,256.897 187.103 C 256.358 189.755,254.750 193.643,253.654 194.946 C 252.388 196.451,251.889 197.565,251.418 199.941 C 250.981 202.141,249.167 206.175,248.427 206.588 C 247.819 206.929,246.976 208.896,246.323 211.501 C 245.868 213.315,244.065 217.172,243.408 217.739 C 242.792 218.270,241.462 221.555,240.781 224.225 C 240.139 226.746,239.406 228.283,238.088 229.875 C 237.149 231.009,235.088 236.313,235.088 237.594 C 235.088 237.978,234.298 239.422,233.333 240.803 C 232.368 242.183,231.579 243.534,231.579 243.805 C 231.579 245.227,229.128 251.266,227.896 252.879 C 227.123 253.891,226.393 255.170,226.274 255.722 C 225.920 257.351,224.819 260.594,224.483 260.994 C 224.312 261.198,224.172 261.573,224.172 261.827 C 224.172 262.081,223.469 263.341,222.611 264.627 C 221.728 265.949,220.888 267.788,220.676 268.862 C 220.179 271.386,218.771 274.978,218.138 275.336 C 217.330 275.794,215.735 279.151,215.254 281.407 C 214.731 283.864,213.536 286.612,212.683 287.319 C 211.766 288.080,209.747 292.922,209.747 294.359 C 209.747 294.786,209.352 295.904,208.869 296.842 L 207.992 298.549 205.458 298.741 C 202.677 298.951,201.411 298.154,200.956 295.906 C 200.435 293.332,198.659 288.420,198.097 287.998 C 197.109 287.256,195.851 284.642,195.150 281.875 C 194.798 280.483,194.342 279.176,194.136 278.970 C 193.930 278.765,193.762 278.361,193.762 278.073 C 193.762 277.786,193.401 277.163,192.959 276.689 C 191.918 275.575,190.706 272.827,190.183 270.396 C 189.748 268.377,188.247 265.337,187.176 264.304 C 186.606 263.753,185.168 259.781,184.646 257.310 C 184.532 256.774,183.684 255.195,182.760 253.801 C 181.298 251.594,179.940 248.173,179.191 244.806 C 179.068 244.254,178.359 243.006,177.615 242.032 C 176.429 240.479,173.890 234.219,173.882 232.829 C 173.880 232.552,173.191 231.412,172.350 230.295 C 171.508 229.179,170.701 227.739,170.557 227.096 C 170.026 224.738,168.013 219.370,167.503 218.950 C 166.648 218.248,165.037 215.017,164.733 213.396 C 164.386 211.548,162.678 207.354,162.055 206.823 C 161.206 206.098,159.454 202.436,159.454 201.385 C 159.454 200.255,157.594 196.082,156.888 195.628 C 156.179 195.173,154.360 190.778,154.039 188.746 C 153.742 186.864,152.435 184.236,151.360 183.357 C 150.769 182.874,148.538 176.918,148.538 175.822 C 148.538 175.477,147.783 174.065,146.861 172.685 C 145.817 171.124,144.689 168.653,143.877 166.147 C 143.158 163.932,142.378 161.907,142.143 161.647 C 140.829 160.198,139.887 158.126,138.752 154.191 C 138.123 152.012,137.345 150.403,136.171 148.852 C 135.075 147.404,134.365 145.981,134.128 144.759 C 133.567 141.863,132.298 138.513,131.395 137.544 C 130.328 136.398,128.825 133.145,128.483 131.242 C 128.168 129.482,126.376 125.536,125.892 125.536 C 125.393 125.536,123.587 121.511,123.587 120.399 C 123.587 119.866,123.149 118.567,122.614 117.512 C 122.079 116.458,121.640 115.417,121.639 115.201 C 121.638 114.985,121.312 114.604,120.915 114.356 C 120.166 113.888,118.129 108.923,118.129 107.565 C 118.129 106.467,116.729 103.863,115.379 102.451 C 114.747 101.790,114.230 101.073,114.230 100.857 C 114.230 98.330,110.770 94.253,107.923 93.426 C 104.877 92.540,104.832 92.550,102.073 94.752 M306.567 94.035 C 307.244 94.507,307.948 95.139,308.132 95.440 C 308.315 95.741,309.236 96.769,310.178 97.724 C 312.444 100.022,312.291 102.915,309.702 106.731 C 308.740 108.149,307.212 111.933,307.212 112.899 C 307.212 113.663,306.204 115.646,304.994 117.263 C 304.086 118.476,301.754 124.657,301.754 125.852 C 301.754 126.160,300.965 127.518,300.000 128.870 C 299.035 130.222,298.246 131.494,298.246 131.695 C 298.246 132.970,295.572 139.961,295.084 139.961 C 294.893 139.961,294.737 140.144,294.737 140.367 C 294.737 140.590,294.387 141.248,293.959 141.829 C 293.531 142.410,292.908 143.938,292.574 145.224 C 292.240 146.511,291.713 148.073,291.403 148.695 C 291.092 149.318,290.838 149.978,290.838 150.162 C 290.838 150.346,290.145 151.512,289.298 152.753 C 288.451 153.994,287.567 155.878,287.334 156.939 C 286.675 159.941,285.727 162.285,284.731 163.374 C 284.230 163.922,283.821 164.580,283.821 164.836 C 283.821 165.092,283.680 165.302,283.508 165.302 C 283.126 165.302,282.025 168.445,281.678 170.525 C 281.412 172.118,280.735 173.420,279.327 175.049 C 278.387 176.135,276.943 179.586,276.554 181.676 C 276.268 183.210,275.017 185.737,273.922 186.994 C 273.172 187.854,271.345 192.635,271.345 193.738 C 271.345 194.521,270.017 197.049,268.672 198.828 C 268.105 199.577,267.077 202.019,266.387 204.255 C 265.698 206.491,264.987 208.422,264.808 208.546 C 264.220 208.955,261.988 212.864,261.988 213.485 C 261.988 214.679,259.997 220.089,259.342 220.674 C 258.415 221.501,257.114 224.297,256.301 227.212 C 255.924 228.562,255.471 229.757,255.293 229.866 C 255.116 229.976,254.971 230.379,254.971 230.762 C 254.971 231.145,254.601 231.792,254.149 232.201 C 253.042 233.201,251.462 236.386,251.462 237.617 C 251.462 238.784,249.336 243.680,248.581 244.253 C 247.829 244.822,246.004 248.978,246.004 250.120 C 246.004 251.169,243.955 255.525,243.260 255.955 C 243.027 256.099,242.650 256.682,242.423 257.250 C 241.074 260.618,240.546 262.287,240.546 263.183 C 240.546 264.182,238.415 267.836,237.832 267.836 C 237.497 267.836,236.273 271.081,235.258 274.659 C 234.893 275.945,234.486 277.086,234.354 277.193 C 233.802 277.640,231.579 281.058,231.579 281.460 C 231.579 282.697,228.894 289.669,228.418 289.669 C 228.227 289.669,228.070 289.851,228.070 290.074 C 228.070 290.297,227.707 290.971,227.263 291.572 C 226.819 292.172,226.287 293.413,226.082 294.328 C 225.876 295.243,225.362 296.707,224.940 297.582 C 224.517 298.456,224.172 299.294,224.172 299.444 C 224.172 299.594,223.469 300.768,222.611 302.053 C 221.710 303.402,220.897 305.194,220.688 306.289 C 220.188 308.910,218.685 312.706,218.050 312.949 C 217.353 313.217,215.641 317.009,215.203 319.258 C 214.677 321.959,213.422 324.141,209.747 328.750 L 207.992 330.951 205.450 330.972 L 202.908 330.994 200.187 328.299 C 197.394 325.533,195.322 322.369,195.322 320.873 C 195.322 319.730,193.811 316.183,192.879 315.137 C 191.770 313.894,190.253 310.425,190.253 309.134 C 190.253 307.798,188.572 304.107,187.377 302.817 C 186.633 302.014,185.966 300.260,184.305 294.737 C 184.080 293.986,183.221 292.459,182.396 291.342 C 181.571 290.226,180.897 289.061,180.897 288.753 C 180.897 288.446,180.550 287.430,180.126 286.495 C 179.701 285.560,179.351 284.343,179.346 283.790 C 179.338 282.907,177.338 279.309,176.537 278.737 C 176.139 278.452,175.117 275.616,174.280 272.470 C 173.830 270.777,173.040 269.157,171.982 267.756 C 171.096 266.582,170.370 265.420,170.370 265.174 C 170.370 264.059,167.965 257.368,167.500 257.189 C 166.818 256.928,164.912 253.267,164.912 252.218 C 164.912 251.062,163.002 246.352,162.153 245.415 C 161.226 244.392,159.457 240.375,159.445 239.268 C 159.440 238.791,158.836 237.261,158.103 235.867 C 154.814 229.616,153.996 227.833,153.996 226.908 C 153.996 225.724,152.278 222.288,151.233 221.380 C 150.823 221.024,150.487 220.489,150.487 220.191 C 150.487 219.893,150.333 219.482,150.145 219.279 C 149.723 218.821,148.685 215.504,148.365 213.587 C 148.234 212.804,147.869 211.950,147.553 211.687 C 147.237 211.425,146.979 211.066,146.979 210.889 C 146.979 210.711,146.540 210.093,146.004 209.515 C 145.468 208.936,145.029 208.228,145.029 207.941 C 145.029 206.538,142.511 200.081,141.433 198.721 C 140.359 197.364,138.012 191.333,138.012 189.930 C 138.012 189.641,137.135 188.069,136.062 186.436 C 134.990 184.803,134.113 183.182,134.113 182.835 C 134.113 181.380,132.151 176.598,130.859 174.906 C 129.601 173.257,128.663 171.024,128.657 169.663 C 128.653 168.754,126.994 165.137,126.121 164.133 C 125.035 162.884,123.587 159.422,123.587 158.074 C 123.587 156.796,121.917 153.374,120.635 152.025 C 120.114 151.478,119.688 150.839,119.688 150.606 C 119.688 150.373,119.341 149.418,118.917 148.483 C 118.493 147.548,118.142 146.319,118.137 145.751 C 118.128 144.623,116.094 140.479,115.217 139.800 C 114.628 139.344,113.280 135.772,112.641 132.973 C 112.424 132.024,111.621 130.394,110.856 129.352 C 109.974 128.151,108.974 125.929,108.125 123.282 C 107.348 120.858,106.209 118.270,105.411 117.110 C 104.654 116.011,103.882 114.519,103.696 113.794 C 102.980 111.002,101.464 107.165,100.748 106.331 C 100.337 105.851,99.584 104.269,99.077 102.817 L 98.153 100.175 99.258 98.581 C 99.865 97.705,100.632 96.887,100.961 96.765 C 101.290 96.643,101.779 96.238,102.046 95.867 C 102.314 95.495,103.144 94.813,103.890 94.352 L 105.246 93.514 107.713 94.347 C 110.580 95.316,111.608 96.401,113.251 100.195 C 113.855 101.589,114.737 103.080,115.213 103.509 C 116.103 104.311,118.122 108.934,118.137 110.203 C 118.149 111.164,119.437 113.946,120.591 115.500 C 121.507 116.734,123.322 121.183,123.758 123.264 C 123.878 123.838,124.595 125.117,125.351 126.107 C 126.589 127.729,128.637 132.955,128.650 134.525 C 128.653 134.859,129.509 136.350,130.552 137.839 C 131.596 139.328,132.542 141.072,132.654 141.715 C 133.135 144.465,134.530 148.262,135.468 149.377 C 136.961 151.151,139.571 157.358,139.571 159.133 C 139.571 159.376,139.972 160.118,140.463 160.782 C 141.610 162.334,142.853 164.979,143.593 167.446 C 144.532 170.575,145.175 172.049,145.940 172.827 C 146.923 173.828,148.529 177.370,148.538 178.558 C 148.548 179.835,150.290 183.559,151.456 184.795 C 152.405 185.802,153.996 189.976,153.996 191.461 C 153.996 192.394,156.010 196.126,156.923 196.883 C 157.243 197.149,157.506 197.564,157.507 197.806 C 157.508 198.048,157.942 199.298,158.472 200.585 C 159.002 201.871,159.440 203.289,159.445 203.734 C 159.453 204.460,161.538 208.078,162.238 208.582 C 162.539 208.799,164.912 215.737,164.912 216.401 C 164.912 216.624,165.631 217.865,166.509 219.158 C 167.387 220.451,168.423 222.590,168.811 223.912 C 169.961 227.826,170.674 229.567,171.674 230.903 C 172.966 232.629,173.879 234.505,173.879 235.433 C 173.879 236.485,175.719 240.699,177.218 243.080 C 177.893 244.152,178.668 245.731,178.940 246.589 C 180.458 251.376,181.053 252.904,181.678 253.606 C 182.804 254.872,184.795 259.149,184.804 260.320 C 184.815 261.701,186.132 264.624,187.311 265.887 C 188.212 266.851,190.253 271.943,190.253 273.226 C 190.253 274.115,191.633 276.643,192.811 277.914 C 193.334 278.478,193.762 279.233,193.762 279.591 C 193.762 279.949,194.101 281.179,194.515 282.324 C 194.930 283.469,195.361 284.848,195.475 285.388 C 195.588 285.928,196.039 286.754,196.476 287.223 C 196.913 287.693,197.271 288.232,197.271 288.422 C 197.271 288.612,197.618 289.082,198.043 289.467 C 198.468 289.851,198.927 290.761,199.063 291.488 C 199.577 294.225,201.044 298.211,201.967 299.377 L 202.924 300.586 205.556 300.138 C 207.003 299.892,208.187 299.542,208.187 299.362 C 208.187 299.182,208.462 298.713,208.798 298.321 C 209.378 297.643,211.696 291.283,211.696 290.368 C 211.696 290.129,212.394 289.010,213.248 287.879 C 214.105 286.744,214.976 285.038,215.193 284.068 C 215.842 281.172,217.193 277.840,218.140 276.803 C 219.259 275.576,220.526 272.753,220.789 270.900 C 221.002 269.392,222.804 265.276,223.415 264.898 C 223.990 264.543,225.789 260.374,226.017 258.869 C 226.238 257.413,227.834 254.133,228.926 252.891 C 229.516 252.222,230.447 249.824,231.981 245.029 C 232.444 243.580,233.717 241.425,234.414 240.907 C 234.782 240.635,237.037 234.083,237.037 233.287 C 237.037 232.686,238.198 230.909,239.669 229.258 C 240.151 228.716,240.546 228.026,240.546 227.725 C 240.546 226.301,243.046 219.597,244.050 218.330 C 245.346 216.693,245.620 216.076,246.825 212.086 C 247.310 210.478,248.088 208.635,248.552 207.992 C 249.853 206.189,251.462 203.008,251.462 202.237 C 251.462 200.907,253.411 195.980,254.139 195.470 C 255.137 194.771,256.488 191.792,256.957 189.260 C 257.371 187.016,259.027 183.690,259.895 183.357 C 260.189 183.245,260.429 182.941,260.429 182.683 C 260.429 182.424,260.780 181.487,261.209 180.599 C 261.637 179.711,261.990 178.494,261.993 177.894 C 261.996 177.294,262.434 176.040,262.968 175.106 C 263.501 174.173,263.938 173.183,263.938 172.906 C 263.938 172.630,264.174 172.312,264.463 172.201 C 265.178 171.927,266.567 168.879,267.308 165.956 C 267.648 164.615,268.608 162.511,269.473 161.209 C 270.891 159.073,272.887 153.933,272.900 152.386 C 272.902 152.037,273.694 150.734,274.659 149.491 C 275.624 148.249,276.413 147.060,276.413 146.849 C 276.413 145.729,278.927 138.709,279.475 138.298 C 280.377 137.622,281.562 135.389,281.891 133.746 C 282.355 131.431,283.968 127.346,284.795 126.389 C 286.006 124.989,287.329 122.333,287.329 121.302 C 287.329 120.233,289.111 115.974,290.043 114.815 C 291.085 113.519,292.297 110.999,292.575 109.552 C 292.968 107.498,293.574 106.062,295.003 103.794 C 295.714 102.664,296.296 101.626,296.296 101.489 C 296.296 99.849,300.108 95.651,302.824 94.298 C 305.504 92.963,305.074 92.994,306.567 94.035 " stroke="none" fill="#7c7c7c" fill-rule="evenodd"></path><path id="path4" d="M102.924 91.572 C 96.053 93.887,93.679 103.887,98.816 108.876 C 100.164 110.186,101.738 114.061,101.749 116.101 C 101.756 117.287,102.752 119.216,104.104 120.663 C 105.167 121.800,106.530 125.276,107.056 128.192 C 107.386 130.025,107.760 130.732,109.331 132.491 C 110.329 133.608,110.851 134.844,111.736 138.183 C 112.753 142.023,113.031 142.611,114.522 144.085 C 115.782 145.330,116.179 146.021,116.179 146.964 C 116.179 149.976,119.026 155.945,120.463 155.945 C 121.024 155.945,121.157 156.372,121.610 159.631 C 122.056 162.833,123.546 166.613,124.510 166.983 C 125.299 167.286,127.096 171.264,127.096 172.711 C 127.096 174.403,128.550 177.775,129.794 178.966 C 131.153 180.268,132.032 182.193,132.368 184.600 C 132.719 187.114,134.088 190.156,134.973 190.387 C 135.815 190.608,136.260 191.705,137.446 196.491 C 138.270 199.816,138.526 200.340,139.942 201.612 C 140.810 202.392,141.520 203.385,141.520 203.819 C 141.520 204.254,141.869 205.721,142.295 207.080 C 142.721 208.440,143.072 209.937,143.075 210.409 C 143.078 210.880,143.957 212.320,145.029 213.608 C 146.101 214.896,146.979 216.253,146.979 216.623 C 146.979 219.178,148.738 223.604,150.547 225.601 C 151.981 227.186,152.437 227.990,152.437 228.940 C 152.437 231.272,154.016 235.414,155.352 236.587 C 157.045 238.074,157.154 238.305,157.505 241.133 C 157.897 244.290,159.488 247.837,160.723 248.307 C 161.651 248.660,162.958 252.139,162.967 254.283 C 162.972 255.537,164.694 259.076,165.872 260.254 C 166.933 261.316,168.421 265.188,168.421 266.889 C 168.421 268.132,170.373 271.734,171.047 271.734 C 171.698 271.735,172.448 273.637,173.277 277.388 C 174.159 281.377,175.595 283.821,177.059 283.821 C 177.240 283.821,177.388 284.206,177.388 284.678 C 177.388 286.186,179.495 292.955,180.209 293.738 C 180.587 294.154,180.897 294.616,180.897 294.765 C 180.897 294.914,181.208 295.117,181.589 295.217 C 182.100 295.350,182.477 296.255,183.021 298.654 C 184.051 303.192,184.791 304.961,186.462 306.879 C 187.310 307.853,187.999 309.112,188.127 309.923 C 188.864 314.590,190.196 317.942,191.562 318.564 C 192.732 319.097,193.361 320.429,193.651 322.984 C 193.976 325.862,195.336 328.320,197.123 329.261 C 197.975 329.710,198.926 330.643,199.349 331.447 C 201.538 335.604,208.904 335.627,211.135 331.483 C 211.519 330.770,212.561 329.516,213.450 328.697 C 215.414 326.887,216.669 324.338,217.005 321.479 C 217.259 319.317,217.636 318.533,219.606 316.064 C 220.857 314.496,222.138 311.101,222.639 308.024 C 222.922 306.281,223.240 305.676,224.398 304.675 C 225.868 303.405,228.055 297.886,228.065 295.419 C 228.068 294.829,228.219 294.347,228.400 294.347 C 229.735 294.347,231.325 291.558,232.178 287.719 C 232.972 284.147,233.567 282.651,234.195 282.651 C 234.456 282.651,234.878 282.256,235.132 281.774 C 235.386 281.291,235.703 280.809,235.836 280.702 C 236.353 280.286,237.037 278.271,237.037 277.165 C 237.037 275.338,238.460 271.760,239.516 270.929 C 240.793 269.925,242.495 266.445,242.495 264.840 C 242.495 262.889,243.794 259.883,245.280 258.398 C 246.727 256.950,247.272 255.487,247.956 251.202 C 248.371 248.603,248.505 248.340,249.864 247.440 C 251.518 246.346,253.021 242.664,253.021 239.711 C 253.021 238.317,253.254 237.890,254.844 236.367 C 256.549 234.733,256.736 234.349,257.758 230.382 C 258.719 226.649,259.037 225.949,260.419 224.525 C 261.282 223.636,261.988 222.639,261.988 222.310 C 261.988 220.268,264.206 214.540,265.520 213.185 C 266.693 211.976,267.076 211.128,267.811 208.109 C 269.297 201.999,269.462 201.558,270.341 201.337 C 271.539 201.036,272.479 199.103,273.151 195.560 C 273.829 191.985,274.156 191.247,275.701 189.802 C 277.135 188.460,278.343 185.774,278.354 183.903 C 278.363 182.286,279.362 180.079,280.773 178.558 C 282.076 177.152,283.335 174.122,284.011 170.761 C 284.513 168.266,284.797 167.666,285.953 166.667 C 287.481 165.346,289.279 160.661,289.279 157.998 C 289.279 156.684,289.484 156.334,290.837 155.338 C 292.451 154.151,293.219 152.361,294.343 147.173 C 294.616 145.917,295.144 144.878,295.831 144.250 C 297.500 142.723,298.015 141.614,299.036 137.346 C 299.798 134.163,300.165 133.273,300.871 132.894 C 301.357 132.635,301.754 132.284,301.754 132.115 C 301.754 131.947,302.193 131.162,302.729 130.372 C 303.265 129.582,303.704 128.463,303.704 127.885 C 303.704 126.051,305.288 121.876,306.444 120.663 C 307.833 119.205,309.142 116.367,309.153 114.788 C 309.170 112.465,310.280 109.619,311.381 109.081 C 313.834 107.880,315.250 100.568,313.634 97.443 C 309.744 89.922,300.892 88.992,296.681 95.662 C 295.719 97.186,294.481 98.961,293.931 99.606 C 292.656 101.100,291.361 103.906,291.038 105.876 C 290.519 109.036,289.897 111.111,289.468 111.111 C 287.988 111.111,285.770 115.824,285.770 118.968 C 285.770 120.835,283.889 123.587,282.613 123.587 C 282.271 123.587,280.869 128.231,280.495 130.604 C 280.299 131.845,279.768 132.872,278.681 134.113 C 276.557 136.538,276.413 136.741,276.415 137.313 C 276.426 139.871,274.577 145.372,273.416 146.237 C 271.990 147.299,271.844 147.625,270.359 153.083 C 269.558 156.032,269.072 157.156,268.461 157.484 C 267.180 158.169,266.221 160.169,265.663 163.317 C 264.990 167.112,264.445 168.340,263.133 169.019 C 261.861 169.676,260.429 173.053,260.429 175.393 C 260.429 177.130,259.470 179.247,258.243 180.216 C 257.098 181.121,255.880 183.705,255.349 186.355 C 254.626 189.965,254.145 191.113,252.832 192.364 C 251.350 193.778,250.586 195.609,249.716 199.837 C 249.366 201.535,248.913 202.983,248.708 203.055 C 246.889 203.696,245.217 207.429,244.270 212.963 C 244.132 213.767,243.879 214.425,243.708 214.425 C 242.322 214.425,240.822 216.907,240.174 220.273 C 239.518 223.680,238.548 226.079,237.719 226.344 C 237.344 226.465,237.037 226.719,237.037 226.910 C 237.037 227.100,236.598 227.902,236.062 228.692 C 235.526 229.482,235.088 230.636,235.088 231.256 C 235.088 233.098,233.550 237.145,232.372 238.402 C 230.867 240.008,230.030 241.789,229.633 244.228 C 228.993 248.162,228.477 249.526,227.485 249.903 C 226.324 250.344,224.533 254.054,224.287 256.530 C 224.046 258.948,223.478 260.283,222.386 260.998 C 220.804 262.035,219.119 266.310,219.108 269.315 C 219.104 270.293,218.691 271.040,217.372 272.450 C 215.539 274.410,214.894 275.931,213.838 280.784 C 213.396 282.816,212.974 283.865,212.537 284.021 C 210.936 284.589,208.187 291.330,208.187 294.687 C 208.187 295.283,207.719 295.470,205.463 295.776 L 202.739 296.144 202.354 294.953 C 202.142 294.298,201.629 292.324,201.213 290.567 C 200.415 287.190,199.588 285.695,198.148 285.025 C 197.619 284.779,197.269 284.265,197.265 283.732 C 197.262 283.245,196.823 281.442,196.290 279.727 C 195.758 278.012,195.322 276.391,195.322 276.125 C 195.322 275.617,194.633 274.684,192.935 272.890 C 192.280 272.199,191.814 271.149,191.637 269.973 C 191.090 266.322,189.899 263.420,188.268 261.757 C 186.936 260.400,186.653 259.812,186.371 257.813 C 186.188 256.522,185.759 254.924,185.417 254.263 C 185.075 253.601,184.795 252.806,184.795 252.496 C 184.795 252.186,184.160 251.375,183.384 250.693 C 181.927 249.414,180.897 246.945,180.897 244.733 C 180.897 243.287,178.950 238.986,178.295 238.986 C 177.491 238.986,175.846 235.078,175.834 233.138 C 175.826 231.838,173.762 227.529,172.823 226.854 C 171.893 226.184,170.920 223.773,170.554 221.233 C 170.255 219.155,168.508 215.596,167.787 215.595 C 166.933 215.594,166.466 214.501,165.522 210.294 C 164.639 206.356,164.456 205.942,163.047 204.678 C 161.960 203.704,161.445 202.868,161.242 201.754 C 160.419 197.226,159.327 194.494,157.828 193.211 C 156.611 192.169,156.267 191.549,155.951 189.827 C 155.341 186.505,153.993 182.604,153.113 181.611 C 152.669 181.111,151.980 180.334,151.580 179.884 C 151.178 179.432,150.675 177.963,150.456 176.600 C 149.974 173.607,148.539 170.345,147.264 169.342 C 145.923 168.287,145.474 167.273,145.062 164.364 C 144.597 161.081,143.094 157.868,141.809 157.412 C 141.377 157.259,139.589 152.022,139.578 150.877 C 139.567 149.731,138.378 147.661,137.044 146.462 C 136.156 145.665,134.113 139.736,134.113 137.958 C 134.113 137.025,132.529 134.657,131.537 134.106 C 130.947 133.779,130.529 132.862,130.057 130.860 C 128.880 125.868,128.308 124.533,126.745 123.129 C 125.459 121.975,125.191 121.438,124.808 119.237 C 123.960 114.365,122.378 111.111,120.858 111.111 C 120.431 111.111,119.693 108.598,119.690 107.130 C 119.686 105.281,118.146 101.828,116.818 100.690 C 116.125 100.096,115.241 98.821,114.854 97.856 C 114.466 96.891,113.894 95.663,113.581 95.127 C 113.268 94.591,112.924 93.889,112.815 93.567 C 112.290 92.012,105.614 90.666,102.924 91.572 M107.923 93.426 C 110.770 94.253,114.230 98.330,114.230 100.857 C 114.230 101.073,114.747 101.790,115.379 102.451 C 116.729 103.863,118.129 106.467,118.129 107.565 C 118.129 108.923,120.166 113.888,120.915 114.356 C 121.312 114.604,121.638 114.985,121.639 115.201 C 121.640 115.417,122.079 116.458,122.614 117.512 C 123.149 118.567,123.587 119.866,123.587 120.399 C 123.587 121.511,125.393 125.536,125.892 125.536 C 126.376 125.536,128.168 129.482,128.483 131.242 C 128.825 133.145,130.328 136.398,131.395 137.544 C 132.298 138.513,133.567 141.863,134.128 144.759 C 134.365 145.981,135.075 147.404,136.171 148.852 C 137.345 150.403,138.123 152.012,138.752 154.191 C 139.887 158.126,140.829 160.198,142.143 161.647 C 142.378 161.907,143.158 163.932,143.877 166.147 C 144.689 168.653,145.817 171.124,146.861 172.685 C 147.783 174.065,148.538 175.477,148.538 175.822 C 148.538 176.918,150.769 182.874,151.360 183.357 C 152.435 184.236,153.742 186.864,154.039 188.746 C 154.360 190.778,156.179 195.173,156.888 195.628 C 157.594 196.082,159.454 200.255,159.454 201.385 C 159.454 202.436,161.206 206.098,162.055 206.823 C 162.678 207.354,164.386 211.548,164.733 213.396 C 165.037 215.017,166.648 218.248,167.503 218.950 C 168.013 219.370,170.026 224.738,170.557 227.096 C 170.701 227.739,171.508 229.179,172.350 230.295 C 173.191 231.412,173.880 232.552,173.882 232.829 C 173.890 234.219,176.429 240.479,177.615 242.032 C 178.359 243.006,179.068 244.254,179.191 244.806 C 179.940 248.173,181.298 251.594,182.760 253.801 C 183.684 255.195,184.532 256.774,184.646 257.310 C 185.168 259.781,186.606 263.753,187.176 264.304 C 188.247 265.337,189.748 268.377,190.183 270.396 C 190.706 272.827,191.918 275.575,192.959 276.689 C 193.401 277.163,193.762 277.786,193.762 278.073 C 193.762 278.361,193.930 278.765,194.136 278.970 C 194.342 279.176,194.798 280.483,195.150 281.875 C 195.851 284.642,197.109 287.256,198.097 287.998 C 198.659 288.420,200.435 293.332,200.956 295.906 C 201.411 298.154,202.677 298.951,205.458 298.741 L 207.992 298.549 208.869 296.842 C 209.352 295.904,209.747 294.786,209.747 294.359 C 209.747 292.922,211.766 288.080,212.683 287.319 C 213.536 286.612,214.731 283.864,215.254 281.407 C 215.735 279.151,217.330 275.794,218.138 275.336 C 218.771 274.978,220.179 271.386,220.676 268.862 C 220.888 267.788,221.728 265.949,222.611 264.627 C 223.469 263.341,224.172 262.081,224.172 261.827 C 224.172 261.573,224.312 261.198,224.483 260.994 C 224.819 260.594,225.920 257.351,226.274 255.722 C 226.393 255.170,227.123 253.891,227.896 252.879 C 229.128 251.266,231.579 245.227,231.579 243.805 C 231.579 243.534,232.368 242.183,233.333 240.803 C 234.298 239.422,235.088 237.978,235.088 237.594 C 235.088 236.313,237.149 231.009,238.088 229.875 C 239.406 228.283,240.139 226.746,240.781 224.225 C 241.462 221.555,242.792 218.270,243.408 217.739 C 244.065 217.172,245.868 213.315,246.323 211.501 C 246.976 208.896,247.819 206.929,248.427 206.588 C 249.167 206.175,250.981 202.141,251.418 199.941 C 251.889 197.565,252.388 196.451,253.654 194.946 C 254.750 193.643,256.358 189.755,256.897 187.103 C 257.054 186.335,257.867 184.673,258.705 183.410 C 260.204 181.153,261.988 176.779,261.988 175.364 C 261.988 174.603,263.551 171.879,264.740 170.565 C 265.424 169.810,267.431 164.156,267.441 162.955 C 267.444 162.629,268.234 161.314,269.197 160.031 C 270.160 158.749,271.051 157.086,271.177 156.335 C 271.598 153.823,273.400 149.288,274.133 148.896 C 274.529 148.684,274.854 148.311,274.854 148.068 C 274.854 147.824,275.115 147.336,275.435 146.982 C 275.755 146.629,276.190 145.429,276.400 144.317 C 276.902 141.671,278.258 138.459,279.401 137.211 C 279.902 136.663,280.312 136.038,280.312 135.822 C 280.312 135.606,280.663 134.703,281.092 133.815 C 281.520 132.928,281.871 131.784,281.871 131.274 C 281.871 130.764,282.309 129.484,282.844 128.429 C 283.380 127.374,283.818 126.310,283.819 126.065 C 283.820 125.820,284.093 125.515,284.425 125.388 C 285.197 125.091,286.873 121.317,287.350 118.800 C 287.573 117.624,288.343 115.945,289.306 114.534 C 290.289 113.094,291.413 110.625,292.253 108.062 C 292.999 105.783,293.734 103.826,293.885 103.713 C 294.296 103.407,296.115 100.499,296.437 99.635 C 297.547 96.649,302.437 92.788,305.109 92.788 C 306.303 92.788,309.113 94.547,309.154 95.322 C 309.166 95.536,309.880 96.406,310.741 97.255 C 312.849 99.332,313.222 103.704,311.469 105.793 C 311.264 106.037,310.688 106.734,310.188 107.339 C 309.689 107.945,308.728 110.192,308.052 112.331 C 307.297 114.721,306.222 117.107,305.264 118.518 C 304.406 119.781,303.704 121.133,303.704 121.522 C 303.704 122.736,301.433 128.713,300.794 129.183 C 300.011 129.758,298.246 133.240,298.246 134.210 C 298.246 135.240,296.340 139.985,295.545 140.936 C 294.440 142.256,292.899 145.539,292.670 147.059 C 292.427 148.669,290.808 152.437,290.359 152.437 C 289.837 152.437,287.744 157.019,287.478 158.742 C 287.192 160.603,285.852 163.507,284.720 164.717 C 284.320 165.146,283.489 167.076,282.875 169.006 C 281.329 173.863,280.938 174.699,279.496 176.220 C 279.155 176.580,278.242 178.820,277.469 181.197 C 276.593 183.887,275.531 186.259,274.657 187.476 C 273.413 189.207,272.388 191.859,271.345 196.042 C 271.167 196.759,270.680 197.724,270.264 198.186 C 268.805 199.804,267.446 202.139,267.446 203.027 C 267.446 204.384,265.159 210.033,264.508 210.283 C 264.194 210.403,263.937 210.727,263.936 211.001 C 263.935 211.276,263.496 212.364,262.961 213.419 C 262.426 214.474,261.988 215.669,261.988 216.076 C 261.988 217.092,260.452 220.687,259.611 221.637 C 258.683 222.686,256.929 226.512,256.924 227.496 C 256.919 228.475,254.346 233.918,253.888 233.918 C 253.446 233.918,251.986 237.528,251.463 239.914 C 251.026 241.907,249.707 244.450,248.359 245.897 C 247.922 246.367,247.563 247.099,247.563 247.524 C 247.563 247.949,247.413 248.390,247.229 248.504 C 247.045 248.617,246.669 249.777,246.392 251.081 C 245.965 253.094,244.162 256.638,243.220 257.316 C 242.893 257.551,240.549 264.737,240.538 265.537 C 240.534 265.837,239.939 266.760,239.216 267.588 C 237.606 269.433,237.421 269.829,236.018 274.433 C 235.402 276.454,234.715 278.296,234.492 278.527 C 233.458 279.597,231.672 283.007,231.412 284.410 C 231.123 285.968,230.007 288.448,227.475 293.164 C 226.730 294.551,226.121 296.045,226.121 296.484 C 226.121 297.374,223.977 301.978,223.395 302.337 C 222.634 302.807,220.663 307.842,220.663 309.314 C 220.663 310.306,219.344 312.904,218.221 314.126 C 217.361 315.061,216.244 317.797,215.314 321.248 C 214.996 322.427,214.491 323.669,214.191 324.007 C 213.891 324.346,213.645 324.761,213.645 324.930 C 213.645 325.100,213.163 325.794,212.573 326.473 C 211.983 327.152,210.975 328.384,210.331 329.210 C 208.341 331.766,208.327 331.774,205.322 331.774 C 202.640 331.774,200.780 331.142,200.780 330.231 C 200.780 330.050,199.640 328.734,198.247 327.307 C 196.855 325.879,195.612 324.239,195.486 323.662 C 194.985 321.370,193.245 316.964,192.614 316.394 C 191.769 315.629,190.666 313.051,189.269 308.577 C 188.667 306.647,187.802 304.630,187.348 304.094 C 186.127 302.654,184.795 300.016,184.795 299.039 C 184.795 297.706,182.851 293.092,181.823 291.986 C 181.313 291.439,180.897 290.814,180.897 290.598 C 180.897 290.382,180.546 289.479,180.117 288.591 C 179.688 287.703,179.337 286.607,179.337 286.154 C 179.337 285.219,177.437 281.098,176.733 280.507 C 176.022 279.909,174.230 275.720,174.005 274.127 C 173.746 272.299,172.631 269.826,171.415 268.381 C 170.440 267.221,168.421 261.967,168.421 260.587 C 168.421 260.170,167.633 258.780,166.671 257.497 C 165.708 256.215,164.919 254.949,164.916 254.684 C 164.908 253.746,162.526 246.972,162.066 246.580 C 160.946 245.624,159.971 243.556,158.536 239.091 C 157.968 237.325,156.856 234.869,156.065 233.633 C 155.273 232.396,154.323 230.331,153.954 229.045 C 152.923 225.456,152.262 223.870,151.397 222.907 C 150.292 221.678,148.538 217.966,148.538 216.857 C 148.538 215.606,147.047 212.115,146.001 210.916 C 144.986 209.754,143.645 206.432,143.059 203.632 C 142.827 202.520,142.385 201.402,142.078 201.147 C 141.772 200.893,141.520 200.545,141.520 200.375 C 141.520 200.205,141.156 199.657,140.710 199.156 C 139.804 198.138,138.467 194.770,138.027 192.398 C 137.689 190.574,136.858 188.694,136.390 188.694 C 136.210 188.694,136.062 188.458,136.062 188.170 C 136.062 187.882,135.639 187.153,135.122 186.551 C 134.605 185.949,134.094 185.088,133.988 184.639 C 133.039 180.618,131.898 177.808,130.373 175.737 C 129.428 174.454,128.655 173.059,128.655 172.638 C 128.655 171.046,126.666 166.036,125.348 164.310 C 124.594 163.322,123.875 162.044,123.752 161.471 C 123.189 158.858,121.981 155.269,121.353 154.341 C 120.973 153.780,120.175 152.591,119.578 151.698 C 118.982 150.805,118.329 149.204,118.127 148.140 C 117.925 147.076,117.405 145.469,116.970 144.570 C 116.535 143.670,116.179 142.757,116.179 142.541 C 116.179 142.325,115.769 141.700,115.268 141.152 C 114.250 140.039,112.671 136.518,112.671 135.360 C 112.671 134.396,110.005 129.045,109.525 129.045 C 109.325 129.045,109.162 128.815,109.162 128.533 C 109.162 128.252,108.832 127.331,108.428 126.486 C 108.025 125.642,107.498 124.020,107.258 122.882 C 107.015 121.733,106.168 119.826,105.353 118.594 C 103.855 116.330,102.848 113.984,101.902 110.552 C 101.610 109.495,100.887 107.955,100.296 107.132 C 96.632 102.032,97.108 98.711,102.073 94.752 C 104.832 92.550,104.877 92.540,107.923 93.426 " stroke="none" fill="#9c9c9c" fill-rule="evenodd"></path></g></svg>