<?xml version="1.0" standalone="no"?>
<!DOCTYPE svg PUBLIC "-//W3C//DTD SVG 20010904//EN"
 "http://www.w3.org/TR/2001/REC-SVG-20010904/DTD/svg10.dtd">
<svg version="1.0" xmlns="http://www.w3.org/2000/svg"
 width="1268.000000pt" height="686.000000pt" viewBox="0 0 1268.000000 686.000000"
 preserveAspectRatio="xMidYMid meet">
<metadata>
Created by potrace 1.16, written by Peter Selinger 2001-2019
</metadata>
<g transform="translate(0.000000,686.000000) scale(0.100000,-0.100000)"
fill="#000000" stroke="none">
<path d="M8548 6420 c-9 -14 -24 -20 -53 -21 -59 -1 -109 -22 -113 -47 -4 -29
29 -46 54 -27 11 8 33 15 51 15 24 0 33 -5 39 -22 16 -50 18 -306 3 -345 -6
-17 -6 -30 1 -38 5 -6 7 -15 3 -19 -13 -12 -11 -89 3 -164 8 -40 12 -83 8 -96
-3 -13 -1 -27 4 -30 25 -15 31 29 37 235 5 193 12 424 14 456 1 7 18 20 39 29
55 23 383 12 447 -16 11 -4 42 -14 69 -22 26 -7 66 -28 88 -47 32 -27 39 -39
36 -63 -4 -37 -55 -68 -143 -87 -33 -7 -76 -17 -95 -22 -97 -25 -294 -38 -305
-19 -10 17 -60 11 -82 -10 -14 -12 -19 -27 -16 -40 4 -16 13 -20 49 -20 47 0
31 12 219 -169 33 -32 76 -66 95 -77 19 -10 41 -25 48 -31 14 -13 48 -30 122
-58 84 -33 296 -30 330 5 3 3 17 11 33 19 15 8 27 19 27 24 0 5 -12 6 -27 3
-66 -16 -132 -27 -182 -31 -97 -7 -253 47 -310 107 -14 15 -35 28 -47 28 -14
0 -27 12 -40 40 -10 22 -22 40 -26 40 -11 0 -123 108 -118 114 3 2 60 10 128
17 67 7 122 17 122 21 0 4 11 8 25 8 14 0 33 4 43 9 25 13 126 51 135 51 14 0
76 75 77 93 0 30 -51 97 -86 112 -19 8 -49 22 -68 30 -19 8 -44 15 -56 15 -12
0 -31 6 -43 12 -37 21 -420 41 -449 24 -14 -9 -21 -6 -33 12 -20 27 -41 28
-57 2z"/>
<path d="M2685 5823 c-22 -2 -44 -9 -49 -14 -6 -5 -45 -9 -88 -9 -59 0 -90 -5
-120 -20 -23 -11 -47 -20 -52 -20 -6 -1 -23 -19 -38 -40 -15 -22 -35 -40 -43
-40 -8 0 -15 -5 -15 -11 0 -6 -13 -29 -29 -52 -31 -46 -91 -168 -91 -186 0 -6
-4 -11 -10 -11 -5 0 -10 -18 -10 -39 0 -22 -4 -41 -10 -43 -5 -1 -10 -41 -11
-87 -1 -71 2 -87 20 -110 12 -14 31 -40 44 -58 14 -21 38 -37 69 -48 52 -17
183 -20 193 -5 3 6 16 10 28 10 25 0 77 18 126 43 45 23 48 22 78 -13 13 -16
31 -30 39 -30 8 0 17 -7 20 -15 8 -20 85 -65 112 -65 11 0 24 -5 27 -10 4 -7
29 -9 63 -5 32 3 76 7 99 9 23 3 51 9 62 15 11 6 27 11 36 11 9 0 28 9 42 20
14 11 36 20 49 20 36 0 83 30 84 53 0 14 -35 6 -60 -13 -14 -11 -37 -20 -51
-20 -14 0 -29 -3 -33 -7 -20 -20 -91 -33 -182 -33 -84 -1 -108 3 -138 20 -20
11 -42 20 -50 20 -15 0 -76 64 -76 80 0 20 32 60 49 60 9 0 36 18 60 40 24 22
46 40 49 40 10 0 62 53 62 63 0 4 18 30 40 56 22 26 40 52 40 57 0 6 9 19 19
31 25 26 43 140 30 186 -5 19 -22 48 -37 64 -15 16 -32 38 -38 49 -19 33 -74
51 -174 56 -52 3 -113 3 -135 1z m140 -33 c3 -5 21 -10 39 -10 20 0 40 -8 51
-20 10 -11 26 -20 35 -20 9 0 24 -8 32 -17 22 -27 58 -110 58 -135 0 -43 -32
-126 -62 -157 -10 -11 -18 -24 -18 -28 -1 -12 -87 -103 -97 -103 -5 0 -25 -16
-44 -36 -18 -19 -49 -42 -66 -51 -18 -8 -33 -19 -33 -24 0 -5 -13 -9 -30 -9
-25 0 -30 4 -30 25 0 14 -8 34 -17 45 -10 11 -29 57 -44 102 -24 72 -30 83
-51 83 -18 0 -24 -6 -26 -29 -2 -16 1 -39 6 -50 6 -12 18 -39 27 -61 9 -22 28
-61 41 -87 13 -26 24 -53 24 -60 0 -20 -32 -48 -56 -48 -13 0 -25 -4 -28 -9
-6 -8 -32 -14 -120 -28 -41 -6 -136 11 -170 31 -83 47 -105 148 -61 281 38
116 102 228 113 197 8 -25 28 -11 50 36 17 36 38 57 86 90 36 23 74 42 87 42
26 0 91 21 100 32 3 4 40 9 82 11 43 2 80 7 84 10 10 10 31 8 38 -3z"/>
<path d="M6260 4000 l0 -1300 340 0 340 0 0 50 0 50 -290 0 -290 0 0 1200 0
1200 310 0 310 0 0 50 0 50 -360 0 -360 0 0 -1300z"/>
<path d="M11040 5250 l0 -50 300 0 300 0 0 -1200 0 -1200 -290 0 -290 0 0 -50
0 -50 340 0 340 0 0 1300 0 1300 -350 0 -350 0 0 -50z"/>
<path d="M480 3120 l0 -2160 370 0 370 0 0 50 0 50 -320 0 -320 0 0 2060 0
2060 300 0 300 0 0 50 0 50 -350 0 -350 0 0 -2160z"/>
<path d="M4780 5230 l0 -50 230 0 230 0 0 -2060 0 -2060 -220 0 -220 0 0 -50
0 -50 270 0 270 0 0 2160 0 2160 -280 0 -280 0 0 -50z"/>
<path d="M6553 5025 c-27 -30 -6 -85 31 -85 9 0 16 -4 16 -10 0 -5 9 -10 20
-10 11 0 20 -4 20 -10 0 -5 9 -10 20 -10 11 0 20 -4 20 -10 0 -5 14 -10 30
-10 17 0 30 -4 30 -10 0 -5 9 -10 20 -10 11 0 20 -4 20 -10 0 -5 9 -10 20 -10
11 0 20 -4 20 -10 0 -5 9 -10 20 -10 11 0 20 -4 20 -10 0 -5 9 -10 20 -10 11
0 20 -4 20 -10 0 -5 14 -10 30 -10 17 0 30 -4 30 -10 0 -5 9 -10 20 -10 11 0
20 -4 20 -10 0 -5 9 -10 20 -10 11 0 20 -4 20 -10 0 -5 9 -10 20 -10 11 0 20
-4 20 -10 0 -5 9 -10 20 -10 11 0 20 -4 20 -10 0 -5 14 -10 30 -10 17 0 30 -4
30 -10 0 -5 9 -10 20 -10 11 0 20 -4 20 -10 0 -5 9 -10 20 -10 11 0 20 -4 20
-10 0 -5 9 -10 20 -10 11 0 20 -4 20 -10 0 -5 9 -10 20 -10 11 0 20 -4 20 -10
0 -5 14 -10 30 -10 17 0 30 -4 30 -10 0 -5 9 -10 20 -10 11 0 20 -4 20 -10 0
-5 9 -10 20 -10 11 0 20 -4 20 -10 0 -5 9 -10 20 -10 11 0 20 -4 20 -10 0 -5
14 -10 30 -10 17 0 30 -4 30 -10 0 -5 9 -10 20 -10 11 0 20 -4 20 -10 0 -5 9
-10 20 -10 11 0 20 -4 20 -10 0 -5 9 -10 20 -10 11 0 20 -4 20 -10 0 -5 9 -10
20 -10 11 0 20 -4 20 -10 0 -5 14 -10 30 -10 17 0 30 -4 30 -10 0 -5 9 -10 20
-10 11 0 20 -4 20 -10 0 -5 9 -10 20 -10 11 0 20 -4 20 -10 0 -5 9 -10 20 -10
11 0 20 -4 20 -10 0 -5 9 -10 20 -10 11 0 20 -4 20 -10 0 -5 14 -10 30 -10 17
0 30 -4 30 -10 0 -5 9 -10 20 -10 11 0 20 -4 20 -10 0 -5 9 -10 20 -10 11 0
20 -4 20 -10 0 -5 9 -10 20 -10 11 0 20 -4 20 -10 0 -5 9 -10 20 -10 11 0 20
-4 20 -10 0 -5 14 -10 30 -10 17 0 30 -4 30 -10 0 -5 9 -10 20 -10 11 0 20 -4
20 -10 0 -5 9 -10 20 -10 11 0 20 -4 20 -10 0 -5 9 -10 20 -10 11 0 20 -4 20
-10 0 -5 9 -10 20 -10 11 0 20 -4 20 -10 0 -5 14 -10 30 -10 17 0 30 -4 30
-10 0 -5 9 -10 20 -10 11 0 20 -4 20 -10 0 -5 9 -10 20 -10 11 0 20 -4 20 -10
0 -5 9 -10 20 -10 11 0 20 -4 20 -10 0 -5 9 -10 20 -10 11 0 20 -4 20 -10 0
-5 14 -10 30 -10 17 0 30 -4 30 -10 0 -5 9 -10 20 -10 11 0 20 -4 20 -10 0 -5
9 -10 20 -10 11 0 20 -4 20 -10 0 -5 9 -10 20 -10 11 0 20 -4 20 -10 0 -5 9
-10 20 -10 11 0 20 -4 20 -10 0 -5 14 -10 30 -10 17 0 30 -4 30 -10 0 -5 9
-10 20 -10 11 0 20 -4 20 -10 0 -5 9 -10 20 -10 11 0 20 -4 20 -10 0 -5 9 -10
20 -10 11 0 20 -4 20 -10 0 -5 9 -10 20 -10 11 0 20 -4 20 -10 0 -5 14 -10 30
-10 17 0 30 -4 30 -10 0 -5 9 -10 20 -10 11 0 20 -4 20 -10 0 -5 9 -10 20 -10
11 0 20 -4 20 -10 0 -5 9 -10 20 -10 11 0 20 -4 20 -10 0 -5 9 -10 20 -10 11
0 20 -4 20 -10 0 -5 14 -10 30 -10 17 0 30 -4 30 -10 0 -5 9 -10 20 -10 11 0
20 -4 20 -10 0 -5 9 -10 20 -10 11 0 20 -4 20 -10 0 -5 9 -10 20 -10 11 0 20
-4 20 -10 0 -5 9 -10 20 -10 11 0 20 -4 20 -10 0 -5 14 -10 30 -10 17 0 30 -4
30 -10 0 -5 9 -10 20 -10 11 0 20 -4 20 -10 0 -5 9 -10 20 -10 11 0 20 -4 20
-10 0 -5 9 -10 20 -10 11 0 20 -4 20 -10 0 -5 9 -10 20 -10 11 0 20 -4 20 -10
0 -5 14 -10 30 -10 17 0 30 -4 30 -10 0 -5 9 -10 20 -10 11 0 20 -4 20 -10 0
-5 9 -10 20 -10 11 0 20 -4 20 -10 0 -5 9 -10 20 -10 11 0 20 -4 20 -10 0 -5
14 -10 30 -10 17 0 30 -4 30 -10 0 -5 9 -10 20 -10 11 0 20 -4 20 -10 0 -5 9
-10 20 -10 11 0 20 -4 20 -10 0 -5 9 -10 20 -10 11 0 20 -4 20 -10 0 -5 9 -10
20 -10 11 0 20 -4 20 -10 0 -5 14 -10 30 -10 17 0 30 -4 30 -10 0 -5 9 -10 20
-10 11 0 20 -4 20 -10 0 -5 9 -10 20 -10 11 0 20 -4 20 -10 0 -5 9 -10 20 -10
11 0 20 -4 20 -10 0 -5 9 -10 20 -10 11 0 20 -4 20 -10 0 -5 14 -10 30 -10 17
0 30 -4 30 -10 0 -5 9 -10 20 -10 11 0 20 -4 20 -10 0 -5 9 -10 20 -10 11 0
20 -4 20 -10 0 -5 9 -10 20 -10 11 0 20 -4 20 -10 0 -5 9 -10 20 -10 11 0 20
-4 20 -10 0 -5 14 -10 30 -10 17 0 30 -4 30 -10 0 -5 9 -10 20 -10 11 0 20 -4
20 -10 0 -5 9 -10 20 -10 11 0 20 -4 20 -10 0 -5 9 -10 20 -10 11 0 20 -4 20
-10 0 -5 9 -10 20 -10 11 0 20 -4 20 -10 0 -5 14 -10 30 -10 17 0 30 -4 30
-10 0 -5 9 -10 20 -10 11 0 20 -4 20 -10 0 -5 9 -10 20 -10 11 0 20 -4 20 -10
0 -5 9 -10 20 -10 11 0 20 -4 20 -10 0 -5 9 -10 20 -10 11 0 20 -4 20 -10 0
-5 14 -10 30 -10 17 0 30 -4 30 -10 0 -5 9 -10 20 -10 11 0 20 -4 20 -10 0
-15 49 -12 66 4 28 29 8 86 -30 86 -9 0 -16 5 -16 10 0 6 -9 10 -20 10 -11 0
-20 5 -20 10 0 6 -9 10 -20 10 -11 0 -20 5 -20 10 0 6 -13 10 -30 10 -16 0
-30 5 -30 10 0 6 -9 10 -20 10 -11 0 -20 5 -20 10 0 6 -9 10 -20 10 -11 0 -20
5 -20 10 0 6 -9 10 -20 10 -11 0 -20 5 -20 10 0 6 -13 10 -30 10 -16 0 -30 5
-30 10 0 6 -9 10 -20 10 -11 0 -20 5 -20 10 0 6 -9 10 -20 10 -11 0 -20 5 -20
10 0 6 -9 10 -20 10 -11 0 -20 5 -20 10 0 6 -9 10 -20 10 -11 0 -20 5 -20 10
0 6 -13 10 -30 10 -16 0 -30 5 -30 10 0 6 -9 10 -20 10 -11 0 -20 5 -20 10 0
6 -9 10 -20 10 -11 0 -20 5 -20 10 0 6 -9 10 -20 10 -11 0 -20 5 -20 10 0 6
-9 10 -20 10 -11 0 -20 5 -20 10 0 6 -13 10 -30 10 -16 0 -30 5 -30 10 0 6 -9
10 -20 10 -11 0 -20 5 -20 10 0 6 -9 10 -20 10 -11 0 -20 5 -20 10 0 6 -9 10
-20 10 -11 0 -20 5 -20 10 0 6 -9 10 -20 10 -11 0 -20 5 -20 10 0 6 -13 10
-30 10 -16 0 -30 5 -30 10 0 6 -9 10 -20 10 -11 0 -20 5 -20 10 0 6 -9 10 -20
10 -11 0 -20 5 -20 10 0 6 -9 10 -20 10 -11 0 -20 5 -20 10 0 6 -9 10 -20 10
-11 0 -20 5 -20 10 0 6 -13 10 -30 10 -16 0 -30 5 -30 10 0 6 -9 10 -20 10
-11 0 -20 5 -20 10 0 6 -9 10 -20 10 -11 0 -20 5 -20 10 0 6 -9 10 -20 10 -11
0 -20 5 -20 10 0 6 -9 10 -20 10 -11 0 -20 5 -20 10 0 6 -13 10 -30 10 -16 0
-30 5 -30 10 0 6 -9 10 -20 10 -11 0 -20 5 -20 10 0 6 -9 10 -20 10 -11 0 -20
5 -20 10 0 6 -9 10 -20 10 -11 0 -20 5 -20 10 0 6 -9 10 -20 10 -11 0 -20 5
-20 10 0 6 -13 10 -30 10 -16 0 -30 5 -30 10 0 6 -9 10 -20 10 -11 0 -20 5
-20 10 0 6 -9 10 -20 10 -11 0 -20 5 -20 10 0 6 -9 10 -20 10 -11 0 -20 5 -20
10 0 6 -9 10 -20 10 -11 0 -20 5 -20 10 0 6 -13 10 -30 10 -16 0 -30 5 -30 10
0 6 -9 10 -20 10 -11 0 -20 5 -20 10 0 6 -9 10 -20 10 -11 0 -20 5 -20 10 0 6
-9 10 -20 10 -11 0 -20 5 -20 10 0 6 -9 10 -20 10 -11 0 -20 5 -20 10 0 6 -13
10 -30 10 -16 0 -30 5 -30 10 0 6 -9 10 -20 10 -11 0 -20 5 -20 10 0 6 -9 10
-20 10 -11 0 -20 5 -20 10 0 6 -9 10 -20 10 -11 0 -20 5 -20 10 0 6 -9 10 -20
10 -11 0 -20 5 -20 10 0 6 -13 10 -30 10 -16 0 -30 5 -30 10 0 6 -9 10 -20 10
-11 0 -20 5 -20 10 0 6 -9 10 -20 10 -11 0 -20 5 -20 10 0 6 -9 10 -20 10 -11
0 -20 5 -20 10 0 6 -13 10 -30 10 -16 0 -30 5 -30 10 0 6 -9 10 -20 10 -11 0
-20 5 -20 10 0 6 -9 10 -20 10 -11 0 -20 5 -20 10 0 6 -9 10 -20 10 -11 0 -20
5 -20 10 0 6 -9 10 -20 10 -11 0 -20 5 -20 10 0 6 -13 10 -30 10 -16 0 -30 5
-30 10 0 6 -9 10 -20 10 -11 0 -20 5 -20 10 0 6 -9 10 -20 10 -11 0 -20 5 -20
10 0 6 -9 10 -20 10 -11 0 -20 5 -20 10 0 6 -9 10 -20 10 -11 0 -20 5 -20 10
0 6 -13 10 -30 10 -16 0 -30 5 -30 10 0 6 -9 10 -20 10 -11 0 -20 5 -20 10 0
6 -9 10 -20 10 -11 0 -20 5 -20 10 0 6 -9 10 -20 10 -11 0 -20 5 -20 10 0 6
-9 10 -20 10 -11 0 -20 5 -20 10 0 6 -13 10 -30 10 -16 0 -30 5 -30 10 0 6 -9
10 -20 10 -11 0 -20 5 -20 10 0 6 -9 10 -20 10 -11 0 -20 5 -20 10 0 6 -9 10
-20 10 -11 0 -20 5 -20 10 0 6 -9 10 -20 10 -11 0 -20 5 -20 10 0 6 -13 10
-30 10 -16 0 -30 5 -30 10 0 6 -9 10 -20 10 -11 0 -20 5 -20 10 0 6 -9 10 -20
10 -11 0 -20 5 -20 10 0 6 -9 10 -20 10 -11 0 -20 5 -20 10 0 6 -9 10 -20 10
-11 0 -20 5 -20 10 0 6 -13 10 -30 10 -16 0 -30 5 -30 10 0 6 -9 10 -20 10
-11 0 -20 5 -20 10 0 6 -9 10 -20 10 -11 0 -20 5 -20 10 0 6 -9 10 -20 10 -11
0 -20 5 -20 10 0 6 -9 10 -20 10 -11 0 -20 5 -20 10 0 6 -13 10 -30 10 -16 0
-30 5 -30 10 0 6 -9 10 -20 10 -11 0 -20 5 -20 10 0 6 -9 10 -20 10 -11 0 -20
5 -20 10 0 6 -9 10 -20 10 -11 0 -20 5 -20 10 0 6 -9 10 -20 10 -11 0 -20 5
-20 10 0 6 -13 10 -30 10 -16 0 -30 5 -30 10 0 6 -9 10 -20 10 -11 0 -20 5
-20 10 0 6 -9 10 -20 10 -11 0 -20 5 -20 10 0 6 -9 10 -20 10 -11 0 -20 5 -20
10 0 6 -9 10 -20 10 -11 0 -20 5 -20 10 0 6 -13 10 -30 10 -16 0 -30 5 -30 10
0 6 -9 10 -20 10 -11 0 -20 5 -20 10 0 6 -9 10 -20 10 -11 0 -20 5 -20 10 0 6
-9 10 -20 10 -11 0 -20 5 -20 10 0 6 -9 10 -20 10 -11 0 -20 5 -20 10 0 6 -13
10 -30 10 -16 0 -30 5 -30 10 0 6 -9 10 -20 10 -11 0 -20 5 -20 10 0 15 -53
11 -67 -5z"/>
<path d="M8273 4885 c-7 -8 -13 -24 -13 -35 0 -53 -88 -50 1530 -50 1619 0
1530 -3 1530 50 0 53 89 50 -1532 50 -1285 -1 -1505 -3 -1515 -15z"/>
<path d="M4433 4505 c-10 -11 -13 -325 -13 -1495 0 -1597 -3 -1510 50 -1510
53 0 50 -88 50 1510 0 1603 3 1511 -52 1510 -13 -1 -29 -7 -35 -15z"/>
<path d="M2273 4425 c-10 -11 -13 -323 -13 -1485 0 -1587 -3 -1500 50 -1500
53 0 50 -87 50 1500 0 1592 3 1501 -52 1500 -13 -1 -29 -7 -35 -15z"/>
<path d="M3353 4425 c-10 -11 -13 -321 -13 -1475 0 -1576 -3 -1490 50 -1490
53 0 50 -86 50 1490 0 1582 3 1491 -52 1490 -13 -1 -29 -7 -35 -15z"/>
<path d="M1213 4405 c-10 -11 -13 -323 -13 -1485 0 -1587 -3 -1500 50 -1500
53 0 50 -87 50 1500 0 1592 3 1501 -52 1500 -13 -1 -29 -7 -35 -15z"/>
<path d="M9473 4145 c-7 -8 -13 -24 -13 -35 0 -52 -39 -50 920 -50 960 0 920
-2 920 50 0 52 40 50 -922 50 -758 -1 -895 -3 -905 -15z"/>
<path d="M10693 3345 c-17 -19 -16 -53 1 -71 12 -11 64 -14 286 -14 290 0 300
2 300 50 0 48 -10 50 -302 50 -223 -1 -275 -3 -285 -15z"/>
</g>
</svg>
