<svg id="svg" version="1.1" xmlns="http://www.w3.org/2000/svg" xmlns:xlink="http://www.w3.org/1999/xlink" width="400" height="225" viewBox="0, 0, 400,225"><g id="svgg"><path id="path0" d="M0.000 112.549 L 0.000 225.098 200.000 225.098 L 400.000 225.098 400.000 112.549 L 400.000 0.000 200.000 0.000 L 0.000 0.000 0.000 112.549 M217.018 56.854 C 217.191 56.962,217.434 57.057,217.558 57.064 C 218.936 57.147,221.047 57.483,221.047 57.619 C 221.047 57.715,221.528 57.851,222.116 57.922 C 224.012 58.150,224.409 58.233,224.700 58.465 C 224.857 58.590,225.362 58.760,225.821 58.842 C 226.280 58.925,226.938 59.140,227.284 59.320 C 227.629 59.501,228.393 59.712,228.981 59.791 C 229.569 59.870,230.051 60.009,230.051 60.101 C 230.051 60.544,235.139 60.908,236.518 60.564 C 237.556 60.305,239.055 59.171,239.055 58.644 C 239.055 58.510,239.257 58.254,239.505 58.075 C 239.752 57.897,239.955 57.624,239.955 57.468 C 239.955 56.696,243.222 56.185,244.191 56.805 C 244.503 57.005,244.348 59.864,244.013 60.101 C 243.925 60.163,243.722 61.328,243.560 62.690 C 243.399 64.052,243.189 65.267,243.094 65.391 C 242.947 65.582,242.842 66.227,242.562 68.659 C 242.540 68.847,242.452 69.115,242.366 69.254 C 242.207 69.510,242.140 69.937,241.874 72.369 C 241.792 73.112,241.638 73.922,241.531 74.170 C 241.319 74.657,240.972 77.144,241.052 77.603 C 241.078 77.757,241.009 77.884,240.897 77.884 C 240.784 77.884,240.630 78.467,240.554 79.178 C 240.322 81.339,240.144 82.260,239.904 82.555 C 239.743 82.752,239.759 82.836,239.955 82.836 C 240.153 82.836,240.167 82.919,240.003 83.118 C 239.786 83.381,239.445 85.386,239.467 86.269 C 239.472 86.486,239.395 86.663,239.295 86.663 C 239.195 86.663,239.040 87.347,238.951 88.182 C 238.678 90.761,238.640 90.964,238.365 91.294 C 238.159 91.543,238.163 91.615,238.387 91.615 C 238.579 91.615,238.539 91.765,238.264 92.068 C 238.020 92.337,237.694 92.471,237.460 92.397 C 237.244 92.328,236.995 92.388,236.907 92.530 C 236.791 92.718,236.696 92.705,236.560 92.485 C 236.412 92.247,236.313 92.240,236.098 92.456 C 235.889 92.665,235.749 92.668,235.509 92.468 C 235.268 92.269,235.153 92.272,235.022 92.484 C 234.730 92.956,234.314 92.214,234.262 91.131 C 234.236 90.592,234.151 90.101,234.073 90.039 C 233.995 89.977,233.873 89.268,233.801 88.464 C 233.527 85.407,233.351 84.293,233.112 84.113 C 232.938 83.983,232.956 83.891,233.171 83.805 C 233.374 83.724,233.396 83.632,233.237 83.533 C 233.105 83.451,232.880 82.628,232.738 81.703 C 232.596 80.779,232.398 79.921,232.298 79.797 C 232.198 79.674,232.046 79.192,231.959 78.728 C 231.872 78.264,231.711 77.884,231.601 77.884 C 231.491 77.884,231.401 77.663,231.401 77.394 C 231.401 76.756,230.912 75.408,230.681 75.408 C 230.582 75.408,230.501 75.241,230.501 75.037 C 230.501 74.565,229.341 72.257,229.103 72.257 C 229.005 72.257,228.925 72.110,228.925 71.931 C 228.925 71.497,225.317 67.719,224.501 67.298 C 224.149 67.116,223.810 66.901,223.747 66.819 C 223.435 66.408,220.434 65.051,219.300 64.807 C 218.590 64.654,217.900 64.447,217.767 64.347 C 217.635 64.247,216.976 64.099,216.304 64.019 C 215.632 63.938,215.007 63.758,214.916 63.618 C 214.799 63.438,214.750 63.446,214.747 63.645 C 214.744 63.929,213.986 63.920,213.699 63.634 C 213.403 63.338,208.263 63.454,208.139 63.759 C 208.054 63.971,207.966 63.957,207.786 63.703 C 207.651 63.512,207.546 63.477,207.544 63.624 C 207.542 63.778,206.906 63.946,205.965 64.041 C 205.098 64.128,204.389 64.274,204.389 64.365 C 204.389 64.457,203.832 64.656,203.151 64.809 C 202.470 64.961,201.913 65.180,201.913 65.295 C 201.913 65.410,201.726 65.504,201.497 65.504 C 201.098 65.504,198.997 66.516,198.762 66.821 C 198.700 66.902,198.394 67.099,198.081 67.259 C 197.769 67.420,197.142 67.901,196.689 68.328 C 196.236 68.756,195.765 69.105,195.641 69.105 C 195.517 69.105,195.351 69.309,195.272 69.558 C 195.193 69.807,194.832 70.164,194.469 70.352 C 194.106 70.539,193.810 70.811,193.810 70.956 C 193.810 71.101,193.566 71.478,193.268 71.794 C 192.456 72.656,191.359 74.833,191.190 75.915 C 191.107 76.441,190.938 76.938,190.813 77.020 C 190.504 77.221,190.511 83.623,190.821 84.007 C 190.951 84.168,191.131 84.645,191.221 85.068 C 191.427 86.031,192.275 87.646,193.145 88.732 C 193.510 89.189,193.812 89.645,193.814 89.745 C 193.823 90.075,198.474 94.085,198.853 94.089 C 198.965 94.090,199.389 94.344,199.795 94.654 C 200.201 94.963,200.641 95.217,200.773 95.217 C 200.905 95.217,201.013 95.311,201.013 95.425 C 201.013 95.540,201.570 95.898,202.251 96.220 C 202.932 96.542,203.489 96.904,203.489 97.024 C 203.489 97.144,203.597 97.243,203.728 97.243 C 204.112 97.243,206.512 98.449,206.694 98.734 C 206.785 98.876,207.139 99.063,207.479 99.149 C 207.820 99.234,208.151 99.372,208.214 99.455 C 208.277 99.538,209.190 100.046,210.242 100.584 C 211.294 101.122,213.371 102.210,214.856 103.003 C 216.342 103.796,217.836 104.568,218.177 104.719 C 218.517 104.871,218.796 105.074,218.796 105.170 C 218.796 105.267,218.921 105.346,219.074 105.346 C 219.433 105.346,221.811 106.530,221.911 106.759 C 221.954 106.854,222.308 107.080,222.699 107.260 C 223.407 107.587,224.209 108.057,224.423 108.273 C 224.485 108.335,224.992 108.690,225.549 109.061 C 226.106 109.432,226.595 109.811,226.637 109.904 C 226.678 109.997,226.821 110.073,226.955 110.073 C 227.089 110.073,227.882 110.681,228.718 111.424 C 229.554 112.167,230.347 112.774,230.482 112.774 C 230.616 112.774,230.726 112.926,230.726 113.112 C 230.726 113.298,230.842 113.450,230.983 113.450 C 231.241 113.450,232.527 114.681,232.527 114.928 C 232.527 115.001,233.033 115.643,233.652 116.355 C 234.271 117.067,234.778 117.771,234.778 117.920 C 234.778 118.069,234.923 118.247,235.102 118.315 C 235.280 118.383,235.490 118.735,235.570 119.096 C 235.649 119.457,235.798 119.752,235.901 119.752 C 236.004 119.752,236.306 120.234,236.572 120.822 C 236.839 121.410,237.199 122.195,237.373 122.566 C 237.547 122.938,237.809 123.748,237.954 124.367 C 238.100 124.986,238.318 125.619,238.439 125.774 C 238.592 125.969,238.565 126.056,238.351 126.059 C 238.108 126.061,238.115 126.108,238.379 126.275 C 238.869 126.585,238.857 136.633,238.367 136.634 C 238.298 136.635,238.114 137.396,237.958 138.327 C 237.801 139.257,237.529 140.296,237.352 140.634 C 237.176 140.972,237.031 141.418,237.030 141.625 C 237.029 141.832,236.881 142.287,236.700 142.638 C 236.520 142.988,235.887 144.273,235.293 145.492 C 233.828 148.505,233.794 148.565,233.599 148.565 C 233.504 148.565,233.427 148.677,233.427 148.814 C 233.427 149.050,232.698 150.056,231.963 150.835 C 231.778 151.031,231.626 151.310,231.626 151.455 C 231.626 151.770,225.834 157.569,225.519 157.569 C 225.400 157.569,225.067 157.822,224.781 158.132 C 224.494 158.441,224.160 158.694,224.038 158.694 C 223.917 158.694,223.637 158.894,223.415 159.139 C 223.194 159.383,222.799 159.648,222.536 159.727 C 222.274 159.807,221.854 160.059,221.603 160.288 C 221.173 160.681,220.156 161.292,218.346 162.246 C 217.912 162.474,217.355 162.772,217.107 162.907 C 216.659 163.153,214.112 164.338,212.831 164.897 C 212.459 165.059,211.902 165.257,211.593 165.337 C 211.283 165.418,210.698 165.633,210.293 165.816 C 209.887 165.999,209.129 166.200,208.609 166.263 C 208.088 166.326,207.609 166.456,207.545 166.553 C 207.424 166.735,206.090 166.966,203.939 167.177 C 203.258 167.244,202.651 167.373,202.589 167.465 C 202.284 167.914,192.462 167.839,192.456 167.387 C 192.454 167.249,192.353 167.288,192.231 167.473 C 192.075 167.711,191.959 167.736,191.840 167.557 C 191.747 167.418,190.887 167.239,189.927 167.159 C 186.899 166.907,186.046 166.772,185.960 166.531 C 185.911 166.392,185.797 166.421,185.679 166.604 C 185.529 166.836,185.439 166.845,185.306 166.641 C 185.210 166.493,184.618 166.313,183.990 166.241 C 183.361 166.169,182.510 166.014,182.097 165.895 C 181.684 165.777,181.299 165.728,181.240 165.787 C 181.181 165.846,181.004 165.786,180.846 165.655 C 180.688 165.524,180.176 165.370,179.708 165.312 C 179.240 165.254,178.803 165.122,178.736 165.020 C 178.623 164.846,178.122 164.726,176.266 164.430 C 175.841 164.363,175.365 164.201,175.209 164.071 C 175.052 163.942,174.489 163.786,173.956 163.726 C 173.424 163.666,172.892 163.522,172.774 163.407 C 172.483 163.120,168.824 163.134,168.824 163.421 C 168.824 163.545,168.674 163.647,168.490 163.647 C 168.307 163.647,167.570 164.230,166.852 164.944 L 165.547 166.240 163.978 166.206 C 163.115 166.187,162.276 166.160,162.113 166.147 C 161.890 166.129,161.858 165.864,161.982 165.053 C 162.073 164.465,162.160 163.831,162.176 163.643 C 162.192 163.455,162.269 163.196,162.349 163.068 C 162.428 162.940,162.611 161.929,162.757 160.821 C 162.902 159.713,163.124 158.680,163.249 158.526 C 163.408 158.329,163.392 158.244,163.196 158.244 C 163.001 158.244,162.985 158.159,163.143 157.963 C 163.390 157.657,163.663 156.256,163.695 155.127 C 163.706 154.737,163.790 154.418,163.881 154.418 C 163.972 154.418,164.172 153.379,164.326 152.110 C 164.481 150.841,164.720 149.729,164.858 149.638 C 165.029 149.525,165.011 149.471,164.801 149.469 C 164.577 149.466,164.557 149.387,164.729 149.179 C 164.936 148.930,165.443 145.881,165.530 144.363 C 165.546 144.074,165.628 143.838,165.711 143.838 C 165.794 143.838,165.933 143.154,166.020 142.319 C 166.106 141.483,166.256 140.698,166.353 140.574 C 166.449 140.450,166.584 139.842,166.652 139.223 C 166.950 136.529,167.096 135.608,167.260 135.397 C 167.356 135.273,167.507 134.437,167.596 133.540 C 167.684 132.642,167.830 131.908,167.920 131.908 C 168.010 131.908,168.147 131.230,168.224 130.401 C 168.337 129.188,169.049 127.494,169.049 128.437 C 169.049 128.699,169.934 128.723,170.324 128.472 C 170.468 128.379,170.629 128.431,170.681 128.586 C 170.755 128.805,170.850 128.809,171.098 128.603 C 171.657 128.142,172.534 129.004,172.557 130.038 C 172.609 132.360,172.935 136.097,173.103 136.300 C 173.208 136.426,173.342 136.933,173.402 137.426 C 173.694 139.847,173.848 140.687,174.001 140.687 C 174.093 140.687,174.287 141.294,174.433 142.037 C 174.580 142.780,174.795 143.388,174.913 143.388 C 175.030 143.388,175.127 143.565,175.128 143.782 C 175.129 143.998,175.270 144.444,175.441 144.773 C 175.612 145.101,175.880 145.760,176.035 146.236 C 176.190 146.712,176.379 147.153,176.454 147.214 C 176.671 147.394,177.134 148.168,177.498 148.959 C 177.683 149.361,177.934 149.690,178.056 149.690 C 178.178 149.690,178.278 149.825,178.278 149.989 C 178.278 150.153,178.531 150.525,178.841 150.816 C 179.150 151.107,179.403 151.421,179.403 151.514 C 179.403 151.952,184.080 156.218,184.560 156.218 C 184.695 156.218,184.806 156.314,184.806 156.431 C 184.806 156.665,185.025 156.794,187.770 158.174 C 188.802 158.693,190.101 159.242,190.658 159.395 C 191.216 159.548,191.775 159.751,191.902 159.845 C 192.029 159.939,192.687 160.087,193.365 160.173 C 194.043 160.259,194.726 160.432,194.884 160.557 C 195.266 160.859,202.816 160.854,203.008 160.551 C 203.087 160.426,203.784 160.251,204.558 160.163 C 205.332 160.074,205.965 159.932,205.965 159.847 C 205.965 159.762,206.446 159.552,207.034 159.380 C 208.542 158.938,210.438 157.918,211.968 156.725 C 212.484 156.322,212.965 155.993,213.037 155.993 C 213.198 155.993,215.644 153.543,215.644 153.383 C 215.644 153.319,215.957 152.944,216.340 152.548 C 216.723 152.153,217.180 151.500,217.356 151.097 C 217.532 150.695,217.768 150.366,217.880 150.366 C 217.993 150.366,218.157 150.037,218.245 149.634 C 218.333 149.232,218.595 148.550,218.826 148.118 C 219.057 147.687,219.246 147.110,219.246 146.837 C 219.246 146.564,219.337 146.284,219.449 146.215 C 220.097 145.815,220.096 137.310,219.448 137.310 C 219.337 137.310,219.246 137.140,219.246 136.933 C 219.246 136.388,217.713 133.367,217.203 132.905 C 216.965 132.690,216.770 132.410,216.770 132.283 C 216.770 132.062,214.135 129.432,213.913 129.432 C 213.853 129.432,213.179 128.875,212.417 128.195 C 211.654 127.514,210.928 126.957,210.803 126.957 C 210.678 126.956,210.021 126.500,209.342 125.943 C 208.662 125.385,208.014 124.930,207.901 124.930 C 207.788 124.930,207.382 124.696,206.999 124.411 C 206.616 124.125,205.796 123.602,205.177 123.248 C 204.558 122.895,204.001 122.544,203.939 122.468 C 203.877 122.393,203.573 122.202,203.264 122.044 C 202.954 121.886,202.296 121.507,201.801 121.203 C 201.306 120.898,200.622 120.526,200.281 120.376 C 199.941 120.227,199.662 120.033,199.662 119.946 C 199.662 119.859,199.358 119.721,198.987 119.640 C 198.616 119.558,198.312 119.406,198.312 119.301 C 198.312 119.196,197.679 118.794,196.905 118.409 C 195.388 117.654,194.215 117.007,194.035 116.826 C 193.973 116.764,193.618 116.561,193.247 116.376 C 192.876 116.191,192.521 115.988,192.459 115.926 C 192.320 115.787,191.429 115.272,190.602 114.855 C 190.262 114.683,189.983 114.473,189.983 114.388 C 189.983 114.304,189.654 114.089,189.252 113.911 C 188.849 113.733,188.419 113.504,188.295 113.403 C 187.351 112.628,185.918 111.649,185.728 111.649 C 185.601 111.649,185.389 111.446,185.256 111.199 C 185.124 110.951,184.910 110.748,184.782 110.748 C 184.349 110.748,178.953 105.813,178.953 105.418 C 178.953 105.352,178.699 104.980,178.387 104.591 C 178.076 104.201,177.747 103.782,177.656 103.658 C 177.326 103.210,176.252 100.944,176.252 100.698 C 176.252 100.559,176.101 100.155,175.916 99.801 C 175.731 99.446,175.579 98.995,175.578 98.799 C 175.577 98.603,175.509 98.376,175.427 98.293 C 175.345 98.211,175.252 97.916,175.220 97.637 C 175.188 97.358,175.103 96.826,175.031 96.455 C 174.699 94.755,174.943 87.553,175.351 87.001 C 175.442 86.877,175.588 86.221,175.674 85.543 C 175.760 84.865,175.909 84.207,176.004 84.080 C 176.100 83.953,176.308 83.246,176.466 82.510 C 176.625 81.773,176.829 81.013,176.921 80.822 C 177.432 79.745,177.828 78.801,178.082 78.053 C 178.239 77.589,178.441 77.209,178.530 77.209 C 178.620 77.209,178.759 76.905,178.841 76.533 C 178.922 76.162,179.070 75.858,179.169 75.858 C 179.269 75.858,179.629 75.307,179.970 74.633 C 180.311 73.958,180.728 73.354,180.897 73.289 C 181.066 73.224,181.204 73.052,181.204 72.906 C 181.204 72.760,181.559 72.208,181.992 71.679 C 182.425 71.150,182.780 70.608,182.780 70.474 C 182.780 70.340,182.932 70.231,183.118 70.231 C 183.303 70.231,183.455 70.104,183.456 69.949 C 183.456 69.795,183.836 69.298,184.300 68.845 C 184.764 68.393,185.350 67.785,185.603 67.495 C 186.239 66.764,187.685 65.504,187.887 65.504 C 187.979 65.504,188.260 65.302,188.512 65.055 C 189.289 64.293,190.374 63.478,190.611 63.478 C 190.734 63.478,190.894 63.326,190.965 63.140 C 191.036 62.954,191.206 62.802,191.342 62.802 C 191.478 62.802,191.927 62.544,192.341 62.229 C 193.330 61.475,196.757 59.732,197.627 59.541 C 198.004 59.458,198.312 59.297,198.312 59.183 C 198.312 59.069,198.474 58.976,198.672 58.976 C 198.870 58.976,199.351 58.833,199.741 58.658 C 200.131 58.483,201.007 58.223,201.688 58.079 C 202.369 57.935,203.129 57.730,203.376 57.622 C 203.780 57.446,205.008 57.240,208.554 56.753 C 210.125 56.538,216.636 56.615,217.018 56.854 " stroke="none" fill="#fcfcfc" fill-rule="evenodd"></path><path id="path1" d="M209.731 56.855 C 209.702 56.880,208.666 56.971,207.428 57.058 C 206.190 57.144,205.076 57.297,204.952 57.398 C 204.828 57.499,204.145 57.654,203.433 57.742 C 202.721 57.830,202.138 57.983,202.138 58.082 C 202.138 58.180,201.708 58.332,201.182 58.418 C 200.656 58.505,199.820 58.755,199.325 58.974 C 198.829 59.193,198.171 59.442,197.862 59.527 C 197.210 59.706,195.776 60.375,195.611 60.576 C 195.549 60.651,195.118 60.849,194.654 61.015 C 194.190 61.181,193.810 61.398,193.810 61.497 C 193.810 61.596,193.702 61.677,193.570 61.677 C 193.438 61.677,192.998 61.930,192.592 62.240 C 192.186 62.549,191.773 62.802,191.673 62.802 C 191.574 62.802,191.060 63.157,190.531 63.590 C 190.002 64.024,189.481 64.378,189.372 64.378 C 189.263 64.378,188.926 64.678,188.622 65.044 C 188.318 65.410,187.962 65.714,187.831 65.719 C 187.591 65.729,184.164 69.119,183.192 70.310 C 182.903 70.663,182.490 71.116,182.273 71.316 C 182.057 71.517,181.880 71.771,181.880 71.880 C 181.880 71.990,181.567 72.473,181.186 72.955 C 180.403 73.943,179.802 74.987,178.605 77.434 C 177.383 79.931,177.199 80.373,176.916 81.486 C 176.774 82.043,176.580 82.600,176.484 82.724 C 176.388 82.847,176.236 83.455,176.147 84.074 C 176.058 84.693,175.901 85.301,175.799 85.426 C 175.571 85.703,175.127 89.567,175.127 91.269 C 175.127 92.040,175.030 92.515,174.874 92.515 C 174.702 92.515,174.693 92.605,174.847 92.797 C 174.970 92.952,175.135 93.990,175.212 95.104 C 175.407 97.914,175.532 98.681,175.916 99.418 C 176.099 99.769,176.250 100.161,176.251 100.290 C 176.251 100.419,176.455 100.921,176.702 101.407 C 176.950 101.893,177.153 102.420,177.153 102.580 C 177.153 102.739,177.254 102.870,177.378 102.870 C 177.501 102.870,177.603 103.004,177.603 103.167 C 177.603 103.331,177.957 103.878,178.391 104.385 C 178.824 104.891,179.178 105.376,179.178 105.462 C 179.178 105.686,182.854 109.393,183.079 109.395 C 183.182 109.397,183.840 109.889,184.542 110.490 C 185.244 111.090,185.996 111.644,186.213 111.721 C 186.429 111.797,186.607 111.964,186.607 112.092 C 186.607 112.220,186.724 112.324,186.867 112.324 C 187.010 112.324,187.459 112.577,187.865 112.887 C 188.270 113.196,188.671 113.450,188.754 113.450 C 188.837 113.450,189.285 113.750,189.749 114.118 C 190.214 114.486,190.836 114.898,191.132 115.034 C 191.878 115.376,193.307 116.205,195.281 117.440 C 195.524 117.592,196.179 117.954,196.736 118.245 C 199.111 119.483,200.232 120.098,200.338 120.219 C 200.400 120.290,200.602 120.414,200.788 120.496 C 200.974 120.577,201.531 120.899,202.026 121.212 C 202.521 121.525,203.255 121.934,203.658 122.120 C 204.060 122.307,204.389 122.537,204.389 122.632 C 204.389 122.727,204.668 122.931,205.008 123.084 C 206.130 123.589,206.866 124.051,206.866 124.249 C 206.866 124.356,207.169 124.510,207.541 124.592 C 207.912 124.674,208.216 124.837,208.216 124.955 C 208.216 125.072,208.393 125.234,208.610 125.314 C 208.827 125.394,209.409 125.780,209.904 126.173 C 210.400 126.565,210.957 126.942,211.142 127.010 C 212.258 127.421,217.588 132.733,218.113 133.956 C 218.240 134.253,218.429 134.648,218.532 134.834 C 219.188 136.013,219.489 136.786,219.615 137.610 C 219.693 138.126,219.852 138.669,219.968 138.816 C 220.243 139.165,220.242 144.235,219.967 144.583 C 219.851 144.730,219.691 145.366,219.611 145.996 C 219.531 146.627,219.264 147.559,219.018 148.068 C 218.772 148.577,218.568 149.125,218.564 149.286 C 218.561 149.446,218.257 149.976,217.889 150.462 C 217.521 150.948,217.220 151.482,217.220 151.648 C 217.220 152.074,212.375 156.894,211.946 156.894 C 211.752 156.894,211.593 156.989,211.593 157.106 C 211.593 157.338,211.205 157.572,209.199 158.552 C 208.473 158.906,207.625 159.325,207.316 159.482 C 207.006 159.639,206.398 159.836,205.965 159.920 C 205.532 160.003,204.975 160.165,204.727 160.279 C 203.215 160.975,193.134 160.970,193.134 160.273 C 193.134 160.179,192.653 160.039,192.065 159.960 C 191.477 159.881,190.724 159.675,190.392 159.502 C 190.060 159.329,189.478 159.119,189.098 159.035 C 188.718 158.952,188.407 158.807,188.407 158.713 C 188.407 158.618,188.002 158.408,187.507 158.244 C 187.012 158.081,186.607 157.862,186.607 157.758 C 186.607 157.654,186.499 157.569,186.367 157.569 C 186.234 157.569,185.794 157.316,185.389 157.006 C 184.983 156.697,184.526 156.443,184.373 156.443 C 184.049 156.443,178.053 150.477,178.053 150.154 C 178.053 149.952,177.198 148.546,176.735 147.987 C 176.625 147.855,176.401 147.374,176.236 146.918 C 176.071 146.462,175.856 146.089,175.757 146.089 C 175.658 146.089,175.576 145.912,175.575 145.695 C 175.575 145.478,175.445 145.048,175.287 144.738 C 175.129 144.429,174.866 143.720,174.703 143.163 C 174.541 142.606,174.323 141.985,174.220 141.783 C 174.116 141.582,173.961 141.025,173.875 140.545 C 173.788 140.066,173.637 139.571,173.538 139.445 C 173.356 139.213,173.228 138.382,172.961 135.678 C 172.878 134.842,172.746 134.159,172.667 134.159 C 172.540 134.159,172.462 133.185,172.331 129.947 C 172.281 128.718,172.284 128.720,170.399 128.675 C 168.437 128.629,168.456 128.606,168.143 131.242 C 168.003 132.413,167.801 133.573,167.694 133.821 C 167.586 134.069,167.387 135.163,167.251 136.252 C 167.115 137.342,166.917 138.461,166.811 138.739 C 166.705 139.018,166.545 139.950,166.456 140.810 C 166.366 141.671,166.213 142.476,166.116 142.600 C 166.019 142.724,165.878 143.382,165.804 144.063 C 165.514 146.727,165.381 147.561,165.212 147.777 C 165.115 147.901,164.966 148.711,164.879 149.578 C 164.793 150.445,164.646 151.255,164.553 151.379 C 164.394 151.590,164.246 152.530,163.951 155.205 C 163.883 155.824,163.737 156.441,163.628 156.575 C 163.518 156.709,163.365 157.519,163.288 158.376 C 163.210 159.232,163.070 160.034,162.977 160.158 C 162.823 160.362,162.707 161.112,162.370 164.097 C 162.307 164.654,162.148 165.240,162.017 165.398 C 161.658 165.833,162.477 166.379,162.998 166.054 C 163.283 165.876,163.479 165.890,163.741 166.108 C 163.979 166.305,164.097 166.319,164.097 166.150 C 164.097 165.821,164.934 165.821,165.044 166.150 C 165.090 166.290,165.693 165.834,166.384 165.138 C 167.075 164.441,167.746 163.872,167.875 163.872 C 168.005 163.872,168.153 163.745,168.205 163.590 C 168.352 163.148,174.675 163.241,174.676 163.685 C 174.676 163.836,175.688 164.112,176.657 164.224 C 176.941 164.258,177.296 164.383,177.445 164.503 C 177.672 164.687,179.184 165.052,179.966 165.113 C 180.090 165.123,180.406 165.249,180.668 165.394 C 180.930 165.538,181.185 165.617,181.233 165.569 C 181.281 165.521,181.920 165.621,182.652 165.791 C 183.385 165.961,184.059 166.054,184.151 165.998 C 184.242 165.941,184.351 165.995,184.393 166.118 C 184.434 166.241,185.025 166.407,185.706 166.489 C 187.428 166.694,187.575 166.719,187.957 166.864 C 188.475 167.062,190.273 167.240,193.247 167.389 C 194.733 167.464,196.066 167.620,196.210 167.735 C 196.360 167.856,196.523 167.861,196.595 167.745 C 196.769 167.463,198.762 167.464,198.762 167.746 C 198.762 167.902,198.855 167.904,199.043 167.754 C 199.198 167.631,200.287 167.463,201.463 167.381 C 204.527 167.168,205.598 167.022,205.841 166.783 C 205.959 166.667,206.313 166.573,206.629 166.573 C 207.319 166.573,211.166 165.479,211.469 165.197 C 211.586 165.087,211.824 164.997,211.997 164.997 C 212.305 164.997,212.790 164.801,215.082 163.752 C 215.701 163.468,216.359 163.176,216.545 163.103 C 216.730 163.029,217.389 162.671,218.008 162.306 C 218.627 161.941,219.589 161.409,220.146 161.125 C 220.703 160.840,221.261 160.501,221.384 160.370 C 221.584 160.158,222.963 159.197,223.950 158.582 C 224.342 158.337,226.127 156.874,227.286 155.847 C 227.684 155.494,228.261 155.003,228.569 154.755 C 228.877 154.508,229.134 154.215,229.140 154.106 C 229.146 153.996,229.378 153.692,229.657 153.430 C 230.462 152.673,232.527 150.236,232.527 150.043 C 232.527 149.947,232.780 149.567,233.089 149.199 C 233.399 148.831,233.652 148.386,233.652 148.210 C 233.652 148.034,233.744 147.890,233.855 147.890 C 234.072 147.890,235.903 144.383,235.903 143.967 C 235.903 143.830,236.106 143.341,236.353 142.879 C 236.601 142.417,236.804 141.842,236.804 141.601 C 236.804 141.360,236.898 141.105,237.014 141.034 C 237.129 140.962,237.335 140.323,237.471 139.613 C 237.608 138.904,237.809 138.160,237.920 137.960 C 238.089 137.652,238.234 136.768,238.477 134.557 C 238.501 134.343,238.590 134.098,238.675 134.013 C 238.874 133.814,238.878 128.430,238.680 128.231 C 238.597 128.149,238.504 127.854,238.473 127.575 C 238.258 125.663,238.149 125.081,237.965 124.852 C 237.850 124.709,237.684 124.237,237.595 123.804 C 237.507 123.371,237.306 122.812,237.149 122.563 C 236.991 122.313,236.791 121.782,236.703 121.381 C 236.615 120.981,236.461 120.653,236.362 120.653 C 236.262 120.653,236.123 120.476,236.052 120.259 C 235.797 119.479,234.702 117.815,233.625 116.570 C 233.021 115.873,232.527 115.189,232.527 115.051 C 232.527 114.913,232.399 114.800,232.242 114.800 C 232.086 114.800,231.858 114.581,231.736 114.312 C 231.614 114.044,231.320 113.715,231.083 113.581 C 230.845 113.447,230.238 112.961,229.732 112.501 C 228.052 110.973,226.114 109.402,225.908 109.400 C 225.795 109.399,225.372 109.145,224.966 108.835 C 224.560 108.526,224.120 108.272,223.988 108.272 C 223.856 108.272,223.748 108.179,223.748 108.066 C 223.748 107.851,223.480 107.697,220.204 106.032 C 219.120 105.481,217.828 104.765,217.333 104.441 C 216.837 104.117,216.078 103.712,215.644 103.542 C 215.211 103.372,214.806 103.175,214.744 103.105 C 214.682 103.034,214.074 102.694,213.393 102.349 C 212.712 102.004,210.940 101.068,209.454 100.269 C 207.968 99.470,206.576 98.754,206.359 98.678 C 206.142 98.603,205.965 98.459,205.965 98.360 C 205.965 98.260,205.667 98.113,205.303 98.033 C 204.939 97.953,204.236 97.595,203.742 97.237 C 203.247 96.878,202.507 96.430,202.097 96.239 C 201.686 96.049,201.077 95.715,200.743 95.499 C 199.414 94.635,198.195 93.745,198.124 93.585 C 198.083 93.492,197.907 93.416,197.733 93.416 C 196.673 93.416,191.863 87.642,191.421 85.839 C 191.335 85.487,191.176 85.141,191.068 85.070 C 190.960 84.999,190.810 84.391,190.734 83.720 C 190.658 83.048,190.497 82.372,190.375 82.217 C 190.227 82.029,190.240 81.831,190.415 81.620 C 190.616 81.378,190.610 81.282,190.386 81.206 C 190.149 81.127,190.149 81.044,190.386 80.756 C 190.611 80.484,190.615 80.383,190.403 80.312 C 190.227 80.254,190.199 80.106,190.327 79.901 C 190.602 79.455,190.627 78.784,190.368 78.784 C 190.240 78.784,190.246 78.671,190.384 78.503 C 190.511 78.348,190.687 77.639,190.775 76.927 C 190.863 76.216,191.025 75.633,191.135 75.633 C 191.244 75.633,191.334 75.464,191.334 75.257 C 191.334 73.787,196.339 67.530,197.514 67.530 C 197.693 67.530,197.920 67.403,198.019 67.248 C 198.250 66.887,198.803 66.550,200.338 65.837 C 201.019 65.520,201.847 65.122,202.179 64.952 C 202.510 64.782,203.371 64.522,204.092 64.375 C 204.813 64.227,205.646 63.991,205.943 63.849 C 206.776 63.451,215.685 63.495,216.173 63.899 C 216.454 64.133,216.545 64.140,216.545 63.928 C 216.545 63.732,216.629 63.716,216.826 63.876 C 216.981 64.002,217.709 64.228,218.445 64.379 C 219.180 64.530,219.940 64.733,220.133 64.831 C 220.326 64.929,221.142 65.327,221.947 65.715 C 223.764 66.590,224.262 66.890,224.491 67.248 C 224.590 67.403,224.800 67.530,224.958 67.530 C 225.212 67.530,228.224 70.551,228.813 71.395 C 229.339 72.150,229.625 72.663,230.171 73.832 C 230.489 74.513,230.942 75.476,231.178 75.971 C 231.413 76.466,231.663 77.241,231.734 77.693 C 231.805 78.144,232.003 78.803,232.174 79.156 C 232.345 79.509,232.556 80.355,232.643 81.035 C 232.731 81.716,232.887 82.379,232.991 82.508 C 233.153 82.709,233.299 83.561,233.493 85.425 C 233.519 85.672,233.605 85.926,233.685 85.988 C 233.814 86.088,233.950 87.280,234.235 90.802 C 234.355 92.290,234.501 92.406,236.229 92.384 C 238.094 92.361,238.224 92.250,238.448 90.479 C 238.488 90.164,238.581 89.810,238.654 89.692 C 238.727 89.573,238.845 88.970,238.918 88.351 C 239.181 86.096,239.291 85.412,239.499 84.750 C 239.615 84.378,239.777 83.467,239.859 82.724 C 239.941 81.981,240.122 81.299,240.263 81.208 C 240.439 81.094,240.422 81.041,240.209 81.039 C 239.984 81.036,239.965 80.957,240.138 80.748 C 240.269 80.590,240.438 79.957,240.513 79.342 C 240.588 78.726,240.703 77.767,240.770 77.211 C 240.836 76.655,240.969 76.097,241.065 75.973 C 241.161 75.848,241.364 74.684,241.517 73.386 C 241.669 72.088,241.857 70.925,241.933 70.801 C 242.010 70.677,242.090 70.423,242.112 70.235 C 242.134 70.047,242.227 69.336,242.320 68.655 C 242.413 67.974,242.506 67.263,242.527 67.075 C 242.548 66.888,242.628 66.631,242.706 66.506 C 242.783 66.381,242.959 65.421,243.097 64.372 C 243.236 63.323,243.409 62.313,243.484 62.127 C 243.654 61.703,243.698 61.449,243.905 59.700 C 243.997 58.923,244.159 58.233,244.265 58.168 C 244.501 58.021,244.521 56.961,244.288 56.922 C 241.751 56.504,239.730 57.061,239.730 58.178 C 239.730 58.369,239.578 58.526,239.392 58.526 C 239.207 58.526,239.055 58.659,239.055 58.821 C 239.055 60.436,232.850 61.847,231.322 60.580 C 231.174 60.456,230.523 60.285,229.876 60.199 C 229.229 60.114,228.700 59.971,228.700 59.883 C 228.700 59.795,228.118 59.594,227.406 59.437 C 226.694 59.279,226.010 59.074,225.886 58.981 C 225.670 58.818,224.859 58.600,223.817 58.426 C 223.546 58.380,223.191 58.260,223.029 58.159 C 222.867 58.058,222.634 57.967,222.510 57.959 C 221.486 57.885,219.540 57.535,219.358 57.392 C 218.937 57.060,210.059 56.565,209.731 56.855 " stroke="none" fill="#040404" fill-rule="evenodd"></path><path id="path2" d="" stroke="none" fill="#bc10080" fill-rule="evenodd"></path><path id="path3" d="" stroke="none" fill="#bc10080" fill-rule="evenodd"></path><path id="path4" d="" stroke="none" fill="#bc10080" fill-rule="evenodd"></path></g></svg>