<svg id="Layer_1" enable-background="new 0 0 505.119 505.119" height="512" viewBox="0 0 505.119 505.119" width="512" xmlns="http://www.w3.org/2000/svg"><path d="m489.119 0h-473.119c-8.837 0-16 7.164-16 16v473.118c0 8.836 7.163 16 16 16h473.119c8.837 0 16-7.164 16-16v-473.118c0-8.836-7.163-16-16-16zm-16 473.119h-441.119v-441.119h441.119z"/><path d="m136.992 447.158c8.837 0 16-7.164 16-16s-7.163-16-16-16c-24.299 0-44.067-19.769-44.067-44.067v-237.062c0-24.299 19.769-44.067 44.067-44.067 8.837 0 16-7.164 16-16s-7.163-16-16-16c-41.943 0-76.067 34.124-76.067 76.067v237.061c0 41.944 34.124 76.068 76.067 76.068z"/><path d="m368.127 89.961c24.299 0 44.067 19.769 44.067 44.067v237.062c0 24.299-19.769 44.067-44.067 44.067-8.837 0-16 7.164-16 16s7.163 16 16 16c41.943 0 76.067-34.124 76.067-76.067v-237.061c0-41.944-34.124-76.067-76.067-76.067-8.837 0-16 7.164-16 16s7.163 15.999 16 15.999z"/><path d="m171.073 191.613c8.837 0 16-7.164 16-16v-59.673c0-8.836-7.163-16-16-16s-16 7.164-16 16v59.673c0 8.836 7.163 16 16 16z"/><path d="m246.709 223.334v59.674c0 8.836 7.163 16 16 16s16-7.164 16-16v-59.674c0-8.836-7.163-16-16-16s-16 7.164-16 16z"/><path d="m341.345 299.008c8.837 0 16-7.164 16-16v-59.674c0-8.836-7.163-16-16-16s-16 7.164-16 16v59.674c0 8.836 7.163 16 16 16z"/><path d="m341.345 405.18c8.837 0 16-7.164 16-16v-59.673c0-8.836-7.163-16-16-16s-16 7.164-16 16v59.673c0 8.836 7.163 16 16 16z"/><path d="m341.345 191.613c8.837 0 16-7.164 16-16v-59.673c0-8.836-7.163-16-16-16s-16 7.164-16 16v59.673c0 8.836 7.163 16 16 16z"/><path d="m262.709 191.613c20.016 0 36.299-16.284 36.299-36.299v-19.076c0-20.015-16.283-36.299-36.299-36.299s-36.299 16.284-36.299 36.299v19.076c0 20.015 16.283 36.299 36.299 36.299zm-4.299-55.375c0-2.371 1.929-4.299 4.299-4.299s4.299 1.928 4.299 4.299v19.076c0 2.371-1.929 4.299-4.299 4.299s-4.299-1.928-4.299-4.299z"/><path d="m171.073 313.506c-20.016 0-36.299 16.284-36.299 36.299v19.076c0 20.015 16.283 36.299 36.299 36.299s36.299-16.284 36.299-36.299v-19.076c0-20.015-16.283-36.299-36.299-36.299zm4.299 55.375c0 2.371-1.929 4.299-4.299 4.299s-4.299-1.928-4.299-4.299v-19.076c0-2.371 1.929-4.299 4.299-4.299s4.299 1.928 4.299 4.299z"/><path d="m262.709 405.18c20.016 0 36.299-16.284 36.299-36.299v-19.076c0-20.015-16.283-36.299-36.299-36.299s-36.299 16.284-36.299 36.299v19.076c0 20.015 16.283 36.299 36.299 36.299zm-4.299-55.375c0-2.371 1.929-4.299 4.299-4.299s4.299 1.928 4.299 4.299v19.076c0 2.371-1.929 4.299-4.299 4.299s-4.299-1.928-4.299-4.299z"/><path d="m134.774 243.633v19.076c0 20.015 16.283 36.299 36.299 36.299s36.299-16.284 36.299-36.299v-19.076c0-20.015-16.283-36.299-36.299-36.299s-36.299 16.284-36.299 36.299zm40.598 0v19.076c0 2.371-1.929 4.299-4.299 4.299s-4.299-1.928-4.299-4.299v-19.076c0-2.371 1.929-4.299 4.299-4.299s4.299 1.928 4.299 4.299z"/></svg>