<svg id="svg" version="1.1" xmlns="http://www.w3.org/2000/svg" xmlns:xlink="http://www.w3.org/1999/xlink" width="400" height="225" viewBox="0, 0, 400,225"><g id="svgg"><path id="path0" d="M0.000 112.549 L 0.000 225.098 200.000 225.098 L 400.000 225.098 400.000 112.549 L 400.000 0.000 200.000 0.000 L 0.000 0.000 0.000 112.549 M368.792 64.801 C 368.933 64.918,369.430 65.084,369.896 65.171 C 370.629 65.309,372.957 66.862,373.176 67.361 C 373.218 67.456,373.592 67.940,374.008 68.438 C 374.533 69.067,374.806 69.665,374.905 70.405 C 374.984 70.990,375.106 71.621,375.177 71.806 C 375.385 72.347,375.401 74.070,375.199 74.195 C 375.097 74.258,375.014 74.570,375.014 74.889 C 375.014 75.682,374.551 77.245,374.187 77.677 C 374.023 77.872,373.889 78.189,373.889 78.381 C 373.889 78.572,373.741 78.852,373.560 79.002 C 373.379 79.152,373.164 79.486,373.082 79.744 C 373.000 80.002,372.846 80.322,372.739 80.455 C 372.632 80.589,372.290 81.016,371.979 81.406 C 371.667 81.795,371.412 82.215,371.412 82.338 C 371.412 82.462,371.261 82.621,371.075 82.693 C 370.889 82.764,370.737 82.977,370.737 83.167 C 370.737 83.356,370.585 83.512,370.400 83.512 C 370.214 83.512,370.060 83.638,370.058 83.793 C 370.055 83.948,368.893 85.290,367.475 86.775 C 366.057 88.261,364.894 89.579,364.890 89.705 C 364.887 89.830,364.657 90.033,364.378 90.155 C 364.100 90.277,363.779 90.588,363.666 90.846 C 363.552 91.104,363.248 91.408,362.990 91.521 C 362.732 91.635,362.421 91.956,362.299 92.234 C 362.177 92.513,361.999 92.741,361.905 92.741 C 361.811 92.741,361.733 92.854,361.733 92.993 C 361.733 93.162,361.851 93.149,362.088 92.951 C 362.382 92.707,362.478 92.712,362.651 92.980 C 362.830 93.259,362.889 93.257,363.084 92.966 C 363.284 92.666,363.334 92.666,363.534 92.966 C 363.734 93.266,363.784 93.266,363.984 92.966 C 364.184 92.666,364.234 92.666,364.434 92.966 C 364.629 93.257,364.688 93.259,364.867 92.980 C 365.034 92.721,365.142 92.712,365.410 92.935 C 365.657 93.139,365.787 93.145,365.903 92.957 C 366.015 92.776,366.131 92.772,366.300 92.941 C 366.464 93.105,366.627 93.107,366.818 92.949 C 367.009 92.791,367.143 92.796,367.248 92.966 C 367.357 93.141,367.497 93.132,367.736 92.935 C 368.004 92.712,368.112 92.721,368.278 92.980 C 368.458 93.259,368.517 93.257,368.711 92.966 C 368.911 92.666,368.961 92.666,369.162 92.966 C 369.362 93.266,369.412 93.266,369.612 92.966 C 369.812 92.666,369.862 92.666,370.062 92.966 C 370.256 93.257,370.315 93.259,370.495 92.980 C 370.662 92.721,370.769 92.712,371.038 92.935 C 371.222 93.088,371.426 93.127,371.491 93.021 C 371.556 92.916,372.025 92.806,372.535 92.776 C 373.641 92.710,374.564 92.390,374.564 92.071 C 374.564 91.944,374.716 91.840,374.902 91.840 C 375.087 91.840,375.239 91.688,375.239 91.503 C 375.239 91.317,375.340 91.165,375.464 91.165 C 375.588 91.165,375.896 90.959,376.148 90.706 C 376.400 90.454,376.704 90.308,376.823 90.382 C 377.089 90.547,377.113 91.615,376.851 91.615 C 376.747 91.615,376.537 92.172,376.384 92.853 C 376.232 93.534,376.026 94.091,375.926 94.091 C 375.827 94.091,375.680 94.420,375.600 94.821 C 375.519 95.222,375.330 95.831,375.178 96.174 L 374.902 96.797 365.563 96.738 C 356.937 96.684,356.219 96.650,356.150 96.293 C 356.066 95.855,357.592 94.091,358.055 94.091 C 358.221 94.091,358.357 93.939,358.357 93.754 C 358.357 93.568,358.509 93.416,358.694 93.416 C 358.880 93.416,359.032 93.264,359.032 93.078 C 359.032 92.893,359.184 92.741,359.370 92.741 C 359.555 92.741,359.707 92.589,359.707 92.403 C 359.707 92.217,359.841 92.065,360.004 92.065 C 360.322 92.065,361.283 91.068,361.283 90.739 C 361.283 90.631,361.493 90.487,361.750 90.420 C 362.007 90.353,362.272 90.088,362.339 89.831 C 362.406 89.574,362.601 89.364,362.772 89.364 C 362.944 89.364,363.084 89.212,363.084 89.026 C 363.084 88.841,363.236 88.689,363.421 88.689 C 363.607 88.689,363.759 88.588,363.759 88.464 C 363.759 88.340,364.159 87.809,364.648 87.282 C 366.493 85.298,367.134 84.516,367.135 84.251 C 367.135 84.101,367.338 83.869,367.586 83.737 C 367.833 83.604,368.036 83.394,368.036 83.269 C 368.036 83.065,368.868 81.760,369.174 81.486 C 369.243 81.424,369.431 81.019,369.592 80.585 C 369.934 79.666,370.478 78.413,370.814 77.772 C 372.183 75.162,369.969 69.348,367.373 68.730 C 367.057 68.655,366.673 68.495,366.521 68.375 C 366.171 68.100,363.680 68.123,363.145 68.406 C 362.926 68.522,362.417 68.740,362.015 68.889 C 361.612 69.038,361.283 69.249,361.283 69.358 C 361.283 69.466,361.162 69.555,361.014 69.555 C 360.640 69.555,359.482 70.699,359.482 71.068 C 359.482 71.234,359.337 71.426,359.158 71.495 C 358.980 71.563,358.770 71.914,358.690 72.275 C 358.611 72.636,358.453 72.932,358.339 72.932 C 358.225 72.932,358.132 73.084,358.132 73.270 C 358.132 73.455,358.023 73.607,357.891 73.607 C 357.536 73.607,356.970 72.981,357.197 72.840 C 357.305 72.774,357.455 72.193,357.531 71.549 C 357.607 70.904,357.748 70.319,357.844 70.248 C 357.940 70.176,358.265 69.612,358.566 68.993 C 359.158 67.774,360.527 66.179,360.980 66.179 C 361.134 66.179,361.342 66.052,361.441 65.898 C 361.691 65.506,362.547 65.053,363.036 65.053 C 363.260 65.053,363.540 64.961,363.658 64.847 C 364.117 64.405,368.267 64.367,368.792 64.801 M155.093 87.657 C 155.093 88.418,153.793 89.814,153.084 89.814 C 152.943 89.814,152.769 89.966,152.698 90.152 C 152.627 90.338,152.445 90.490,152.294 90.490 C 152.143 90.490,151.782 90.743,151.491 91.052 C 151.201 91.362,150.828 91.615,150.664 91.615 C 150.500 91.615,150.366 91.767,150.366 91.953 C 150.366 92.138,150.214 92.290,150.028 92.290 C 149.842 92.290,149.690 92.396,149.690 92.525 C 149.690 92.654,149.311 93.170,148.846 93.671 C 148.382 94.171,147.910 94.749,147.796 94.955 C 147.683 95.161,147.497 95.391,147.382 95.468 C 147.172 95.607,146.798 96.204,146.271 97.243 C 146.114 97.552,145.933 97.856,145.868 97.918 C 145.601 98.174,145.189 99.061,145.189 99.378 C 145.189 99.565,145.095 99.719,144.981 99.719 C 144.867 99.719,144.707 100.023,144.626 100.394 C 144.544 100.765,144.400 101.069,144.306 101.069 C 144.212 101.069,144.006 101.652,143.849 102.364 C 143.691 103.075,143.482 103.759,143.383 103.883 C 143.284 104.007,143.132 104.488,143.045 104.952 C 142.958 105.416,142.815 105.796,142.727 105.796 C 142.639 105.796,142.443 106.632,142.291 107.653 C 141.975 109.780,141.922 110.059,141.748 110.523 C 141.596 110.932,141.263 114.032,141.061 116.939 C 141.035 117.310,140.955 117.715,140.884 117.839 C 140.611 118.316,140.642 127.352,140.918 127.522 C 141.120 127.647,141.114 127.731,140.894 127.867 C 140.657 128.013,140.659 128.115,140.905 128.411 C 141.131 128.683,141.143 128.840,140.952 129.031 C 140.806 129.177,140.779 129.389,140.890 129.528 C 140.995 129.661,141.145 130.681,141.221 131.795 C 141.434 134.888,141.622 136.511,141.781 136.635 C 141.860 136.697,141.926 136.849,141.929 136.972 C 141.945 137.871,142.579 141.587,142.716 141.587 C 142.810 141.587,142.954 142.040,143.038 142.595 C 143.121 143.149,143.270 143.652,143.369 143.714 C 143.468 143.775,143.678 144.435,143.837 145.182 C 143.995 145.928,144.204 146.539,144.301 146.539 C 144.398 146.539,144.544 146.843,144.626 147.214 C 144.707 147.586,144.851 147.890,144.945 147.890 C 145.039 147.890,145.250 148.295,145.414 148.790 C 145.577 149.285,145.796 149.690,145.900 149.690 C 146.004 149.690,146.089 149.799,146.089 149.931 C 146.089 150.192,147.223 151.783,147.496 151.904 C 147.589 151.945,147.665 152.122,147.665 152.296 C 147.665 152.470,147.867 152.739,148.115 152.894 C 148.362 153.049,148.565 153.294,148.565 153.440 C 148.565 153.778,153.376 158.295,153.971 158.515 C 154.216 158.606,154.418 158.784,154.418 158.912 C 154.418 159.040,154.553 159.145,154.718 159.145 C 154.911 159.145,155.018 159.426,155.018 159.932 C 155.018 160.709,154.235 161.111,153.871 160.521 C 153.803 160.412,153.316 160.102,152.788 159.832 C 150.949 158.893,150.591 158.668,150.591 158.457 C 150.591 158.340,150.483 158.244,150.351 158.244 C 150.219 158.244,149.779 157.991,149.373 157.681 C 148.967 157.372,148.542 157.119,148.429 157.119 C 148.315 157.119,147.971 156.815,147.665 156.443 C 147.358 156.072,146.979 155.768,146.823 155.768 C 146.667 155.768,146.539 155.616,146.539 155.431 C 146.539 155.245,146.409 155.093,146.251 155.093 C 145.885 155.093,143.388 152.584,143.388 152.216 C 143.388 152.065,143.243 151.941,143.065 151.941 C 142.888 151.941,142.681 151.748,142.606 151.512 C 142.532 151.276,142.322 151.026,142.141 150.956 C 141.960 150.887,141.812 150.714,141.812 150.573 C 141.812 150.431,141.407 149.832,140.912 149.240 C 140.416 148.649,140.011 148.061,140.011 147.933 C 140.011 147.806,139.935 147.668,139.842 147.627 C 139.305 147.388,136.302 141.584,136.047 140.293 C 135.968 139.890,135.823 139.561,135.724 139.561 C 135.626 139.561,135.478 139.256,135.396 138.883 C 135.314 138.511,135.097 137.904,134.913 137.536 C 134.729 137.167,134.638 136.770,134.710 136.653 C 134.782 136.536,134.738 136.377,134.613 136.299 C 134.487 136.222,134.384 135.869,134.384 135.515 C 134.384 135.161,134.257 134.820,134.102 134.757 C 133.891 134.671,133.905 134.584,134.159 134.404 C 134.366 134.258,134.393 134.164,134.229 134.162 C 134.080 134.160,133.900 133.685,133.823 133.089 C 133.747 132.501,133.598 131.859,133.492 131.662 C 133.024 130.793,132.759 123.542,133.058 119.752 C 133.151 118.576,133.259 117.184,133.299 116.658 C 133.338 116.132,133.441 115.701,133.526 115.701 C 133.611 115.701,133.745 115.219,133.823 114.631 C 133.901 114.043,134.054 113.360,134.162 113.112 C 134.271 112.864,134.474 112.079,134.613 111.367 C 134.752 110.656,134.960 110.073,135.075 110.073 C 135.190 110.073,135.284 109.789,135.284 109.441 C 135.284 109.093,135.433 108.612,135.615 108.372 C 135.796 108.131,135.948 107.789,135.952 107.612 C 135.959 107.323,136.134 106.889,137.049 104.896 C 137.191 104.586,137.409 104.156,137.534 103.939 C 137.658 103.723,137.863 103.368,137.988 103.151 C 138.114 102.935,138.416 102.352,138.661 101.857 C 139.263 100.637,139.620 100.090,139.955 99.876 C 140.110 99.777,140.236 99.554,140.236 99.381 C 140.236 99.208,140.363 98.985,140.518 98.886 C 140.854 98.670,141.812 97.336,141.812 97.082 C 141.812 96.983,142.167 96.607,142.600 96.245 C 143.033 95.884,143.388 95.454,143.388 95.290 C 143.388 95.126,143.540 94.992,143.725 94.992 C 143.911 94.992,144.063 94.862,144.063 94.704 C 144.063 94.546,144.696 93.839,145.470 93.134 C 146.244 92.429,147.090 91.646,147.351 91.396 C 147.611 91.145,147.898 90.940,147.988 90.940 C 148.078 90.940,148.574 90.611,149.090 90.208 C 149.606 89.806,150.256 89.350,150.535 89.195 C 150.813 89.041,151.269 88.787,151.548 88.633 C 151.826 88.478,152.105 88.301,152.167 88.239 C 152.435 87.970,153.314 87.563,153.627 87.563 C 153.814 87.563,153.967 87.469,153.967 87.355 C 153.967 87.174,154.334 87.005,154.924 86.914 C 155.017 86.900,155.093 87.234,155.093 87.657 M227.150 87.291 C 227.446 87.512,227.940 87.821,228.250 87.977 C 229.655 88.685,230.219 89.024,230.983 89.623 C 231.435 89.976,231.916 90.264,232.053 90.264 C 232.190 90.264,232.302 90.369,232.302 90.497 C 232.302 90.624,232.479 90.793,232.696 90.871 C 233.058 91.003,234.354 92.053,235.643 93.260 C 236.702 94.251,240.180 98.257,240.180 98.484 C 240.180 98.559,240.490 99.005,240.869 99.477 C 241.641 100.438,241.901 100.891,243.536 104.127 C 244.166 105.375,244.682 106.566,244.682 106.772 C 244.682 106.978,244.775 107.147,244.889 107.147 C 245.003 107.147,245.167 107.476,245.253 107.878 C 245.339 108.281,245.491 108.713,245.592 108.838 C 245.692 108.964,245.898 109.571,246.048 110.189 C 246.199 110.806,246.400 111.412,246.494 111.536 C 246.589 111.660,246.740 112.268,246.831 112.887 C 246.921 113.506,247.071 114.063,247.163 114.125 C 247.255 114.187,247.452 115.352,247.602 116.714 C 247.752 118.075,247.959 119.354,248.063 119.555 C 248.178 119.777,248.148 120.030,247.986 120.202 C 247.782 120.419,247.786 120.508,248.002 120.587 C 248.157 120.644,248.284 120.834,248.284 121.009 C 248.284 121.185,248.157 121.330,248.002 121.332 C 247.789 121.334,247.793 121.380,248.017 121.523 C 248.394 121.761,248.353 126.901,247.971 127.386 C 247.784 127.624,247.794 127.729,248.012 127.802 C 248.200 127.865,248.229 127.991,248.093 128.159 C 247.977 128.302,247.820 129.128,247.743 129.994 C 247.516 132.555,247.335 133.712,247.144 133.830 C 247.045 133.891,246.895 134.496,246.810 135.175 C 246.725 135.854,246.580 136.410,246.488 136.410 C 246.395 136.410,246.190 137.017,246.033 137.760 C 245.875 138.503,245.667 139.111,245.570 139.111 C 245.473 139.111,245.322 139.437,245.234 139.835 C 245.084 140.519,245.003 140.724,244.457 141.809 C 244.333 142.055,244.232 142.409,244.232 142.597 C 244.232 142.784,244.147 142.938,244.043 142.938 C 243.939 142.938,243.720 143.343,243.557 143.838 C 243.393 144.333,243.198 144.738,243.122 144.738 C 243.046 144.738,242.733 145.219,242.426 145.808 C 242.119 146.396,241.590 147.246,241.249 147.697 C 240.909 148.148,240.630 148.610,240.630 148.723 C 240.630 148.837,240.170 149.481,239.608 150.154 C 239.046 150.828,238.413 151.611,238.201 151.894 C 237.411 152.952,236.857 153.517,236.609 153.517 C 236.468 153.517,236.353 153.669,236.353 153.855 C 236.353 154.041,236.201 154.192,236.016 154.192 C 235.830 154.192,235.678 154.348,235.678 154.537 C 235.678 154.727,235.501 154.948,235.284 155.030 C 235.068 155.111,234.586 155.460,234.215 155.806 C 233.092 156.850,232.138 157.569,231.875 157.569 C 231.738 157.569,231.626 157.673,231.626 157.801 C 231.626 157.929,231.449 158.098,231.232 158.176 C 231.016 158.255,230.469 158.606,230.018 158.957 C 229.567 159.308,229.082 159.595,228.940 159.595 C 228.798 159.595,228.404 159.800,228.064 160.051 C 227.162 160.718,225.835 160.900,225.880 160.350 C 225.943 159.582,226.478 158.884,227.255 158.560 C 227.678 158.383,228.025 158.145,228.025 158.031 C 228.025 157.917,228.202 157.767,228.419 157.696 C 228.635 157.626,229.186 157.214,229.642 156.781 C 230.098 156.348,230.579 155.993,230.711 155.993 C 230.843 155.993,230.951 155.907,230.951 155.801 C 230.951 155.518,232.016 154.418,232.291 154.418 C 232.421 154.418,232.527 154.306,232.527 154.169 C 232.527 153.951,233.006 153.273,233.937 152.177 C 234.090 151.997,234.342 151.591,234.496 151.276 C 234.651 150.961,235.224 149.874,235.770 148.860 C 236.315 147.846,236.835 146.681,236.924 146.271 C 237.013 145.861,237.225 145.326,237.395 145.082 C 237.565 144.838,237.704 144.357,237.704 144.013 C 237.704 143.669,237.796 143.388,237.909 143.388 C 238.021 143.388,238.242 142.653,238.399 141.756 C 238.557 140.858,238.757 140.073,238.845 140.011 C 238.933 139.949,239.062 139.342,239.133 138.661 C 239.461 135.504,239.579 134.705,239.748 134.489 C 239.848 134.361,239.999 132.652,240.084 130.692 C 240.281 126.149,240.255 126.421,240.518 126.227 C 240.656 126.126,240.631 126.061,240.453 126.059 C 240.115 126.055,240.168 124.909,240.518 124.652 C 240.660 124.548,240.644 124.485,240.477 124.483 C 240.140 124.479,240.159 123.130,240.496 123.125 C 240.671 123.123,240.669 123.074,240.491 122.957 C 240.332 122.852,240.186 121.429,240.096 119.111 C 240.018 117.087,239.883 115.316,239.796 115.176 C 239.555 114.785,239.554 114.125,239.795 114.125 C 239.923 114.125,239.916 114.011,239.778 113.844 C 239.651 113.689,239.490 113.056,239.421 112.437 C 239.107 109.608,239.010 109.053,238.788 108.785 C 238.616 108.578,238.628 108.497,238.829 108.497 C 239.044 108.497,239.049 108.424,238.848 108.182 C 238.704 108.009,238.484 107.227,238.358 106.446 C 238.232 105.664,238.047 104.919,237.948 104.791 C 237.849 104.663,237.702 104.204,237.622 103.770 C 237.464 102.908,237.277 102.460,236.031 99.944 C 235.081 98.027,233.432 95.442,233.159 95.442 C 233.059 95.442,232.977 95.307,232.977 95.143 C 232.977 94.979,232.724 94.607,232.414 94.316 C 232.105 94.025,231.851 93.653,231.851 93.489 C 231.851 93.325,231.745 93.191,231.615 93.191 C 231.485 93.191,230.751 92.584,229.983 91.842 C 229.216 91.100,228.486 90.488,228.362 90.482 C 228.239 90.476,227.889 90.171,227.585 89.805 C 227.281 89.439,226.899 89.139,226.735 89.139 C 226.394 89.139,225.929 88.083,226.129 87.760 C 226.203 87.641,226.140 87.396,225.991 87.216 C 225.582 86.723,226.471 86.781,227.150 87.291 M193.585 89.645 C 193.585 89.738,193.483 89.814,193.360 89.814 C 193.236 89.814,193.134 90.004,193.134 90.237 C 193.134 90.839,192.755 91.062,191.221 91.360 C 190.478 91.504,189.837 91.722,189.796 91.844 C 189.754 91.966,189.595 92.065,189.441 92.065 C 188.539 92.065,188.070 93.176,188.078 95.291 C 188.087 97.545,188.216 98.817,188.436 98.818 C 188.514 98.818,188.704 99.630,188.858 100.623 C 189.013 101.616,189.222 102.479,189.323 102.542 C 189.424 102.604,189.576 103.134,189.661 103.719 C 189.746 104.305,189.917 104.912,190.043 105.069 C 190.168 105.227,190.303 105.581,190.342 105.857 C 190.381 106.133,190.474 106.815,190.550 107.372 C 190.625 107.929,190.781 108.419,190.897 108.460 C 191.014 108.501,191.109 108.881,191.109 109.304 C 191.109 109.838,191.212 110.073,191.446 110.073 C 191.632 110.073,191.784 109.921,191.784 109.736 C 191.784 109.550,191.939 109.398,192.129 109.398 C 192.318 109.398,192.532 109.246,192.603 109.060 C 192.674 108.875,192.836 108.723,192.962 108.723 C 193.089 108.723,193.569 108.393,194.029 107.991 C 195.267 106.907,195.825 106.472,195.974 106.472 C 196.095 106.472,198.830 104.227,199.681 103.429 C 199.877 103.246,200.117 103.095,200.214 103.095 C 200.311 103.095,201.177 102.386,202.138 101.519 C 203.100 100.653,204.000 99.944,204.138 99.944 C 204.276 99.944,204.389 99.804,204.389 99.632 C 204.389 99.461,204.592 99.268,204.840 99.203 C 205.087 99.138,205.290 98.936,205.290 98.753 C 205.290 98.570,205.500 98.366,205.757 98.298 C 206.014 98.231,206.279 97.966,206.346 97.709 C 206.413 97.453,206.584 97.243,206.726 97.243 C 206.868 97.243,207.084 97.054,207.206 96.823 C 207.328 96.592,207.721 95.984,208.078 95.471 C 209.414 93.554,208.593 91.633,206.288 91.287 C 205.341 91.145,205.296 91.105,205.431 90.532 C 205.672 89.506,205.623 89.511,214.795 89.496 L 223.635 89.481 223.577 90.042 C 223.506 90.731,222.754 91.390,222.040 91.390 C 221.578 91.390,220.684 91.803,218.524 93.014 C 218.240 93.173,217.927 93.430,217.828 93.585 C 217.729 93.739,217.547 93.866,217.425 93.866 C 217.137 93.866,215.811 94.795,215.577 95.160 C 215.478 95.315,215.282 95.442,215.141 95.442 C 215.001 95.442,214.405 95.847,213.818 96.342 C 213.230 96.837,212.692 97.243,212.621 97.243 C 212.551 97.243,212.305 97.420,212.075 97.636 C 211.845 97.853,211.179 98.385,210.594 98.818 C 210.009 99.252,209.365 99.783,209.161 100.000 C 208.958 100.217,208.671 100.394,208.524 100.394 C 208.377 100.394,208.000 100.698,207.688 101.069 C 207.375 101.441,207.036 101.745,206.934 101.745 C 206.832 101.745,206.475 101.998,206.141 102.307 C 205.808 102.617,205.475 102.870,205.401 102.870 C 205.328 102.870,205.034 103.123,204.747 103.433 C 204.460 103.742,204.150 103.995,204.059 103.995 C 203.921 103.995,201.861 105.650,200.281 107.028 C 200.065 107.217,199.804 107.372,199.702 107.372 C 199.599 107.372,199.278 107.625,198.987 107.935 C 198.696 108.244,198.349 108.502,198.216 108.507 C 198.083 108.512,197.726 108.816,197.422 109.182 C 197.118 109.548,196.775 109.848,196.659 109.848 C 196.452 109.848,193.921 111.863,192.998 112.763 C 192.738 113.017,192.422 113.225,192.298 113.225 C 192.055 113.225,192.181 114.315,192.467 114.688 C 192.562 114.811,192.771 115.698,192.931 116.657 C 193.091 117.617,193.292 118.402,193.378 118.402 C 193.463 118.402,193.602 118.957,193.687 119.636 C 193.772 120.315,193.923 120.921,194.023 120.983 C 194.123 121.045,194.337 121.908,194.498 122.900 C 194.659 123.893,194.856 124.705,194.935 124.705 C 195.014 124.705,195.211 125.517,195.372 126.509 C 195.533 127.501,195.745 128.363,195.842 128.423 C 195.939 128.483,196.091 129.063,196.179 129.713 C 196.268 130.363,196.427 130.950,196.533 131.017 C 196.731 131.144,196.816 131.495,197.086 133.315 C 197.173 133.903,197.329 134.384,197.433 134.384 C 197.536 134.384,197.688 134.890,197.770 135.509 C 197.852 136.128,198.000 136.635,198.098 136.635 C 198.196 136.635,198.346 136.955,198.432 137.347 C 198.589 138.059,199.444 139.815,199.905 140.370 C 200.237 140.770,201.874 141.545,202.760 141.723 C 203.508 141.872,203.600 142.544,202.980 143.331 C 202.709 143.676,178.953 143.749,178.953 143.406 C 178.953 142.440,179.744 141.859,181.263 141.709 C 182.285 141.608,182.847 141.448,182.929 141.234 C 182.997 141.057,183.187 140.912,183.350 140.912 C 183.514 140.912,183.857 140.633,184.112 140.293 C 184.367 139.952,184.678 139.552,184.802 139.403 C 185.130 139.012,185.144 135.718,184.819 135.517 C 184.675 135.428,184.583 135.263,184.615 135.151 C 184.712 134.807,184.338 132.497,184.146 132.251 C 184.046 132.124,183.837 131.311,183.680 130.445 C 183.524 129.578,183.317 128.768,183.222 128.644 C 183.126 128.520,182.974 127.912,182.885 127.293 C 182.796 126.674,182.648 126.066,182.556 125.943 C 182.464 125.819,182.260 125.008,182.102 124.142 C 181.599 121.378,181.522 121.376,178.584 124.042 C 178.319 124.283,178.015 124.480,177.909 124.481 C 177.802 124.483,177.107 125.037,176.365 125.714 C 175.622 126.391,174.938 126.947,174.845 126.950 C 174.752 126.953,174.499 127.110,174.282 127.300 C 174.066 127.489,173.382 128.048,172.763 128.542 C 172.144 129.036,171.365 129.691,171.033 129.998 C 170.700 130.306,170.349 130.557,170.253 130.557 C 170.157 130.557,169.872 130.754,169.620 130.995 C 168.441 132.121,167.066 133.258,166.884 133.258 C 166.773 133.258,166.387 133.613,166.026 134.046 C 165.665 134.479,165.235 134.834,165.071 134.834 C 164.906 134.834,164.772 134.986,164.772 135.172 C 164.772 135.357,164.620 135.509,164.434 135.509 C 164.249 135.509,164.097 135.624,164.097 135.764 C 164.097 135.904,163.917 136.183,163.697 136.383 C 161.361 138.511,162.147 141.519,165.103 141.765 C 166.466 141.878,166.659 142.168,165.997 143.113 L 165.647 143.613 156.206 143.613 C 150.061 143.613,146.764 143.534,146.764 143.388 C 146.764 143.264,146.857 143.163,146.971 143.163 C 147.085 143.163,147.244 142.867,147.323 142.505 C 147.447 141.939,147.599 141.827,148.410 141.704 C 149.298 141.569,151.242 140.763,151.494 140.426 C 151.557 140.341,151.886 140.202,152.225 140.117 C 152.564 140.032,152.842 139.873,152.842 139.765 C 152.842 139.656,153.171 139.410,153.573 139.218 C 154.944 138.565,155.543 138.186,155.543 137.973 C 155.543 137.856,155.655 137.760,155.792 137.760 C 156.007 137.760,156.436 137.460,157.728 136.406 C 157.878 136.284,158.069 136.185,158.153 136.185 C 158.237 136.185,158.976 135.621,159.795 134.931 C 161.950 133.116,162.058 133.033,162.259 133.033 C 162.360 133.033,162.681 132.780,162.971 132.470 C 163.262 132.161,163.590 131.908,163.700 131.908 C 163.811 131.908,164.156 131.604,164.469 131.232 C 164.782 130.861,165.179 130.557,165.353 130.557 C 165.527 130.557,165.795 130.355,165.950 130.107 C 166.104 129.859,166.321 129.657,166.431 129.657 C 166.607 129.657,167.357 129.053,168.968 127.612 C 169.233 127.375,169.537 127.178,169.643 127.175 C 169.750 127.172,170.392 126.666,171.070 126.050 C 171.748 125.434,172.426 124.930,172.576 124.930 C 172.727 124.930,172.982 124.745,173.144 124.518 C 173.306 124.292,173.607 124.014,173.812 123.899 C 174.018 123.785,174.547 123.362,174.988 122.960 C 175.429 122.558,175.883 122.228,175.997 122.228 C 176.111 122.228,176.262 122.077,176.334 121.891 C 176.405 121.705,176.613 121.553,176.797 121.553 C 176.980 121.553,177.211 121.427,177.310 121.272 C 177.579 120.852,179.678 119.183,180.166 119.001 C 180.662 118.816,180.554 116.690,180.028 116.319 C 179.798 116.157,179.802 116.092,180.048 115.994 C 180.260 115.909,180.278 115.824,180.105 115.717 C 179.967 115.632,179.743 114.960,179.607 114.224 C 179.471 113.489,179.299 112.787,179.224 112.666 C 179.149 112.544,179.060 112.291,179.026 112.103 C 178.992 111.915,178.903 111.407,178.828 110.974 C 178.752 110.540,178.557 109.882,178.395 109.510 C 178.232 109.139,178.029 108.303,177.942 107.654 C 177.856 107.004,177.706 106.423,177.608 106.362 C 177.510 106.302,177.358 105.770,177.270 105.180 C 177.182 104.590,177.030 104.007,176.932 103.883 C 176.834 103.759,176.629 102.898,176.477 101.970 C 176.325 101.041,176.122 100.180,176.027 100.056 C 175.931 99.932,175.779 99.375,175.689 98.818 C 175.599 98.261,175.447 97.704,175.351 97.580 C 175.255 97.456,175.048 96.773,174.891 96.061 C 174.733 95.349,174.520 94.766,174.416 94.766 C 174.311 94.766,174.226 94.613,174.226 94.426 C 174.226 93.177,172.254 91.506,170.561 91.319 C 169.259 91.176,168.892 90.610,169.596 89.832 C 169.941 89.450,193.585 89.266,193.585 89.645 M344.851 100.448 L 344.851 105.237 332.752 105.211 C 319.151 105.181,319.527 105.159,320.657 105.926 C 321.099 106.226,321.522 106.472,321.596 106.472 C 321.671 106.472,322.165 106.826,322.693 107.259 C 323.222 107.693,323.714 108.047,323.786 108.047 C 323.939 108.047,324.035 108.127,326.837 110.590 C 328.628 112.163,329.915 113.522,332.585 116.657 C 332.770 116.874,332.921 117.108,332.921 117.177 C 332.921 117.246,333.218 117.677,333.581 118.134 C 334.384 119.143,336.297 122.859,336.297 123.408 C 336.297 123.626,336.385 123.804,336.491 123.804 C 336.598 123.804,336.815 124.412,336.972 125.155 C 337.130 125.898,337.336 126.505,337.431 126.505 C 337.525 126.505,337.674 127.240,337.763 128.137 C 337.851 129.035,337.984 129.869,338.057 129.990 C 338.277 130.358,338.262 131.007,338.033 131.007 C 337.914 131.007,337.938 131.152,338.085 131.329 C 338.344 131.642,338.374 134.244,338.123 134.717 C 338.059 134.839,337.990 135.092,337.971 135.280 C 337.747 137.400,337.592 138.345,337.436 138.540 C 337.334 138.668,337.133 139.327,336.991 140.003 C 336.848 140.679,336.657 141.287,336.567 141.353 C 336.476 141.420,336.069 142.133,335.662 142.938 C 334.672 144.895,334.505 145.170,333.652 146.245 C 333.250 146.752,332.921 147.255,332.921 147.362 C 332.921 147.470,332.693 147.658,332.414 147.780 C 332.136 147.902,331.808 148.230,331.686 148.509 C 331.563 148.787,331.377 149.015,331.272 149.015 C 331.166 149.015,330.407 149.623,329.584 150.366 C 328.761 151.109,327.964 151.716,327.814 151.716 C 327.664 151.716,327.460 151.843,327.361 151.998 C 327.145 152.335,326.541 152.731,325.549 153.187 C 325.146 153.372,324.817 153.623,324.817 153.745 C 324.817 153.867,324.660 153.967,324.468 153.967 C 324.276 153.967,323.744 154.156,323.286 154.386 C 321.312 155.377,320.959 155.518,319.769 155.784 C 319.079 155.939,318.514 156.137,318.514 156.225 C 318.514 156.313,317.910 156.454,317.171 156.537 C 316.432 156.621,315.783 156.761,315.729 156.848 C 315.433 157.326,306.347 157.330,305.571 156.852 C 305.447 156.776,304.764 156.641,304.052 156.553 C 303.340 156.464,302.757 156.319,302.757 156.231 C 302.757 156.143,302.226 155.948,301.576 155.799 C 300.402 155.528,299.089 154.996,297.580 154.177 C 297.147 153.942,296.463 153.594,296.061 153.405 C 295.658 153.216,295.329 152.961,295.329 152.839 C 295.329 152.717,295.224 152.617,295.095 152.617 C 294.798 152.617,293.474 151.695,293.236 151.322 C 293.137 151.168,292.925 151.041,292.765 151.041 C 292.382 151.041,287.274 145.929,286.860 145.132 C 286.683 144.792,286.440 144.513,286.319 144.513 C 286.199 144.513,286.100 144.401,286.100 144.264 C 286.100 144.127,285.845 143.697,285.534 143.308 C 284.558 142.087,284.337 141.709,282.954 138.886 C 281.482 135.881,281.402 135.689,281.140 134.496 C 281.004 133.877,280.798 133.195,280.683 132.980 C 280.567 132.764,280.351 131.625,280.202 130.447 C 280.053 129.270,279.859 128.306,279.770 128.306 C 279.682 128.306,279.614 126.584,279.619 124.479 C 279.625 122.375,279.718 120.653,279.826 120.653 C 279.934 120.653,280.023 120.332,280.023 119.940 C 280.023 118.899,280.491 116.298,280.723 116.050 C 280.833 115.932,280.923 115.607,280.923 115.329 C 280.923 115.050,281.037 114.538,281.176 114.192 C 281.315 113.846,281.505 113.360,281.597 113.112 C 282.008 112.010,283.019 110.073,283.183 110.073 C 283.282 110.073,283.430 109.769,283.512 109.398 C 283.593 109.026,283.753 108.723,283.867 108.723 C 283.981 108.723,284.074 108.589,284.074 108.425 C 284.074 108.262,284.429 107.714,284.862 107.208 C 285.295 106.702,285.650 106.195,285.650 106.082 C 285.650 105.970,285.903 105.657,286.213 105.388 C 286.522 105.119,286.775 104.797,286.775 104.672 C 286.775 104.548,286.927 104.446,287.113 104.446 C 287.299 104.446,287.451 104.319,287.451 104.164 C 287.451 103.817,289.095 102.195,289.447 102.195 C 289.587 102.195,289.702 102.050,289.702 101.872 C 289.702 101.695,289.895 101.488,290.131 101.413 C 290.367 101.339,290.617 101.129,290.687 100.948 C 290.756 100.767,290.924 100.619,291.059 100.619 C 291.194 100.619,291.760 100.271,292.316 99.846 C 292.873 99.421,293.627 99.008,293.991 98.928 C 294.356 98.848,294.654 98.694,294.654 98.585 C 294.654 98.477,295.008 98.322,295.442 98.241 C 295.875 98.159,296.230 98.010,296.230 97.909 C 296.230 97.807,296.812 97.605,297.524 97.459 C 298.236 97.313,298.922 97.110,299.049 97.008 C 299.176 96.905,299.834 96.751,300.512 96.664 C 301.190 96.578,301.848 96.426,301.974 96.328 C 302.100 96.229,303.063 96.079,304.113 95.995 C 305.162 95.911,306.059 95.807,306.106 95.764 C 306.153 95.720,314.889 95.679,325.521 95.672 L 344.851 95.658 344.851 100.448 M308.554 105.301 C 307.842 105.338,307.259 105.451,307.259 105.551 C 307.259 105.652,306.684 105.802,305.980 105.885 C 305.276 105.967,304.592 106.120,304.461 106.224 C 304.329 106.328,303.663 106.542,302.983 106.700 C 302.302 106.858,301.694 107.048,301.632 107.123 C 301.570 107.198,301.014 107.513,300.395 107.822 C 299.011 108.515,297.976 109.194,297.738 109.567 C 297.639 109.721,297.433 109.848,297.281 109.848 C 296.938 109.848,294.542 112.290,294.355 112.831 C 294.279 113.047,294.113 113.225,293.986 113.225 C 293.858 113.225,293.754 113.350,293.754 113.503 C 293.754 113.801,292.612 116.189,292.380 116.376 C 292.303 116.438,292.173 116.947,292.090 117.507 C 292.008 118.068,291.797 118.802,291.622 119.139 C 291.423 119.523,291.394 119.752,291.543 119.752 C 291.684 119.752,291.656 119.905,291.474 120.125 C 291.082 120.597,291.016 130.699,291.403 130.959 C 291.534 131.048,291.763 131.921,291.912 132.901 C 292.061 133.880,292.272 134.792,292.380 134.927 C 292.488 135.061,292.651 135.523,292.743 135.952 C 292.835 136.381,292.991 136.888,293.089 137.078 C 293.187 137.267,293.807 138.521,294.467 139.862 C 296.076 143.135,296.220 143.388,296.467 143.388 C 296.584 143.388,296.680 143.496,296.680 143.628 C 296.680 143.918,297.723 145.335,298.424 145.999 C 298.703 146.263,298.931 146.571,298.931 146.685 C 298.931 146.985,301.485 149.465,301.795 149.465 C 301.939 149.465,302.194 149.661,302.361 149.900 C 302.528 150.139,302.939 150.403,303.274 150.487 C 303.609 150.571,303.883 150.721,303.883 150.820 C 303.883 151.068,305.579 151.853,306.809 152.173 C 307.366 152.318,307.919 152.497,308.038 152.569 C 308.646 152.941,313.634 153.021,314.074 152.665 C 314.226 152.543,314.778 152.372,315.300 152.286 C 315.823 152.200,316.497 151.935,316.799 151.698 C 317.100 151.460,317.509 151.266,317.706 151.266 C 317.903 151.266,318.064 151.114,318.064 150.929 C 318.064 150.743,318.221 150.591,318.413 150.591 C 318.833 150.591,321.891 147.511,321.891 147.088 C 321.891 146.924,322.086 146.653,322.325 146.486 C 322.564 146.318,322.826 145.915,322.908 145.589 C 322.990 145.263,323.200 144.941,323.374 144.874 C 323.549 144.807,323.692 144.559,323.692 144.323 C 323.692 144.086,323.833 143.776,324.006 143.632 C 324.178 143.489,324.382 143.046,324.457 142.648 C 324.533 142.250,324.742 141.642,324.922 141.296 C 325.103 140.950,325.318 140.292,325.401 139.833 C 325.483 139.374,325.625 138.897,325.715 138.773 C 325.988 138.399,326.166 137.131,326.314 134.511 C 326.392 133.141,326.547 131.985,326.659 131.942 C 326.770 131.899,326.731 131.705,326.571 131.512 C 326.333 131.224,326.333 131.141,326.571 131.061 C 326.757 130.999,326.788 130.870,326.656 130.704 C 326.542 130.561,326.387 129.400,326.310 128.124 C 326.174 125.876,326.047 124.959,325.774 124.254 C 325.583 123.760,325.586 123.769,325.389 122.791 C 325.290 122.296,325.132 121.790,325.039 121.666 C 324.945 121.542,324.797 121.086,324.708 120.653 C 324.620 120.219,324.426 119.662,324.277 119.415 C 324.128 119.167,323.868 118.534,323.700 118.008 C 323.532 117.482,323.317 117.051,323.223 117.051 C 323.129 117.051,322.985 116.747,322.904 116.376 C 322.822 116.005,322.684 115.701,322.598 115.701 C 322.511 115.701,322.320 115.422,322.173 115.082 C 322.027 114.741,321.779 114.260,321.623 114.012 C 321.467 113.765,321.084 113.157,320.772 112.662 C 320.459 112.167,320.077 111.680,319.922 111.581 C 319.767 111.482,319.640 111.292,319.640 111.158 C 319.640 110.869,317.800 108.607,315.967 106.643 L 314.657 105.240 312.253 105.237 C 310.930 105.235,309.266 105.264,308.554 105.301 M36.775 107.502 C 36.889 107.988,37.047 108.436,37.128 108.497 C 37.368 108.681,37.817 110.408,37.817 111.150 C 37.817 111.527,37.922 111.872,38.052 111.915 C 38.181 111.958,38.342 112.498,38.410 113.115 C 38.477 113.733,38.617 114.340,38.721 114.466 C 38.920 114.707,39.058 115.648,39.299 118.402 C 39.380 119.330,39.531 120.197,39.636 120.328 C 39.800 120.533,39.956 122.460,40.185 127.068 C 40.215 127.687,40.265 128.194,40.295 128.194 C 40.326 128.194,40.368 128.472,40.388 128.813 C 40.409 129.153,40.325 129.432,40.202 129.432 C 40.078 129.432,40.099 129.553,40.248 129.702 C 40.414 129.868,40.518 130.687,40.518 131.840 C 40.518 132.868,40.560 133.708,40.612 133.708 C 40.904 133.708,41.418 133.406,41.418 133.234 C 41.418 132.961,42.264 132.133,42.544 132.133 C 42.667 132.133,42.769 132.038,42.769 131.922 C 42.769 131.806,43.305 131.173,43.961 130.515 C 44.616 129.857,45.328 129.041,45.541 128.700 C 45.755 128.360,46.069 128.081,46.239 128.081 C 46.408 128.081,46.610 127.828,46.688 127.518 C 46.766 127.209,46.934 126.956,47.061 126.956 C 47.189 126.956,47.442 126.601,47.623 126.168 C 47.804 125.734,48.035 125.380,48.136 125.380 C 48.663 125.380,50.613 120.468,50.292 119.949 C 50.236 119.858,50.297 119.717,50.429 119.635 C 50.578 119.543,50.591 119.388,50.462 119.226 C 50.349 119.082,50.185 118.571,50.098 118.090 C 49.953 117.285,49.191 115.917,48.790 115.738 C 48.697 115.697,48.621 115.563,48.621 115.442 C 48.621 115.320,48.368 114.888,48.059 114.483 C 47.749 114.077,47.496 113.636,47.496 113.503 C 47.496 113.371,47.387 113.226,47.254 113.182 C 46.816 113.035,46.967 110.278,47.469 109.262 C 48.001 108.184,49.349 106.922,49.966 106.922 C 50.202 106.922,50.458 106.820,50.535 106.697 C 50.611 106.573,51.219 106.472,51.885 106.472 C 52.552 106.472,53.159 106.573,53.236 106.697 C 53.312 106.820,53.568 106.922,53.804 106.922 C 54.488 106.922,55.719 108.166,56.389 109.533 C 57.041 110.868,57.166 115.891,56.565 116.647 C 56.438 116.807,56.210 117.465,56.059 118.109 C 55.908 118.753,55.642 119.399,55.467 119.544 C 55.292 119.689,55.149 119.956,55.149 120.138 C 55.149 120.320,54.947 120.727,54.699 121.042 C 54.451 121.356,54.249 121.752,54.249 121.921 C 54.249 122.090,54.159 122.228,54.050 122.228 C 53.941 122.228,53.789 122.406,53.714 122.622 C 53.638 122.839,53.274 123.472,52.903 124.029 C 52.533 124.586,52.159 125.194,52.072 125.380 C 51.986 125.566,51.731 125.850,51.506 126.012 C 51.281 126.173,51.097 126.416,51.097 126.550 C 51.097 126.684,50.793 127.085,50.422 127.440 C 50.051 127.795,49.747 128.170,49.747 128.273 C 49.747 128.377,49.544 128.645,49.297 128.869 C 49.049 129.093,48.846 129.413,48.846 129.579 C 48.846 129.746,48.711 129.882,48.546 129.882 C 48.210 129.882,47.046 131.103,47.046 131.456 C 47.046 131.580,46.894 131.683,46.708 131.683 C 46.522 131.683,46.370 131.835,46.370 132.020 C 46.370 132.206,46.253 132.358,46.110 132.358 C 45.967 132.358,45.248 132.940,44.512 133.652 C 39.975 138.039,39.041 138.886,38.737 138.886 C 38.602 138.886,38.492 139.038,38.492 139.223 C 38.492 139.409,38.350 139.561,38.178 139.561 C 38.005 139.561,37.552 139.916,37.171 140.349 C 36.791 140.782,36.430 141.137,36.370 141.137 C 36.310 141.137,35.826 141.541,35.294 142.034 C 34.762 142.528,34.201 142.933,34.046 142.935 C 33.891 142.936,33.765 143.089,33.765 143.275 C 33.765 143.461,33.678 143.613,33.573 143.613 C 33.467 143.613,33.107 143.866,32.773 144.176 C 32.384 144.536,31.903 144.738,31.433 144.738 L 30.701 144.738 30.662 138.985 C 30.641 135.820,30.550 133.112,30.460 132.967 C 30.202 132.549,30.215 131.908,30.482 131.904 C 30.616 131.902,30.589 131.814,30.421 131.707 C 30.187 131.559,30.179 131.474,30.388 131.345 C 30.559 131.239,30.578 131.124,30.438 131.035 C 30.315 130.958,30.152 129.730,30.076 128.306 C 29.835 123.788,29.687 121.901,29.545 121.553 C 29.385 121.161,29.372 121.073,29.175 118.896 C 29.093 117.991,28.931 117.079,28.814 116.870 C 28.698 116.660,28.491 115.906,28.354 115.194 C 28.217 114.482,28.011 113.900,27.896 113.900 C 27.781 113.900,27.684 113.773,27.680 113.618 C 27.651 112.551,25.900 111.480,24.323 111.565 L 22.960 111.638 22.960 110.856 C 22.960 110.231,23.048 110.073,23.397 110.073 C 23.637 110.073,23.892 109.979,23.963 109.864 C 24.034 109.749,24.648 109.585,25.327 109.500 C 26.006 109.415,26.562 109.263,26.562 109.162 C 26.562 109.060,27.321 108.849,28.250 108.693 C 29.178 108.537,29.938 108.341,29.938 108.257 C 29.938 108.174,30.440 108.039,31.054 107.957 C 31.668 107.876,32.227 107.718,32.296 107.606 C 32.365 107.495,33.182 107.281,34.112 107.131 C 35.043 106.981,35.861 106.766,35.930 106.653 C 36.183 106.244,36.574 106.638,36.775 107.502 M81.332 106.654 C 81.478 106.771,81.851 106.941,82.161 107.031 C 82.811 107.221,84.412 108.683,84.412 109.087 C 84.412 109.237,84.498 109.394,84.603 109.435 C 84.708 109.477,84.946 110.118,85.133 110.861 C 85.451 112.125,85.483 112.168,85.631 111.536 C 85.718 111.165,85.878 110.696,85.986 110.495 C 86.094 110.293,86.251 109.760,86.335 109.311 C 86.420 108.861,86.579 108.437,86.688 108.369 C 86.798 108.301,86.888 108.049,86.888 107.809 C 86.888 107.339,87.219 107.222,87.458 107.608 C 87.550 107.757,87.700 107.766,87.865 107.633 C 88.008 107.517,89.981 107.353,92.247 107.269 L 96.369 107.115 96.213 107.975 C 96.128 108.448,95.970 108.947,95.863 109.083 C 95.755 109.219,95.603 109.802,95.524 110.377 C 95.445 110.953,95.307 111.424,95.217 111.424 C 95.127 111.424,94.923 112.057,94.764 112.831 C 94.604 113.604,94.399 114.339,94.308 114.463 C 94.216 114.586,94.013 115.295,93.856 116.038 C 93.698 116.781,93.484 117.485,93.380 117.603 C 93.276 117.720,93.190 117.974,93.189 118.165 C 93.189 118.357,93.046 118.787,92.871 119.121 C 92.697 119.455,92.423 120.442,92.261 121.316 C 92.100 122.189,91.900 122.904,91.816 122.904 C 91.733 122.904,91.594 123.284,91.507 123.748 C 91.421 124.212,91.268 124.693,91.169 124.817 C 91.070 124.941,90.865 125.650,90.715 126.393 C 90.564 127.136,90.362 127.845,90.266 127.968 C 90.169 128.092,90.019 128.624,89.933 129.150 C 89.846 129.676,89.693 130.107,89.593 130.107 C 89.492 130.107,89.292 130.789,89.146 131.623 C 89.001 132.457,88.792 133.194,88.683 133.262 C 88.573 133.330,88.368 134.142,88.227 135.066 C 88.087 135.991,87.880 136.844,87.767 136.961 C 87.065 137.697,88.104 138.856,89.215 138.577 C 89.723 138.450,92.056 136.338,92.072 135.991 C 92.076 135.912,92.470 135.394,92.949 134.840 C 94.351 133.217,95.735 134.292,94.485 136.033 C 93.799 136.988,93.472 137.533,93.144 138.267 C 92.992 138.607,92.737 138.886,92.579 138.886 C 92.420 138.886,92.290 138.998,92.290 139.135 C 92.290 139.838,88.257 143.174,86.808 143.670 C 86.419 143.803,86.050 143.980,85.988 144.064 C 85.209 145.116,78.334 144.454,78.334 143.327 C 78.334 143.227,78.117 142.851,77.852 142.492 C 77.335 141.793,77.315 137.895,77.826 137.565 C 77.999 137.453,78.403 135.605,78.373 135.059 C 78.369 134.997,78.511 134.786,78.688 134.591 C 78.866 134.395,78.945 134.169,78.865 134.090 C 78.786 134.010,78.841 133.799,78.988 133.621 C 79.138 133.441,79.167 133.243,79.053 133.173 C 78.942 133.104,78.728 133.316,78.578 133.645 C 78.428 133.974,78.025 134.603,77.682 135.045 C 77.339 135.486,76.994 136.024,76.916 136.241 C 76.837 136.458,76.668 136.635,76.541 136.635 C 76.413 136.635,76.308 136.743,76.308 136.876 C 76.308 137.124,74.527 139.390,74.226 139.524 C 74.133 139.565,74.057 139.726,74.057 139.881 C 74.057 140.037,73.804 140.279,73.495 140.420 C 73.185 140.562,72.932 140.831,72.932 141.019 C 72.932 141.208,72.789 141.362,72.614 141.362 C 72.440 141.362,72.055 141.640,71.760 141.981 C 69.666 144.393,64.143 145.571,62.384 143.979 C 62.161 143.778,61.916 143.613,61.838 143.613 C 61.646 143.613,60.651 142.604,60.473 142.228 C 60.394 142.061,60.242 141.773,60.136 141.587 C 59.680 140.791,59.085 139.459,59.038 139.130 C 59.011 138.934,58.927 138.267,58.852 137.648 C 58.777 137.029,58.658 136.370,58.589 136.185 C 58.375 135.612,58.365 135.046,58.566 134.921 C 58.672 134.856,58.685 134.685,58.596 134.541 C 58.364 134.165,58.343 133.483,58.563 133.483 C 58.666 133.483,58.751 133.123,58.751 132.682 C 58.751 131.572,59.209 128.692,59.429 128.419 C 59.529 128.295,59.682 127.814,59.769 127.349 C 59.855 126.885,60.005 126.505,60.101 126.505 C 60.198 126.505,60.346 126.125,60.431 125.661 C 60.515 125.197,60.716 124.613,60.876 124.364 C 61.037 124.114,61.240 123.582,61.328 123.182 C 61.416 122.781,61.565 122.454,61.659 122.454 C 61.753 122.454,61.964 122.048,62.127 121.553 C 62.291 121.058,62.498 120.653,62.587 120.653 C 62.677 120.653,62.810 120.476,62.883 120.259 C 62.956 120.042,63.318 119.358,63.688 118.739 C 64.058 118.120,64.433 117.470,64.521 117.294 C 64.609 117.117,64.822 116.813,64.994 116.618 C 65.165 116.423,65.694 115.756,66.168 115.136 C 67.384 113.547,71.431 109.624,71.854 109.623 C 71.942 109.623,72.195 109.433,72.417 109.201 C 72.638 108.968,73.073 108.702,73.382 108.608 C 73.692 108.514,73.996 108.374,74.058 108.298 C 74.384 107.900,76.201 107.122,77.091 107.000 C 77.651 106.923,78.109 106.796,78.109 106.717 C 78.109 106.481,81.043 106.424,81.332 106.654 M118.661 107.259 C 118.618 107.631,118.503 108.036,118.406 108.160 C 118.308 108.284,118.157 108.721,118.069 109.132 C 117.981 109.542,117.767 110.150,117.594 110.482 C 117.421 110.814,117.278 111.342,117.278 111.655 C 117.277 111.968,117.139 112.424,116.971 112.668 C 116.802 112.912,116.591 113.517,116.500 114.012 C 116.410 114.508,116.255 115.014,116.156 115.138 C 116.057 115.262,115.847 115.945,115.690 116.657 C 115.533 117.369,115.330 117.952,115.239 117.952 C 115.148 117.952,114.964 118.571,114.831 119.327 C 114.698 120.084,114.494 120.818,114.377 120.959 C 114.261 121.100,114.094 121.595,114.007 122.060 C 113.921 122.524,113.777 122.904,113.688 122.904 C 113.493 122.904,112.945 125.176,113.103 125.333 C 113.164 125.394,113.278 125.253,113.356 125.018 C 113.435 124.784,114.146 123.262,114.937 121.637 C 115.729 120.012,116.376 118.531,116.376 118.345 C 116.376 118.159,116.518 117.889,116.692 117.745 C 116.865 117.601,117.276 116.955,117.604 116.310 C 118.720 114.118,119.522 112.692,119.710 112.564 C 119.813 112.494,119.970 112.285,120.058 112.099 C 120.999 110.112,123.459 107.493,124.747 107.108 C 125.219 106.966,125.605 106.791,125.605 106.717 C 125.605 106.644,126.111 106.554,126.730 106.516 C 127.349 106.479,127.856 106.543,127.856 106.657 C 127.856 106.772,128.157 106.926,128.524 106.999 C 129.377 107.170,130.084 107.876,130.255 108.730 C 130.328 109.097,130.477 109.398,130.585 109.398 C 130.838 109.398,130.845 113.514,130.593 113.799 C 130.489 113.916,130.279 114.595,130.126 115.307 C 129.974 116.019,129.756 116.601,129.641 116.601 C 129.526 116.601,129.432 116.698,129.432 116.816 C 129.432 117.084,128.510 118.455,127.961 119.005 C 126.728 120.237,124.063 119.208,123.345 117.222 C 123.014 116.309,122.158 115.932,121.371 116.353 C 120.736 116.693,118.627 119.060,118.627 119.433 C 118.627 119.609,118.550 119.752,118.455 119.752 C 118.361 119.752,118.183 119.950,118.061 120.192 C 117.939 120.434,117.358 121.575,116.770 122.726 C 116.182 123.878,115.701 124.913,115.701 125.026 C 115.701 125.139,115.567 125.392,115.403 125.587 C 115.239 125.783,114.970 126.373,114.804 126.899 C 114.639 127.425,114.429 127.856,114.338 127.856 C 114.248 127.856,114.109 128.134,114.029 128.475 C 113.949 128.815,113.736 129.423,113.554 129.826 C 113.373 130.228,113.076 130.886,112.895 131.289 C 112.713 131.691,112.497 132.324,112.413 132.696 C 112.330 133.067,112.188 133.472,112.097 133.596 C 112.007 133.720,111.808 134.353,111.656 135.004 C 111.503 135.654,111.296 136.237,111.196 136.299 C 111.095 136.361,110.942 136.842,110.855 137.368 C 110.768 137.893,110.619 138.424,110.522 138.548 C 110.426 138.672,110.224 139.381,110.073 140.124 C 109.923 140.867,109.722 141.576,109.628 141.699 C 109.534 141.823,109.388 142.304,109.304 142.769 L 109.152 143.613 104.083 143.613 L 99.013 143.613 99.171 143.106 C 99.258 142.828,99.398 142.549,99.482 142.487 C 99.608 142.394,99.905 141.170,100.246 139.336 C 100.281 139.150,100.429 138.777,100.577 138.507 C 100.724 138.236,100.845 137.780,100.846 137.494 C 100.846 137.207,100.984 136.709,101.153 136.387 C 101.321 136.064,101.529 135.330,101.615 134.755 C 101.702 134.179,101.847 133.708,101.938 133.708 C 102.030 133.708,102.235 133.075,102.395 132.302 C 102.554 131.528,102.764 130.793,102.861 130.670 C 102.957 130.546,103.109 130.039,103.198 129.544 C 103.288 129.049,103.438 128.542,103.532 128.419 C 103.626 128.295,103.835 127.535,103.995 126.730 C 104.156 125.926,104.365 125.166,104.459 125.042 C 104.553 124.918,104.703 124.412,104.793 123.917 C 104.882 123.421,105.032 122.915,105.126 122.791 C 105.220 122.667,105.421 121.958,105.571 121.216 C 105.722 120.473,105.934 119.755,106.042 119.621 C 106.151 119.487,106.284 119.031,106.339 118.608 C 106.393 118.185,106.561 117.535,106.712 117.164 C 107.011 116.426,107.004 116.459,107.318 114.360 C 107.544 112.847,107.332 111.424,106.880 111.424 C 106.744 111.424,106.521 111.272,106.384 111.086 C 106.222 110.867,105.578 110.703,104.558 110.622 C 102.575 110.462,102.420 110.409,102.420 109.883 C 102.420 109.185,102.931 108.949,105.040 108.673 C 106.137 108.530,107.085 108.341,107.147 108.255 C 107.209 108.168,107.883 108.037,108.645 107.962 C 109.407 107.888,110.300 107.725,110.628 107.600 C 111.235 107.369,111.948 107.244,114.069 106.997 C 114.719 106.921,115.250 106.767,115.250 106.656 C 115.250 106.544,116.035 106.482,116.995 106.518 L 118.739 106.584 118.661 107.259 M79.685 109.373 C 79.685 109.484,79.440 109.636,79.142 109.711 C 78.557 109.857,76.083 112.442,76.083 112.906 C 76.083 113.061,76.007 113.221,75.914 113.262 C 75.648 113.381,74.733 114.755,74.733 115.037 C 74.733 115.177,74.530 115.550,74.282 115.864 C 74.035 116.179,73.832 116.592,73.832 116.782 C 73.832 116.973,73.698 117.288,73.535 117.484 C 73.371 117.679,73.101 118.270,72.936 118.796 C 72.770 119.322,72.561 119.752,72.471 119.752 C 72.381 119.752,72.240 120.107,72.159 120.540 C 72.078 120.974,71.922 121.328,71.812 121.328 C 71.703 121.328,71.498 121.885,71.356 122.566 C 71.215 123.247,71.009 123.804,70.898 123.804 C 70.787 123.804,70.629 124.311,70.547 124.930 C 70.465 125.549,70.324 126.055,70.233 126.055 C 70.143 126.055,69.933 126.967,69.768 128.081 C 69.603 129.195,69.404 130.107,69.325 130.107 C 69.246 130.107,69.158 131.221,69.129 132.583 C 69.094 134.218,69.157 135.059,69.316 135.059 C 69.448 135.059,69.555 135.243,69.555 135.467 C 69.555 136.667,71.298 137.342,72.819 136.733 C 73.697 136.381,77.434 132.184,77.434 131.550 C 77.434 131.388,77.577 131.174,77.752 131.075 C 77.927 130.976,78.539 129.983,79.111 128.869 C 79.684 127.755,80.235 126.691,80.336 126.505 C 80.716 125.806,81.238 124.561,81.516 123.692 C 81.675 123.196,81.876 122.690,81.963 122.566 C 82.050 122.442,82.192 121.961,82.278 121.497 C 82.365 121.033,82.512 120.653,82.606 120.653 C 82.797 120.653,83.012 119.304,83.213 116.826 C 83.289 115.898,83.463 115.063,83.600 114.972 C 83.768 114.861,83.748 114.806,83.540 114.804 C 83.291 114.801,83.286 114.735,83.512 114.463 C 83.666 114.277,83.691 114.125,83.568 114.125 C 83.445 114.125,83.275 113.416,83.189 112.550 C 83.030 110.928,82.311 109.623,81.578 109.623 C 81.403 109.623,81.261 109.522,81.261 109.398 C 81.261 109.274,80.906 109.173,80.473 109.173 C 80.039 109.173,79.685 109.263,79.685 109.373 " stroke="none" fill="#fcfcfc" fill-rule="evenodd"></path><path id="path1" d="M365.025 64.558 C 364.948 64.684,364.383 64.855,363.770 64.939 C 363.158 65.024,362.538 65.236,362.392 65.411 C 362.247 65.586,362.012 65.729,361.871 65.729 C 361.729 65.729,361.080 66.195,360.429 66.765 C 359.302 67.750,359.145 68.006,357.679 71.244 C 357.289 72.104,357.311 73.256,357.719 73.335 C 357.950 73.380,358.155 73.209,358.256 72.888 C 358.563 71.909,360.527 69.330,360.966 69.330 C 361.027 69.330,361.353 69.126,361.691 68.876 C 362.037 68.620,362.846 68.360,363.539 68.282 C 364.217 68.205,364.899 68.043,365.053 67.921 C 365.243 67.772,365.335 67.782,365.335 67.952 C 365.335 68.091,365.563 68.205,365.841 68.206 C 367.357 68.210,370.287 70.211,370.287 71.243 C 370.287 71.429,370.376 71.581,370.485 71.581 C 370.777 71.581,371.103 73.074,371.161 74.674 C 371.214 76.176,370.795 78.784,370.501 78.784 C 370.403 78.784,370.251 79.110,370.164 79.507 C 369.964 80.416,369.182 81.936,368.914 81.936 C 368.802 81.936,368.711 82.070,368.711 82.233 C 368.711 82.396,368.357 82.944,367.923 83.451 C 367.490 83.957,367.136 84.472,367.136 84.595 C 367.136 84.718,366.531 85.461,365.792 86.247 C 365.053 87.033,364.445 87.802,364.441 87.957 C 364.438 88.112,364.282 88.239,364.097 88.239 C 363.911 88.239,363.759 88.391,363.759 88.576 C 363.759 88.762,363.646 88.914,363.507 88.914 C 363.241 88.914,361.968 90.258,361.962 90.546 C 361.960 90.639,361.806 90.715,361.621 90.715 C 361.435 90.715,361.283 90.830,361.283 90.970 C 361.283 91.192,360.265 92.290,360.060 92.290 C 359.752 92.290,356.331 95.841,356.331 96.160 C 356.331 96.546,356.813 96.567,365.662 96.567 L 374.994 96.567 375.141 95.779 C 375.223 95.346,375.368 94.992,375.464 94.992 C 375.561 94.992,375.702 94.662,375.778 94.260 C 375.854 93.858,376.069 93.236,376.255 92.880 C 376.880 91.683,376.952 90.496,376.391 90.643 C 376.129 90.711,375.914 90.907,375.914 91.079 C 375.914 91.250,375.763 91.390,375.577 91.390 C 375.391 91.390,375.239 91.542,375.239 91.728 C 375.239 91.913,375.128 92.065,374.993 92.065 C 374.857 92.065,374.433 92.288,374.051 92.560 C 373.176 93.183,361.508 93.429,361.508 92.824 C 361.508 92.655,361.660 92.515,361.846 92.515 C 362.032 92.515,362.183 92.406,362.183 92.273 C 362.183 91.956,364.100 90.039,364.417 90.039 C 364.550 90.039,364.660 89.940,364.660 89.818 C 364.660 89.697,364.989 89.251,365.391 88.828 C 365.793 88.405,366.375 87.744,366.683 87.361 C 366.991 86.977,367.371 86.663,367.527 86.663 C 367.683 86.663,367.811 86.511,367.811 86.325 C 367.811 86.140,367.963 85.988,368.149 85.988 C 368.334 85.988,368.490 85.861,368.495 85.706 C 368.500 85.551,369.108 84.771,369.846 83.971 C 370.584 83.172,371.187 82.429,371.187 82.321 C 371.187 82.213,371.542 81.692,371.975 81.163 C 372.409 80.634,372.763 80.085,372.763 79.943 C 372.763 79.801,372.839 79.684,372.932 79.683 C 373.127 79.681,373.663 78.597,373.663 78.204 C 373.663 78.059,373.815 77.813,374.001 77.659 C 374.187 77.505,374.339 77.214,374.340 77.012 C 374.341 76.811,374.506 76.342,374.706 75.971 C 375.151 75.147,375.242 70.819,374.823 70.400 C 374.680 70.257,374.564 69.966,374.564 69.753 C 374.564 69.539,374.311 69.064,374.001 68.696 C 373.692 68.328,373.438 67.955,373.438 67.866 C 373.438 67.642,372.465 66.638,372.243 66.633 C 372.143 66.631,371.687 66.334,371.230 65.974 C 370.709 65.563,369.896 65.219,369.049 65.050 C 368.306 64.902,367.546 64.726,367.361 64.660 C 366.808 64.465,366.235 64.442,366.235 64.616 C 366.235 64.838,365.481 64.762,365.307 64.523 C 365.229 64.417,365.103 64.433,365.025 64.558 M226.122 87.711 C 226.142 88.297,226.306 88.653,226.693 88.947 C 226.992 89.174,227.443 89.563,227.695 89.812 C 227.947 90.061,228.263 90.264,228.397 90.264 C 228.750 90.264,233.202 94.760,233.202 95.116 C 233.202 95.281,233.386 95.549,233.611 95.710 C 233.836 95.872,234.094 96.156,234.184 96.342 C 234.275 96.528,234.595 97.085,234.897 97.580 C 235.198 98.075,235.571 98.734,235.725 99.043 C 235.880 99.353,236.065 99.657,236.137 99.719 C 236.208 99.781,236.399 100.186,236.561 100.619 C 236.990 101.765,237.474 102.933,237.680 103.320 C 237.779 103.506,237.987 104.367,238.141 105.234 C 238.296 106.100,238.508 106.974,238.611 107.176 C 238.772 107.490,238.917 108.188,239.166 109.848 C 239.194 110.034,239.278 110.338,239.353 110.523 C 239.531 110.964,239.702 112.427,239.853 114.800 C 239.921 115.853,240.036 116.866,240.110 117.051 C 240.509 118.048,240.571 130.199,240.180 130.670 C 239.986 130.903,239.978 131.007,240.153 131.007 C 240.291 131.007,240.405 131.159,240.405 131.345 C 240.405 131.531,240.325 131.683,240.228 131.683 C 240.130 131.683,239.936 133.004,239.796 134.619 C 239.657 136.234,239.420 137.703,239.271 137.883 C 239.058 138.140,239.060 138.210,239.280 138.210 C 239.477 138.210,239.492 138.294,239.329 138.492 C 239.202 138.647,239.026 139.356,238.938 140.068 C 238.850 140.779,238.701 141.362,238.608 141.362 C 238.454 141.362,238.358 141.778,237.998 144.007 C 237.933 144.409,237.798 144.738,237.697 144.738 C 237.597 144.738,237.443 145.064,237.356 145.463 C 237.268 145.861,237.117 146.342,237.021 146.532 C 236.924 146.721,236.422 147.766,235.905 148.854 C 235.388 149.941,234.619 151.284,234.196 151.838 C 233.773 152.392,233.427 152.936,233.427 153.047 C 233.427 153.312,229.174 157.569,228.909 157.569 C 228.796 157.569,228.253 157.913,227.702 158.334 C 227.151 158.754,226.594 159.134,226.464 159.178 C 225.999 159.334,226.013 160.720,226.479 160.720 C 226.710 160.720,226.899 160.619,226.899 160.495 C 226.899 160.371,227.038 160.270,227.207 160.270 C 227.376 160.270,227.771 160.068,228.086 159.820 C 228.401 159.572,228.776 159.370,228.919 159.370 C 229.063 159.370,229.512 159.116,229.918 158.807 C 230.324 158.497,230.737 158.244,230.837 158.244 C 230.936 158.244,231.450 157.890,231.979 157.456 C 232.507 157.023,233.024 156.669,233.127 156.669 C 233.230 156.669,233.618 156.374,233.990 156.013 C 234.361 155.652,235.146 154.891,235.734 154.323 C 236.322 153.755,236.804 153.189,236.804 153.066 C 236.804 152.943,236.956 152.842,237.141 152.842 C 237.327 152.842,237.479 152.741,237.479 152.619 C 237.479 152.496,237.783 152.105,238.154 151.750 C 238.526 151.395,238.829 151.033,238.829 150.945 C 238.829 150.856,239.235 150.304,239.730 149.716 C 240.225 149.129,240.630 148.534,240.630 148.393 C 240.630 148.252,240.757 148.056,240.912 147.957 C 241.196 147.775,241.502 147.298,242.254 145.864 C 242.481 145.431,242.962 144.569,243.322 143.950 C 243.682 143.331,243.984 142.660,243.992 142.459 C 244.000 142.257,244.148 141.975,244.321 141.832 C 244.494 141.688,244.704 141.205,244.787 140.758 C 244.871 140.311,245.077 139.732,245.245 139.472 C 245.412 139.211,245.619 138.618,245.703 138.154 C 245.788 137.690,245.944 137.310,246.050 137.310 C 246.156 137.310,246.309 136.804,246.392 136.185 C 246.474 135.566,246.614 135.059,246.704 135.059 C 246.794 135.059,246.993 134.122,247.146 132.977 C 247.299 131.832,247.479 130.743,247.547 130.557 C 248.088 129.073,248.081 118.441,247.538 117.051 C 247.466 116.866,247.290 115.903,247.147 114.913 C 247.005 113.922,246.811 113.011,246.715 112.887 C 246.620 112.763,246.469 112.257,246.379 111.761 C 246.290 111.266,246.141 110.760,246.047 110.636 C 245.954 110.512,245.741 109.904,245.573 109.285 C 245.406 108.666,245.138 107.907,244.977 107.597 C 244.816 107.288,244.684 106.921,244.683 106.783 C 244.682 106.436,242.492 102.230,241.962 101.557 C 241.725 101.255,241.531 100.906,241.531 100.781 C 241.531 100.655,241.176 100.120,240.743 99.591 C 240.310 99.063,239.955 98.545,239.955 98.441 C 239.955 98.049,235.056 92.531,234.698 92.521 C 234.593 92.518,233.999 92.060,233.380 91.503 C 232.760 90.945,232.152 90.490,232.028 90.490 C 231.905 90.490,231.420 90.186,230.951 89.814 C 230.482 89.443,230.004 89.139,229.890 89.139 C 229.775 89.139,229.283 88.838,228.796 88.470 C 228.310 88.102,227.811 87.796,227.687 87.790 C 227.563 87.783,227.209 87.580,226.899 87.338 C 226.137 86.742,226.091 86.764,226.122 87.711 M154.418 87.276 C 153.678 87.554,153.140 87.823,152.279 88.345 C 151.784 88.645,151.129 89.003,150.823 89.140 C 150.518 89.278,149.842 89.739,149.322 90.165 C 148.802 90.591,148.277 90.940,148.154 90.940 C 147.833 90.940,141.812 96.997,141.812 97.320 C 141.812 97.468,141.526 97.942,141.177 98.373 C 140.362 99.378,138.886 101.624,138.886 101.859 C 138.886 101.958,138.633 102.372,138.323 102.777 C 138.014 103.183,137.760 103.633,137.760 103.777 C 137.760 103.921,137.570 104.307,137.338 104.636 C 137.106 104.965,136.845 105.563,136.757 105.965 C 136.670 106.367,136.514 106.697,136.410 106.697 C 136.306 106.697,136.152 107.026,136.068 107.428 C 135.984 107.831,135.790 108.362,135.637 108.610 C 135.483 108.858,135.219 109.693,135.049 110.467 C 134.880 111.241,134.672 111.874,134.588 111.874 C 134.504 111.874,134.364 112.456,134.275 113.168 C 134.187 113.880,134.030 114.566,133.927 114.693 C 133.668 115.008,133.402 117.448,133.178 121.553 C 133.154 121.986,133.060 122.461,132.968 122.607 C 132.876 122.753,132.909 122.939,133.040 123.021 C 133.190 123.113,133.202 123.267,133.072 123.430 C 132.840 123.722,132.856 124.462,133.104 124.862 C 133.193 125.006,133.158 125.190,133.026 125.272 C 132.862 125.373,132.879 125.532,133.079 125.774 C 133.317 126.063,133.317 126.146,133.080 126.226 C 132.894 126.289,132.864 126.418,132.995 126.584 C 133.108 126.726,133.268 127.805,133.350 128.981 C 133.533 131.607,133.713 132.848,133.954 133.156 C 134.055 133.286,134.197 133.792,134.269 134.282 C 134.485 135.742,134.509 135.841,134.726 136.189 C 134.841 136.372,134.940 136.624,134.947 136.747 C 134.975 137.261,135.348 138.506,135.642 139.070 C 135.815 139.402,135.957 139.760,135.958 139.865 C 135.960 140.138,136.527 141.393,137.728 143.777 C 139.287 146.874,139.472 147.197,140.222 148.131 C 140.601 148.603,140.912 149.072,140.912 149.173 C 140.912 149.274,141.114 149.484,141.362 149.638 C 141.609 149.793,141.812 150.074,141.812 150.262 C 141.812 150.716,147.996 156.894,148.451 156.894 C 148.645 156.894,148.863 157.046,148.934 157.231 C 149.005 157.417,149.161 157.569,149.279 157.569 C 149.398 157.569,149.827 157.822,150.233 158.132 C 150.639 158.441,151.038 158.694,151.121 158.694 C 151.203 158.694,151.690 158.998,152.202 159.370 C 152.715 159.741,153.259 160.045,153.411 160.045 C 153.563 160.045,153.813 160.197,153.967 160.383 C 154.328 160.818,154.958 160.829,154.792 160.397 C 154.724 160.220,154.789 160.025,154.937 159.965 C 155.141 159.882,155.140 159.851,154.931 159.838 C 154.780 159.828,154.704 159.693,154.762 159.539 C 154.820 159.384,154.491 159.004,154.030 158.694 C 153.569 158.385,153.012 157.954,152.792 157.738 C 152.572 157.521,152.290 157.344,152.167 157.344 C 152.043 157.344,151.941 157.192,151.941 157.006 C 151.941 156.820,151.807 156.669,151.642 156.669 C 151.286 156.669,147.440 152.634,147.440 152.261 C 147.440 152.189,147.104 151.708,146.694 151.192 C 145.907 150.201,144.064 146.616,144.062 146.072 C 144.061 145.895,143.918 145.480,143.745 145.147 C 143.572 144.815,143.358 144.208,143.270 143.797 C 143.183 143.386,143.033 142.949,142.938 142.825 C 142.843 142.701,142.643 141.840,142.495 140.912 C 142.347 139.983,142.140 139.060,142.036 138.860 C 141.875 138.551,141.783 137.947,141.491 135.280 C 141.470 135.092,141.388 134.833,141.308 134.705 C 140.637 133.619,140.621 113.791,141.291 112.708 C 141.463 112.428,141.516 112.076,141.601 110.636 C 141.630 110.141,141.780 109.432,141.934 109.060 C 142.089 108.689,142.331 107.630,142.473 106.708 C 142.615 105.786,142.817 104.925,142.921 104.795 C 143.025 104.665,143.183 104.222,143.270 103.812 C 143.358 103.401,143.572 102.793,143.745 102.461 C 143.918 102.129,144.061 101.716,144.062 101.544 C 144.063 101.248,144.782 99.553,145.217 98.818 C 145.327 98.633,145.541 98.227,145.692 97.918 C 145.843 97.608,146.020 97.304,146.085 97.243 C 146.149 97.181,146.338 96.865,146.505 96.542 C 146.671 96.218,147.051 95.691,147.349 95.370 C 147.646 95.049,147.890 94.691,147.890 94.574 C 147.890 94.291,151.955 90.264,152.241 90.264 C 152.748 90.264,154.850 88.453,154.723 88.125 C 154.653 87.940,154.707 87.788,154.844 87.788 C 154.981 87.788,155.093 87.636,155.093 87.451 C 155.093 87.097,154.975 87.066,154.418 87.276 M171.889 89.546 C 171.811 89.673,171.368 89.745,170.904 89.707 C 169.861 89.621,168.684 90.818,169.668 90.965 C 169.761 90.979,170.186 91.030,170.612 91.078 C 171.038 91.127,171.443 91.244,171.512 91.339 C 171.581 91.434,171.902 91.628,172.226 91.770 C 173.083 92.145,174.386 93.845,174.569 94.825 C 174.656 95.291,174.810 95.723,174.912 95.786 C 175.013 95.848,175.221 96.480,175.374 97.190 C 175.526 97.900,175.726 98.582,175.818 98.706 C 175.910 98.829,176.058 99.437,176.147 100.056 C 176.236 100.675,176.384 101.283,176.476 101.407 C 176.568 101.531,176.771 102.341,176.927 103.208 C 177.084 104.074,177.288 104.885,177.381 105.008 C 177.475 105.132,177.675 105.977,177.826 106.885 C 177.977 107.794,178.241 108.807,178.413 109.136 C 178.585 109.466,178.726 110.044,178.727 110.422 C 178.728 110.800,178.843 111.223,178.983 111.363 C 179.122 111.503,179.268 111.852,179.305 112.140 C 179.576 114.198,179.722 114.929,179.885 115.036 C 179.987 115.104,180.128 115.611,180.197 116.162 C 180.265 116.713,180.419 117.198,180.538 117.239 C 181.375 117.529,179.346 120.428,178.305 120.428 C 178.181 120.428,177.946 120.607,177.784 120.826 C 177.623 121.044,177.218 121.397,176.885 121.609 C 176.553 121.821,175.844 122.401,175.310 122.897 C 174.776 123.393,174.250 123.800,174.141 123.801 C 174.032 123.803,173.569 124.133,173.112 124.536 C 171.743 125.741,171.078 126.280,170.961 126.280 C 170.900 126.280,170.672 126.435,170.456 126.625 C 170.239 126.814,169.201 127.672,168.149 128.531 C 167.096 129.390,166.058 130.248,165.841 130.438 C 165.625 130.627,165.383 130.782,165.304 130.782 C 165.224 130.782,164.525 131.339,163.750 132.020 C 162.974 132.701,162.265 133.258,162.174 133.258 C 162.034 133.258,159.939 134.920,158.638 136.063 C 158.421 136.254,158.179 136.410,158.099 136.410 C 158.018 136.410,157.520 136.764,156.991 137.198 C 156.463 137.631,155.955 137.985,155.864 137.985 C 155.773 137.985,155.366 138.239,154.960 138.548 C 154.555 138.858,154.114 139.111,153.982 139.111 C 153.850 139.111,153.741 139.187,153.741 139.280 C 153.740 139.373,153.512 139.563,153.234 139.703 C 152.956 139.842,152.305 140.171,151.787 140.432 C 151.269 140.694,150.785 141.005,150.712 141.122 C 150.640 141.240,150.126 141.404,149.570 141.487 C 149.014 141.571,148.504 141.728,148.436 141.838 C 148.369 141.948,148.139 142.037,147.926 142.037 C 147.702 142.037,147.431 142.322,147.283 142.712 L 147.028 143.388 156.343 143.388 C 165.321 143.388,165.665 143.372,165.890 142.952 C 166.276 142.231,166.161 142.037,165.348 142.037 C 164.922 142.037,164.511 141.936,164.434 141.812 C 164.358 141.688,164.119 141.587,163.903 141.587 C 162.802 141.587,161.728 139.547,162.272 138.489 C 162.382 138.274,162.610 137.802,162.778 137.440 C 163.345 136.221,163.527 135.959,163.813 135.959 C 163.969 135.959,164.097 135.808,164.097 135.622 C 164.097 135.436,164.240 135.284,164.416 135.284 C 164.591 135.284,164.768 135.208,164.810 135.115 C 164.921 134.866,168.521 131.683,168.692 131.683 C 168.773 131.683,169.136 131.379,169.499 131.007 C 169.862 130.636,170.227 130.332,170.311 130.332 C 170.394 130.332,171.097 129.775,171.872 129.094 C 172.648 128.413,173.360 127.856,173.456 127.856 C 173.611 127.856,175.466 126.308,176.896 124.986 C 177.197 124.707,177.540 124.479,177.657 124.479 C 177.775 124.479,178.506 123.922,179.281 123.241 C 180.057 122.560,180.807 122.003,180.948 122.003 C 181.089 122.003,181.207 121.877,181.211 121.722 C 181.224 121.219,181.880 122.297,181.880 122.821 C 181.880 123.100,181.967 123.381,182.073 123.447 C 182.179 123.512,182.392 124.354,182.546 125.317 C 182.700 126.280,182.904 127.169,182.998 127.293 C 183.093 127.417,183.299 128.227,183.455 129.094 C 183.612 129.961,183.818 130.771,183.914 130.895 C 184.010 131.019,184.161 131.626,184.250 132.245 C 184.340 132.864,184.493 133.473,184.592 133.598 C 185.137 134.288,185.248 138.935,184.734 139.536 C 184.564 139.735,184.361 140.075,184.285 140.291 C 184.107 140.793,182.816 141.585,182.174 141.586 C 181.903 141.587,181.618 141.688,181.542 141.812 C 181.465 141.936,181.001 142.037,180.510 142.037 C 179.685 142.037,179.178 142.514,179.178 143.292 C 179.178 143.710,202.926 143.245,203.006 142.825 C 203.052 142.577,203.206 142.300,203.346 142.209 C 203.508 142.105,203.456 142.043,203.205 142.041 C 202.780 142.037,202.633 141.977,200.910 141.102 C 199.704 140.490,198.272 138.232,197.949 136.433 C 197.869 135.987,197.726 135.521,197.632 135.397 C 197.537 135.273,197.337 134.564,197.186 133.821 C 197.036 133.078,196.818 132.354,196.702 132.211 C 196.566 132.043,196.595 131.910,196.783 131.835 C 196.988 131.753,196.994 131.713,196.803 131.700 C 196.653 131.691,196.463 131.303,196.379 130.838 C 196.296 130.374,196.149 129.893,196.054 129.769 C 195.958 129.645,195.749 128.759,195.589 127.800 C 195.429 126.840,195.228 126.055,195.142 126.055 C 195.057 126.055,194.918 125.500,194.833 124.821 C 194.748 124.142,194.597 123.536,194.497 123.474 C 194.397 123.412,194.183 122.549,194.022 121.557 C 193.861 120.564,193.659 119.752,193.573 119.752 C 193.488 119.752,193.347 119.223,193.262 118.576 C 193.176 117.929,193.024 117.296,192.925 117.169 C 192.825 117.042,192.616 116.230,192.459 115.363 C 192.303 114.496,192.074 113.661,191.952 113.506 C 191.800 113.314,191.813 113.225,191.994 113.225 C 192.139 113.225,192.987 112.605,193.878 111.848 C 196.365 109.735,196.504 109.623,196.657 109.623 C 196.735 109.623,197.433 109.066,198.209 108.385 C 198.984 107.704,199.729 107.147,199.864 107.147 C 199.999 107.147,200.235 106.944,200.390 106.697 C 200.545 106.449,200.755 106.246,200.858 106.246 C 201.087 106.246,203.308 104.441,203.556 104.052 C 203.655 103.897,203.858 103.768,204.007 103.765 C 204.155 103.762,204.832 103.255,205.510 102.639 C 206.188 102.023,206.843 101.519,206.965 101.519 C 207.087 101.519,207.393 101.320,207.645 101.077 C 208.446 100.305,211.123 98.143,211.279 98.143 C 211.362 98.143,212.082 97.586,212.879 96.905 C 213.677 96.224,214.412 95.667,214.512 95.667 C 214.613 95.667,215.185 95.262,215.785 94.766 C 216.384 94.271,216.963 93.866,217.071 93.866 C 217.179 93.866,217.637 93.579,218.088 93.228 C 219.108 92.434,221.649 91.165,222.218 91.165 C 222.704 91.165,223.831 90.131,223.655 89.847 C 223.591 89.743,222.801 89.677,221.899 89.701 C 220.997 89.725,220.132 89.647,219.977 89.527 C 219.790 89.382,219.696 89.393,219.696 89.562 C 219.696 89.906,219.086 89.883,218.945 89.533 C 218.854 89.308,218.828 89.308,218.813 89.533 C 218.791 89.882,218.120 89.910,218.120 89.562 C 218.120 89.396,218.023 89.382,217.839 89.521 C 217.502 89.776,214.750 89.773,214.350 89.517 C 214.189 89.414,214.069 89.439,214.069 89.576 C 214.069 89.910,213.455 89.875,213.317 89.533 C 213.227 89.308,213.200 89.308,213.186 89.533 C 213.165 89.873,212.493 89.915,212.493 89.576 C 212.493 89.440,212.372 89.414,212.212 89.516 C 211.751 89.807,207.901 89.801,207.713 89.508 C 207.594 89.323,207.547 89.330,207.544 89.533 C 207.542 89.688,207.389 89.814,207.203 89.814 C 207.017 89.814,206.866 89.723,206.866 89.610 C 206.866 89.244,205.830 89.885,205.585 90.404 C 205.362 90.876,205.408 90.920,206.275 91.060 C 208.899 91.485,209.734 94.615,207.679 96.321 C 207.479 96.487,207.316 96.762,207.316 96.932 C 207.316 97.103,207.164 97.243,206.978 97.243 C 206.792 97.243,206.640 97.369,206.640 97.524 C 206.639 97.679,206.335 98.008,205.963 98.255 C 205.591 98.503,205.230 98.883,205.161 99.100 C 205.091 99.316,204.889 99.494,204.712 99.494 C 204.535 99.494,204.389 99.645,204.389 99.831 C 204.389 100.017,204.276 100.169,204.138 100.169 C 204.000 100.169,203.100 100.878,202.138 101.745 C 201.177 102.611,200.314 103.320,200.220 103.320 C 200.125 103.320,199.515 103.776,198.863 104.333 C 198.211 104.890,197.614 105.346,197.537 105.346 C 197.459 105.346,197.099 105.650,196.736 106.021 C 196.373 106.393,196.004 106.697,195.917 106.697 C 195.830 106.697,195.176 107.203,194.464 107.822 C 193.752 108.441,193.071 108.948,192.951 108.948 C 192.830 108.948,192.493 109.199,192.201 109.507 C 191.910 109.814,191.508 110.067,191.309 110.069 C 190.960 110.073,190.907 109.880,190.603 107.485 C 190.572 107.237,190.470 106.978,190.378 106.909 C 190.216 106.788,190.086 106.191,189.830 104.389 C 189.765 103.925,189.626 103.545,189.523 103.545 C 189.420 103.545,189.266 103.064,189.181 102.476 C 189.096 101.888,188.951 101.306,188.859 101.182 C 188.680 100.942,188.444 99.787,188.264 98.277 C 188.204 97.770,188.060 97.321,187.943 97.280 C 187.659 97.179,187.672 93.930,187.957 93.754 C 188.081 93.677,188.182 93.433,188.182 93.212 C 188.182 92.428,190.007 91.290,191.663 91.042 C 192.877 90.860,193.036 90.745,193.203 89.927 C 193.280 89.555,193.287 89.378,193.219 89.533 C 193.152 89.688,192.962 89.814,192.797 89.814 C 192.632 89.814,192.446 89.688,192.383 89.533 C 192.292 89.308,192.266 89.308,192.252 89.533 C 192.230 89.882,191.559 89.910,191.559 89.562 C 191.559 89.396,191.462 89.382,191.277 89.521 C 190.940 89.776,188.188 89.773,187.788 89.517 C 187.627 89.414,187.507 89.439,187.507 89.576 C 187.507 89.910,186.894 89.875,186.756 89.533 C 186.665 89.308,186.639 89.308,186.624 89.533 C 186.603 89.873,185.931 89.915,185.931 89.576 C 185.931 89.440,185.810 89.414,185.650 89.515 C 185.215 89.790,181.342 89.771,181.151 89.492 C 181.041 89.331,180.985 89.344,180.983 89.533 C 180.981 89.688,180.827 89.814,180.642 89.814 C 180.456 89.814,180.304 89.707,180.304 89.576 C 180.304 89.440,180.183 89.414,180.023 89.515 C 179.596 89.785,178.427 89.800,178.109 89.540 C 177.917 89.382,177.828 89.382,177.828 89.541 C 177.828 89.853,175.734 89.815,175.524 89.500 C 175.409 89.328,175.358 89.338,175.355 89.533 C 175.351 89.870,172.397 89.865,172.172 89.528 C 172.086 89.399,171.976 89.406,171.889 89.546 M306.223 95.881 C 306.112 95.985,305.211 96.135,304.221 96.214 C 301.917 96.398,300.678 96.586,300.394 96.794 C 300.270 96.884,299.764 97.032,299.268 97.121 C 298.773 97.210,298.267 97.356,298.143 97.445 C 298.019 97.535,297.395 97.735,296.756 97.891 C 295.472 98.204,293.442 99.193,292.307 100.059 C 291.903 100.367,291.460 100.619,291.322 100.619 C 290.960 100.619,285.650 105.998,285.650 106.366 C 285.650 106.535,285.523 106.755,285.368 106.854 C 285.040 107.064,283.849 108.775,283.849 109.038 C 283.849 109.136,283.656 109.488,283.419 109.820 C 282.695 110.836,281.867 112.510,281.707 113.281 C 281.623 113.683,281.425 114.217,281.267 114.467 C 281.109 114.718,280.911 115.376,280.826 115.931 C 280.741 116.485,280.579 117.141,280.466 117.389 C 279.649 119.172,279.661 130.564,280.482 131.576 C 280.585 131.703,280.739 132.336,280.825 132.983 C 280.911 133.629,281.053 134.159,281.141 134.159 C 281.229 134.159,281.426 134.716,281.579 135.397 C 281.731 136.078,281.950 136.635,282.065 136.635 C 282.179 136.635,282.275 136.812,282.278 137.029 C 282.283 137.506,283.653 140.254,284.291 141.064 C 284.543 141.385,284.750 141.750,284.750 141.875 C 284.750 142.001,285.104 142.536,285.537 143.065 C 285.971 143.594,286.325 144.096,286.325 144.181 C 286.325 144.389,287.242 145.481,288.713 147.024 C 289.381 147.724,289.927 148.408,289.927 148.544 C 289.927 148.679,290.044 148.790,290.188 148.790 C 290.331 148.790,291.066 149.356,291.820 150.047 C 293.841 151.899,293.891 151.941,294.053 151.941 C 294.135 151.941,294.696 152.296,295.299 152.729 C 295.902 153.163,296.498 153.517,296.623 153.517 C 296.748 153.517,296.978 153.671,297.134 153.859 C 297.290 154.048,297.860 154.313,298.399 154.449 C 298.939 154.585,299.381 154.781,299.381 154.884 C 299.381 154.988,299.737 155.139,300.171 155.221 C 300.606 155.302,301.013 155.452,301.076 155.553 C 301.138 155.655,301.770 155.862,302.480 156.015 C 303.190 156.168,303.872 156.368,303.995 156.460 C 304.189 156.603,306.711 156.886,308.650 156.981 C 308.981 156.998,309.328 157.086,309.419 157.177 C 309.676 157.434,310.816 157.374,310.988 157.095 C 311.096 156.921,311.201 156.938,311.336 157.151 C 311.442 157.319,311.531 157.355,311.533 157.231 C 311.535 157.107,311.866 157.000,312.268 156.993 C 313.841 156.965,316.578 156.650,316.809 156.470 C 316.942 156.366,317.548 156.216,318.154 156.137 C 318.761 156.057,319.545 155.849,319.896 155.674 C 320.248 155.498,320.841 155.288,321.213 155.206 C 321.586 155.124,321.891 154.975,321.891 154.875 C 321.891 154.775,322.235 154.628,322.656 154.549 C 323.077 154.470,323.545 154.256,323.697 154.074 C 323.848 153.892,324.088 153.742,324.231 153.742 C 324.373 153.742,325.028 153.388,325.686 152.954 C 326.344 152.521,326.956 152.167,327.046 152.167 C 327.263 152.167,330.506 149.456,330.737 149.082 C 330.836 148.921,331.064 148.790,331.244 148.790 C 331.423 148.790,331.570 148.677,331.570 148.539 C 331.570 148.400,331.950 147.903,332.414 147.434 C 334.190 145.640,336.742 141.308,336.746 140.081 C 336.747 139.810,336.843 139.529,336.959 139.457 C 337.138 139.346,337.512 137.718,337.530 136.972 C 337.533 136.849,337.636 136.675,337.760 136.587 C 338.069 136.366,338.028 128.655,337.716 128.265 C 337.586 128.102,337.410 127.490,337.325 126.905 C 337.241 126.319,337.091 125.791,336.992 125.729 C 336.893 125.668,336.682 125.007,336.524 124.261 C 336.365 123.515,336.148 122.904,336.041 122.904 C 335.934 122.904,335.847 122.796,335.847 122.665 C 335.847 122.261,334.633 119.876,334.331 119.685 C 334.174 119.586,334.046 119.362,334.046 119.186 C 334.046 119.011,333.742 118.522,333.371 118.099 C 332.999 117.676,332.696 117.252,332.696 117.158 C 332.696 117.064,332.240 116.454,331.683 115.802 C 331.125 115.149,330.670 114.556,330.670 114.482 C 330.670 114.300,327.130 110.748,326.948 110.748 C 326.868 110.748,326.179 110.192,325.416 109.511 C 324.653 108.831,323.945 108.274,323.842 108.273 C 323.739 108.273,323.222 107.918,322.693 107.485 C 322.165 107.051,321.616 106.697,321.474 106.697 C 321.332 106.697,321.216 106.597,321.216 106.475 C 321.216 106.352,320.861 106.104,320.428 105.923 C 318.808 105.247,319.752 105.189,332.133 105.211 L 344.626 105.234 344.626 100.444 L 344.626 95.655 325.525 95.673 C 315.020 95.683,306.334 95.776,306.223 95.881 M316.722 107.330 C 317.832 108.512,318.739 109.588,318.739 109.722 C 318.739 109.856,318.942 110.091,319.190 110.246 C 319.437 110.401,319.640 110.647,319.640 110.794 C 319.640 110.941,319.884 111.320,320.181 111.637 C 320.479 111.953,320.925 112.578,321.173 113.025 C 322.030 114.572,322.229 114.913,322.341 115.025 C 322.589 115.273,324.127 118.555,324.266 119.133 C 324.349 119.474,324.492 119.752,324.586 119.752 C 324.679 119.752,324.886 120.385,325.045 121.159 C 325.204 121.933,325.425 122.683,325.535 122.826 C 325.646 122.968,325.794 123.576,325.866 124.176 C 325.937 124.776,326.075 125.369,326.173 125.492 C 326.780 126.261,326.783 137.136,326.176 137.535 C 326.082 137.597,325.931 138.154,325.840 138.773 C 325.750 139.392,325.595 140.000,325.497 140.124 C 325.399 140.248,325.245 140.703,325.155 141.137 C 325.009 141.834,324.747 142.460,324.119 143.613 C 324.018 143.799,323.670 144.473,323.346 145.113 C 323.023 145.752,322.563 146.451,322.324 146.667 C 322.086 146.883,321.891 147.199,321.891 147.369 C 321.891 147.539,321.739 147.737,321.553 147.808 C 321.367 147.880,321.216 148.043,321.216 148.171 C 321.216 148.468,319.272 150.366,318.968 150.366 C 318.842 150.366,318.739 150.467,318.739 150.591 C 318.739 150.715,318.588 150.816,318.402 150.816 C 318.216 150.816,318.064 150.905,318.064 151.015 C 318.064 151.124,317.887 151.275,317.670 151.349 C 317.454 151.424,316.928 151.697,316.503 151.957 C 316.078 152.216,315.116 152.529,314.365 152.652 C 313.614 152.775,312.847 152.933,312.662 153.004 C 312.198 153.180,310.636 153.231,310.636 153.069 C 310.636 152.997,310.459 152.932,310.242 152.923 C 309.597 152.898,307.638 152.623,307.150 152.488 C 305.902 152.144,303.575 150.958,302.489 150.113 C 302.032 149.757,301.589 149.465,301.504 149.465 C 301.300 149.465,298.706 146.861,298.706 146.656 C 298.706 146.570,298.199 145.930,297.580 145.236 C 296.961 144.541,296.455 143.880,296.455 143.767 C 296.455 143.653,296.113 143.091,295.696 142.517 C 295.279 141.944,294.803 141.095,294.638 140.630 C 294.473 140.166,294.257 139.786,294.158 139.786 C 294.060 139.786,293.979 139.680,293.979 139.550 C 293.979 139.420,293.776 138.895,293.528 138.382 C 293.281 137.870,293.078 137.343,293.077 137.212 C 293.076 137.080,292.932 136.698,292.757 136.363 C 292.583 136.028,292.321 135.167,292.177 134.450 C 292.032 133.732,291.829 132.982,291.725 132.781 C 291.621 132.581,291.465 131.669,291.378 130.755 C 291.291 129.842,291.119 128.967,290.996 128.813 C 290.844 128.622,290.863 128.422,291.052 128.194 C 291.246 127.960,291.254 127.856,291.080 127.856 C 290.801 127.856,290.709 123.547,290.982 123.274 C 291.223 123.033,291.227 122.228,290.987 122.228 C 290.856 122.228,290.859 122.119,290.997 121.947 C 291.120 121.792,291.282 121.021,291.356 120.233 C 291.430 119.445,291.583 118.685,291.695 118.545 C 291.808 118.404,292.017 117.736,292.159 117.060 C 292.302 116.383,292.491 115.776,292.580 115.709 C 292.668 115.643,292.987 115.082,293.287 114.463 C 294.109 112.769,296.673 109.623,297.232 109.623 C 297.320 109.623,297.814 109.281,298.330 108.864 C 298.846 108.446,299.648 107.970,300.113 107.805 C 300.577 107.641,300.957 107.436,300.957 107.349 C 300.957 107.263,301.463 107.070,302.083 106.922 C 302.702 106.773,303.260 106.569,303.322 106.469 C 303.384 106.368,303.865 106.215,304.391 106.128 C 304.916 106.041,305.451 105.886,305.580 105.783 C 305.902 105.524,309.349 105.224,312.276 105.200 L 314.705 105.180 316.722 107.330 M35.453 106.863 C 35.082 106.917,34.675 107.047,34.548 107.151 C 34.422 107.255,33.637 107.459,32.804 107.605 C 31.971 107.750,31.289 107.946,31.289 108.041 C 31.289 108.137,30.759 108.285,30.113 108.370 C 29.466 108.456,28.833 108.606,28.706 108.703 C 28.579 108.801,27.817 109.012,27.012 109.173 C 26.207 109.334,25.447 109.540,25.324 109.631 C 25.200 109.722,24.668 109.868,24.142 109.955 C 23.239 110.104,23.185 110.155,23.185 110.865 C 23.185 111.642,23.708 111.823,24.514 111.325 C 24.678 111.224,24.876 111.230,24.955 111.339 C 25.034 111.447,25.225 111.546,25.380 111.559 C 25.535 111.571,25.794 111.597,25.956 111.615 C 26.971 111.731,28.391 114.051,28.802 116.263 C 28.940 117.006,29.147 118.019,29.263 118.514 C 29.504 119.539,29.668 121.171,29.841 124.254 C 29.907 125.431,30.021 126.545,30.093 126.730 C 30.165 126.916,30.245 127.372,30.271 127.743 C 30.416 129.784,30.691 136.111,30.707 137.760 C 30.717 138.813,30.815 139.738,30.924 139.817 C 31.032 139.896,31.037 140.097,30.934 140.264 C 30.668 140.694,30.649 141.362,30.904 141.362 C 31.022 141.362,30.980 141.530,30.810 141.736 C 30.568 142.029,30.562 142.131,30.784 142.206 C 30.939 142.258,30.992 142.419,30.902 142.563 C 30.811 142.707,30.709 143.233,30.676 143.732 C 30.575 145.229,31.680 145.022,33.774 143.149 C 34.666 142.352,35.535 141.667,35.706 141.627 C 35.876 141.587,36.016 141.409,36.016 141.233 C 36.016 141.056,36.132 140.912,36.273 140.912 C 36.415 140.912,36.845 140.616,37.230 140.255 C 37.614 139.894,38.579 139.008,39.373 138.286 C 40.168 137.563,41.636 136.189,42.637 135.232 C 43.638 134.275,44.584 133.490,44.738 133.488 C 44.893 133.485,45.020 133.348,45.020 133.183 C 45.020 132.847,46.241 131.683,46.593 131.683 C 46.718 131.683,46.820 131.531,46.820 131.345 C 46.820 131.159,46.972 131.007,47.158 131.007 C 47.344 131.007,47.496 130.863,47.496 130.686 C 47.496 130.509,47.724 130.180,48.002 129.954 C 48.757 129.343,50.872 126.820,50.872 126.531 C 50.872 126.393,50.956 126.280,51.059 126.280 C 51.224 126.280,51.662 125.682,53.178 123.386 C 53.394 123.059,53.766 122.372,54.004 121.859 C 54.242 121.347,54.546 120.860,54.680 120.777 C 54.814 120.694,54.924 120.430,54.924 120.189 C 54.924 119.949,55.021 119.752,55.140 119.752 C 55.259 119.752,55.472 119.322,55.613 118.796 C 55.753 118.270,55.948 117.738,56.046 117.614 C 56.278 117.318,56.720 115.199,56.592 114.992 C 56.537 114.904,56.595 114.768,56.721 114.690 C 57.007 114.513,57.026 110.822,56.742 110.647 C 56.628 110.576,56.467 110.214,56.386 109.841 C 55.752 106.956,51.265 105.692,48.886 107.728 C 47.242 109.135,46.609 112.206,47.663 113.653 C 47.897 113.975,48.155 114.415,48.235 114.631 C 48.316 114.848,48.487 115.025,48.614 115.025 C 48.742 115.025,48.846 115.133,48.846 115.265 C 48.846 115.398,49.100 115.838,49.409 116.243 C 49.719 116.649,49.972 117.129,49.972 117.309 C 49.972 117.489,50.090 117.754,50.233 117.898 C 50.567 118.232,50.600 120.888,50.280 121.586 C 49.122 124.108,48.585 125.130,48.291 125.374 C 48.101 125.531,47.946 125.800,47.946 125.970 C 47.946 126.141,47.845 126.280,47.721 126.280 C 47.597 126.280,47.496 126.382,47.496 126.505 C 47.496 126.733,47.129 127.204,46.201 128.169 C 45.923 128.458,45.695 128.758,45.695 128.835 C 45.695 128.912,45.037 129.601,44.232 130.366 C 43.427 131.131,42.769 131.881,42.769 132.031 C 42.769 132.182,42.559 132.360,42.302 132.427 C 42.045 132.495,41.780 132.760,41.713 133.016 C 41.646 133.273,41.484 133.483,41.353 133.483 C 41.223 133.483,40.931 133.651,40.704 133.856 C 40.309 134.214,40.292 134.158,40.275 132.449 C 40.238 128.715,40.053 124.353,39.918 124.029 C 39.840 123.844,39.757 123.337,39.733 122.904 C 39.622 120.929,39.340 118.454,39.155 117.839 C 39.044 117.468,38.908 116.809,38.854 116.376 C 38.542 113.873,38.413 113.225,38.224 113.225 C 38.109 113.225,38.072 113.132,38.143 113.018 C 38.213 112.905,38.173 112.558,38.055 112.248 C 37.938 111.938,37.793 111.266,37.734 110.754 C 37.675 110.243,37.532 109.704,37.415 109.555 C 37.299 109.407,37.133 108.981,37.047 108.610 C 36.850 107.756,36.392 106.686,36.242 106.730 C 36.180 106.749,35.824 106.809,35.453 106.863 M77.769 106.875 C 77.523 106.913,77.119 107.031,76.871 107.136 C 76.624 107.241,76.066 107.458,75.633 107.618 C 75.200 107.778,74.795 107.966,74.733 108.034 C 74.671 108.103,74.215 108.360,73.720 108.604 C 73.225 108.848,72.467 109.329,72.037 109.673 C 71.606 110.017,71.125 110.298,70.967 110.298 C 70.810 110.298,70.681 110.450,70.681 110.636 C 70.681 110.822,70.581 110.974,70.460 110.974 C 70.211 110.974,66.629 114.454,66.629 114.695 C 66.629 114.780,66.224 115.334,65.729 115.926 C 65.234 116.517,64.828 117.080,64.828 117.177 C 64.828 117.274,64.678 117.519,64.495 117.722 C 63.738 118.558,61.081 123.802,60.864 124.888 C 60.784 125.287,60.630 125.669,60.522 125.735 C 60.415 125.802,60.326 126.028,60.325 126.237 C 60.324 126.447,60.173 126.907,59.989 127.260 C 59.804 127.613,59.541 128.576,59.404 129.399 C 59.266 130.221,59.049 131.116,58.922 131.386 C 58.586 132.100,58.640 137.918,58.987 138.336 C 59.139 138.519,59.281 138.844,59.303 139.059 C 59.381 139.812,59.702 140.687,59.901 140.687 C 60.011 140.687,60.101 140.869,60.101 141.092 C 60.101 141.315,60.214 141.610,60.352 141.748 C 60.491 141.886,60.721 142.234,60.863 142.520 C 61.006 142.807,61.324 143.146,61.569 143.273 C 61.814 143.401,62.296 143.696,62.641 143.927 C 62.985 144.159,63.330 144.286,63.408 144.208 C 63.485 144.130,63.694 144.187,63.871 144.334 C 64.339 144.723,67.169 144.623,68.164 144.183 C 69.866 143.429,70.678 142.927,71.543 142.093 C 71.960 141.691,72.367 141.362,72.448 141.361 C 72.528 141.361,72.797 141.057,73.044 140.687 C 73.292 140.316,73.614 140.012,73.761 140.012 C 73.907 140.012,74.091 139.809,74.170 139.561 C 74.249 139.313,74.410 139.111,74.530 139.111 C 74.649 139.111,74.812 138.934,74.892 138.717 C 74.972 138.500,75.424 137.878,75.898 137.335 C 76.371 136.791,76.759 136.255,76.759 136.143 C 76.759 136.032,76.861 135.818,76.987 135.669 C 77.691 134.831,78.784 133.257,78.784 133.082 C 78.784 132.970,78.987 132.695,79.235 132.470 C 79.482 132.246,79.685 132.174,79.685 132.310 C 79.685 132.445,79.577 132.623,79.444 132.705 C 79.312 132.787,79.254 132.983,79.314 133.141 C 79.375 133.299,79.312 133.541,79.174 133.679 C 78.912 133.941,78.890 134.011,78.659 135.284 C 78.581 135.718,78.432 136.176,78.328 136.303 C 78.223 136.430,78.068 137.063,77.982 137.710 C 77.896 138.356,77.738 138.886,77.630 138.886 C 77.139 138.886,77.427 141.648,77.997 142.395 C 78.306 142.801,78.559 143.232,78.559 143.353 C 78.559 144.236,84.312 145.150,84.592 144.310 C 84.637 144.174,84.903 144.063,85.183 144.063 C 85.614 144.063,87.130 143.371,88.959 142.340 C 89.671 141.939,92.065 139.498,92.065 139.174 C 92.065 139.016,92.205 138.886,92.377 138.886 C 92.548 138.886,92.744 138.708,92.813 138.492 C 93.002 137.897,93.717 136.771,94.035 136.567 C 94.190 136.468,94.316 136.253,94.316 136.088 C 94.316 135.924,94.468 135.663,94.654 135.509 C 95.224 135.036,95.062 134.435,94.322 134.272 C 93.568 134.107,93.191 134.259,93.191 134.727 C 93.191 135.324,89.495 138.886,88.876 138.886 C 87.721 138.886,87.480 138.251,87.812 136.085 C 87.975 135.025,88.177 134.159,88.261 134.159 C 88.345 134.159,88.485 133.779,88.571 133.315 C 88.658 132.850,88.805 132.369,88.897 132.245 C 88.989 132.122,89.194 131.412,89.352 130.670 C 89.510 129.927,89.716 129.218,89.810 129.094 C 89.904 128.970,90.054 128.464,90.143 127.968 C 90.232 127.473,90.382 126.967,90.476 126.843 C 90.570 126.719,90.778 125.985,90.937 125.211 C 91.096 124.437,91.308 123.804,91.407 123.804 C 91.506 123.804,91.656 123.323,91.740 122.735 C 91.823 122.147,92.025 121.362,92.187 120.990 C 92.349 120.619,92.552 119.961,92.637 119.527 C 92.723 119.094,92.871 118.638,92.967 118.514 C 93.063 118.391,93.265 117.681,93.416 116.939 C 93.567 116.196,93.768 115.487,93.864 115.363 C 93.961 115.239,94.107 114.783,94.191 114.350 C 94.274 113.917,94.430 113.360,94.536 113.112 C 94.918 112.222,95.217 111.122,95.217 110.602 C 95.217 110.311,95.314 110.073,95.434 110.073 C 95.554 110.073,95.719 109.567,95.801 108.948 C 95.883 108.329,96.038 107.822,96.146 107.822 C 96.254 107.822,96.342 107.710,96.342 107.573 C 96.342 107.397,95.381 107.365,93.022 107.465 C 91.196 107.543,89.077 107.617,88.314 107.631 C 86.927 107.655,86.927 107.655,86.787 108.404 C 86.709 108.817,86.499 109.437,86.318 109.782 C 86.138 110.128,85.990 110.670,85.989 110.987 C 85.986 112.166,85.388 112.535,85.207 111.469 C 85.120 110.950,84.956 110.469,84.843 110.399 C 84.730 110.329,84.637 110.055,84.637 109.791 C 84.637 107.833,81.133 106.345,77.769 106.875 M115.224 106.798 C 115.169 106.854,114.768 106.936,114.334 106.980 C 113.901 107.025,113.425 107.135,113.278 107.226 C 113.019 107.387,112.677 107.448,110.528 107.723 C 109.973 107.793,109.466 107.921,109.402 108.006 C 109.338 108.090,109.184 108.162,109.060 108.165 C 108.599 108.174,105.562 108.627,105.346 108.718 C 105.284 108.745,104.676 108.883,103.995 109.026 C 102.227 109.397,102.027 110.280,103.698 110.333 C 105.640 110.394,106.932 110.967,107.382 111.966 C 107.723 112.724,107.701 114.741,107.348 115.167 C 107.226 115.313,107.075 115.866,107.011 116.394 C 106.947 116.923,106.781 117.566,106.641 117.822 C 106.501 118.079,106.371 118.441,106.353 118.627 C 106.285 119.301,105.966 120.546,105.804 120.765 C 105.713 120.889,105.507 121.649,105.346 122.454 C 105.185 123.258,104.977 124.018,104.882 124.142 C 104.788 124.266,104.638 124.772,104.549 125.267 C 104.460 125.763,104.308 126.269,104.212 126.393 C 104.116 126.517,103.914 127.251,103.762 128.025 C 103.611 128.799,103.412 129.432,103.320 129.432 C 103.228 129.432,103.089 129.913,103.010 130.501 C 102.931 131.089,102.716 131.860,102.531 132.215 C 102.346 132.569,102.194 133.076,102.193 133.340 C 102.193 133.605,102.060 134.074,101.898 134.384 C 101.737 134.693,101.465 135.605,101.294 136.410 C 101.124 137.214,100.856 138.119,100.700 138.419 C 100.545 138.720,100.468 139.049,100.531 139.151 C 100.594 139.252,100.496 139.614,100.313 139.955 C 100.130 140.295,99.838 141.207,99.663 141.981 L 99.346 143.388 104.093 143.388 C 109.426 143.388,109.193 143.463,109.502 141.635 C 109.590 141.113,109.733 140.687,109.819 140.687 C 109.905 140.687,110.108 139.972,110.269 139.099 C 110.431 138.225,110.705 137.237,110.879 136.904 C 111.053 136.570,111.196 136.126,111.197 135.916 C 111.198 135.707,111.285 135.482,111.392 135.417 C 111.498 135.351,111.714 134.687,111.873 133.940 C 112.031 133.194,112.232 132.583,112.319 132.583 C 112.406 132.583,112.611 132.026,112.774 131.345 C 112.938 130.664,113.145 130.107,113.236 130.107 C 113.327 130.107,113.467 129.828,113.549 129.488 C 113.630 129.147,113.984 128.261,114.336 127.518 C 114.688 126.775,115.037 126.016,115.112 125.830 C 115.186 125.644,115.341 125.340,115.454 125.155 C 115.568 124.969,116.151 123.830,116.750 122.623 C 118.421 119.256,118.648 118.852,118.871 118.852 C 118.984 118.852,119.077 118.710,119.077 118.537 C 119.077 118.104,121.498 115.926,121.979 115.926 C 122.506 115.926,123.339 116.734,123.698 117.594 C 124.206 118.811,124.820 119.190,126.280 119.190 C 127.986 119.190,128.459 118.782,129.546 116.376 C 129.742 115.943,130.024 115.345,130.173 115.048 C 130.638 114.122,130.539 108.755,130.051 108.398 C 129.834 108.240,129.657 107.995,129.657 107.854 C 129.657 107.713,129.541 107.597,129.400 107.597 C 129.259 107.597,129.018 107.425,128.865 107.215 C 128.166 106.259,124.816 106.837,123.347 108.166 C 123.146 108.348,122.862 108.497,122.717 108.497 C 122.572 108.497,122.454 108.606,122.454 108.738 C 122.454 108.871,122.048 109.460,121.553 110.047 C 121.058 110.635,120.653 111.195,120.653 111.293 C 120.653 111.391,120.361 111.841,120.004 112.292 C 119.647 112.743,119.189 113.467,118.987 113.900 C 118.785 114.333,118.222 115.397,117.737 116.263 C 117.251 117.130,116.787 117.991,116.706 118.177 C 116.395 118.891,114.062 123.709,113.872 124.029 C 113.762 124.215,113.614 124.519,113.543 124.705 C 113.116 125.820,112.486 126.956,112.296 126.956 C 112.173 126.956,112.231 126.730,112.424 126.455 C 112.617 126.180,112.775 125.699,112.776 125.386 C 112.776 125.073,112.925 124.534,113.105 124.189 C 113.285 123.843,113.499 123.209,113.579 122.779 C 113.660 122.350,113.804 121.950,113.901 121.890 C 113.997 121.831,114.206 121.123,114.366 120.317 C 114.527 119.511,114.729 118.852,114.816 118.852 C 114.904 118.852,115.046 118.472,115.133 118.008 C 115.220 117.544,115.372 117.062,115.471 116.939 C 115.570 116.815,115.779 116.131,115.936 115.419 C 116.094 114.707,116.308 114.125,116.412 114.125 C 116.516 114.125,116.601 113.844,116.601 113.500 C 116.601 113.156,116.735 112.675,116.899 112.431 C 117.063 112.186,117.328 111.379,117.487 110.636 C 117.646 109.893,117.855 109.184,117.951 109.060 C 118.046 108.936,118.225 108.354,118.349 107.766 L 118.572 106.697 116.949 106.697 C 116.056 106.697,115.280 106.742,115.224 106.798 M82.265 109.876 C 82.575 110.170,82.894 110.765,82.974 111.199 C 83.055 111.632,83.218 112.111,83.339 112.262 C 83.459 112.414,83.547 113.528,83.535 114.738 C 83.514 116.899,83.478 117.275,83.231 117.952 C 83.163 118.137,82.987 119.023,82.839 119.920 C 82.691 120.818,82.490 121.602,82.391 121.663 C 82.293 121.723,82.141 122.154,82.053 122.620 C 81.966 123.086,81.767 123.720,81.612 124.029 C 81.456 124.339,81.150 124.997,80.932 125.492 C 80.714 125.988,80.426 126.595,80.292 126.843 C 80.157 127.091,79.687 128.008,79.247 128.883 C 78.807 129.757,78.168 130.803,77.828 131.207 C 77.487 131.611,77.208 132.061,77.208 132.206 C 77.207 132.352,76.650 133.094,75.970 133.857 C 75.289 134.620,74.733 135.354,74.733 135.489 C 74.733 135.624,74.625 135.734,74.494 135.734 C 74.363 135.734,73.859 136.053,73.374 136.443 C 72.038 137.517,70.992 137.539,70.000 136.516 L 69.218 135.710 69.185 133.077 C 69.152 130.475,69.433 127.730,69.777 127.293 C 69.875 127.169,70.028 126.612,70.118 126.055 C 70.208 125.498,70.356 124.941,70.446 124.817 C 70.537 124.693,70.738 124.086,70.893 123.467 C 71.199 122.247,71.817 120.811,72.088 120.690 C 72.181 120.649,72.257 120.443,72.257 120.231 C 72.257 120.020,72.459 119.450,72.707 118.965 C 72.954 118.479,73.157 117.963,73.157 117.819 C 73.157 117.675,73.309 117.430,73.495 117.276 C 73.680 117.122,73.832 116.820,73.832 116.604 C 73.832 116.388,74.035 115.954,74.282 115.639 C 74.530 115.324,74.733 114.940,74.733 114.786 C 74.733 114.631,74.986 114.173,75.295 113.767 C 75.605 113.361,75.858 112.932,75.858 112.813 C 75.858 112.695,76.010 112.539,76.196 112.468 C 76.382 112.397,76.533 112.205,76.533 112.041 C 76.533 111.645,78.524 109.707,79.235 109.411 C 80.129 109.039,81.625 109.269,82.265 109.876 " stroke="none" fill="#040404" fill-rule="evenodd"></path><path id="path2" d="" stroke="none" fill="#bc10080" fill-rule="evenodd"></path><path id="path3" d="" stroke="none" fill="#bc10080" fill-rule="evenodd"></path><path id="path4" d="" stroke="none" fill="#bc10080" fill-rule="evenodd"></path></g></svg>