<svg id="svg" version="1.1" xmlns="http://www.w3.org/2000/svg" xmlns:xlink="http://www.w3.org/1999/xlink" width="400" height="400" viewBox="0, 0, 400,400"><g id="svgg"><path id="path0" d="M127.200 36.200 C 127.200 37.000,127.000 37.200,126.200 37.200 C 125.400 37.200,125.200 37.400,125.200 38.200 C 125.200 39.000,125.000 39.200,124.200 39.200 C 123.400 39.200,123.200 39.400,123.200 40.200 C 123.200 41.000,123.000 41.200,122.200 41.200 C 121.400 41.200,121.200 41.400,121.200 42.200 C 121.200 43.000,121.000 43.200,120.200 43.200 C 119.400 43.200,119.200 43.400,119.200 44.200 C 119.200 45.000,119.000 45.200,118.200 45.200 C 117.400 45.200,117.200 45.400,117.200 46.200 C 117.200 47.000,117.000 47.200,116.200 47.200 C 115.400 47.200,115.200 47.400,115.200 48.200 C 115.200 49.000,115.000 49.200,114.200 49.200 C 113.400 49.200,113.200 49.400,113.200 50.200 C 113.200 51.000,113.000 51.200,112.200 51.200 C 111.400 51.200,111.200 51.400,111.200 52.200 C 111.200 53.000,111.000 53.200,110.200 53.200 C 109.400 53.200,109.200 53.400,109.200 54.200 C 109.200 55.000,109.000 55.200,108.200 55.200 C 107.400 55.200,107.200 55.400,107.200 56.200 C 107.200 57.000,107.000 57.200,106.200 57.200 C 105.400 57.200,105.200 57.400,105.200 58.200 C 105.200 59.000,105.000 59.200,104.200 59.200 C 103.400 59.200,103.200 59.400,103.200 60.200 C 103.200 61.000,103.000 61.200,102.200 61.200 C 101.400 61.200,101.200 61.400,101.200 62.200 C 101.200 63.000,101.000 63.200,100.200 63.200 C 99.400 63.200,99.200 63.400,99.200 64.200 C 99.200 65.000,99.000 65.200,98.200 65.200 C 97.408 65.200,97.200 65.402,97.200 66.172 C 97.200 66.876,96.951 67.180,96.300 67.272 C 95.436 67.395,95.395 67.579,95.287 71.857 L 95.175 76.313 96.418 77.557 C 97.102 78.240,98.008 78.800,98.431 78.800 C 98.985 78.800,99.200 79.080,99.200 79.800 C 99.200 80.796,99.213 80.800,103.000 80.800 C 106.787 80.800,106.800 80.796,106.800 79.800 C 106.800 78.958,106.988 78.800,107.986 78.800 C 108.995 78.800,110.368 77.602,117.186 70.774 L 125.200 62.749 125.200 96.617 L 125.200 130.485 126.200 131.271 C 126.750 131.704,127.200 132.459,127.200 132.949 C 127.200 134.605,127.861 134.800,133.480 134.800 L 138.800 134.800 138.800 133.800 C 138.800 133.000,139.000 132.800,139.800 132.800 L 140.800 132.800 140.860 96.700 C 140.893 76.845,140.995 61.095,141.087 61.700 C 141.216 62.553,141.472 62.800,142.227 62.800 C 142.998 62.800,143.200 63.007,143.200 63.800 C 143.200 64.600,143.400 64.800,144.200 64.800 C 145.000 64.800,145.200 65.000,145.200 65.800 C 145.200 66.600,145.400 66.800,146.200 66.800 C 147.000 66.800,147.200 67.000,147.200 67.800 C 147.200 68.600,147.400 68.800,148.200 68.800 C 149.000 68.800,149.200 69.000,149.200 69.800 C 149.200 70.600,149.400 70.800,150.200 70.800 C 151.000 70.800,151.200 71.000,151.200 71.800 C 151.200 72.600,151.400 72.800,152.200 72.800 C 153.000 72.800,153.200 73.000,153.200 73.800 C 153.200 74.600,153.400 74.800,154.200 74.800 C 155.000 74.800,155.200 75.000,155.200 75.800 C 155.200 76.600,155.400 76.800,156.200 76.800 C 157.000 76.800,157.200 77.000,157.200 77.800 C 157.200 78.600,157.400 78.800,158.200 78.800 C 159.003 78.800,159.200 78.999,159.200 79.813 L 159.200 80.826 163.700 80.713 C 167.930 80.607,168.224 80.546,168.595 79.700 C 168.837 79.148,169.340 78.800,169.895 78.800 C 170.793 78.800,170.800 78.758,170.800 73.000 L 170.800 67.200 169.800 67.200 C 169.000 67.200,168.800 67.000,168.800 66.200 C 168.800 65.400,168.600 65.200,167.800 65.200 C 167.000 65.200,166.800 65.000,166.800 64.200 C 166.800 63.400,166.600 63.200,165.800 63.200 C 165.000 63.200,164.800 63.000,164.800 62.200 C 164.800 61.400,164.600 61.200,163.800 61.200 C 163.000 61.200,162.800 61.000,162.800 60.200 C 162.800 59.400,162.600 59.200,161.800 59.200 C 161.000 59.200,160.800 59.000,160.800 58.200 C 160.800 57.400,160.600 57.200,159.800 57.200 C 159.000 57.200,158.800 57.000,158.800 56.200 C 158.800 55.400,158.600 55.200,157.800 55.200 C 157.000 55.200,156.800 55.000,156.800 54.200 C 156.800 53.400,156.600 53.200,155.800 53.200 C 155.000 53.200,154.800 53.000,154.800 52.200 C 154.800 51.400,154.600 51.200,153.800 51.200 C 153.000 51.200,152.800 51.000,152.800 50.200 C 152.800 49.400,152.600 49.200,151.800 49.200 C 151.000 49.200,150.800 49.000,150.800 48.200 C 150.800 47.400,150.600 47.200,149.800 47.200 C 149.000 47.200,148.800 47.000,148.800 46.200 C 148.800 45.400,148.600 45.200,147.800 45.200 C 147.000 45.200,146.800 45.000,146.800 44.200 C 146.800 43.400,146.600 43.200,145.800 43.200 C 145.000 43.200,144.800 43.000,144.800 42.200 C 144.800 41.400,144.600 41.200,143.800 41.200 C 143.000 41.200,142.800 41.000,142.800 40.200 C 142.800 39.400,142.600 39.200,141.800 39.200 C 141.000 39.200,140.800 39.000,140.800 38.200 C 140.800 37.400,140.600 37.200,139.800 37.200 C 139.000 37.200,138.800 37.000,138.800 36.200 L 138.800 35.200 133.000 35.200 L 127.200 35.200 127.200 36.200 M255.200 120.200 L 255.200 121.200 250.200 121.200 L 245.200 121.200 245.200 122.200 C 245.200 123.178,245.133 123.200,242.200 123.200 C 239.267 123.200,239.200 123.222,239.200 124.200 C 239.200 125.133,239.067 125.200,237.200 125.200 C 235.333 125.200,235.200 125.267,235.200 126.200 C 235.200 127.133,235.067 127.200,233.200 127.200 C 231.333 127.200,231.200 127.267,231.200 128.200 C 231.200 128.950,230.989 129.200,230.358 129.200 C 229.894 129.200,229.170 129.639,228.748 130.175 C 228.280 130.770,227.477 131.199,226.690 131.275 C 225.704 131.371,225.370 131.612,225.272 132.300 C 225.180 132.951,224.876 133.200,224.172 133.200 C 223.402 133.200,223.200 133.408,223.200 134.200 C 223.200 135.000,223.000 135.200,222.200 135.200 C 221.400 135.200,221.200 135.400,221.200 136.200 C 221.200 137.000,221.000 137.200,220.200 137.200 C 219.400 137.200,219.200 137.400,219.200 138.200 C 219.200 139.000,219.000 139.200,218.200 139.200 C 217.400 139.200,217.200 139.400,217.200 140.200 C 217.200 141.000,217.000 141.200,216.200 141.200 C 215.408 141.200,215.200 141.402,215.200 142.172 C 215.200 142.876,214.951 143.180,214.300 143.272 C 213.532 143.381,213.382 143.679,213.278 145.300 C 213.168 147.015,213.061 147.200,212.178 147.200 C 211.401 147.200,211.200 147.406,211.200 148.200 C 211.200 149.000,211.000 149.200,210.200 149.200 C 209.267 149.200,209.200 149.333,209.200 151.200 C 209.200 153.067,209.133 153.200,208.200 153.200 C 207.400 153.200,207.200 153.400,207.200 154.200 C 207.200 154.750,207.033 155.200,206.829 155.200 C 206.055 155.200,205.200 156.504,205.200 157.683 C 205.200 158.476,204.847 159.235,204.200 159.835 C 203.456 160.524,203.200 161.170,203.200 162.352 C 203.200 163.572,202.967 164.125,202.200 164.729 C 201.392 165.364,201.200 165.869,201.200 167.358 C 201.200 169.056,201.122 169.200,200.200 169.200 C 199.222 169.200,199.200 169.267,199.200 172.200 C 199.200 175.133,199.178 175.200,198.200 175.200 C 197.222 175.200,197.200 175.267,197.200 178.200 C 197.200 181.133,197.178 181.200,196.200 181.200 C 195.212 181.200,195.200 181.242,195.200 184.571 C 195.200 187.690,195.125 188.001,194.200 188.729 C 193.258 189.469,193.200 189.737,193.200 193.330 C 193.200 196.981,193.161 197.150,192.300 197.272 C 191.439 197.394,191.395 197.586,191.287 201.681 C 191.181 205.690,191.111 206.012,190.187 206.739 C 189.305 207.433,189.200 207.814,189.200 210.330 C 189.200 212.944,189.136 213.153,188.300 213.272 C 187.477 213.389,187.390 213.642,187.284 216.212 C 187.183 218.671,187.058 219.073,186.284 219.412 C 185.517 219.749,185.384 220.158,185.282 222.500 C 185.169 225.068,185.115 225.200,184.182 225.200 C 183.272 225.200,183.200 225.345,183.200 227.172 C 183.200 228.913,183.094 229.159,182.300 229.272 C 181.534 229.381,181.382 229.679,181.279 231.275 C 181.177 232.856,181.021 233.169,180.279 233.275 C 179.536 233.381,179.381 233.693,179.278 235.300 C 179.168 237.015,179.061 237.200,178.178 237.200 C 177.271 237.200,177.200 237.345,177.200 239.200 C 177.200 241.067,177.133 241.200,176.200 241.200 C 175.400 241.200,175.200 241.400,175.200 242.200 C 175.200 243.000,175.000 243.200,174.200 243.200 C 173.400 243.200,173.200 243.400,173.200 244.200 C 173.200 244.750,173.033 245.200,172.829 245.200 C 172.022 245.200,171.200 246.527,171.200 247.829 C 171.200 249.025,171.072 249.200,170.200 249.200 C 169.400 249.200,169.200 249.400,169.200 250.200 C 169.200 251.000,169.000 251.200,168.200 251.200 C 167.406 251.200,167.200 251.402,167.200 252.177 C 167.200 253.040,167.002 253.168,165.500 253.277 C 164.187 253.372,163.710 253.605,163.405 254.300 C 163.163 254.852,162.660 255.200,162.105 255.200 C 161.406 255.200,161.200 255.428,161.200 256.200 C 161.200 257.005,161.001 257.200,160.182 257.200 C 159.622 257.200,158.714 257.650,158.164 258.200 C 157.614 258.750,156.793 259.200,156.339 259.200 C 155.886 259.200,155.161 259.650,154.729 260.200 C 154.048 261.066,153.624 261.200,151.571 261.200 C 149.309 261.200,149.200 261.246,149.200 262.200 C 149.200 263.197,149.189 263.200,145.358 263.200 C 141.735 263.200,141.470 263.257,140.729 264.200 C 139.495 265.769,126.505 265.769,125.271 264.200 C 124.530 263.257,124.265 263.200,120.642 263.200 C 116.811 263.200,116.800 263.197,116.800 262.200 C 116.800 261.246,116.691 261.200,114.429 261.200 C 112.376 261.200,111.952 261.066,111.271 260.200 C 110.741 259.526,110.089 259.200,109.271 259.200 C 108.454 259.200,107.802 258.874,107.271 258.200 C 106.839 257.650,106.106 257.200,105.642 257.200 C 105.011 257.200,104.800 256.950,104.800 256.200 C 104.800 255.267,104.667 255.200,102.800 255.200 C 100.933 255.200,100.800 255.133,100.800 254.200 C 100.800 253.400,100.600 253.200,99.800 253.200 C 99.000 253.200,98.800 253.000,98.800 252.200 C 98.800 251.400,98.600 251.200,97.800 251.200 C 97.000 251.200,96.800 251.000,96.800 250.200 C 96.800 249.400,96.600 249.200,95.800 249.200 C 95.000 249.200,94.800 249.000,94.800 248.200 C 94.800 247.400,94.600 247.200,93.800 247.200 C 93.000 247.200,92.800 247.000,92.800 246.200 C 92.800 245.400,92.600 245.200,91.800 245.200 C 91.000 245.200,90.800 245.000,90.800 244.200 C 90.800 243.400,90.600 243.200,89.800 243.200 C 88.952 243.200,88.800 243.015,88.800 241.981 C 88.800 241.194,88.445 240.433,87.800 239.835 C 87.250 239.325,86.800 238.524,86.800 238.054 C 86.800 237.410,86.554 237.200,85.800 237.200 C 84.995 237.200,84.800 237.001,84.800 236.182 C 84.800 235.622,84.350 234.714,83.800 234.164 C 83.250 233.614,82.800 232.722,82.800 232.182 C 82.800 231.401,82.595 231.200,81.800 231.200 C 80.867 231.200,80.800 231.067,80.800 229.200 C 80.800 227.345,80.729 227.200,79.822 227.200 C 78.939 227.200,78.832 227.015,78.722 225.300 C 78.618 223.679,78.468 223.381,77.700 223.272 C 77.049 223.180,76.800 222.876,76.800 222.172 C 76.800 221.402,76.592 221.200,75.800 221.200 C 74.928 221.200,74.800 221.025,74.800 219.829 C 74.800 218.527,73.978 217.200,73.171 217.200 C 72.967 217.200,72.800 216.750,72.800 216.200 C 72.800 215.400,72.600 215.200,71.800 215.200 C 71.000 215.200,70.800 215.000,70.800 214.200 C 70.800 213.400,70.600 213.200,69.800 213.200 C 69.000 213.200,68.800 213.000,68.800 212.200 C 68.800 211.400,68.600 211.200,67.800 211.200 C 67.000 211.200,66.800 211.000,66.800 210.200 C 66.800 209.400,66.600 209.200,65.800 209.200 C 65.000 209.200,64.800 209.000,64.800 208.200 C 64.800 207.400,64.600 207.200,63.800 207.200 C 63.250 207.200,62.800 207.033,62.800 206.829 C 62.800 206.022,61.473 205.200,60.171 205.200 C 58.975 205.200,58.800 205.072,58.800 204.200 C 58.800 203.408,58.598 203.200,57.828 203.200 C 57.124 203.200,56.820 202.951,56.728 202.300 C 56.619 201.532,56.321 201.382,54.700 201.278 C 52.985 201.168,52.800 201.061,52.800 200.178 C 52.800 199.271,52.655 199.200,50.800 199.200 C 48.933 199.200,48.800 199.133,48.800 198.200 C 48.800 197.268,48.665 197.200,46.818 197.200 C 45.238 197.200,44.634 196.998,43.836 196.200 C 42.946 195.310,42.504 195.200,39.818 195.200 C 36.865 195.200,36.800 195.178,36.800 194.200 L 36.800 193.200 29.818 193.200 C 22.904 193.200,22.827 193.190,21.836 192.200 L 20.836 191.200 12.799 191.200 L 4.762 191.200 3.835 192.200 C 3.174 192.913,2.491 193.200,1.454 193.200 L 0.000 193.200 0.000 200.000 L 0.000 206.800 1.842 206.800 C 3.224 206.800,3.982 207.050,4.873 207.800 L 6.061 208.800 19.631 208.800 L 33.200 208.800 33.200 209.800 C 33.200 210.754,33.309 210.800,35.571 210.800 C 37.624 210.800,38.048 210.934,38.729 211.800 C 39.364 212.608,39.869 212.800,41.358 212.800 C 43.056 212.800,43.200 212.878,43.200 213.800 C 43.200 214.672,43.375 214.800,44.571 214.800 C 45.557 214.800,46.163 215.081,46.729 215.800 C 47.161 216.350,47.894 216.800,48.358 216.800 C 48.989 216.800,49.200 217.050,49.200 217.800 C 49.200 218.572,49.406 218.800,50.105 218.800 C 50.660 218.800,51.163 219.148,51.405 219.700 C 51.629 220.210,52.234 220.660,52.800 220.738 C 54.120 220.919,59.081 225.880,59.262 227.200 C 59.340 227.766,59.790 228.371,60.300 228.595 C 60.852 228.837,61.200 229.340,61.200 229.895 C 61.200 230.594,61.428 230.800,62.200 230.800 C 62.950 230.800,63.200 231.011,63.200 231.642 C 63.200 232.106,63.650 232.839,64.200 233.271 C 64.919 233.837,65.200 234.443,65.200 235.429 C 65.200 236.625,65.328 236.800,66.200 236.800 C 67.133 236.800,67.200 236.933,67.200 238.800 C 67.200 240.655,67.271 240.800,68.178 240.800 C 69.061 240.800,69.168 240.985,69.278 242.700 C 69.382 244.321,69.532 244.619,70.300 244.728 C 70.951 244.820,71.200 245.124,71.200 245.828 C 71.200 246.592,71.409 246.800,72.177 246.800 C 73.040 246.800,73.168 246.998,73.277 248.500 C 73.372 249.813,73.605 250.290,74.300 250.595 C 74.852 250.837,75.200 251.340,75.200 251.895 C 75.200 252.594,75.428 252.800,76.200 252.800 C 77.000 252.800,77.200 253.000,77.200 253.800 C 77.200 254.600,77.400 254.800,78.200 254.800 C 79.000 254.800,79.200 255.000,79.200 255.800 C 79.200 256.600,79.400 256.800,80.200 256.800 C 80.914 256.800,81.200 257.016,81.200 257.557 C 81.200 258.540,85.460 262.800,86.443 262.800 C 86.984 262.800,87.200 263.086,87.200 263.800 C 87.200 264.600,87.400 264.800,88.200 264.800 C 89.000 264.800,89.200 265.000,89.200 265.800 C 89.200 266.600,89.400 266.800,90.200 266.800 C 91.000 266.800,91.200 267.000,91.200 267.800 C 91.200 268.672,91.375 268.800,92.571 268.800 C 93.557 268.800,94.163 269.081,94.729 269.800 C 95.161 270.350,95.894 270.800,96.358 270.800 C 96.989 270.800,97.200 271.050,97.200 271.800 C 97.200 272.733,97.333 272.800,99.200 272.800 C 101.067 272.800,101.200 272.867,101.200 273.800 C 101.200 274.733,101.333 274.800,103.200 274.800 C 104.300 274.800,105.200 274.967,105.200 275.171 C 105.200 276.177,106.552 276.800,108.734 276.800 C 110.711 276.800,111.062 276.918,111.405 277.700 C 111.778 278.549,112.063 278.606,116.474 278.712 C 120.957 278.820,121.153 278.861,121.274 279.712 L 121.400 280.600 133.000 280.600 L 144.600 280.600 144.728 279.700 C 144.853 278.822,144.976 278.800,149.828 278.800 L 154.800 278.800 154.800 277.818 C 154.800 276.875,154.919 276.830,157.700 276.718 C 160.361 276.610,160.611 276.526,160.728 275.700 C 160.841 274.906,161.087 274.800,162.828 274.800 C 164.653 274.800,164.800 274.727,164.800 273.822 C 164.800 272.939,164.985 272.832,166.700 272.722 C 168.321 272.618,168.619 272.468,168.728 271.700 C 168.820 271.049,169.124 270.800,169.828 270.800 C 170.592 270.800,170.800 270.591,170.800 269.822 C 170.800 268.939,170.985 268.832,172.700 268.722 C 174.321 268.618,174.619 268.468,174.728 267.700 C 174.820 267.049,175.124 266.800,175.828 266.800 C 176.598 266.800,176.800 266.592,176.800 265.800 C 176.800 265.000,177.000 264.800,177.800 264.800 C 178.600 264.800,178.800 264.600,178.800 263.800 C 178.800 263.000,179.000 262.800,179.800 262.800 C 180.600 262.800,180.800 262.600,180.800 261.800 C 180.800 261.000,181.000 260.800,181.800 260.800 C 182.600 260.800,182.800 260.600,182.800 259.800 C 182.800 259.000,183.000 258.800,183.800 258.800 C 184.592 258.800,184.800 258.598,184.800 257.828 C 184.800 257.124,185.049 256.820,185.700 256.728 C 186.468 256.619,186.618 256.321,186.722 254.700 C 186.832 252.985,186.939 252.800,187.822 252.800 C 188.599 252.800,188.800 252.594,188.800 251.800 C 188.800 251.000,189.000 250.800,189.800 250.800 C 190.733 250.800,190.800 250.667,190.800 248.800 C 190.800 246.933,190.867 246.800,191.800 246.800 C 192.595 246.800,192.800 246.599,192.800 245.818 C 192.800 245.278,193.250 244.386,193.800 243.836 C 194.350 243.286,194.800 242.386,194.800 241.836 C 194.800 241.286,195.250 240.386,195.800 239.836 C 196.483 239.154,196.800 238.396,196.800 237.447 C 196.800 236.442,197.076 235.841,197.800 235.271 C 198.608 234.636,198.800 234.131,198.800 232.642 C 198.800 230.944,198.878 230.800,199.800 230.800 C 200.778 230.800,200.800 230.733,200.800 227.800 C 200.800 224.867,200.822 224.800,201.800 224.800 C 202.778 224.800,202.800 224.733,202.800 221.800 C 202.800 218.867,202.822 218.800,203.800 218.800 L 204.800 218.800 204.800 214.800 L 204.800 210.800 205.800 210.800 C 206.798 210.800,206.800 210.794,206.800 206.895 C 206.800 203.229,206.855 202.966,207.700 202.595 C 208.550 202.222,208.606 201.938,208.713 197.500 L 208.825 192.800 209.813 192.800 C 210.775 192.800,210.800 192.723,210.800 189.800 C 210.800 188.150,210.967 186.800,211.171 186.800 C 212.190 186.800,212.800 185.449,212.800 183.190 C 212.800 181.213,212.960 180.676,213.800 179.836 C 214.602 179.034,214.800 178.438,214.800 176.818 C 214.800 174.932,214.865 174.800,215.800 174.800 C 216.727 174.800,216.800 174.660,216.800 172.895 C 216.800 171.303,216.948 170.925,217.700 170.595 C 218.395 170.290,218.628 169.813,218.723 168.500 C 218.791 167.565,219.003 166.800,219.194 166.800 C 219.980 166.800,220.800 165.457,220.800 164.171 C 220.800 162.975,220.928 162.800,221.800 162.800 C 222.733 162.800,222.800 162.667,222.800 160.800 C 222.800 158.933,222.867 158.800,223.800 158.800 C 224.600 158.800,224.800 158.600,224.800 157.800 C 224.800 157.000,225.000 156.800,225.800 156.800 C 226.554 156.800,226.800 156.590,226.800 155.946 C 226.800 155.476,227.250 154.675,227.800 154.165 C 228.445 153.567,228.800 152.806,228.800 152.019 C 228.800 150.985,228.952 150.800,229.800 150.800 C 230.600 150.800,230.800 150.600,230.800 149.800 C 230.800 149.000,231.000 148.800,231.800 148.800 C 232.600 148.800,232.800 148.600,232.800 147.800 C 232.800 146.952,232.985 146.800,234.019 146.800 C 234.806 146.800,235.567 146.445,236.165 145.800 C 236.675 145.250,237.476 144.800,237.946 144.800 C 238.590 144.800,238.800 144.554,238.800 143.800 C 238.800 143.050,239.011 142.800,239.642 142.800 C 240.106 142.800,240.839 142.350,241.271 141.800 C 241.837 141.081,242.443 140.800,243.429 140.800 C 244.625 140.800,244.800 140.672,244.800 139.800 C 244.800 138.822,244.867 138.800,247.800 138.800 C 250.733 138.800,250.800 138.778,250.800 137.800 L 250.800 136.800 254.800 136.800 L 258.800 136.800 258.800 135.800 L 258.800 134.800 267.000 134.800 L 275.200 134.800 275.200 135.800 L 275.200 136.800 279.200 136.800 L 283.200 136.800 283.200 137.800 C 283.200 138.754,283.309 138.800,285.571 138.800 C 287.624 138.800,288.048 138.934,288.729 139.800 C 289.259 140.474,289.911 140.800,290.729 140.800 C 291.546 140.800,292.198 141.126,292.729 141.800 C 293.161 142.350,293.894 142.800,294.358 142.800 C 294.989 142.800,295.200 143.050,295.200 143.800 C 295.200 144.733,295.333 144.800,297.200 144.800 C 299.067 144.800,299.200 144.867,299.200 145.800 C 299.200 146.600,299.400 146.800,300.200 146.800 C 301.000 146.800,301.200 147.000,301.200 147.800 C 301.200 148.600,301.400 148.800,302.200 148.800 C 303.000 148.800,303.200 149.000,303.200 149.800 C 303.200 150.600,303.400 150.800,304.200 150.800 C 305.000 150.800,305.200 151.000,305.200 151.800 C 305.200 152.600,305.400 152.800,306.200 152.800 C 307.000 152.800,307.200 153.000,307.200 153.800 C 307.200 154.600,307.400 154.800,308.200 154.800 C 309.000 154.800,309.200 155.000,309.200 155.800 C 309.200 156.600,309.400 156.800,310.200 156.800 C 311.048 156.800,311.200 156.985,311.200 158.019 C 311.200 158.806,311.555 159.567,312.200 160.165 C 312.750 160.675,313.200 161.476,313.200 161.946 C 313.200 162.590,313.446 162.800,314.200 162.800 C 315.048 162.800,315.200 162.985,315.200 164.019 C 315.200 164.806,315.555 165.567,316.200 166.165 C 316.750 166.675,317.200 167.476,317.200 167.946 C 317.200 168.590,317.446 168.800,318.200 168.800 C 319.133 168.800,319.200 168.933,319.200 170.800 C 319.200 172.655,319.271 172.800,320.178 172.800 C 321.061 172.800,321.168 172.985,321.278 174.700 C 321.382 176.321,321.532 176.619,322.300 176.728 C 322.951 176.820,323.200 177.124,323.200 177.828 C 323.200 178.592,323.409 178.800,324.177 178.800 C 325.040 178.800,325.168 178.998,325.277 180.500 C 325.372 181.813,325.605 182.290,326.300 182.595 C 326.852 182.837,327.200 183.340,327.200 183.895 C 327.200 184.594,327.428 184.800,328.200 184.800 C 329.000 184.800,329.200 185.000,329.200 185.800 C 329.200 186.600,329.400 186.800,330.200 186.800 C 331.000 186.800,331.200 187.000,331.200 187.800 C 331.200 188.600,331.400 188.800,332.200 188.800 C 333.000 188.800,333.200 189.000,333.200 189.800 C 333.200 190.600,333.400 190.800,334.200 190.800 C 335.000 190.800,335.200 191.000,335.200 191.800 C 335.200 192.600,335.400 192.800,336.200 192.800 C 336.750 192.800,337.200 192.967,337.200 193.171 C 337.200 193.978,338.527 194.800,339.829 194.800 C 341.025 194.800,341.200 194.928,341.200 195.800 C 341.200 196.592,341.402 196.800,342.172 196.800 C 342.876 196.800,343.180 197.049,343.272 197.700 C 343.381 198.468,343.679 198.618,345.300 198.722 C 347.015 198.832,347.200 198.939,347.200 199.822 C 347.200 200.729,347.345 200.800,349.200 200.800 C 351.067 200.800,351.200 200.867,351.200 201.800 C 351.200 202.754,351.309 202.800,353.571 202.800 C 355.624 202.800,356.048 202.934,356.729 203.800 C 357.436 204.699,357.802 204.800,360.358 204.800 C 363.123 204.800,363.200 204.827,363.200 205.800 L 363.200 206.800 370.442 206.800 C 377.584 206.800,377.701 206.814,378.873 207.800 C 380.041 208.783,380.182 208.800,387.000 208.800 C 393.818 208.800,393.959 208.783,395.127 207.800 C 396.018 207.050,396.776 206.800,398.158 206.800 L 400.000 206.800 400.000 200.000 L 400.000 193.200 398.546 193.200 C 397.509 193.200,396.826 192.913,396.165 192.200 L 395.238 191.200 381.648 191.200 L 368.058 191.200 367.271 190.200 C 366.602 189.349,366.156 189.200,364.271 189.200 C 362.387 189.200,361.941 189.051,361.271 188.200 C 360.636 187.392,360.131 187.200,358.642 187.200 C 356.944 187.200,356.800 187.122,356.800 186.200 C 356.800 185.328,356.625 185.200,355.429 185.200 C 354.443 185.200,353.837 184.919,353.271 184.200 C 352.839 183.650,352.106 183.200,351.642 183.200 C 351.011 183.200,350.800 182.950,350.800 182.200 C 350.800 181.428,350.594 181.200,349.895 181.200 C 349.340 181.200,348.837 180.852,348.595 180.300 C 348.371 179.790,347.766 179.340,347.200 179.262 C 345.880 179.081,340.919 174.120,340.738 172.800 C 340.660 172.234,340.210 171.629,339.700 171.405 C 339.148 171.163,338.800 170.660,338.800 170.105 C 338.800 169.406,338.572 169.200,337.800 169.200 C 337.050 169.200,336.800 168.989,336.800 168.358 C 336.800 167.894,336.350 167.161,335.800 166.729 C 335.081 166.163,334.800 165.557,334.800 164.571 C 334.800 163.375,334.672 163.200,333.800 163.200 C 332.867 163.200,332.800 163.067,332.800 161.200 C 332.800 159.346,332.729 159.200,331.823 159.200 C 330.960 159.200,330.832 159.002,330.723 157.500 C 330.628 156.187,330.395 155.710,329.700 155.405 C 329.148 155.163,328.800 154.660,328.800 154.105 C 328.800 153.412,328.571 153.200,327.823 153.200 C 326.960 153.200,326.832 153.002,326.723 151.500 C 326.628 150.187,326.395 149.710,325.700 149.405 C 325.148 149.163,324.800 148.660,324.800 148.105 C 324.800 147.406,324.572 147.200,323.800 147.200 C 323.000 147.200,322.800 147.000,322.800 146.200 C 322.800 145.400,322.600 145.200,321.800 145.200 C 321.000 145.200,320.800 145.000,320.800 144.200 C 320.800 143.400,320.600 143.200,319.800 143.200 C 319.086 143.200,318.800 142.984,318.800 142.443 C 318.800 141.460,314.540 137.200,313.557 137.200 C 313.016 137.200,312.800 136.914,312.800 136.200 C 312.800 135.400,312.600 135.200,311.800 135.200 C 311.000 135.200,310.800 135.000,310.800 134.200 C 310.800 133.400,310.600 133.200,309.800 133.200 C 309.000 133.200,308.800 133.000,308.800 132.200 C 308.800 131.328,308.625 131.200,307.429 131.200 C 306.443 131.200,305.837 130.919,305.271 130.200 C 304.839 129.650,304.106 129.200,303.642 129.200 C 303.016 129.200,302.800 128.950,302.800 128.222 C 302.800 127.339,302.615 127.232,300.900 127.122 C 299.279 127.018,298.981 126.868,298.872 126.100 C 298.760 125.313,298.509 125.200,296.867 125.200 C 295.304 125.200,294.924 125.049,294.595 124.300 C 294.251 123.516,293.857 123.385,291.526 123.282 C 289.115 123.176,288.839 123.077,288.726 122.282 C 288.605 121.435,288.408 121.396,283.700 121.288 L 278.800 121.175 278.800 120.188 L 278.800 119.200 267.000 119.200 L 255.200 119.200 255.200 120.200 M261.200 266.200 C 261.200 267.000,261.000 267.200,260.200 267.200 L 259.200 267.200 259.200 302.200 L 259.200 337.200 258.200 337.200 C 257.400 337.200,257.200 337.000,257.200 336.200 C 257.200 335.400,257.000 335.200,256.200 335.200 C 255.400 335.200,255.200 335.000,255.200 334.200 C 255.200 333.356,255.013 333.200,254.000 333.200 C 252.987 333.200,252.800 333.044,252.800 332.200 C 252.800 331.400,252.600 331.200,251.800 331.200 C 251.000 331.200,250.800 331.000,250.800 330.200 C 250.800 329.400,250.600 329.200,249.800 329.200 C 249.000 329.200,248.800 329.000,248.800 328.200 C 248.800 327.400,248.600 327.200,247.800 327.200 C 247.000 327.200,246.800 327.000,246.800 326.200 C 246.800 325.400,246.600 325.200,245.800 325.200 C 245.000 325.200,244.800 325.000,244.800 324.200 C 244.800 323.400,244.600 323.200,243.800 323.200 C 243.000 323.200,242.800 323.000,242.800 322.200 C 242.800 321.400,242.600 321.200,241.800 321.200 C 240.997 321.200,240.800 321.001,240.800 320.187 L 240.800 319.175 236.100 319.287 C 231.570 319.396,231.395 319.433,231.272 320.300 C 231.180 320.951,230.876 321.200,230.172 321.200 L 229.200 321.200 229.200 327.000 L 229.200 332.800 230.200 332.800 C 231.000 332.800,231.200 333.000,231.200 333.800 C 231.200 334.600,231.400 334.800,232.200 334.800 C 233.000 334.800,233.200 335.000,233.200 335.800 C 233.200 336.600,233.400 336.800,234.200 336.800 C 235.000 336.800,235.200 337.000,235.200 337.800 C 235.200 338.600,235.400 338.800,236.200 338.800 C 237.000 338.800,237.200 339.000,237.200 339.800 C 237.200 340.600,237.400 340.800,238.200 340.800 C 239.000 340.800,239.200 341.000,239.200 341.800 C 239.200 342.600,239.400 342.800,240.200 342.800 C 241.000 342.800,241.200 343.000,241.200 343.800 C 241.200 344.600,241.400 344.800,242.200 344.800 C 243.000 344.800,243.200 345.000,243.200 345.800 C 243.200 346.600,243.400 346.800,244.200 346.800 C 245.000 346.800,245.200 347.000,245.200 347.800 C 245.200 348.600,245.400 348.800,246.200 348.800 C 247.000 348.800,247.200 349.000,247.200 349.800 C 247.200 350.600,247.400 350.800,248.200 350.800 C 249.000 350.800,249.200 351.000,249.200 351.800 C 249.200 352.600,249.400 352.800,250.200 352.800 C 251.000 352.800,251.200 353.000,251.200 353.800 C 251.200 354.600,251.400 354.800,252.200 354.800 C 253.000 354.800,253.200 355.000,253.200 355.800 C 253.200 356.600,253.400 356.800,254.200 356.800 C 255.000 356.800,255.200 357.000,255.200 357.800 C 255.200 358.600,255.400 358.800,256.200 358.800 C 257.000 358.800,257.200 359.000,257.200 359.800 C 257.200 360.600,257.400 360.800,258.200 360.800 C 259.000 360.800,259.200 361.000,259.200 361.800 C 259.200 362.600,259.400 362.800,260.200 362.800 C 261.000 362.800,261.200 363.000,261.200 363.800 L 261.200 364.800 266.972 364.800 C 272.654 364.800,272.746 364.786,272.872 363.900 C 272.952 363.335,273.321 362.954,273.862 362.877 C 274.387 362.802,274.821 362.372,274.970 361.777 C 275.121 361.176,275.504 360.800,275.964 360.800 C 276.430 360.800,276.808 360.421,276.964 359.800 C 277.120 359.179,277.499 358.800,277.964 358.800 C 278.430 358.800,278.808 358.421,278.964 357.800 C 279.120 357.179,279.499 356.800,279.964 356.800 C 280.430 356.800,280.808 356.421,280.964 355.800 C 281.120 355.179,281.499 354.800,281.964 354.800 C 282.430 354.800,282.808 354.421,282.964 353.800 C 283.120 353.179,283.499 352.800,283.964 352.800 C 284.430 352.800,284.808 352.421,284.964 351.800 C 285.120 351.179,285.499 350.800,285.964 350.800 C 286.430 350.800,286.808 350.421,286.964 349.800 C 287.120 349.179,287.499 348.800,287.964 348.800 C 288.430 348.800,288.808 348.421,288.964 347.800 C 289.120 347.179,289.499 346.800,289.964 346.800 C 290.430 346.800,290.808 346.421,290.964 345.800 C 291.120 345.179,291.499 344.800,291.964 344.800 C 292.430 344.800,292.808 344.421,292.964 343.800 C 293.120 343.179,293.499 342.800,293.964 342.800 C 294.430 342.800,294.808 342.421,294.964 341.800 C 295.120 341.179,295.499 340.800,295.964 340.800 C 296.430 340.800,296.808 340.421,296.964 339.800 C 297.120 339.179,297.499 338.800,297.964 338.800 C 298.430 338.800,298.808 338.421,298.964 337.800 C 299.120 337.179,299.499 336.800,299.964 336.800 C 300.430 336.800,300.808 336.421,300.964 335.800 C 301.120 335.179,301.499 334.800,301.964 334.800 C 302.420 334.800,302.807 334.427,302.952 333.848 C 303.084 333.324,303.553 332.801,303.996 332.685 C 305.224 332.364,305.228 323.660,304.000 322.893 C 303.560 322.618,303.200 322.125,303.200 321.797 C 303.200 321.431,302.823 321.200,302.228 321.200 C 301.524 321.200,301.220 320.951,301.128 320.300 C 300.919 318.829,293.900 318.710,292.761 320.159 C 292.333 320.703,291.491 321.205,290.891 321.274 C 290.231 321.350,289.648 321.746,289.416 322.275 C 289.204 322.757,288.696 323.238,288.286 323.346 C 287.876 323.453,287.447 323.897,287.333 324.333 C 287.219 324.769,286.769 325.219,286.333 325.333 C 285.897 325.447,285.447 325.897,285.333 326.333 C 285.219 326.769,284.769 327.219,284.333 327.333 C 283.897 327.447,283.447 327.897,283.333 328.333 C 283.219 328.769,282.769 329.219,282.333 329.333 C 281.897 329.447,281.447 329.897,281.333 330.333 C 281.219 330.769,280.769 331.219,280.333 331.333 C 279.897 331.447,279.447 331.897,279.333 332.333 C 279.219 332.769,278.769 333.219,278.333 333.333 C 277.897 333.447,277.455 333.869,277.350 334.270 C 277.245 334.672,276.718 335.208,276.179 335.462 L 275.200 335.925 275.200 302.808 L 275.200 269.692 274.249 269.069 C 273.726 268.726,273.172 267.942,273.017 267.325 C 272.502 265.273,272.279 265.200,266.551 265.200 L 261.200 265.200 261.200 266.200 " stroke="none" fill="#040404" fill-rule="evenodd"></path><path id="path1" d="" stroke="none" fill="#080404" fill-rule="evenodd"></path><path id="path2" d="" stroke="none" fill="#080404" fill-rule="evenodd"></path><path id="path3" d="" stroke="none" fill="#080404" fill-rule="evenodd"></path><path id="path4" d="" stroke="none" fill="#080404" fill-rule="evenodd"></path></g></svg>