<?xml version="1.0" standalone="no"?>
<!DOCTYPE svg PUBLIC "-//W3C//DTD SVG 20010904//EN"
 "http://www.w3.org/TR/2001/REC-SVG-20010904/DTD/svg10.dtd">
<svg version="1.0" xmlns="http://www.w3.org/2000/svg"
 width="334.000000pt" height="258.000000pt" viewBox="0 0 334.000000 258.000000"
 preserveAspectRatio="xMidYMid meet">

<g transform="translate(0.000000,258.000000) scale(0.100000,-0.100000)"
fill="#000000" stroke="none">
<path d="M1116 2559 c-548 -76 -976 -480 -1093 -1029 -24 -118 -24 -372 0
-490 58 -271 186 -503 381 -687 178 -169 386 -277 636 -330 118 -24 372 -24
490 0 375 80 671 292 873 628 10 18 28 29 51 33 23 4 36 13 36 23 0 11 -6 14
-26 9 -23 -6 -25 -4 -19 11 4 10 24 62 44 115 l36 98 48 0 c35 0 47 4 47 15 0
11 -12 15 -46 15 -36 0 -45 3 -41 14 35 92 43 407 14 546 -58 271 -186 503
-381 687 -177 168 -388 278 -631 328 -96 20 -323 28 -419 14z m434 -58 c47
-11 119 -32 160 -46 339 -123 622 -406 745 -745 30 -83 64 -229 65 -273 l0
-29 -35 22 c-31 19 -55 20 -55 2 0 -4 23 -20 51 -36 l52 -29 -6 -131 c-17
-329 -138 -606 -368 -834 -171 -171 -385 -285 -629 -338 -118 -25 -372 -25
-490 0 -247 53 -459 168 -633 343 -175 174 -290 386 -343 633 -25 118 -25 372
0 490 22 100 67 232 106 311 115 227 332 444 559 559 112 56 282 106 421 124
77 10 317 -4 400 -23z"/>
<path d="M1655 1933 c-11 -10 -15 -26 -12 -42 3 -14 1 -33 -4 -43 -12 -22 10
-37 25 -16 22 29 47 29 96 -1 44 -27 60 -30 60 -10 0 5 -20 20 -45 35 -27 16
-45 33 -45 44 0 22 -26 50 -45 50 -7 0 -21 -7 -30 -17z"/>
<path d="M1895 1770 c-9 -15 -2 -22 49 -50 45 -24 73 -22 45 4 -31 28 -88 56
-94 46z"/>
<path d="M1556 1704 c-29 -52 -32 -64 -13 -64 14 0 69 94 60 104 -13 13 -22 5
-47 -40z"/>
<path d="M2075 1660 c-8 -13 -11 -10 42 -44 47 -29 63 -32 63 -13 0 18 -97 70
-105 57z"/>
<path d="M1448 1520 c-32 -58 -33 -60 -14 -60 17 0 69 86 61 100 -11 18 -20
11 -47 -40z"/>
<path d="M2255 1549 c-8 -12 -11 -10 46 -43 52 -29 59 -31 59 -13 0 6 -20 24
-45 40 -52 31 -52 31 -60 16z"/>
<path d="M1349 1351 c-16 -30 -26 -37 -43 -34 -26 5 -56 -20 -56 -47 0 -10 -7
-20 -15 -24 -8 -3 -15 -12 -15 -20 0 -11 7 -13 28 -7 38 11 50 5 72 -39 22
-42 35 -54 50 -45 6 3 0 22 -15 44 -27 44 -24 64 20 153 20 37 21 47 10 52 -9
3 -22 -9 -36 -33z"/>
<path d="M1058 1194 c-33 -10 -46 -19 -42 -28 5 -13 12 -13 52 0 26 7 50 14
55 14 4 0 7 7 7 15 0 18 -11 18 -72 -1z"/>
<path d="M858 1134 c-33 -10 -46 -19 -42 -28 5 -13 12 -13 52 0 26 7 50 14 55
14 4 0 7 7 7 15 0 18 -11 18 -72 -1z"/>
<path d="M675 1079 c-16 -5 -46 -7 -66 -3 -57 9 -92 -42 -54 -80 12 -11 31
-14 88 -10 85 7 100 10 92 24 -3 5 -26 10 -51 10 -57 0 -56 14 1 30 25 7 45
19 45 26 0 16 -12 16 -55 3z"/>
<path d="M1407 1054 c-9 -10 46 -104 61 -104 6 0 12 5 12 11 0 8 15 10 45 7
32 -4 45 -2 45 7 0 17 -23 25 -71 25 -33 0 -41 4 -54 30 -15 30 -26 36 -38 24z"/>
<path d="M827 1004 c-15 -15 7 -24 58 -24 38 0 54 4 59 15 4 12 -5 15 -53 15
-32 0 -61 -3 -64 -6z"/>
<path d="M1037 1003 c-17 -17 -2 -23 53 -23 47 0 60 3 60 15 0 11 -13 15 -53
15 -30 0 -57 -3 -60 -7z"/>
<path d="M1242 988 c3 -8 27 -14 61 -16 46 -2 57 0 57 13 0 12 -13 15 -61 15
-44 0 -60 -3 -57 -12z"/>
<path d="M1662 978 c3 -8 27 -14 61 -16 46 -2 57 0 57 13 0 12 -13 15 -61 15
-44 0 -60 -3 -57 -12z"/>
<path d="M1875 980 c-10 -16 -7 -17 58 -25 49 -6 57 -5 57 9 0 9 -8 16 -17 16
-10 0 -34 3 -54 6 -23 4 -39 2 -44 -6z"/>
<path d="M2080 965 c0 -12 13 -15 60 -15 47 0 60 3 60 15 0 12 -13 15 -60 15
-47 0 -60 -3 -60 -15z"/>
<path d="M2292 958 c3 -8 27 -14 61 -16 46 -2 57 0 57 13 0 12 -13 15 -61 15
-44 0 -60 -3 -57 -12z"/>
<path d="M1515 870 c-8 -14 44 -100 61 -100 19 0 18 5 -13 61 -28 50 -37 57
-48 39z"/>
<path d="M1625 690 c-11 -17 48 -110 64 -101 10 6 5 20 -19 60 -34 55 -36 56
-45 41z"/>
<path d="M2213 657 c-25 -5 -43 -16 -43 -23 0 -17 5 -17 69 -2 30 7 51 17 51
25 0 15 -17 15 -77 0z"/>
<path d="M2013 608 c-26 -5 -43 -15 -43 -24 0 -17 5 -17 69 -2 29 6 50 16 48
22 -5 15 -24 16 -74 4z"/>
<path d="M1696 564 c-9 -8 -16 -22 -16 -29 0 -18 28 -45 47 -45 9 0 30 9 47
19 17 11 48 22 69 26 21 4 37 13 37 21 0 17 -13 17 -63 3 -30 -8 -40 -7 -53 5
-20 20 -48 20 -68 0z"/>
<path d="M2615 1330 c-7 -11 85 -71 97 -64 17 10 7 24 -35 49 -49 28 -53 29
-62 15z"/>
<path d="M2797 1233 c-14 -13 -6 -22 43 -52 31 -19 52 -26 56 -20 3 6 0 17 -7
23 -26 24 -86 56 -92 49z"/>
<path d="M2976 1123 c-12 -13 -5 -22 38 -47 49 -29 66 -32 66 -13 0 14 -94 69
-104 60z"/>
<path d="M3155 1009 c-8 -12 -9 -11 35 -38 l35 -21 -48 0 c-71 0 -56 -24 19
-30 55 -5 57 -9 12 -24 -22 -7 -24 -26 -2 -26 25 0 108 22 122 33 17 13 15 52
-3 67 -9 7 -27 10 -45 6 -23 -4 -41 1 -70 19 -45 28 -46 29 -55 14z"/>
<path d="M2712 948 c3 -8 27 -14 61 -16 46 -2 57 0 57 13 0 12 -13 15 -61 15
-44 0 -60 -3 -57 -12z"/>
<path d="M2927 953 c-17 -17 -2 -23 53 -23 47 0 60 3 60 15 0 11 -13 15 -53
15 -30 0 -57 -3 -60 -7z"/>
<path d="M3033 857 c-25 -5 -43 -16 -43 -23 0 -17 5 -17 70 -3 31 6 49 16 47
22 -5 16 -23 17 -74 4z"/>
<path d="M2840 809 c-61 -17 -64 -19 -52 -31 15 -15 112 9 112 28 0 16 -10 16
-60 3z"/>
<path d="M2623 757 c-25 -5 -43 -16 -43 -23 0 -17 5 -17 70 -3 31 7 50 16 50
25 0 16 -16 16 -77 1z"/>
</g>
</svg>
