<?xml version="1.0" standalone="no"?>
<!DOCTYPE svg PUBLIC "-//W3C//DTD SVG 20010904//EN"
 "http://www.w3.org/TR/2001/REC-SVG-20010904/DTD/svg10.dtd">
<svg version="1.0" xmlns="http://www.w3.org/2000/svg"
 width="197.000000pt" height="125.000000pt" viewBox="0 0 197.000000 125.000000"
 preserveAspectRatio="xMidYMid meet">
<metadata>
Created by potrace 1.16, written by Peter Selinger 2001-2019
</metadata>
<g transform="translate(0.000000,125.000000) scale(0.100000,-0.100000)"
fill="#000000" stroke="none">
<path d="M380 869 c-35 -14 -88 -67 -113 -114 -18 -33 -22 -57 -22 -135 0
-115 24 -174 89 -222 22 -16 39 -32 36 -36 -9 -12 62 -31 115 -31 101 -1 172
59 183 155 4 36 2 44 -12 44 -9 0 -16 5 -16 11 0 6 -10 9 -22 7 -18 -2 -24
-12 -30 -48 -9 -53 -48 -97 -97 -106 -25 -5 -32 -4 -27 5 4 6 0 14 -8 17 -9 3
-28 31 -43 62 -24 50 -28 69 -28 147 0 104 15 156 52 180 23 15 31 16 66 4 30
-10 43 -21 54 -48 15 -36 36 -61 51 -61 5 0 25 32 45 70 25 49 32 70 22 70 -8
0 -19 -8 -24 -17 -14 -24 -14 -7 0 19 11 20 9 21 -20 15 -17 -4 -48 0 -72 8
-47 17 -141 19 -179 4z"/>
<path d="M844 856 c-46 -20 -101 -90 -114 -148 -7 -28 -10 -81 -8 -118 11
-145 105 -229 244 -218 34 3 68 14 96 32 l43 27 -33 -29 c-48 -42 -109 -58
-168 -43 -54 14 -70 8 -23 -8 70 -24 171 -7 216 38 88 88 113 222 67 354 -20
58 -61 107 -87 107 -19 -1 -20 -2 -6 -10 9 -5 24 -22 34 -37 16 -25 14 -24
-16 6 -19 19 -48 40 -66 47 -41 18 -139 17 -179 0z m151 -60 c41 -17 50 -49
50 -176 0 -126 -33 -199 -95 -214 -21 -5 -29 0 -48 27 -32 48 -42 90 -42 175
0 96 16 157 48 182 29 24 42 25 87 6z"/>
<path d="M1263 842 c25 -26 27 -35 27 -108 l0 -80 -34 -12 c-39 -14 -56 -42
-26 -42 10 0 22 5 25 10 8 12 35 13 35 1 0 -5 -13 -11 -30 -14 -16 -4 -30 -11
-30 -17 0 -13 27 -13 35 0 16 26 25 3 25 -67 0 -76 -1 -79 -32 -105 l-33 -27
96 -1 c72 0 100 -4 109 -15 10 -12 -2 -15 -92 -18 l-103 -3 123 -2 c67 -1 122
0 122 2 0 2 -13 20 -30 41 -28 35 -30 44 -30 121 l0 84 34 0 c18 0 39 -7 46
-15 7 -8 19 -15 26 -15 8 0 14 -5 14 -11 0 -6 5 -9 12 -7 7 3 13 32 15 75 3
55 0 74 -12 87 -25 24 -41 20 -71 -19 -14 -19 -35 -35 -45 -35 -17 0 -19 8
-19 81 l0 82 50 -5 c56 -6 120 -43 120 -70 0 -10 7 -18 15 -18 8 0 15 6 15 13
0 8 14 33 30 55 34 48 36 52 15 52 -8 0 -22 -11 -31 -25 -25 -39 -29 -21 -4
19 l22 36 -208 0 -208 0 27 -28z"/>
</g>
</svg>
