<?xml version="1.0" standalone="no"?>
<!DOCTYPE svg PUBLIC "-//W3C//DTD SVG 20010904//EN"
 "http://www.w3.org/TR/2001/REC-SVG-20010904/DTD/svg10.dtd">
<svg version="1.0" xmlns="http://www.w3.org/2000/svg"
 width="1001.000000pt" height="1001.000000pt" viewBox="0 0 1001.000000 1001.000000"
 preserveAspectRatio="xMidYMid meet">
<metadata>
Created by potrace 1.16, written by Peter Selinger 2001-2019
</metadata>
<g transform="translate(0.000000,1001.000000) scale(0.100000,-0.100000)"
fill="#000000" stroke="none">
<path d="M3995 7287 c-93 -31 -158 -87 -203 -172 -23 -43 -27 -63 -27 -136 0
-69 4 -95 24 -136 l24 -51 -208 -265 -207 -265 -77 5 c-62 4 -86 1 -132 -16
-78 -30 -141 -88 -180 -166 -29 -59 -31 -70 -28 -147 3 -62 10 -94 27 -128 32
-61 87 -117 145 -146 l47 -24 0 -630 0 -630 -47 -24 c-58 -29 -113 -85 -145
-146 -17 -34 -24 -66 -27 -128 -3 -77 -1 -88 28 -147 61 -124 174 -191 309
-182 l72 4 198 -251 c108 -137 203 -258 210 -268 11 -15 9 -24 -10 -60 -19
-36 -23 -58 -23 -133 0 -78 4 -97 27 -140 103 -195 345 -241 509 -97 59 51 92
124 97 213 3 54 0 91 -11 122 l-15 45 259 290 259 290 37 -10 c32 -9 114 -7
173 4 10 2 113 -105 267 -276 l251 -278 -20 -57 c-27 -75 -22 -177 11 -245 97
-198 363 -244 518 -89 86 86 115 217 75 336 l-19 57 213 274 213 273 73 -4
c133 -9 247 57 307 179 62 123 33 280 -70 373 -24 22 -63 49 -86 59 l-43 19 0
627 0 626 42 19 c58 25 129 94 158 152 19 36 26 68 28 131 4 77 2 88 -27 147
-61 124 -172 190 -311 183 l-74 -3 -212 271 -212 272 20 58 c40 120 11 251
-75 337 -124 124 -330 124 -454 0 -86 -86 -116 -219 -75 -335 l20 -57 -250
-278 c-226 -250 -254 -278 -277 -273 -40 7 -153 6 -182 -2 -23 -7 -42 11 -250
245 -124 138 -240 268 -257 288 l-32 36 16 48 c12 33 15 69 12 124 -7 127 -68
215 -186 269 -65 29 -160 38 -217 19z m163 -187 c42 -26 76 -99 68 -144 -20
-105 -134 -160 -216 -103 -52 35 -72 68 -72 120 0 116 123 186 220 127z m1820
0 c42 -26 76 -99 68 -144 -25 -131 -197 -172 -265 -62 -32 52 -35 95 -9 145
40 77 135 104 206 61z m-1478 -685 c118 -132 219 -247 226 -255 11 -13 9 -25
-14 -70 -34 -68 -42 -172 -18 -240 12 -36 13 -47 2 -60 -101 -120 -573 -635
-582 -635 -6 0 -100 99 -209 220 -109 121 -231 256 -271 301 l-73 80 25 51
c47 94 42 230 -12 309 -13 19 -24 39 -24 45 0 9 256 342 362 471 36 44 41 46
66 36 48 -19 172 -14 222 9 l45 21 21 -22 c12 -11 117 -129 234 -261z m1325
248 c56 -16 136 -11 191 12 l34 14 49 -62 c361 -459 361 -460 345 -482 -62
-83 -79 -203 -44 -300 12 -33 22 -67 23 -77 1 -9 -121 -154 -272 -323 -222
-249 -276 -304 -286 -293 -7 7 -128 144 -270 303 -142 160 -269 302 -282 316
-24 26 -24 27 -7 78 24 74 16 171 -19 243 l-28 57 243 271 c173 192 247 268
258 264 8 -4 38 -13 65 -21z m-2453 -590 c107 -54 85 -229 -34 -265 -106 -31
-213 80 -179 185 30 89 125 125 213 80z m1700 1 c86 -44 98 -167 23 -233 -133
-116 -321 63 -207 198 47 56 116 69 184 35z m1678 11 c36 -10 78 -53 91 -92
32 -98 -64 -208 -166 -189 -66 13 -116 74 -117 145 0 40 20 89 46 110 22 18
88 41 106 36 8 -2 26 -7 40 -10z m-1875 -432 l35 -17 0 -626 0 -627 -40 -18
c-24 -11 -44 -15 -49 -9 -4 5 -136 151 -291 324 -156 173 -288 318 -293 322
-6 3 35 55 90 115 55 59 114 124 131 143 16 19 48 55 71 80 23 25 99 109 169
187 70 78 130 142 134 143 4 0 23 -8 43 -17z m590 -318 l294 -329 -32 -36
c-18 -20 -57 -64 -87 -100 -30 -35 -66 -75 -80 -89 -13 -14 -101 -111 -194
-216 -93 -104 -175 -196 -182 -204 -10 -12 -19 -11 -58 5 l-46 19 0 625 0 625
38 16 c20 10 41 16 45 15 5 -1 140 -150 302 -331z m-1890 145 c82 -91 192
-212 245 -270 147 -159 170 -186 170 -200 0 -7 -23 -38 -52 -69 -48 -53 -494
-547 -508 -564 -4 -4 -19 -3 -33 2 l-27 11 0 620 0 621 23 9 c12 5 25 8 28 7
4 -1 73 -76 154 -167z m3036 160 c5 0 9 -254 9 -629 l0 -629 -26 -6 c-22 -6
-32 1 -72 45 -26 29 -154 172 -284 318 -231 258 -236 265 -220 286 9 11 138
157 287 323 168 188 275 300 283 297 8 -3 18 -5 23 -5z m-2444 -822 c54 -57
82 -88 330 -364 237 -265 215 -233 197 -285 -24 -68 -15 -170 20 -242 28 -58
28 -58 9 -80 -15 -17 -430 -483 -463 -520 -3 -4 -26 1 -51 12 -78 34 -170 37
-250 6 -12 -4 -67 59 -218 250 l-202 257 30 44 c59 89 66 219 18 316 l-26 51
87 97 c307 344 458 509 463 510 3 0 29 -24 56 -52z m1988 -254 c149 -167 269
-310 268 -316 -1 -7 -12 -40 -24 -73 -34 -97 -16 -217 46 -301 15 -20 8 -30
-136 -215 -84 -107 -176 -224 -205 -261 l-54 -67 -34 14 c-57 24 -135 28 -196
10 -30 -9 -60 -17 -66 -18 -7 -1 -121 118 -254 266 l-241 267 28 58 c34 70 43
174 19 241 -14 42 -14 46 7 71 49 61 562 630 567 629 3 0 127 -137 275 -305z
m-2779 -369 c62 -40 83 -138 44 -202 -62 -102 -223 -81 -261 34 -31 95 55 200
154 189 21 -2 49 -12 63 -21z m1703 -2 c46 -35 65 -70 65 -121 0 -156 -202
-200 -272 -60 -28 56 -23 104 16 150 50 59 134 73 191 31z m1674 13 c131 -54
120 -238 -15 -274 -104 -28 -205 71 -177 172 25 91 111 136 192 102z m-2606
-1033 c69 -32 97 -113 65 -187 -64 -144 -274 -98 -274 61 0 105 112 173 209
126z m1820 0 c69 -32 97 -113 65 -187 -51 -113 -203 -117 -260 -6 -64 126 66
255 195 193z"/>
</g>
</svg>
