<?xml version="1.0" standalone="no"?>
<!DOCTYPE svg PUBLIC "-//W3C//DTD SVG 20010904//EN"
 "http://www.w3.org/TR/2001/REC-SVG-20010904/DTD/svg10.dtd">
<svg version="1.0" xmlns="http://www.w3.org/2000/svg"
 width="230.000000pt" height="174.000000pt" viewBox="0 0 230.000000 174.000000"
 preserveAspectRatio="xMidYMid meet">

<g transform="translate(0.000000,174.000000) scale(0.100000,-0.100000)"
fill="#000000" stroke="none">
<path d="M615 1718 c-3 -7 -4 -393 -3 -858 l3 -845 225 0 225 0 0 855 0 855
-223 3 c-173 2 -224 0 -227 -10z"/>
<path d="M1225 1498 c-3 -7 -4 -344 -3 -748 l3 -735 225 0 225 0 0 745 0 745
-223 3 c-173 2 -224 0 -227 -10z"/>
<path d="M5 1268 c-3 -7 -4 -292 -3 -633 l3 -620 225 0 225 0 0 630 0 630
-223 3 c-173 2 -224 0 -227 -10z"/>
<path d="M1888 1116 l-48 -54 57 -51 57 -51 -57 -52 -57 -53 50 -54 50 -55 38
35 c20 19 48 44 62 56 l26 22 62 -56 63 -56 49 54 50 54 -57 53 -56 52 56 53
57 52 -50 54 -49 54 -62 -56 -63 -56 -46 39 c-26 22 -53 46 -60 55 -7 8 -15
15 -19 15 -3 0 -27 -25 -53 -54z"/>
<path d="M1835 568 c-3 -8 -4 -135 -3 -283 l3 -270 225 0 225 0 0 280 0 280
-223 3 c-174 2 -224 0 -227 -10z"/>
</g>
</svg>
