<?xml version="1.0" standalone="no"?>
<!DOCTYPE svg PUBLIC "-//W3C//DTD SVG 20010904//EN"
 "http://www.w3.org/TR/2001/REC-SVG-20010904/DTD/svg10.dtd">
<svg version="1.0" xmlns="http://www.w3.org/2000/svg"
 width="399.000000pt" height="413.000000pt" viewBox="0 0 399.000000 413.000000"
 preserveAspectRatio="xMidYMid meet">

<g transform="translate(0.000000,413.000000) scale(0.100000,-0.100000)"
fill="#000000" stroke="none">
<path d="M2403 3430 c-191 -41 -275 -239 -160 -375 36 -44 113 -78 257 -115
69 -17 143 -40 166 -50 114 -49 112 -190 -4 -243 -36 -16 -67 -21 -132 -22
-74 0 -93 4 -143 29 -64 31 -90 63 -110 134 -11 41 -13 43 -41 38 -15 -3 -41
-6 -56 -6 -27 0 -27 0 -19 -47 22 -115 96 -199 207 -233 79 -25 225 -27 299
-5 102 30 174 107 194 206 28 135 -58 242 -232 288 -44 12 -115 31 -159 42
-135 36 -184 84 -161 160 16 54 63 87 139 97 147 20 250 -29 271 -129 4 -19
12 -34 19 -33 7 1 32 2 57 3 53 1 56 11 24 95 -24 66 -87 127 -157 151 -56 19
-200 28 -259 15z"/>
<path d="M850 2980 l0 -450 280 0 280 0 0 55 0 55 -220 0 -220 0 0 395 0 395
-60 0 -60 0 0 -450z"/>
<path d="M790 1875 l0 -55 145 0 145 0 0 -395 0 -395 60 0 60 0 0 395 0 395
151 0 150 0 -3 53 -3 52 -352 3 -353 2 0 -55z"/>
<path d="M2280 1480 l0 -450 60 0 60 0 2 367 3 367 125 -367 125 -367 55 0 55
0 125 362 125 361 3 -361 2 -362 60 0 60 0 0 450 0 451 -81 -3 -82 -3 -128
-374 c-71 -206 -130 -376 -133 -378 -2 -2 -60 166 -129 374 l-126 378 -91 3
-90 3 0 -451z"/>
</g>
</svg>
