<?xml version="1.0" standalone="no"?>
<!DOCTYPE svg PUBLIC "-//W3C//DTD SVG 20010904//EN"
 "http://www.w3.org/TR/2001/REC-SVG-20010904/DTD/svg10.dtd">
<svg version="1.0" xmlns="http://www.w3.org/2000/svg"
 width="436.000000pt" height="436.000000pt" viewBox="0 0 436.000000 436.000000"
 preserveAspectRatio="xMidYMid meet">
<metadata>
Created by potrace 1.16, written by Peter Selinger 2001-2019
</metadata>
<g transform="translate(0.000000,436.000000) scale(0.100000,-0.100000)"
fill="#000000" stroke="none">
<path d="M325 2848 c-3 -7 -4 -344 -3 -748 l3 -735 145 0 c130 0 145 2 148 18
3 15 -6 17 -92 17 l-96 0 0 710 0 710 95 0 c88 0 95 1 95 20 0 19 -7 20 -145
20 -107 0 -147 -3 -150 -12z"/>
<path d="M3710 2840 c0 -19 7 -20 95 -20 l95 0 0 -710 0 -710 -95 0 c-88 0
-95 -1 -95 -20 0 -19 7 -20 150 -20 l150 0 0 750 0 750 -150 0 c-143 0 -150
-1 -150 -20z"/>
<path d="M760 2706 c0 -8 32 -29 71 -47 l72 -33 -7 -126 c-3 -69 -10 -267 -16
-440 -6 -173 -13 -325 -16 -337 -3 -15 -25 -33 -66 -55 -102 -54 -94 -58 116
-58 214 0 224 5 119 60 -36 19 -66 38 -66 43 0 4 3 148 7 320 7 342 14 473 26
460 4 -4 92 -205 195 -445 l188 -438 36 0 36 0 170 393 c93 215 183 421 199
457 l31 65 6 -185 c4 -102 7 -287 8 -412 l1 -227 -60 -33 c-97 -53 -86 -58
130 -58 217 0 228 5 133 61 l-58 34 -12 340 c-6 187 -12 394 -12 460 l-1 120
67 35 c104 55 98 60 -74 60 l-148 0 -190 -445 c-153 -358 -192 -441 -201 -429
-7 8 -94 208 -195 444 l-184 430 -152 0 c-126 0 -153 -3 -153 -14z"/>
<path d="M2762 2708 c3 -7 32 -27 66 -46 l62 -34 0 -464 0 -464 -65 -32 c-107
-53 -94 -58 150 -58 247 0 261 6 140 59 l-75 33 2 197 3 196 130 7 c180 9 285
47 376 138 73 73 95 163 63 269 -30 102 -115 165 -263 197 -88 18 -595 20
-589 2z m578 -101 c111 -49 160 -166 114 -275 -42 -101 -127 -142 -299 -142
l-115 0 0 221 0 221 133 -4 c89 -4 143 -10 167 -21z"/>
</g>
</svg>
