<?xml version="1.0" standalone="no"?>
<!DOCTYPE svg PUBLIC "-//W3C//DTD SVG 20010904//EN"
 "http://www.w3.org/TR/2001/REC-SVG-20010904/DTD/svg10.dtd">
<svg version="1.0" xmlns="http://www.w3.org/2000/svg"
 width="397.000000pt" height="374.000000pt" viewBox="0 0 397.000000 374.000000"
 preserveAspectRatio="xMidYMid meet">
<metadata>
Created by potrace 1.16, written by Peter Selinger 2001-2019
</metadata>
<g transform="translate(0.000000,374.000000) scale(0.100000,-0.100000)"
fill="#000000" stroke="none">
<path d="M2149 3063 c0 -93 0 -256 0 -363 0 -150 -2 -190 -11 -172 -6 12 -15
22 -21 22 -5 0 0 -16 12 -35 20 -35 21 -45 21 -697 0 -615 -2 -662 -18 -675
-16 -12 -16 -13 1 -7 13 5 17 1 17 -20 l0 -26 -447 0 -448 0 300 300 c205 205
305 299 317 297 11 -3 18 3 23 20 3 14 4 27 3 29 -9 8 -48 -10 -44 -20 2 -6
-294 -310 -658 -676 -363 -366 -501 -506 -306 -312 l355 352 448 0 c246 0 447
-3 447 -8 0 -4 -156 -164 -348 -355 l-347 -347 -455 2 -455 3 -3 1369 c-1
1055 1 1371 10 1377 9 6 9 14 -1 36 l-13 28 -15 -30 c-11 -20 -12 -30 -4 -33
8 -3 11 -359 11 -1378 l0 -1374 -32 -1 -33 -1 30 -7 c23 -5 31 -13 36 -36 l7
-30 1 33 1 32 1464 0 c1155 0 1465 -3 1468 -12 4 -10 11 -10 34 1 l29 13 -30
15 c-20 11 -30 12 -33 4 -3 -8 -265 -11 -1005 -11 l-1002 0 329 329 c260 260
333 328 350 325 19 -4 19 -4 2 4 -18 8 -17 10 8 29 16 13 26 31 26 48 0 18 4
24 13 19 9 -6 9 -5 0 7 -10 12 -13 205 -13 870 0 470 0 938 0 1042 0 118 -4
187 -10 187 -6 0 -10 -63 -11 -167z"/>
</g>
</svg>
